M48
;Layer_Color=9474304
;FILE_FORMAT=4:2
METRIC,TZ
;TYPE=PLATED
T1F00S00C0.30
T4F00S00C0.76
T5F00S00C0.80
T6F00S00C1.00
T7F00S00C1.02
T8F00S00C2.20
T9F00S00C2.50
;TYPE=NON_PLATED
T11F00S00C0.60
T12F00S00C2.50
%
T01
X300Y700
X250Y1010
X251Y1333
X400Y1300
X500Y1100
X900
X1100
X1000Y1300
X1400Y500
X600
X1600
X1700Y700
X2056Y968
X2170Y982
X2000Y1300
X1800
X1705Y1445
X2790Y1455
X3038Y1467
X3033Y1150
Y1090
X2985Y977
X2673Y940
X2600Y500
X2500Y300
X2300
X3300
X3500
X3438Y930
X3717Y965
X3776Y1158
X3800Y1300
X3997Y1030
X4292
X4622
X4953Y1031
X5122Y1030
X5390
X5400Y500
X5300Y300
X5100
X4300
X4400Y500
X5500Y700
X5672Y1030
X5883
X6167
X6355
X6497Y1018
X6500Y1100
X6508Y1234
X6600Y1300
X6540Y1364
X6570Y1440
X6638Y1388
X6733Y1293
X6658Y1202
X6628Y1030
X6938
X7180Y1035
X7390Y1030
X7650
X7888
X7886Y1118
X8090Y1030
X8310
X8530Y1027
X9000Y900
X9200
X9400
X9300Y1100
X9100
X9200Y1300
X9400
X9000
X9100Y700
X9300
X9400Y500
X9200
X9000
X8900Y300
X8100
X7900
X8200Y500
X7300Y300
X7100
X6300
X6100
X6400Y500
X9500Y700
X9700
X9800Y900
X9600
X9700Y1100
X9500
X9600Y1300
X9800
X9700Y1500
X9500
X9600Y1700
X9800
X9700Y1900
X9500
X9600Y2100
X9800
X9700Y2300
X9500
X9600Y2500
X9800
X9700Y2700
X9500
X9600Y2900
X9800
X9700Y3100
X9500
X9600Y3300
X9800
X9700Y3500
X9500
X9600Y3700
X9800
X9700Y3900
X9500
X9600Y4100
X9800
X9700Y4300
X9500
X9600Y4500
X9800
X9700Y4700
X9500
X9600Y4900
X9800
X9700Y5100
X9500
X9600Y5300
X9800
X9400
X9200
X9000
X8800
X8600
X8400
X8200
X8000
X8100Y5100
X8300
X8500
X8700
X8900
X9100
X9300
X9400Y4900
X9200
X9000
X8800
X8600
X8400
X8200
X8000
X8100Y4700
X8300
X8500
X8700
X8900
X9100
X9300
X9400Y4500
X9200
X9000
X8905Y4385
X8840Y4262
X8768
X8768Y4330
X8800Y4100
X9000
X9200
X9400
X9300Y4300
X9100
Y3900
X9300
X9400Y3700
X9200
X9000
X8800
X8900Y3900
X8700
X8400Y4100
X8300Y4300
X8143Y4383
X8200Y4500
X8522Y4380
X7900Y4300
X7700
X7513Y4378
X7300Y4300
X7100
X6912Y4310
X6910Y4142
X6800Y4100
X6600
X6400
X6200
X6000
X5800
X5600
X5506Y4001
X5506Y4213
X5500Y4300
X5600Y4500
X5745Y4412
X5900Y4300
X6100
X6300
X6500
X6700
X6800Y4500
X7000
X7100Y4700
X7300
X7500
X7700
X7776Y4682
X7900Y4700
Y5100
X7700
X7500
X7338Y5062
X7400Y4900
X7600
X7200
X7000
X7038Y5058
X6900Y5100
X6700
X6500
X6435Y5062
X6400Y4900
X6600
X6800
X6900Y4700
X6700
X6500
X6300
X6200Y4900
X6000
X5952Y4800
X5894Y4613
X6000Y4500
X6200
X6600
X6700Y3900
X6900
X6857Y3653
X7012Y3642
X7070Y3695
X7476Y3706
X7500Y3500
X7427Y3445
X7380Y3300
X7510Y3240
X7560Y3190
X7600Y3300
X7662Y3315
X7800Y3300
X7854Y3517
X7991Y3666
X8200Y3700
X8161Y3508
X8300Y3500
X8241Y3249
X8300Y3100
X8246Y2952
X8312Y2870
X8257Y2810
X8093Y3117
X7655Y3010
X7485Y2842
X7572Y2519
X7530Y2473
X7400Y2465
X7305Y2558
X7200Y2500
X7210Y2645
X7097Y2760
X7091Y2880
X7000Y2900
X6840Y2935
X6865Y3085
X6757Y3090
X6697Y3175
X6500Y3253
X6403Y3158
X6325Y3080
X6233Y2995
X6228Y2870
X6320Y2788
X6300Y2700
X6222Y2667
X6205Y2530
X6375Y2445
X6507Y2433
X6600Y2500
X6800
X7000
X7100Y2300
X7300
X6900
X6700
X6800Y2100
X7000
X6900Y1900
X6843Y1788
X6712Y1787
X6700Y1900
X6707Y1625
X6579Y1586
X6635Y1498
X6503Y1475
X6970Y1577
X6600Y2100
X6358Y2139
X6300Y2202
X6280Y2345
X6415Y2640
X6410Y2755
X6453Y2805
X6560Y2662
X6700Y2700
X6900
X6935Y3255
X6897Y3420
X6857Y3469
X6255Y3365
X6180Y3370
X6175Y3303
X6128Y2758
X5983Y2745
X5938Y2685
X5790Y2613
X5792Y2885
X5708Y2823
X5500Y2300
X6172Y1955
X7468Y2065
X7900Y1900
Y2300
X7840Y2358
X7822Y2433
X7655Y2600
X7689Y3825
X7813Y3821
X7200Y4100
X6500Y3900
X6300
X6100
X5900
X5506Y3773
X5500Y4700
Y5100
X5700
X5900
X6110Y5062
X6200Y5300
X6400
X6600
X6800
X7000
X7200
X7400
X7475Y5300
X7620Y5297
X7372Y5380
X6000Y5300
X5800
X5600
X5800Y4900
X9100Y3500
X9300
X9400Y3300
X9200
X9000
X9100Y3100
X9300
X9400Y2900
X9200
X9000
X9100Y2700
X9300
X9400Y2500
X9200
X9000
X9100Y2300
X9300
X9400Y2100
X9200
X9000
X9100Y1900
X9300
X9400Y1700
X9200
X9000
X9100Y1500
X9300
X7900
X4100
X4200Y1700
X4100Y1900
X3968Y1901
X3847Y1906
X3847Y1605
X4000Y2100
X4200
X4100Y2300
X3900
X3883Y2454
X3793Y2527
X3790Y2682
X3722Y2710
X3561Y2677
X3565Y2808
X3650Y2925
X3663Y2999
X3768Y3002
X4005Y2999
X4035Y2767
X3920Y2739
X4135Y2702
X4176Y2568
X4258Y2767
X4280Y3007
X4185Y3172
X4192Y3242
X4188Y3310
X4045Y3245
X3978Y3255
X3650Y3259
X3700Y3500
X3500
X3600Y3700
X3800
X3897Y3647
X3967Y3736
X4047Y3616
X4179Y3612
X4302
X4389Y3729
X4345Y3890
X4238Y3892
X4112
X4092Y4000
X4097Y4117
X4000Y4100
X3959Y4178
X4070Y4270
X4066Y4397
X3959Y4478
X3883Y4645
X3870Y4770
X3790Y4840
X3698Y4717
Y4647
X3647Y4485
X3472Y4467
X3486Y4700
X3361
X3422Y4768
X3361Y4830
X3486Y4829
X3472Y5042
X3390Y5045
X3562Y5040
X3625Y4987
X3733Y5358
X3800Y5300
X3821Y5400
X3527Y5420
X3412Y5330
X3298Y5348
X3040Y5356
X3038Y5153
X2826Y5383
X2914Y4822
Y4727
Y4632
X2979Y4562
X2800Y4500
X2647Y4501
X2561Y4502
X2482Y4501
X2647Y4592
Y4689
X2572Y4691
X2561Y4984
X2385Y5100
X2215Y4984
X2050Y5100
X1900Y5100
X1875Y4984
X1696Y4943
X1560Y4778
X1611Y4707
X1500Y4700
X1560Y4632
X1763Y4707
X1898Y4376
Y4269
X2029Y4376
X2215Y4248
X2317
X2625Y4047
X2700Y3900
X2900
X2800Y3700
X2600
X2480Y3645
X2376Y3670
X2230Y3658
X2153Y3683
X2085Y3659
X2003Y3694
X1950Y3543
X1958Y3445
X1932Y3385
X2029Y3387
X2122
X2160Y3277
X2233Y3205
X2096Y3138
X2020Y3050
X1900Y3100
X1700
X1590Y3050
X1515Y3138
X1493Y3405
X1626Y3405
X1750Y3417
X1751Y3508
X1680Y3600
X1559Y3731
X1780Y3894
X2010Y3950
X2080
X2208Y3848
X2433Y3808
X2302Y3530
X2306Y3397
X2453Y3270
X2455Y3200
X2646Y3208
X2700Y3100
X2906Y3068
X2746Y2879
X2646Y2784
X2558Y2695
X2430Y2686
X2186Y2692
X2118Y2745
X2126Y2858
X1999Y2749
X1900Y2700
X1700
X1500
X1727Y2267
X1786Y2307
X1938Y2326
X2020Y2315
X2226Y2168
X2251Y2058
X2330Y2210
X2373Y2167
X2523Y2273
X2480Y2315
X2623Y2055
X2748Y2058
X2779Y1940
X2800Y1810
X2892Y1898
X2988Y1990
X2835Y2140
X3188Y2295
X3142Y2342
X3098Y2395
X3042Y2442
X2962Y2542
X3100Y2700
X3212Y2885
X3500Y3100
X3400Y3300
X3050Y3387
X2996Y3568
X3232Y3574
X3256Y3658
X3216Y3788
X3226Y4051
X3138Y4048
X3436Y4018
X3501Y4169
X3576Y3928
X3697Y4025
X4100Y3500
X4655Y3489
X4658Y3383
X4763Y3197
X4900Y3100
X4578Y3002
X4500Y2700
X3635Y2512
X3706Y2328
X3720Y2215
X3662Y2175
X3605Y2133
X3542Y2083
X3475Y2038
X3286Y2038
X3420Y1855
X3160Y1600
X3105Y1652
X3040Y1555
X2698Y1717
X2625Y1773
X2345Y1755
X2317Y1652
X2412Y1680
X2441Y1939
X2102Y1882
X1960Y1908
X1946Y1811
X1819Y1797
X1800Y1700
X2000
X1895Y1477
X1700Y1900
X1712Y2134
X1786Y2068
X1686Y3278
X1958Y3296
X1848Y3417
X1688Y4095
X1598
X1505
X1505Y4235
X1688
X1733Y5388
X1860
X4178Y5153
X4123Y5095
X4125Y5027
X4185Y4985
X4170Y4897
X4100Y4700
X4200Y4500
X4343Y4559
X4475Y4557
X4675Y4625
X4742Y4620
X4800Y4500
X5000
X5200
X5192Y4332
X5066Y4255
X5035Y4007
X5366Y3998
X5300Y3500
X5100
X4935Y3500
X5000Y3700
X4790Y3747
X4673Y3802
X4546Y3788
X4650Y4179
X4728Y4304
X4900Y4700
X5100
X5200Y4900
X5312Y4915
X5430Y4945
X5000Y4900
X4800
X4600
X4475Y5127
X4338
X4867Y5195
X4990Y5200
X5070Y5290
X5200Y5300
X4891Y5393
X4790Y5288
X2770Y3530
X3463Y2623
X3403Y2562
X1300Y2700
X1082Y2730
Y2802
X1088Y2875
X1200Y2900
X1400
X1360Y3147
X1226Y3200
X1200Y3300
X1141Y3273
X1226Y3377
X986Y3400
X1005Y3533
X999Y3693
X1081Y3683
X1200Y3700
X1181Y3631
X940Y3650
X845Y3662
X760Y3660
X700Y3700
X654Y3534
X664Y3448
X630Y3390
X541Y3417
X440Y3415
X447Y3502
X395Y3580
X345Y3412
X387Y3274
X331Y3130
X330Y3008
X253Y2927
X242Y2802
X330Y2717
X400Y2500
X500Y2535
X513Y2388
X500Y2300
X593Y2283
X590Y2635
X700Y3100
X896Y2958
X1032Y3140
X930Y3272
X846Y3413
X750Y3403
X890Y3820
X1108Y3825
X1200Y4100
X1400
X1277Y4235
X1309Y4330
X1206Y4333
X1070Y4203
X800Y4100
X713Y4373
X336Y4563
X136Y4393
X256Y4243
X136Y4013
X450Y3895
X546Y3953
X161Y3540
X156Y3275
X251Y2243
X400Y2100
X253Y1950
X500Y1900
X600Y1700
X800
X900Y1500
X1100
X1176Y1788
Y2008
Y2208
Y2388
X1082Y2458
X1000Y2100
X400Y1700
X500Y1500
X300
X1320Y4520
X1080Y5292
X855
X770Y5528
X670Y5562
X675Y5725
X668Y5805
X674Y5937
X672Y6003
X755Y6192
X857Y6297
X1005Y6350
X1085Y6347
X1170Y6350
X1005Y6447
X1011Y6571
X1095Y6679
X1378Y6705
X845Y6610
X762Y6682
X823Y6470
X970Y6140
X1098Y6135
X1102Y6008
X1105Y5885
X1548Y6235
Y6303
X1738Y6235
X1725Y6542
X1830Y6545
Y6622
X1923Y6625
Y6545
Y6462
X1833
X1652Y6626
X1733Y5466
X2961Y5467
X3098Y5524
X3255Y5560
X3520Y5578
X3531Y5486
X3912Y5526
X4100Y5500
X4192Y5595
X4185Y5770
X4170Y6085
X4116Y6219
X4112Y6324
X4175Y6454
X3985Y6557
X3860Y6560
X3900Y6700
X3700
X3696Y6534
X3600Y6500
X3608Y6427
X3500Y6300
X3400Y6500
X3300Y6700
X3100
X3050Y6447
X3150Y6440
Y6345
X3145Y6224
Y6153
Y6083
Y5940
X3140Y5850
X3050
X2964Y6101
X3400Y6100
X3420Y5900
X3521Y5900
X3384Y5812
X3761Y5977
X3760Y6058
X3761Y6142
X3758Y6219
X4480Y6150
X4480Y5976
X4484Y5835
X4666Y5870
X4659Y6131
X4898Y6046
X4940Y5843
X4937Y5594
X5010Y5523
X5150Y5733
X5151Y6121
Y6181
X5200Y6500
X5071Y6497
X4990Y6579
X4980Y6762
X4733Y6707
X4758Y6855
X4380Y6850
X4300Y6780
X4182Y6776
X4098Y6849
X4100Y6680
X4608Y6462
X4749Y6430
X4767Y6360
X4840Y6360
X4488Y6338
X4549Y5587
X4300Y5500
X5378Y6432
X5400Y6500
X5600
X5493Y6344
X5491Y6202
X5481Y6072
X5600Y6100
X5490Y5930
X5600Y5700
X5800
X6000
X6200
X6400
X6600
X6800
X7000
X7200
X7400
X7600
X7800
X8000
X8200
X8400
X8600
X8800
X9000
X9200
X9400
X9300Y5900
X9100
X8900
X8700
X8500
X8300
X8100
X7900
X7700
X7500
X7300
X7100
X6900
X6700
X6500
X6300
X6100
X5900
X6000Y6100
X6200
X6400
X6600
X6800
X7000
X7200
X7400
X7600
X7800
X8000
X8200
X8400
X8600
X8800
X9000
X9200
X9400
X9300Y6300
X9100
X8900
X8700
X8500
X8300
X8100
X7900
X7700
X7500
X7300
X7100
X6900
X6700
X6500
X6300
X5900
X5700
X5845Y6734
X5982Y6731
X6160Y6724
X6297Y6731
X6475Y6724
X6612Y6731
X6802Y6726
X6937Y6731
X7125Y6724
X7262Y6731
X7500Y6700
X7700
X7900
X8100
X8300
X8500
X8700
X8900
X9100
X9300
X9400Y6500
X9200
X9000
X8800
X8600
X8400
X8200
X8000
X7800
X7600
X7400
X7900Y5500
X8100
X8300
X8500
X8700
X8900
X9100
X9300
X6100
X5900
X5700
X5500
X9500
X9700
X9800Y5700
X9600
X9700Y5900
X9500
X9600Y6100
X9800
X9700Y6300
X9500
T04
X392Y4370
X900
X1154Y4878
X392
T05
X1377Y228
X1250Y419
X1377Y609
X1250Y800
X1504
X1758
X2012
X2266
X2520
X2774
X3028
X3282
X3536
X3790
X4044
X4298
X4552
X4806
X5060
X5314
X5187Y609
X4933
X4679
X4425
X4171
X3917
X3663
X3409
X3155
X2901
X2647
X2393
X2139
X1885
X1631
X1758Y419
X2012
X2266
X2520
X2774
X3028
X3282
X3536
X3790
X4044
X4298
X4552
X4806
X5060
X5314
X5187Y228
X4933
X4679
X4425
X4171
X3917
X3663
X3409
X3155
X2901
X2647
X2393
X2139
X1885
X1631
X1504Y419
X5568
X5822
X6076
X6330
X6584
X6838
X7092
X7346
X7600
X7854
X8108
X8362
X8616
X8743Y228
X8489
X8235
X7981
X7727
X7473
X7219
X6965
X6711
X6457
X6203
X5949
X5695
X5441
Y609
X5695
X5949
X6203
X6457
X6711
X6965
X7219
X7473
X7727
X7981
X8235
X8489
X8743
X8616Y800
X8362
X8108
X7854
X7600
X7346
X7092
X6838
X6584
X6330
X6076
X5822
X5568
T06
X6429Y4520
X7191
X3441Y6710
X2679
T07
X7570Y4530
X7824
X8078
X8332
X8586
X8840
T08
X742Y228
X9251
T09
X270Y270
X9730Y270
Y6730
T11
X485Y6227
T12
X270Y6730
M30
