M48
;Layer_Color=9474304
;FILE_FORMAT=4:2
METRIC,TZ
;TYPE=PLATED
T1F00S00C0.30
T4F00S00C0.76
T5F00S00C0.80
T6F00S00C1.00
T7F00S00C1.02
T8F00S00C2.20
T9F00S00C2.50
;TYPE=NON_PLATED
T11F00S00C0.60
T12F00S00C2.50
%
T01
X250Y1010
X251Y1333
X2170Y982
X2673Y940
X2985Y977
X3033Y1090
Y1150
X3038Y1467
X2790Y1455
X3438Y930
X3717Y965
X3997Y1030
X4292
X4622
X4953Y1031
X5122Y1030
X5390
X5672
X5883
X6167
X6355
X6628
X6938
X7180Y1035
X7390Y1030
X7650
X7888
X8090
X8310
X8530Y1027
X6733Y1293
X6638Y1388
X6570Y1440
X6503Y1475
X6635Y1498
X6579Y1586
X6707Y1625
X6712Y1787
X6843Y1788
X6810Y1935
X7012Y2000
X7140Y2123
X7255Y2240
X7003Y2266
X7118Y2383
X6843Y2421
X6957Y2538
X7210Y2645
X7305Y2558
X7400Y2465
X7530Y2473
X7572Y2519
X7655Y2600
X7822Y2433
X7840Y2358
X7468Y2065
X6875Y2142
X6672Y2077
X6562Y2180
X6358Y2139
X6300Y2202
X6280Y2345
X6375Y2445
X6507Y2433
X6560Y2662
X6415Y2640
X6410Y2755
X6453Y2805
X6320Y2788
X6228Y2870
X6233Y2995
X6325Y3080
X6403Y3158
X6500Y3253
X6697Y3175
X6757Y3090
X6865Y3085
X6840Y2935
X7091Y2880
X7097Y2760
X7485Y2842
X7655Y3010
Y3280
X7560Y3190
X7510Y3240
X7380Y3300
X7427Y3445
X7476Y3706
X7660Y3840
X7830Y3830
X8001Y3666
X7854Y3517
X7781Y3409
X7823Y3122
X8093Y3117
X8241Y3249
X8161Y3508
X8312Y2870
X8257Y2810
X8143Y4383
X8522Y4380
X8768Y4330
X8768Y4262
X8840
X8905Y4385
X7513Y4378
X7776Y4682
X7620Y5297
X7475Y5300
X7372Y5380
X7338Y5062
X7038Y5058
X6435Y5062
X6110
X5506Y4213
X5506Y4001
Y3773
X6180Y3370
X6175Y3303
X6255Y3365
X6897Y3420
X6857Y3469
Y3653
X7012Y3642
X7070Y3695
X6935Y3255
X6910Y4142
X6912Y4310
X6715Y2298
X6205Y2530
X6222Y2667
X6128Y2758
X5983Y2745
X5938Y2685
X5792Y2885
X5708Y2823
X6172Y1955
X6970Y1577
X3847Y1605
X3847Y1906
X3968Y1901
X3720Y2215
X3662Y2175
X3605Y2133
X3542Y2083
X3475Y2038
X2988Y1990
X2892Y1898
X2779Y1940
X2748Y2058
X2623Y2055
X2625Y1773
X2698Y1717
X2800Y1810
X2835Y2140
X2523Y2273
X2480Y2315
X2380Y2160
X2310Y2230
X2226Y2168
X2251Y2058
X2441Y1939
X2345Y1755
X2317Y1652
X2412Y1680
X2102Y1882
X1960Y1908
X1946Y1811
X1819Y1797
X1786Y2068
X1712Y2134
X1690Y2270
X1786Y2307
X1938Y2326
X2020Y2320
X1999Y2749
X2118Y2745
X2558Y2695
X2646Y2784
X2746Y2879
X2962Y2542
X3042Y2442
X3098Y2395
X3142Y2342
X3188Y2295
X3403Y2562
X3463Y2623
X3561Y2677
X3565Y2808
X3650Y2925
X3722Y2710
X4045Y3245
X4192Y3242
X4179Y3616
X4302
X4390
Y3710
X4345Y3890
X4238Y3892
X4112
X4092Y4000
X4097Y4117
X4070Y4270
X4066Y4397
X3987Y4470
X3724Y4467
X3790Y4570
X3883Y4645
X3870Y4770
X3790Y4840
X4000Y4920
X4125Y5027
X4123Y5095
X3562Y5040
X3472Y5042
X3390Y5045
X3361Y4830
X3422Y4768
X3486Y4829
Y4700
X3361
X3472Y4460
Y4180
X3723Y4190
X3985
X3970Y3710
X3897Y3647
X4047Y3616
X4658Y3383
X4935Y3500
X5066Y4255
X5192Y4332
X5312Y4915
X5430Y4945
X4990Y5200
X4883Y5216
Y5354
X4790Y5288
X5070Y5290
X4675Y4625
X3810Y5420
X3717Y5357
X3527Y5420
X3412Y5330
X3298Y5348
X3040Y5356
X3038Y5153
X2826Y5383
X2914Y4822
Y4727
Y4632
X2979Y4562
X2647Y4592
Y4501
X2561Y4502
X2482Y4501
X2572Y4691
X2647Y4689
X2561Y4984
X2385Y5100
X2215Y4984
X2050Y5100
X1875Y4984
X1763Y4707
X1611Y4707
X1560Y4770
Y4632
X1505Y4235
X1505Y4095
X1598
X1688
Y4235
X1808Y4162
X1898Y4269
X2029Y4376
X2215Y4270
X2352Y4269
X2625Y4047
X2420Y3820
X2376Y3670
X2480Y3645
X2230Y3658
X2153Y3683
X2080Y3658
X2003Y3694
X1950Y3543
X1958Y3445
X1932Y3385
X2029Y3387
X2122
X2160Y3277
X2232Y3207
X2306Y3397
X2302Y3530
X2215Y3820
X2080Y3950
X2010
X1880Y3930
X1808Y3890
X1680Y3600
X1750Y3520
X1740Y3417
X1840
X1573Y3408
X1470Y3538
X1680Y3270
X1565Y3145
X2453Y3270
X3232Y3574
X3226Y4051
X3160
Y1600
X3105Y1652
X3040Y1555
X1860Y5388
X1733
X1080Y5292
X855
X1309Y4330
X1277Y4235
X1108Y3825
X1081Y3683
X999Y3693
X940Y3650
X845Y3662
X760Y3660
X700Y3700
X654Y3534
X664Y3448
X630Y3390
X541Y3417
X440Y3415
X447Y3502
X380Y3570
X345Y3412
X387Y3274
X331Y3130
X330Y3008
X253Y2927
X242Y2802
X330Y2717
X590Y2635
X500Y2535
X513Y2388
X593Y2283
X251Y2243
X253Y1950
X1082Y2458
Y2730
Y2802
X1088Y2875
X1032Y3140
X930Y3272
X986Y3400
X1005Y3533
X1181Y3631
X1226Y3377
X1141Y3273
X846Y3413
X750Y3403
X890Y3820
X546Y3953
X450Y3895
X161Y3540
X156Y3275
X670Y5562
X770Y5528
X675Y5725
X668Y5805
X674Y5937
X672Y6003
X755Y6192
X857Y6297
X1005Y6350
X1085Y6347
X1170Y6350
X1005Y6447
X1011Y6571
X1095Y6679
X1378Y6705
X845Y6610
X762Y6682
X823Y6470
X970Y6140
X1098Y6135
X1102Y6008
X1548Y6235
Y6303
X1738Y6235
X1725Y6542
X1830Y6545
Y6622
X1923Y6625
Y6545
Y6462
X1833
X1652Y6626
X1733Y5466
X2961Y5467
X3098Y5524
X3255Y5560
X3520Y5578
X3531Y5486
X3912Y5526
X4192Y5595
X4175Y5670
X4185Y5770
X4276Y5540
X4438Y5588
X4490Y5630
Y5697
X4484Y5835
X4480Y5907
Y5976
X4480Y6069
Y6150
X4488Y6338
X4608Y6462
X4749Y6430
X4767Y6360
X4840Y6360
X4892Y6053
X4945Y6009
X4940Y5843
X4937Y5592
X4870
X4803
X4666Y5870
X4659Y6131
X4753Y6054
X5151Y6121
Y6181
X5071Y6497
X4990Y6579
X5403Y6430
Y5850
X4170Y6085
X4110Y6226
X4175Y6454
X3985Y6557
X3860Y6560
X3696Y6534
X3610Y6451
X3758Y6219
X3761Y6142
X3760Y6058
X3761Y5977
X3521Y5900
X3380Y5813
X3140Y5850
X3050
X3145Y5940
Y6083
Y6153
Y6224
X3150Y6345
Y6440
X3050Y6447
X2964Y6101
X4100Y6680
X4098Y6849
X4182Y6776
X4300Y6780
X4385Y6838
X5845Y6734
X5982
X6160
X6297
X6475
X6612
X6802
X6937
X7125
X7262
X5493Y6344
X5491Y6202
X5481Y6072
X5490Y5930
T04
X392Y4370
X900
X1154Y4878
X392
T05
X1377Y228
X1250Y419
X1377Y609
X1250Y800
X1504
X1758
X2012
X2266
X2520
X2774
X3028
X3282
X3536
X3790
X4044
X4298
X4552
X4806
X5060
X5314
X5187Y609
X4933
X4679
X4425
X4171
X3917
X3663
X3409
X3155
X2901
X2647
X2393
X2139
X1885
X1631
X1758Y419
X2012
X2266
X2520
X2774
X3028
X3282
X3536
X3790
X4044
X4298
X4552
X4806
X5060
X5314
X5187Y228
X4933
X4679
X4425
X4171
X3917
X3663
X3409
X3155
X2901
X2647
X2393
X2139
X1885
X1631
X1504Y419
X5568
X5822
X6076
X6330
X6584
X6838
X7092
X7346
X7600
X7854
X8108
X8362
X8616
X8743Y228
X8489
X8235
X7981
X7727
X7473
X7219
X6965
X6711
X6457
X6203
X5949
X5695
X5441
Y609
X5695
X5949
X6203
X6457
X6711
X6965
X7219
X7473
X7727
X7981
X8235
X8489
X8743
X8616Y800
X8362
X8108
X7854
X7600
X7346
X7092
X6838
X6584
X6330
X6076
X5822
X5568
T06
X6429Y4520
X7191
X3441Y6710
X2679
T07
X7570Y4530
X7824
X8078
X8332
X8586
X8840
T08
X742Y228
X9251
T09
X270Y270
X9730Y270
Y6730
T11
X485Y6227
T12
X270Y6730
M30
