G04*
G04 #@! TF.GenerationSoftware,Altium Limited,Altium Designer,23.5.1 (21)*
G04*
G04 Layer_Physical_Order=2*
G04 Layer_Color=36540*
%FSLAX43Y43*%
%MOMM*%
G71*
G04*
G04 #@! TF.SameCoordinates,091AA0F9-E177-443C-B5AA-68A9A74CA1F2*
G04*
G04*
G04 #@! TF.FilePolarity,Positive*
G04*
G01*
G75*
%ADD166C,5.000*%
%ADD167C,3.300*%
%ADD168C,1.300*%
%ADD169R,1.300X1.300*%
%ADD170C,1.580*%
%ADD172C,1.600*%
%ADD173R,1.600X1.600*%
%ADD174O,2.300X1.200*%
%ADD175O,1.000X1.500*%
%ADD176O,2.600X1.300*%
%ADD177C,0.450*%
%ADD178C,1.524*%
G36*
X18200Y69125D02*
X18200Y69125D01*
X18200Y69125D01*
X18359Y69124D01*
X18670Y69059D01*
X18962Y68936D01*
X19225Y68757D01*
X19448Y68531D01*
X19622Y68265D01*
X19742Y67971D01*
X19801Y67659D01*
X19800Y67500D01*
X19800Y55075D01*
Y54917D01*
X19739Y54608D01*
X19618Y54317D01*
X19443Y54055D01*
X19220Y53832D01*
X18958Y53657D01*
X18667Y53536D01*
X18358Y53475D01*
X17581D01*
X12407Y48301D01*
X12305Y48379D01*
X12345Y48447D01*
X12404Y48666D01*
Y48703D01*
X11540D01*
X10676D01*
Y48666D01*
X10735Y48447D01*
X10849Y48250D01*
X10953Y48146D01*
X10900Y48019D01*
X7683D01*
X7193Y48116D01*
X6730Y48308D01*
X6314Y48586D01*
X6137Y48763D01*
X5377Y49477D01*
X1375Y53479D01*
X1424Y53597D01*
X1724D01*
Y54355D01*
Y55113D01*
X1150D01*
X954Y55087D01*
X771Y55011D01*
X637Y54908D01*
X510Y54945D01*
Y62404D01*
X637Y62441D01*
X771Y62338D01*
X954Y62262D01*
X1150Y62237D01*
X1724D01*
Y62995D01*
Y63753D01*
X1150D01*
X954Y63727D01*
X771Y63651D01*
X637Y63548D01*
X510Y63585D01*
Y64503D01*
X3925D01*
X5827Y66404D01*
X5827Y66404D01*
X5827Y66404D01*
X5827Y66404D01*
X5917Y66479D01*
X5983Y66524D01*
X6105Y66574D01*
X6234Y66600D01*
X6273Y66600D01*
X6300Y66600D01*
X6400Y66600D01*
X6400Y66600D01*
X6471Y66603D01*
X6521Y66614D01*
X6610Y66631D01*
X6741Y66686D01*
X6860Y66764D01*
X6912Y66812D01*
X8400Y68300D01*
X8481Y68381D01*
X8481Y68381D01*
X8658Y68558D01*
X9074Y68836D01*
X9536Y69027D01*
X10027Y69125D01*
X10277Y69125D01*
X11200Y69125D01*
X18200Y69125D01*
D02*
G37*
G36*
X95267Y68941D02*
X94994Y68532D01*
X94798Y68059D01*
X94698Y67556D01*
Y67376D01*
X97300D01*
Y67300D01*
X97376D01*
Y64698D01*
X97556D01*
X98059Y64798D01*
X98532Y64994D01*
X98941Y65267D01*
X99068Y65232D01*
Y4768D01*
X98941Y4733D01*
X98532Y5006D01*
X98059Y5202D01*
X97556Y5302D01*
X97376D01*
Y2700D01*
X97300D01*
Y2624D01*
X94698D01*
Y2444D01*
X94798Y1941D01*
X94994Y1468D01*
X95267Y1059D01*
X95232Y932D01*
X93800D01*
X93752Y1050D01*
X93871Y1168D01*
X94062Y1455D01*
X94194Y1774D01*
X94262Y2112D01*
Y2208D01*
X92510D01*
X90758D01*
Y2112D01*
X90826Y1774D01*
X90958Y1455D01*
X91149Y1168D01*
X91268Y1050D01*
X91220Y932D01*
X8710D01*
X8662Y1050D01*
X8781Y1168D01*
X8972Y1455D01*
X9104Y1774D01*
X9172Y2112D01*
Y2208D01*
X7420D01*
X5668D01*
Y2112D01*
X5736Y1774D01*
X5868Y1455D01*
X6059Y1168D01*
X6178Y1050D01*
X6130Y932D01*
X4768D01*
X4733Y1059D01*
X5006Y1468D01*
X5202Y1941D01*
X5302Y2444D01*
Y2623D01*
X2700D01*
Y2700D01*
X2624D01*
Y5302D01*
X2444D01*
X1941Y5202D01*
X1468Y5005D01*
X1127Y4778D01*
X1000Y4846D01*
Y43380D01*
X1000Y43500D01*
X1000Y43500D01*
X1000Y43500D01*
X1000Y43746D01*
X1096Y44229D01*
X1285Y44684D01*
X1558Y45094D01*
X1906Y45442D01*
X2316Y45715D01*
X2771Y45904D01*
X3254Y46000D01*
X3500Y46000D01*
X13000Y46000D01*
X18256Y51256D01*
X18256Y51256D01*
X18301Y51299D01*
X18346Y51345D01*
X18456Y51456D01*
X18456Y51456D01*
Y51456D01*
X18633Y51633D01*
X19049Y51911D01*
X19511Y52102D01*
X20002Y52200D01*
X20252Y52200D01*
X25000Y52200D01*
Y52200D01*
X25225Y52211D01*
X25668Y52299D01*
X26084Y52472D01*
X26459Y52722D01*
X26778Y53041D01*
X27028Y53416D01*
X27201Y53832D01*
X27289Y54275D01*
X27300Y54500D01*
X27300Y54800D01*
X27300D01*
Y54880D01*
X27361Y55027D01*
X27473Y55139D01*
X27620Y55200D01*
X28900Y55200D01*
Y55200D01*
X28998Y55205D01*
X29190Y55243D01*
X29371Y55318D01*
X29534Y55427D01*
X29673Y55566D01*
X29782Y55729D01*
X29857Y55910D01*
X29895Y56102D01*
X29900Y56200D01*
Y57780D01*
Y60708D01*
X29974Y60782D01*
X30035Y60929D01*
Y61089D01*
X29974Y61236D01*
X29900Y61310D01*
X29900Y67100D01*
Y67294D01*
X29976Y67674D01*
X30124Y68032D01*
X30339Y68354D01*
X30613Y68628D01*
X30936Y68844D01*
X31294Y68992D01*
X31674Y69068D01*
X95232D01*
X95267Y68941D01*
D02*
G37*
%LPC*%
G36*
X19305Y66650D02*
X19145D01*
X18998Y66589D01*
X18886Y66477D01*
X18825Y66330D01*
Y66309D01*
X18700Y66305D01*
X18639Y66452D01*
X18527Y66564D01*
X18380Y66625D01*
X18220D01*
X18073Y66564D01*
X17961Y66452D01*
X17900Y66305D01*
Y66145D01*
X17961Y65998D01*
X18045Y65915D01*
X18062Y65838D01*
X18045Y65760D01*
X17961Y65677D01*
X17900Y65530D01*
Y65370D01*
X17961Y65223D01*
X18073Y65111D01*
X18097Y65101D01*
X18098Y64964D01*
X17986Y64852D01*
X17925Y64705D01*
Y64545D01*
X17986Y64398D01*
X18098Y64286D01*
X18245Y64225D01*
X18405D01*
X18552Y64286D01*
X18664Y64398D01*
X18708Y64504D01*
X18842D01*
X18886Y64398D01*
X18998Y64286D01*
X19145Y64225D01*
X19305D01*
X19452Y64286D01*
X19564Y64398D01*
X19625Y64545D01*
Y64705D01*
X19564Y64852D01*
X19452Y64964D01*
X19440Y64969D01*
Y65106D01*
X19452Y65111D01*
X19564Y65223D01*
X19625Y65370D01*
Y65530D01*
X19564Y65677D01*
X19463Y65778D01*
X19457Y65850D01*
X19463Y65922D01*
X19564Y66023D01*
X19625Y66170D01*
Y66330D01*
X19564Y66477D01*
X19452Y66589D01*
X19305Y66650D01*
D02*
G37*
G36*
X8305Y65100D02*
X8145D01*
X7998Y65039D01*
X7886Y64927D01*
X7825Y64780D01*
Y64620D01*
X7886Y64473D01*
X7998Y64361D01*
X8145Y64300D01*
X8305D01*
X8452Y64361D01*
X8564Y64473D01*
X8625Y64620D01*
Y64780D01*
X8564Y64927D01*
X8452Y65039D01*
X8305Y65100D01*
D02*
G37*
G36*
X10129Y64874D02*
X9970D01*
X9823Y64813D01*
X9710Y64701D01*
X9649Y64554D01*
Y64395D01*
X9710Y64248D01*
X9823Y64135D01*
X9970Y64074D01*
X10129D01*
X10276Y64135D01*
X10388Y64248D01*
X10449Y64395D01*
Y64554D01*
X10388Y64701D01*
X10276Y64813D01*
X10129Y64874D01*
D02*
G37*
G36*
X11780Y63900D02*
X11620D01*
X11473Y63839D01*
X11361Y63727D01*
X11339Y63673D01*
X11201D01*
X11189Y63702D01*
X11077Y63814D01*
X10930Y63875D01*
X10770D01*
X10623Y63814D01*
X10529Y63720D01*
X10420Y63720D01*
X10389Y63727D01*
X10277Y63839D01*
X10130Y63900D01*
X9970D01*
X9823Y63839D01*
X9711Y63727D01*
X9650Y63580D01*
Y63420D01*
X9711Y63273D01*
X9823Y63161D01*
X9970Y63100D01*
X10130D01*
X10277Y63161D01*
X10371Y63255D01*
X10480Y63255D01*
X10511Y63248D01*
X10623Y63136D01*
X10770Y63075D01*
X10930D01*
X11077Y63136D01*
X11189Y63248D01*
X11211Y63302D01*
X11349D01*
X11361Y63273D01*
X11473Y63161D01*
X11620Y63100D01*
X11780D01*
X11927Y63161D01*
X12039Y63273D01*
X12100Y63420D01*
Y63580D01*
X12039Y63727D01*
X11927Y63839D01*
X11780Y63900D01*
D02*
G37*
G36*
X7400Y63702D02*
X6927D01*
Y63071D01*
X8098D01*
X8084Y63178D01*
X8013Y63349D01*
X7900Y63495D01*
X7754Y63608D01*
X7583Y63678D01*
X7400Y63702D01*
D02*
G37*
G36*
X2450Y63753D02*
X1877D01*
Y63071D01*
X3198D01*
X3182Y63191D01*
X3107Y63374D01*
X2986Y63531D01*
X2829Y63651D01*
X2646Y63727D01*
X2450Y63753D01*
D02*
G37*
G36*
X6774Y63702D02*
X6300D01*
X6117Y63678D01*
X5946Y63608D01*
X5800Y63495D01*
X5687Y63349D01*
X5616Y63178D01*
X5602Y63071D01*
X6774D01*
Y63702D01*
D02*
G37*
G36*
X8098Y62918D02*
X6927D01*
Y62287D01*
X7400D01*
X7583Y62311D01*
X7754Y62382D01*
X7900Y62494D01*
X8013Y62641D01*
X8084Y62812D01*
X8098Y62918D01*
D02*
G37*
G36*
X3198D02*
X1877D01*
Y62237D01*
X2450D01*
X2646Y62262D01*
X2829Y62338D01*
X2986Y62459D01*
X3107Y62616D01*
X3182Y62799D01*
X3198Y62918D01*
D02*
G37*
G36*
X6774D02*
X5587D01*
Y62771D01*
X6200D01*
Y62695D01*
X6276D01*
Y61847D01*
X6435Y61878D01*
X6634Y62011D01*
X6767Y62210D01*
X6774Y62244D01*
Y62918D01*
D02*
G37*
G36*
X6123Y62618D02*
X5587D01*
Y62445D01*
X5633Y62210D01*
X5766Y62011D01*
X5965Y61878D01*
X6123Y61847D01*
Y62618D01*
D02*
G37*
G36*
X4959Y62825D02*
X4741D01*
X4538Y62741D01*
X4384Y62586D01*
X4300Y62384D01*
Y62165D01*
X4384Y61963D01*
X4538Y61808D01*
X4741Y61725D01*
X4959D01*
X5162Y61808D01*
X5316Y61963D01*
X5400Y62165D01*
Y62384D01*
X5316Y62586D01*
X5162Y62741D01*
X4959Y62825D01*
D02*
G37*
G36*
X6805Y60425D02*
X6645D01*
X6498Y60364D01*
X6386Y60252D01*
X6325Y60105D01*
Y59945D01*
X6386Y59798D01*
X6498Y59686D01*
X6405Y59594D01*
X6344Y59447D01*
Y59288D01*
X6405Y59141D01*
X6518Y59028D01*
X6665Y58967D01*
X6824D01*
X6971Y59028D01*
X7083Y59141D01*
X7144Y59288D01*
Y59447D01*
X7083Y59594D01*
X6971Y59706D01*
X7064Y59798D01*
X7125Y59945D01*
Y60105D01*
X7064Y60252D01*
X6952Y60364D01*
X6805Y60425D01*
D02*
G37*
G36*
X6755Y58450D02*
X6595D01*
X6448Y58389D01*
X6336Y58277D01*
X6275Y58130D01*
Y57970D01*
X6336Y57823D01*
X6448Y57711D01*
X6470Y57702D01*
X6481Y57679D01*
X6490Y57556D01*
X6411Y57477D01*
X6350Y57330D01*
Y57170D01*
X6411Y57023D01*
X6523Y56911D01*
X6670Y56850D01*
X6830D01*
X6977Y56911D01*
X7089Y57023D01*
X7150Y57170D01*
Y57330D01*
X7089Y57477D01*
X6977Y57589D01*
X6955Y57598D01*
X6944Y57621D01*
X6935Y57744D01*
X7014Y57823D01*
X7075Y57970D01*
Y58130D01*
X7014Y58277D01*
X6902Y58389D01*
X6755Y58450D01*
D02*
G37*
G36*
X6123Y55503D02*
X5965Y55471D01*
X5766Y55338D01*
X5633Y55139D01*
X5587Y54905D01*
Y54731D01*
X6123D01*
Y55503D01*
D02*
G37*
G36*
X7400Y55062D02*
X6927D01*
Y54431D01*
X8098D01*
X8084Y54538D01*
X8013Y54709D01*
X7900Y54855D01*
X7754Y54968D01*
X7583Y55038D01*
X7400Y55062D01*
D02*
G37*
G36*
X2450Y55113D02*
X1877D01*
Y54431D01*
X3198D01*
X3182Y54551D01*
X3107Y54734D01*
X2986Y54891D01*
X2829Y55011D01*
X2646Y55087D01*
X2450Y55113D01*
D02*
G37*
G36*
X6276Y55503D02*
Y54655D01*
X6200D01*
Y54578D01*
X5587D01*
Y54431D01*
X6774D01*
Y55105D01*
X6767Y55139D01*
X6634Y55338D01*
X6435Y55471D01*
X6276Y55503D01*
D02*
G37*
G36*
X17000Y58500D02*
X11100D01*
Y54400D01*
X17000D01*
Y58500D01*
D02*
G37*
G36*
X4915Y55760D02*
X4720Y55721D01*
X4555Y55610D01*
X4444Y55445D01*
X4405Y55250D01*
Y54900D01*
X4444Y54705D01*
X4555Y54539D01*
X4720Y54429D01*
X4915Y54390D01*
X5110Y54429D01*
X5275Y54539D01*
X5386Y54705D01*
X5425Y54900D01*
Y55250D01*
X5386Y55445D01*
X5275Y55610D01*
X5110Y55721D01*
X4915Y55760D01*
D02*
G37*
G36*
X8098Y54278D02*
X6927D01*
Y53647D01*
X7400D01*
X7583Y53671D01*
X7754Y53742D01*
X7900Y53854D01*
X8013Y54001D01*
X8084Y54172D01*
X8098Y54278D01*
D02*
G37*
G36*
X6774D02*
X5602D01*
X5616Y54172D01*
X5687Y54001D01*
X5800Y53854D01*
X5946Y53742D01*
X6117Y53671D01*
X6300Y53647D01*
X6774D01*
Y54278D01*
D02*
G37*
G36*
X3198D02*
X1877D01*
Y53597D01*
X2450D01*
X2646Y53622D01*
X2829Y53698D01*
X2986Y53819D01*
X3107Y53976D01*
X3182Y54159D01*
X3198Y54278D01*
D02*
G37*
G36*
X11654Y49644D02*
X11616D01*
Y48856D01*
X12404D01*
Y48894D01*
X12345Y49113D01*
X12231Y49310D01*
X12070Y49471D01*
X11873Y49585D01*
X11654Y49644D01*
D02*
G37*
G36*
X11463D02*
X11426D01*
X11207Y49585D01*
X11010Y49471D01*
X10849Y49310D01*
X10735Y49113D01*
X10676Y48894D01*
Y48856D01*
X11463D01*
Y49644D01*
D02*
G37*
G36*
X43930Y68775D02*
X43770D01*
X43623Y68714D01*
X43511Y68602D01*
X43450Y68455D01*
Y68295D01*
X43511Y68148D01*
X43623Y68036D01*
X43770Y67975D01*
X43930D01*
X44077Y68036D01*
X44189Y68148D01*
X44250Y68295D01*
Y68455D01*
X44189Y68602D01*
X44077Y68714D01*
X43930Y68775D01*
D02*
G37*
G36*
X43080Y68200D02*
X42920D01*
X42773Y68139D01*
X42661Y68027D01*
X42600Y67880D01*
Y67720D01*
X42661Y67573D01*
X42773Y67461D01*
X42920Y67400D01*
X43080D01*
X43227Y67461D01*
X43339Y67573D01*
X43400Y67720D01*
Y67880D01*
X43339Y68027D01*
X43227Y68139D01*
X43080Y68200D01*
D02*
G37*
G36*
X71327Y67738D02*
X71168D01*
X71021Y67677D01*
X70909Y67564D01*
X70848Y67417D01*
Y67258D01*
X70909Y67111D01*
X71021Y66999D01*
X71168Y66938D01*
X71327D01*
X71474Y66999D01*
X71587Y67111D01*
X71648Y67258D01*
Y67417D01*
X71587Y67564D01*
X71474Y67677D01*
X71327Y67738D01*
D02*
G37*
G36*
X68100D02*
X67941D01*
X67794Y67677D01*
X67681Y67564D01*
X67621Y67417D01*
Y67258D01*
X67681Y67111D01*
X67794Y66999D01*
X67941Y66938D01*
X68100D01*
X68247Y66999D01*
X68360Y67111D01*
X68421Y67258D01*
Y67417D01*
X68360Y67564D01*
X68247Y67677D01*
X68100Y67738D01*
D02*
G37*
G36*
X64826D02*
X64667D01*
X64520Y67677D01*
X64407Y67564D01*
X64347Y67417D01*
Y67258D01*
X64407Y67111D01*
X64520Y66999D01*
X64667Y66938D01*
X64826D01*
X64973Y66999D01*
X65086Y67111D01*
X65147Y67258D01*
Y67417D01*
X65086Y67564D01*
X64973Y67677D01*
X64826Y67738D01*
D02*
G37*
G36*
X61675D02*
X61516D01*
X61369Y67677D01*
X61256Y67564D01*
X61196Y67417D01*
Y67258D01*
X61256Y67111D01*
X61369Y66999D01*
X61516Y66938D01*
X61675D01*
X61822Y66999D01*
X61935Y67111D01*
X61996Y67258D01*
Y67417D01*
X61935Y67564D01*
X61822Y67677D01*
X61675Y67738D01*
D02*
G37*
G36*
X58525D02*
X58366D01*
X58219Y67677D01*
X58106Y67564D01*
X58046Y67417D01*
Y67258D01*
X58106Y67111D01*
X58219Y66999D01*
X58366Y66938D01*
X58525D01*
X58672Y66999D01*
X58785Y67111D01*
X58846Y67258D01*
Y67417D01*
X58785Y67564D01*
X58672Y67677D01*
X58525Y67738D01*
D02*
G37*
G36*
X41080Y67200D02*
X40920D01*
X40773Y67139D01*
X40661Y67027D01*
X40600Y66880D01*
Y66720D01*
X40661Y66573D01*
X40773Y66461D01*
X40920Y66400D01*
X41080D01*
X41227Y66461D01*
X41339Y66573D01*
X41400Y66720D01*
Y66880D01*
X41339Y67027D01*
X41227Y67139D01*
X41080Y67200D01*
D02*
G37*
G36*
X34538Y68042D02*
X34290D01*
X34050Y67978D01*
X33836Y67854D01*
X33660Y67678D01*
X33536Y67464D01*
X33472Y67224D01*
Y66976D01*
X33536Y66736D01*
X33660Y66522D01*
X33836Y66346D01*
X34050Y66222D01*
X34290Y66158D01*
X34538D01*
X34778Y66222D01*
X34992Y66346D01*
X35168Y66522D01*
X35292Y66736D01*
X35356Y66976D01*
Y67224D01*
X35292Y67464D01*
X35168Y67678D01*
X34992Y67854D01*
X34778Y67978D01*
X34538Y68042D01*
D02*
G37*
G36*
X49980Y66186D02*
X49820D01*
X49673Y66125D01*
X49561Y66013D01*
X49500Y65866D01*
Y65707D01*
X49561Y65560D01*
X49673Y65447D01*
X49820Y65386D01*
X49980D01*
X50127Y65447D01*
X50239Y65560D01*
X50300Y65707D01*
Y65866D01*
X50239Y66013D01*
X50127Y66125D01*
X49980Y66186D01*
D02*
G37*
G36*
X39930Y65975D02*
X39770D01*
X39623Y65914D01*
X39511Y65802D01*
X39450Y65655D01*
Y65495D01*
X39511Y65348D01*
X39623Y65236D01*
X39770Y65175D01*
X39930D01*
X40077Y65236D01*
X40189Y65348D01*
X40250Y65495D01*
Y65655D01*
X40189Y65802D01*
X40077Y65914D01*
X39930Y65975D01*
D02*
G37*
G36*
X97223Y67223D02*
X94698D01*
Y67044D01*
X94798Y66541D01*
X94994Y66068D01*
X95279Y65642D01*
X95642Y65279D01*
X96068Y64994D01*
X96541Y64798D01*
X97044Y64698D01*
X97223D01*
Y67223D01*
D02*
G37*
G36*
X50787Y65375D02*
X50628D01*
X50480Y65314D01*
X50368Y65202D01*
X50307Y65055D01*
Y64895D01*
X50368Y64748D01*
X50480Y64636D01*
X50628Y64575D01*
X50787D01*
X50934Y64636D01*
X51046Y64748D01*
X51107Y64895D01*
Y65055D01*
X51046Y65202D01*
X50934Y65314D01*
X50787Y65375D01*
D02*
G37*
G36*
X41830Y64938D02*
X41670D01*
X41523Y64877D01*
X41411Y64764D01*
X41350Y64617D01*
Y64458D01*
X41411Y64311D01*
X41523Y64198D01*
X41670Y64138D01*
X41830D01*
X41977Y64198D01*
X42089Y64311D01*
X42150Y64458D01*
Y64617D01*
X42089Y64764D01*
X41977Y64877D01*
X41830Y64938D01*
D02*
G37*
G36*
X30580Y64875D02*
X30420D01*
X30273Y64814D01*
X30161Y64702D01*
X30100Y64555D01*
Y64395D01*
X30161Y64248D01*
X30273Y64136D01*
X30420Y64075D01*
X30580D01*
X30727Y64136D01*
X30839Y64248D01*
X30900Y64395D01*
Y64555D01*
X30839Y64702D01*
X30727Y64814D01*
X30580Y64875D01*
D02*
G37*
G36*
X31580Y64800D02*
X31420D01*
X31273Y64739D01*
X31161Y64627D01*
X31100Y64480D01*
Y64320D01*
X31161Y64173D01*
X31273Y64061D01*
X31420Y64000D01*
X31580D01*
X31727Y64061D01*
X31839Y64173D01*
X31900Y64320D01*
Y64480D01*
X31839Y64627D01*
X31727Y64739D01*
X31580Y64800D01*
D02*
G37*
G36*
X47755Y64000D02*
X47595D01*
X47448Y63939D01*
X47336Y63827D01*
X47275Y63680D01*
Y63520D01*
X47336Y63373D01*
X47448Y63261D01*
X47595Y63200D01*
X47755D01*
X47902Y63261D01*
X47955Y63314D01*
X48037Y63360D01*
X48120Y63314D01*
X48173Y63261D01*
X48320Y63200D01*
X48480D01*
X48627Y63261D01*
X48739Y63373D01*
X48800Y63520D01*
Y63680D01*
X48739Y63827D01*
X48627Y63939D01*
X48480Y64000D01*
X48320D01*
X48173Y63939D01*
X48120Y63886D01*
X48037Y63840D01*
X47955Y63886D01*
X47902Y63939D01*
X47755Y64000D01*
D02*
G37*
G36*
X31580Y63850D02*
X31420D01*
X31273Y63789D01*
X31161Y63677D01*
X31100Y63530D01*
Y63370D01*
X31161Y63223D01*
X31273Y63111D01*
X31420Y63050D01*
X31580D01*
X31727Y63111D01*
X31839Y63223D01*
X31900Y63370D01*
Y63530D01*
X31839Y63677D01*
X31727Y63789D01*
X31580Y63850D01*
D02*
G37*
G36*
X44955Y63775D02*
X44795D01*
X44648Y63714D01*
X44536Y63602D01*
X44475Y63455D01*
Y63295D01*
X44536Y63148D01*
X44648Y63036D01*
X44795Y62975D01*
X44955D01*
X45102Y63036D01*
X45214Y63148D01*
X45275Y63295D01*
Y63455D01*
X45214Y63602D01*
X45102Y63714D01*
X44955Y63775D01*
D02*
G37*
G36*
X41780Y61250D02*
X41620D01*
X41473Y61189D01*
X41361Y61077D01*
X41300Y60930D01*
Y60770D01*
X41361Y60623D01*
X41473Y60511D01*
X41620Y60450D01*
X41780D01*
X41927Y60511D01*
X42039Y60623D01*
X42100Y60770D01*
Y60930D01*
X42039Y61077D01*
X41927Y61189D01*
X41780Y61250D01*
D02*
G37*
G36*
X54980Y59700D02*
X54820D01*
X54673Y59639D01*
X54561Y59527D01*
X54500Y59380D01*
Y59220D01*
X54561Y59073D01*
X54673Y58961D01*
X54820Y58900D01*
X54980D01*
X55127Y58961D01*
X55239Y59073D01*
X55300Y59220D01*
Y59380D01*
X55239Y59527D01*
X55127Y59639D01*
X54980Y59700D01*
D02*
G37*
G36*
X31530Y59800D02*
X31370D01*
X31223Y59739D01*
X31111Y59627D01*
X31050Y59480D01*
Y59320D01*
X31111Y59173D01*
X31223Y59061D01*
X31313Y59024D01*
X31317Y58964D01*
X31300Y58892D01*
X31173Y58839D01*
X31061Y58727D01*
X31017Y58621D01*
X30883D01*
X30839Y58727D01*
X30727Y58839D01*
X30580Y58900D01*
X30420D01*
X30273Y58839D01*
X30161Y58727D01*
X30100Y58580D01*
Y58420D01*
X30161Y58273D01*
X30273Y58161D01*
X30420Y58100D01*
X30580D01*
X30727Y58161D01*
X30839Y58273D01*
X30883Y58379D01*
X31017D01*
X31061Y58273D01*
X31173Y58161D01*
X31320Y58100D01*
X31480D01*
X31627Y58161D01*
X31739Y58273D01*
X31800Y58420D01*
Y58580D01*
X31739Y58727D01*
X31627Y58839D01*
X31537Y58876D01*
X31533Y58936D01*
X31550Y59008D01*
X31677Y59061D01*
X31789Y59173D01*
X31850Y59320D01*
Y59480D01*
X31789Y59627D01*
X31677Y59739D01*
X31530Y59800D01*
D02*
G37*
G36*
X54105Y58900D02*
X53946D01*
X53799Y58839D01*
X53687Y58727D01*
X53626Y58580D01*
Y58420D01*
X53687Y58273D01*
X53799Y58161D01*
X53946Y58100D01*
X54105D01*
X54252Y58161D01*
X54365Y58273D01*
X54426Y58420D01*
Y58580D01*
X54365Y58727D01*
X54252Y58839D01*
X54105Y58900D01*
D02*
G37*
G36*
X41930Y58100D02*
X41770D01*
X41623Y58039D01*
X41511Y57927D01*
X41450Y57780D01*
Y57620D01*
X41511Y57473D01*
X41623Y57361D01*
X41770Y57300D01*
X41930D01*
X42077Y57361D01*
X42189Y57473D01*
X42250Y57620D01*
Y57780D01*
X42189Y57927D01*
X42077Y58039D01*
X41930Y58100D01*
D02*
G37*
G36*
X42003Y56348D02*
X41843D01*
X41696Y56287D01*
X41584Y56175D01*
X41523Y56028D01*
Y55868D01*
X41584Y55721D01*
X41696Y55609D01*
X41843Y55548D01*
X42003D01*
X42150Y55609D01*
X42262Y55721D01*
X42323Y55868D01*
Y56028D01*
X42262Y56175D01*
X42150Y56287D01*
X42003Y56348D01*
D02*
G37*
G36*
X32630Y56000D02*
X32470D01*
X32323Y55939D01*
X32211Y55827D01*
X32150Y55680D01*
Y55520D01*
X32211Y55373D01*
X32323Y55261D01*
X32470Y55200D01*
X32630D01*
X32777Y55261D01*
X32889Y55373D01*
X32950Y55520D01*
Y55680D01*
X32889Y55827D01*
X32777Y55939D01*
X32630Y56000D01*
D02*
G37*
G36*
X42839Y55801D02*
X42679D01*
X42532Y55740D01*
X42420Y55628D01*
X42359Y55481D01*
Y55322D01*
X42420Y55175D01*
X42532Y55062D01*
X42679Y55001D01*
X42839D01*
X42986Y55062D01*
X43098Y55175D01*
X43159Y55322D01*
Y55481D01*
X43098Y55628D01*
X42986Y55740D01*
X42839Y55801D01*
D02*
G37*
G36*
X39197Y55663D02*
X39037D01*
X38890Y55602D01*
X38778Y55490D01*
X38717Y55343D01*
Y55184D01*
X38778Y55037D01*
X38890Y54924D01*
X39037Y54863D01*
X39197D01*
X39344Y54924D01*
X39456Y55037D01*
X39517Y55184D01*
Y55343D01*
X39456Y55490D01*
X39344Y55602D01*
X39197Y55663D01*
D02*
G37*
G36*
X35280Y56179D02*
X35120D01*
X34973Y56118D01*
X34861Y56005D01*
X34800Y55858D01*
Y55699D01*
X34861Y55552D01*
X34973Y55440D01*
X35120Y55379D01*
X35177D01*
X35202Y55252D01*
X35086Y55204D01*
X34973Y55091D01*
X34912Y54944D01*
Y54785D01*
X34973Y54638D01*
X35050Y54562D01*
X35046Y54543D01*
X34933Y54430D01*
X34873Y54283D01*
Y54124D01*
X34933Y53977D01*
X35046Y53865D01*
X35193Y53804D01*
X35352D01*
X35499Y53865D01*
X35612Y53977D01*
X35673Y54124D01*
Y54283D01*
X35612Y54430D01*
X35535Y54507D01*
X35539Y54525D01*
X35652Y54638D01*
X35712Y54785D01*
Y54944D01*
X35652Y55091D01*
X35539Y55204D01*
X35392Y55265D01*
X35335D01*
X35310Y55392D01*
X35427Y55440D01*
X35539Y55552D01*
X35600Y55699D01*
Y55858D01*
X35539Y56005D01*
X35427Y56118D01*
X35280Y56179D01*
D02*
G37*
G36*
X34205Y53700D02*
X34045D01*
X33898Y53639D01*
X33786Y53527D01*
X33725Y53380D01*
Y53220D01*
X33786Y53073D01*
X33898Y52961D01*
X34045Y52900D01*
X34205D01*
X34352Y52961D01*
X34464Y53073D01*
X34525Y53220D01*
Y53380D01*
X34464Y53527D01*
X34352Y53639D01*
X34205Y53700D01*
D02*
G37*
G36*
X76280Y53375D02*
X76120D01*
X75973Y53314D01*
X75861Y53202D01*
X75800Y53055D01*
Y52895D01*
X75861Y52748D01*
X75973Y52636D01*
X76120Y52575D01*
X76280D01*
X76427Y52636D01*
X76539Y52748D01*
X76600Y52895D01*
Y53055D01*
X76539Y53202D01*
X76427Y53314D01*
X76280Y53375D01*
D02*
G37*
G36*
X50780Y53300D02*
X50620D01*
X50473Y53239D01*
X50361Y53127D01*
X50300Y52980D01*
Y52820D01*
X50361Y52673D01*
X50473Y52561D01*
X50620Y52500D01*
X50780D01*
X50927Y52561D01*
X51039Y52673D01*
X51100Y52820D01*
Y52980D01*
X51039Y53127D01*
X50927Y53239D01*
X50780Y53300D01*
D02*
G37*
G36*
X49980Y52400D02*
X49820D01*
X49673Y52339D01*
X49561Y52227D01*
X49500Y52080D01*
Y51920D01*
X49561Y51773D01*
X49673Y51661D01*
X49820Y51600D01*
X49980D01*
X50127Y51661D01*
X50239Y51773D01*
X50300Y51920D01*
Y52080D01*
X50239Y52227D01*
X50127Y52339D01*
X49980Y52400D01*
D02*
G37*
G36*
X30455Y51925D02*
X30295D01*
X30148Y51864D01*
X30036Y51752D01*
X29975Y51605D01*
Y51445D01*
X30036Y51298D01*
X30148Y51186D01*
X30295Y51125D01*
X30455D01*
X30602Y51186D01*
X30714Y51298D01*
X30775Y51445D01*
Y51605D01*
X30714Y51752D01*
X30602Y51864D01*
X30455Y51925D01*
D02*
G37*
G36*
X33980Y50850D02*
X33820D01*
X33673Y50789D01*
X33561Y50677D01*
X33500Y50530D01*
Y50370D01*
X33561Y50223D01*
X33673Y50111D01*
X33820Y50050D01*
X33980D01*
X34127Y50111D01*
X34239Y50223D01*
X34376Y50222D01*
X34386Y50198D01*
X34498Y50086D01*
X34645Y50025D01*
X34805D01*
X34952Y50086D01*
X35064Y50198D01*
X35106Y50300D01*
X35118Y50302D01*
X35239Y50288D01*
X35286Y50173D01*
X35398Y50061D01*
X35545Y50000D01*
X35705D01*
X35852Y50061D01*
X35964Y50173D01*
X36025Y50320D01*
Y50480D01*
X35964Y50627D01*
X35852Y50739D01*
X35705Y50800D01*
X35545D01*
X35398Y50739D01*
X35286Y50627D01*
X35244Y50525D01*
X35232Y50523D01*
X35111Y50537D01*
X35064Y50652D01*
X34952Y50764D01*
X34805Y50825D01*
X34645D01*
X34498Y50764D01*
X34386Y50652D01*
X34249Y50653D01*
X34239Y50677D01*
X34127Y50789D01*
X33980Y50850D01*
D02*
G37*
G36*
X41313Y51350D02*
X41154D01*
X41007Y51289D01*
X40894Y51177D01*
X40833Y51030D01*
Y50870D01*
X40894Y50723D01*
X41007Y50611D01*
X41009Y50596D01*
X40911Y50498D01*
X40850Y50351D01*
Y50191D01*
X40911Y50044D01*
X41023Y49932D01*
X41170Y49871D01*
X41330D01*
X41477Y49932D01*
X41589Y50044D01*
X41650Y50191D01*
Y50351D01*
X41589Y50498D01*
X41477Y50610D01*
X41474Y50625D01*
X41572Y50723D01*
X41633Y50870D01*
Y51030D01*
X41572Y51177D01*
X41460Y51289D01*
X41313Y51350D01*
D02*
G37*
G36*
X54380Y49850D02*
X54220D01*
X54073Y49789D01*
X53961Y49677D01*
X53900Y49530D01*
Y49370D01*
X53961Y49223D01*
X54073Y49111D01*
X54220Y49050D01*
X54380D01*
X54527Y49111D01*
X54639Y49223D01*
X54700Y49370D01*
Y49530D01*
X54639Y49677D01*
X54527Y49789D01*
X54380Y49850D01*
D02*
G37*
G36*
X40080Y49600D02*
X39920D01*
X39773Y49539D01*
X39661Y49427D01*
X39600Y49280D01*
Y49120D01*
X39661Y48973D01*
X39773Y48861D01*
X39920Y48800D01*
X40080D01*
X40227Y48861D01*
X40339Y48973D01*
X40400Y49120D01*
Y49280D01*
X40339Y49427D01*
X40227Y49539D01*
X40080Y49600D01*
D02*
G37*
G36*
X53205Y49550D02*
X53045D01*
X52898Y49489D01*
X52786Y49377D01*
X52725Y49230D01*
Y49070D01*
X52786Y48923D01*
X52898Y48811D01*
X53045Y48750D01*
X53205D01*
X53352Y48811D01*
X53464Y48923D01*
X53525Y49070D01*
Y49230D01*
X53464Y49377D01*
X53352Y49489D01*
X53205Y49550D01*
D02*
G37*
G36*
X37980Y48800D02*
X37820D01*
X37673Y48739D01*
X37561Y48627D01*
X37500Y48480D01*
Y48320D01*
X37561Y48173D01*
X37673Y48061D01*
X37820Y48000D01*
X37980D01*
X38127Y48061D01*
X38239Y48173D01*
X38300Y48320D01*
Y48480D01*
X38239Y48627D01*
X38127Y48739D01*
X37980Y48800D01*
D02*
G37*
G36*
X38780Y48100D02*
X38620D01*
X38473Y48039D01*
X38361Y47927D01*
X38300Y47780D01*
Y47620D01*
X38361Y47473D01*
X38473Y47361D01*
X38620Y47300D01*
X38780D01*
X38927Y47361D01*
X39039Y47473D01*
X39100Y47620D01*
Y47780D01*
X39039Y47927D01*
X38927Y48039D01*
X38780Y48100D01*
D02*
G37*
G36*
X25795Y47306D02*
X25636D01*
X25489Y47245D01*
X25376Y47133D01*
X25315Y46986D01*
Y46827D01*
X25376Y46680D01*
X25489Y46567D01*
X25636Y46506D01*
X25795D01*
X25942Y46567D01*
X26002Y46627D01*
X26105Y46653D01*
X26163Y46622D01*
X26239Y46546D01*
X26386Y46485D01*
X26545D01*
X26692Y46546D01*
X26805Y46659D01*
X26866Y46806D01*
Y46965D01*
X26805Y47112D01*
X26692Y47224D01*
X26545Y47285D01*
X26386D01*
X26239Y47224D01*
X26179Y47164D01*
X26076Y47138D01*
X26018Y47169D01*
X25942Y47245D01*
X25795Y47306D01*
D02*
G37*
G36*
X46830Y46650D02*
X46670D01*
X46523Y46589D01*
X46411Y46477D01*
X46350Y46330D01*
Y46170D01*
X46411Y46023D01*
X46523Y45911D01*
X46670Y45850D01*
X46830D01*
X46977Y45911D01*
X47089Y46023D01*
X47150Y46170D01*
Y46330D01*
X47089Y46477D01*
X46977Y46589D01*
X46830Y46650D01*
D02*
G37*
G36*
X83439Y46202D02*
X83397D01*
Y45376D01*
X84222D01*
Y45419D01*
X84160Y45648D01*
X84041Y45854D01*
X83874Y46021D01*
X83668Y46140D01*
X83439Y46202D01*
D02*
G37*
G36*
X83244D02*
X83201D01*
X82972Y46140D01*
X82766Y46021D01*
X82599Y45854D01*
X82480Y45648D01*
X82418Y45419D01*
Y45376D01*
X83244D01*
Y46202D01*
D02*
G37*
G36*
X26545Y46324D02*
X26386D01*
X26239Y46263D01*
X26126Y46150D01*
X26066Y46003D01*
Y45844D01*
X26126Y45697D01*
X26239Y45584D01*
X26370Y45530D01*
X26377Y45478D01*
Y45455D01*
X26370Y45403D01*
X26239Y45349D01*
X26126Y45237D01*
X26109Y45194D01*
X25971D01*
X25949Y45247D01*
X25837Y45360D01*
X25690Y45421D01*
X25531D01*
X25384Y45360D01*
X25286Y45262D01*
X25224Y45251D01*
X25139Y45259D01*
X25045Y45353D01*
X24898Y45414D01*
X24739D01*
X24591Y45353D01*
X24479Y45240D01*
X24418Y45093D01*
Y44934D01*
X24479Y44787D01*
X24591Y44674D01*
X24739Y44613D01*
X24898D01*
X25045Y44674D01*
X25143Y44772D01*
X25205Y44783D01*
X25290Y44775D01*
X25384Y44681D01*
X25531Y44621D01*
X25690D01*
X25837Y44681D01*
X25949Y44794D01*
X25967Y44836D01*
X26104D01*
X26126Y44783D01*
X26239Y44671D01*
X26386Y44610D01*
X26545D01*
X26692Y44671D01*
X26805Y44783D01*
X26866Y44930D01*
Y45090D01*
X26805Y45237D01*
X26692Y45349D01*
X26561Y45403D01*
X26554Y45455D01*
Y45478D01*
X26561Y45530D01*
X26692Y45584D01*
X26805Y45697D01*
X26866Y45844D01*
Y46003D01*
X26805Y46150D01*
X26692Y46263D01*
X26545Y46324D01*
D02*
G37*
G36*
X84222Y45223D02*
X83397D01*
Y44398D01*
X83439D01*
X83668Y44460D01*
X83874Y44579D01*
X84041Y44746D01*
X84160Y44952D01*
X84222Y45181D01*
Y45223D01*
D02*
G37*
G36*
X83244D02*
X82418D01*
Y45181D01*
X82480Y44952D01*
X82599Y44746D01*
X82766Y44579D01*
X82972Y44460D01*
X83201Y44398D01*
X83244D01*
Y45223D01*
D02*
G37*
G36*
X89352Y46252D02*
X87448D01*
Y44348D01*
X89352D01*
Y46252D01*
D02*
G37*
G36*
X85985D02*
X85735D01*
X85493Y46187D01*
X85275Y46062D01*
X85098Y45885D01*
X84973Y45667D01*
X84908Y45425D01*
Y45175D01*
X84973Y44933D01*
X85098Y44715D01*
X85275Y44538D01*
X85493Y44413D01*
X85735Y44348D01*
X85985D01*
X86227Y44413D01*
X86445Y44538D01*
X86622Y44715D01*
X86747Y44933D01*
X86812Y45175D01*
Y45425D01*
X86747Y45667D01*
X86622Y45885D01*
X86445Y46062D01*
X86227Y46187D01*
X85985Y46252D01*
D02*
G37*
G36*
X80905D02*
X80655D01*
X80413Y46187D01*
X80195Y46062D01*
X80018Y45885D01*
X79893Y45667D01*
X79828Y45425D01*
Y45175D01*
X79893Y44933D01*
X80018Y44715D01*
X80195Y44538D01*
X80413Y44413D01*
X80655Y44348D01*
X80905D01*
X81147Y44413D01*
X81365Y44538D01*
X81542Y44715D01*
X81667Y44933D01*
X81732Y45175D01*
Y45425D01*
X81667Y45667D01*
X81542Y45885D01*
X81365Y46062D01*
X81147Y46187D01*
X80905Y46252D01*
D02*
G37*
G36*
X78365D02*
X78115D01*
X77873Y46187D01*
X77655Y46062D01*
X77478Y45885D01*
X77353Y45667D01*
X77288Y45425D01*
Y45175D01*
X77353Y44933D01*
X77478Y44715D01*
X77655Y44538D01*
X77873Y44413D01*
X78115Y44348D01*
X78365D01*
X78607Y44413D01*
X78825Y44538D01*
X79002Y44715D01*
X79127Y44933D01*
X79192Y45175D01*
Y45425D01*
X79127Y45667D01*
X79002Y45885D01*
X78825Y46062D01*
X78607Y46187D01*
X78365Y46252D01*
D02*
G37*
G36*
X75825D02*
X75575D01*
X75333Y46187D01*
X75115Y46062D01*
X74938Y45885D01*
X74813Y45667D01*
X74748Y45425D01*
Y45175D01*
X74813Y44933D01*
X74938Y44715D01*
X75115Y44538D01*
X75333Y44413D01*
X75575Y44348D01*
X75825D01*
X76067Y44413D01*
X76285Y44538D01*
X76462Y44715D01*
X76587Y44933D01*
X76652Y45175D01*
Y45425D01*
X76587Y45667D01*
X76462Y45885D01*
X76285Y46062D01*
X76067Y46187D01*
X75825Y46252D01*
D02*
G37*
G36*
X72034Y46142D02*
X71786D01*
X71546Y46078D01*
X71332Y45954D01*
X71156Y45778D01*
X71032Y45564D01*
X70968Y45324D01*
Y45076D01*
X71032Y44836D01*
X71156Y44622D01*
X71332Y44446D01*
X71546Y44322D01*
X71786Y44258D01*
X72034D01*
X72274Y44322D01*
X72488Y44446D01*
X72664Y44622D01*
X72788Y44836D01*
X72852Y45076D01*
Y45324D01*
X72788Y45564D01*
X72664Y45778D01*
X72488Y45954D01*
X72274Y46078D01*
X72034Y46142D01*
D02*
G37*
G36*
X64414D02*
X64166D01*
X63926Y46078D01*
X63712Y45954D01*
X63536Y45778D01*
X63412Y45564D01*
X63348Y45324D01*
Y45076D01*
X63412Y44836D01*
X63536Y44622D01*
X63712Y44446D01*
X63926Y44322D01*
X64166Y44258D01*
X64414D01*
X64654Y44322D01*
X64868Y44446D01*
X65044Y44622D01*
X65168Y44836D01*
X65232Y45076D01*
Y45324D01*
X65168Y45564D01*
X65044Y45778D01*
X64868Y45954D01*
X64654Y46078D01*
X64414Y46142D01*
D02*
G37*
G36*
X9114Y44564D02*
X9076D01*
Y43776D01*
X9864D01*
Y43814D01*
X9805Y44033D01*
X9691Y44230D01*
X9530Y44391D01*
X9333Y44505D01*
X9114Y44564D01*
D02*
G37*
G36*
X8923D02*
X8886D01*
X8667Y44505D01*
X8470Y44391D01*
X8309Y44230D01*
X8195Y44033D01*
X8136Y43814D01*
Y43776D01*
X8923D01*
Y44564D01*
D02*
G37*
G36*
X13172Y43701D02*
X13013D01*
X12866Y43640D01*
X12753Y43528D01*
X12692Y43381D01*
Y43222D01*
X12753Y43075D01*
X12866Y42962D01*
X13013Y42901D01*
X13172D01*
X13319Y42962D01*
X13432Y43075D01*
X13492Y43222D01*
Y43381D01*
X13432Y43528D01*
X13319Y43640D01*
X13172Y43701D01*
D02*
G37*
G36*
X9864Y43623D02*
X9076D01*
Y42836D01*
X9114D01*
X9333Y42895D01*
X9530Y43009D01*
X9691Y43170D01*
X9805Y43367D01*
X9864Y43586D01*
Y43623D01*
D02*
G37*
G36*
X8923D02*
X8136D01*
Y43586D01*
X8195Y43367D01*
X8309Y43170D01*
X8470Y43009D01*
X8667Y42895D01*
X8886Y42836D01*
X8923D01*
Y43623D01*
D02*
G37*
G36*
X4040Y44614D02*
X3800D01*
X3567Y44552D01*
X3359Y44431D01*
X3189Y44261D01*
X3068Y44053D01*
X3006Y43820D01*
Y43580D01*
X3068Y43347D01*
X3189Y43139D01*
X3359Y42969D01*
X3567Y42848D01*
X3800Y42786D01*
X4040D01*
X4273Y42848D01*
X4481Y42969D01*
X4651Y43139D01*
X4772Y43347D01*
X4834Y43580D01*
Y43820D01*
X4772Y44053D01*
X4651Y44261D01*
X4481Y44431D01*
X4273Y44552D01*
X4040Y44614D01*
D02*
G37*
G36*
X87755Y43700D02*
X87595D01*
X87448Y43639D01*
X87336Y43527D01*
X87275Y43380D01*
Y43220D01*
X87336Y43073D01*
X87447Y42963D01*
X87336Y42852D01*
X87275Y42705D01*
Y42545D01*
X87336Y42398D01*
X87448Y42286D01*
X87595Y42225D01*
X87755D01*
X87902Y42286D01*
X87955Y42339D01*
X88037Y42385D01*
X88120Y42339D01*
X88173Y42286D01*
X88320Y42225D01*
X88480D01*
X88627Y42286D01*
X88739Y42398D01*
X88800Y42545D01*
Y42705D01*
X88739Y42852D01*
X88627Y42964D01*
X88480Y43025D01*
X88320D01*
X88173Y42964D01*
X88126Y42917D01*
X88108Y42917D01*
X87980Y42978D01*
X87968Y43028D01*
X88014Y43073D01*
X88075Y43220D01*
Y43380D01*
X88014Y43527D01*
X87902Y43639D01*
X87755Y43700D01*
D02*
G37*
G36*
X16955Y42750D02*
X16795D01*
X16648Y42689D01*
X16536Y42577D01*
X16475Y42430D01*
Y42270D01*
X16536Y42123D01*
X16648Y42011D01*
X16795Y41950D01*
X16955D01*
X17102Y42011D01*
X17214Y42123D01*
X17275Y42270D01*
Y42430D01*
X17214Y42577D01*
X17102Y42689D01*
X16955Y42750D01*
D02*
G37*
G36*
X15130D02*
X14970D01*
X14823Y42689D01*
X14711Y42577D01*
X14650Y42430D01*
Y42270D01*
X14711Y42123D01*
X14823Y42011D01*
X14970Y41950D01*
X15130D01*
X15277Y42011D01*
X15389Y42123D01*
X15450Y42270D01*
Y42430D01*
X15389Y42577D01*
X15277Y42689D01*
X15130Y42750D01*
D02*
G37*
G36*
X12852D02*
X12693D01*
X12546Y42689D01*
X12434Y42577D01*
X12373Y42430D01*
Y42270D01*
X12434Y42123D01*
X12546Y42011D01*
X12693Y41950D01*
X12852D01*
X12999Y42011D01*
X13112Y42123D01*
X13173Y42270D01*
Y42430D01*
X13112Y42577D01*
X12999Y42689D01*
X12852Y42750D01*
D02*
G37*
G36*
X55135Y42531D02*
X54976D01*
X54829Y42470D01*
X54717Y42357D01*
X54656Y42210D01*
Y42051D01*
X54717Y41904D01*
X54829Y41791D01*
X54976Y41731D01*
X55135D01*
X55282Y41791D01*
X55395Y41904D01*
X55456Y42051D01*
Y42210D01*
X55395Y42357D01*
X55282Y42470D01*
X55135Y42531D01*
D02*
G37*
G36*
X16955Y41350D02*
X16795D01*
X16648Y41289D01*
X16536Y41177D01*
X16492Y41071D01*
X16358D01*
X16314Y41177D01*
X16202Y41289D01*
X16055Y41350D01*
X15895D01*
X15748Y41289D01*
X15636Y41177D01*
X15575Y41030D01*
X15451D01*
X15390Y41177D01*
X15278Y41289D01*
X15131Y41350D01*
X14971D01*
X14824Y41289D01*
X14712Y41177D01*
X14651Y41030D01*
Y40870D01*
X14712Y40723D01*
X14824Y40611D01*
X14971Y40550D01*
X15131D01*
X15278Y40611D01*
X15390Y40723D01*
X15451Y40870D01*
X15575D01*
X15636Y40723D01*
X15748Y40611D01*
X15895Y40550D01*
X16055D01*
X16202Y40611D01*
X16314Y40723D01*
X16358Y40829D01*
X16492D01*
X16536Y40723D01*
X16648Y40611D01*
X16795Y40550D01*
X16955D01*
X17102Y40611D01*
X17214Y40723D01*
X17275Y40870D01*
Y41030D01*
X17214Y41177D01*
X17102Y41289D01*
X16955Y41350D01*
D02*
G37*
G36*
X41055Y41575D02*
X40895D01*
X40748Y41514D01*
X40636Y41402D01*
X40575Y41255D01*
Y41095D01*
X40636Y40948D01*
X40748Y40836D01*
X40895Y40775D01*
X41055D01*
X41202Y40836D01*
X41314Y40948D01*
X41375Y41095D01*
Y41255D01*
X41314Y41402D01*
X41202Y41514D01*
X41055Y41575D01*
D02*
G37*
G36*
X26330Y40875D02*
X26170D01*
X26023Y40814D01*
X25911Y40702D01*
X25850Y40555D01*
Y40395D01*
X25911Y40248D01*
X26023Y40136D01*
X26170Y40075D01*
X26330D01*
X26477Y40136D01*
X26589Y40248D01*
X26650Y40395D01*
Y40555D01*
X26589Y40702D01*
X26477Y40814D01*
X26330Y40875D01*
D02*
G37*
G36*
X20880Y39900D02*
X20720D01*
X20573Y39839D01*
X20533Y39799D01*
X20450Y39735D01*
X20367Y39799D01*
X20327Y39839D01*
X20180Y39900D01*
X20020D01*
X19873Y39839D01*
X19761Y39727D01*
X19700Y39580D01*
Y39420D01*
X19761Y39273D01*
X19873Y39161D01*
X20020Y39100D01*
X20180D01*
X20327Y39161D01*
X20367Y39201D01*
X20450Y39265D01*
X20533Y39201D01*
X20573Y39161D01*
X20720Y39100D01*
X20880D01*
X21027Y39161D01*
X21139Y39273D01*
X21200Y39420D01*
Y39580D01*
X21139Y39727D01*
X21027Y39839D01*
X20880Y39900D01*
D02*
G37*
G36*
X55135Y40410D02*
X54976D01*
X54829Y40349D01*
X54717Y40237D01*
X54656Y40090D01*
Y39931D01*
X54717Y39784D01*
X54829Y39671D01*
X54976Y39610D01*
X55135D01*
X55282Y39671D01*
X55395Y39784D01*
X55456Y39931D01*
Y40090D01*
X55395Y40237D01*
X55282Y40349D01*
X55135Y40410D01*
D02*
G37*
G36*
X41005Y40395D02*
X40845D01*
X40698Y40334D01*
X40586Y40222D01*
X40525Y40075D01*
Y39916D01*
X40586Y39769D01*
X40698Y39656D01*
X40845Y39595D01*
X41005D01*
X41152Y39656D01*
X41264Y39769D01*
X41325Y39916D01*
Y40075D01*
X41264Y40222D01*
X41152Y40334D01*
X41005Y40395D01*
D02*
G37*
G36*
X42455Y39325D02*
X42295D01*
X42148Y39264D01*
X42036Y39152D01*
X41975Y39005D01*
Y38845D01*
X42036Y38698D01*
X42148Y38586D01*
X42295Y38525D01*
X42455D01*
X42602Y38586D01*
X42714Y38698D01*
X42775Y38845D01*
Y39005D01*
X42714Y39152D01*
X42602Y39264D01*
X42455Y39325D01*
D02*
G37*
G36*
X41205D02*
X41045D01*
X40898Y39264D01*
X40786Y39152D01*
X40725Y39005D01*
Y38845D01*
X40786Y38698D01*
X40898Y38586D01*
X41045Y38525D01*
X41205D01*
X41352Y38586D01*
X41464Y38698D01*
X41525Y38845D01*
Y39005D01*
X41464Y39152D01*
X41352Y39264D01*
X41205Y39325D01*
D02*
G37*
G36*
X43530Y39300D02*
X43370D01*
X43223Y39239D01*
X43111Y39127D01*
X43050Y38980D01*
Y38820D01*
X43111Y38673D01*
X43223Y38561D01*
X43370Y38500D01*
X43530D01*
X43677Y38561D01*
X43789Y38673D01*
X43850Y38820D01*
Y38980D01*
X43789Y39127D01*
X43677Y39239D01*
X43530Y39300D01*
D02*
G37*
G36*
X55135Y38128D02*
X54976D01*
X54829Y38067D01*
X54717Y37955D01*
X54656Y37808D01*
Y37648D01*
X54717Y37501D01*
X54829Y37389D01*
X54976Y37328D01*
X55135D01*
X55282Y37389D01*
X55395Y37501D01*
X55456Y37648D01*
Y37808D01*
X55395Y37955D01*
X55282Y38067D01*
X55135Y38128D01*
D02*
G37*
G36*
X7080Y37400D02*
X6920D01*
X6773Y37339D01*
X6661Y37227D01*
X6600Y37080D01*
Y36920D01*
X6661Y36773D01*
X6773Y36661D01*
X6920Y36600D01*
X7080D01*
X7094Y36606D01*
X7200Y36536D01*
Y36520D01*
X7261Y36373D01*
X7373Y36261D01*
X7520Y36200D01*
X7680D01*
X7827Y36261D01*
X7939Y36373D01*
X8000Y36520D01*
Y36680D01*
X7939Y36827D01*
X7827Y36939D01*
X7680Y37000D01*
X7520D01*
X7506Y36994D01*
X7400Y37064D01*
Y37080D01*
X7339Y37227D01*
X7227Y37339D01*
X7080Y37400D01*
D02*
G37*
G36*
X22375Y36979D02*
X22216D01*
X22069Y36918D01*
X21957Y36806D01*
X21896Y36659D01*
Y36500D01*
X21957Y36353D01*
X22069Y36240D01*
X22216Y36179D01*
X22375D01*
X22522Y36240D01*
X22635Y36353D01*
X22696Y36500D01*
Y36659D01*
X22635Y36806D01*
X22522Y36918D01*
X22375Y36979D01*
D02*
G37*
G36*
X20114Y37338D02*
X19955D01*
X19808Y37277D01*
X19696Y37164D01*
X19635Y37017D01*
Y36858D01*
X19696Y36711D01*
X19808Y36599D01*
X19955Y36538D01*
X20114D01*
X20261Y36599D01*
X20273Y36610D01*
X20400Y36558D01*
Y36500D01*
X20461Y36353D01*
X20573Y36240D01*
X20720Y36179D01*
X20880D01*
X21027Y36240D01*
X21139Y36353D01*
X21200Y36500D01*
Y36659D01*
X21139Y36806D01*
X21027Y36918D01*
X20880Y36979D01*
X20720D01*
X20573Y36918D01*
X20562Y36907D01*
X20435Y36959D01*
Y37017D01*
X20374Y37164D01*
X20261Y37277D01*
X20114Y37338D01*
D02*
G37*
G36*
X9480Y36900D02*
X9320D01*
X9173Y36839D01*
X9061Y36727D01*
X9000Y36580D01*
Y36420D01*
X9061Y36273D01*
X9173Y36161D01*
X9320Y36100D01*
X9480D01*
X9627Y36161D01*
X9739Y36273D01*
X9800Y36420D01*
Y36580D01*
X9739Y36727D01*
X9627Y36839D01*
X9480Y36900D01*
D02*
G37*
G36*
X39055Y36875D02*
X38895D01*
X38748Y36814D01*
X38636Y36702D01*
X38575Y36555D01*
Y36395D01*
X38636Y36248D01*
X38748Y36136D01*
X38895Y36075D01*
X39055D01*
X39202Y36136D01*
X39314Y36248D01*
X39375Y36395D01*
Y36555D01*
X39314Y36702D01*
X39202Y36814D01*
X39055Y36875D01*
D02*
G37*
G36*
X70205Y36825D02*
X70045D01*
X69898Y36764D01*
X69786Y36652D01*
X69725Y36505D01*
Y36345D01*
X69786Y36198D01*
X69898Y36086D01*
X70045Y36025D01*
X70205D01*
X70352Y36086D01*
X70464Y36198D01*
X70525Y36345D01*
Y36505D01*
X70464Y36652D01*
X70352Y36764D01*
X70205Y36825D01*
D02*
G37*
G36*
X32404Y36142D02*
X32245D01*
X32098Y36081D01*
X31986Y35968D01*
X31925Y35821D01*
Y35662D01*
X31986Y35515D01*
X32098Y35402D01*
X32245Y35342D01*
X32404D01*
X32551Y35402D01*
X32664Y35515D01*
X32725Y35662D01*
Y35821D01*
X32664Y35968D01*
X32551Y36081D01*
X32404Y36142D01*
D02*
G37*
G36*
X19575Y35829D02*
X19416D01*
X19269Y35768D01*
X19156Y35655D01*
X19095Y35508D01*
Y35349D01*
X19156Y35202D01*
X19269Y35090D01*
X19416Y35029D01*
X19575D01*
X19722Y35090D01*
X19834Y35202D01*
X19895Y35349D01*
Y35508D01*
X19834Y35655D01*
X19722Y35768D01*
X19575Y35829D01*
D02*
G37*
G36*
X10130Y35725D02*
X9970D01*
X9823Y35664D01*
X9711Y35552D01*
X9650Y35405D01*
Y35245D01*
X9711Y35098D01*
X9823Y34986D01*
X9970Y34925D01*
X10130D01*
X10277Y34986D01*
X10389Y35098D01*
X10450Y35245D01*
Y35405D01*
X10389Y35552D01*
X10277Y35664D01*
X10130Y35725D01*
D02*
G37*
G36*
X23105Y35700D02*
X22945D01*
X22798Y35639D01*
X22686Y35527D01*
X22625Y35380D01*
Y35220D01*
X22686Y35073D01*
X22798Y34961D01*
X22945Y34900D01*
X23105D01*
X23252Y34961D01*
X23364Y35073D01*
X23425Y35220D01*
Y35380D01*
X23364Y35527D01*
X23252Y35639D01*
X23105Y35700D01*
D02*
G37*
G36*
X17580Y35600D02*
X17420D01*
X17273Y35539D01*
X17161Y35427D01*
X17100Y35280D01*
Y35120D01*
X17161Y34973D01*
X17273Y34861D01*
X17420Y34800D01*
X17580D01*
X17727Y34861D01*
X17839Y34973D01*
X17900Y35120D01*
Y35280D01*
X17839Y35427D01*
X17727Y35539D01*
X17580Y35600D01*
D02*
G37*
G36*
X49430Y35400D02*
X49270D01*
X49123Y35339D01*
X49011Y35227D01*
X48950Y35080D01*
Y34920D01*
X49011Y34773D01*
X49123Y34661D01*
X49270Y34600D01*
X49430D01*
X49577Y34661D01*
X49689Y34773D01*
X49750Y34920D01*
Y35080D01*
X49689Y35227D01*
X49577Y35339D01*
X49430Y35400D01*
D02*
G37*
G36*
X68655Y35088D02*
X68495D01*
X68348Y35027D01*
X68236Y34914D01*
X68175Y34767D01*
Y34608D01*
X68236Y34461D01*
X68348Y34348D01*
X68495Y34288D01*
X68655D01*
X68802Y34348D01*
X68914Y34461D01*
X68975Y34608D01*
Y34767D01*
X68914Y34914D01*
X68802Y35027D01*
X68655Y35088D01*
D02*
G37*
G36*
X6615Y35740D02*
X6455D01*
X6308Y35679D01*
X6196Y35566D01*
X6135Y35419D01*
Y35260D01*
X6196Y35113D01*
X6308Y35001D01*
X6411Y34958D01*
X6415Y34822D01*
X6414Y34822D01*
X6302Y34709D01*
X6241Y34562D01*
Y34403D01*
X6157Y34274D01*
X6073Y34239D01*
X5961Y34127D01*
X5931Y34055D01*
X5814Y34086D01*
X5814Y34133D01*
Y34245D01*
X5753Y34392D01*
X5641Y34505D01*
X5494Y34566D01*
X5334D01*
X5187Y34505D01*
X5075Y34392D01*
X5014Y34245D01*
Y34086D01*
X5075Y33939D01*
X5187Y33827D01*
X5334Y33766D01*
X5494D01*
X5641Y33827D01*
X5753Y33939D01*
X5783Y34011D01*
X5900Y33980D01*
X5900Y33933D01*
Y33820D01*
X5961Y33673D01*
X6073Y33561D01*
X6220Y33500D01*
X6380D01*
X6527Y33561D01*
X6639Y33673D01*
X6700Y33820D01*
Y33980D01*
X6784Y34109D01*
X6867Y34144D01*
X6980Y34256D01*
X7041Y34403D01*
Y34562D01*
X6980Y34709D01*
X6867Y34822D01*
X6765Y34864D01*
X6760Y35000D01*
X6762Y35001D01*
X6874Y35113D01*
X6935Y35260D01*
Y35419D01*
X6874Y35566D01*
X6762Y35679D01*
X6615Y35740D01*
D02*
G37*
G36*
X18480Y34566D02*
X18320D01*
X18173Y34505D01*
X18061Y34392D01*
X18000Y34245D01*
Y34086D01*
X18061Y33939D01*
X18173Y33826D01*
X18320Y33766D01*
X18480D01*
X18627Y33826D01*
X18739Y33939D01*
X18800Y34086D01*
Y34245D01*
X18739Y34392D01*
X18627Y34505D01*
X18480Y34566D01*
D02*
G37*
G36*
X17480D02*
X17320D01*
X17173Y34505D01*
X17061Y34392D01*
X17000Y34245D01*
Y34086D01*
X17061Y33939D01*
X17173Y33826D01*
X17320Y33766D01*
X17480D01*
X17627Y33826D01*
X17739Y33939D01*
X17800Y34086D01*
Y34245D01*
X17739Y34392D01*
X17627Y34505D01*
X17480Y34566D01*
D02*
G37*
G36*
X4553Y35421D02*
X4394D01*
X4247Y35360D01*
X4135Y35248D01*
X4074Y35101D01*
Y34942D01*
X4135Y34794D01*
X4247Y34682D01*
X4282Y34667D01*
X4277Y34532D01*
X4173Y34489D01*
X4061Y34377D01*
X4000Y34230D01*
Y34070D01*
X4061Y33923D01*
X4173Y33811D01*
X4320Y33750D01*
X4480D01*
X4627Y33811D01*
X4739Y33923D01*
X4800Y34070D01*
Y34230D01*
X4739Y34377D01*
X4627Y34489D01*
X4591Y34504D01*
X4597Y34639D01*
X4700Y34682D01*
X4813Y34794D01*
X4874Y34942D01*
Y35101D01*
X4813Y35248D01*
X4700Y35360D01*
X4553Y35421D01*
D02*
G37*
G36*
X7584Y34425D02*
X7425D01*
X7278Y34364D01*
X7166Y34252D01*
X7105Y34105D01*
Y33945D01*
X7166Y33798D01*
X7278Y33686D01*
X7425Y33625D01*
X7584D01*
X7732Y33686D01*
X7844Y33798D01*
X7905Y33945D01*
Y34105D01*
X7844Y34252D01*
X7732Y34364D01*
X7584Y34425D01*
D02*
G37*
G36*
X21303Y34269D02*
X21144D01*
X20997Y34208D01*
X20885Y34095D01*
X20824Y33948D01*
Y33789D01*
X20885Y33642D01*
X20997Y33530D01*
X21144Y33469D01*
X21303D01*
X21450Y33530D01*
X21563Y33642D01*
X21624Y33789D01*
Y33948D01*
X21563Y34095D01*
X21450Y34208D01*
X21303Y34269D01*
D02*
G37*
G36*
X19655Y34850D02*
X19495D01*
X19348Y34789D01*
X19236Y34677D01*
X19175Y34530D01*
Y34370D01*
X19228Y34243D01*
X19097Y34189D01*
X18985Y34076D01*
X18924Y33929D01*
Y33770D01*
X18985Y33623D01*
X19097Y33511D01*
X19244Y33450D01*
X19403D01*
X19550Y33511D01*
X19663Y33623D01*
X19724Y33770D01*
Y33929D01*
X19671Y34057D01*
X19802Y34111D01*
X19829Y34139D01*
X19937Y34067D01*
X19888Y33948D01*
Y33789D01*
X19949Y33642D01*
X20062Y33530D01*
X20209Y33469D01*
X20368D01*
X20515Y33530D01*
X20627Y33642D01*
X20688Y33789D01*
Y33948D01*
X20627Y34095D01*
X20515Y34208D01*
X20368Y34269D01*
X20209D01*
X20062Y34208D01*
X20034Y34180D01*
X19926Y34252D01*
X19975Y34370D01*
Y34530D01*
X19914Y34677D01*
X19802Y34789D01*
X19655Y34850D01*
D02*
G37*
G36*
X46655Y34225D02*
X46495D01*
X46348Y34164D01*
X46236Y34052D01*
X46175Y33905D01*
Y33745D01*
X46236Y33598D01*
X46348Y33486D01*
X46495Y33425D01*
X46655D01*
X46802Y33486D01*
X46914Y33598D01*
X46975Y33745D01*
Y33905D01*
X46914Y34052D01*
X46802Y34164D01*
X46655Y34225D01*
D02*
G37*
G36*
X61880Y34100D02*
X61720D01*
X61573Y34039D01*
X61461Y33927D01*
X61400Y33780D01*
Y33620D01*
X61461Y33473D01*
X61467Y33468D01*
X61457Y33298D01*
X61411Y33252D01*
X61350Y33105D01*
Y32945D01*
X61411Y32798D01*
X61523Y32686D01*
X61670Y32625D01*
X61830D01*
X61977Y32686D01*
X62089Y32798D01*
X62150Y32945D01*
Y33105D01*
X62089Y33252D01*
X62083Y33257D01*
X62093Y33427D01*
X62139Y33473D01*
X62200Y33620D01*
Y33780D01*
X62139Y33927D01*
X62027Y34039D01*
X61880Y34100D01*
D02*
G37*
G36*
X73880Y33400D02*
X73720D01*
X73573Y33339D01*
X73461Y33227D01*
X73400Y33080D01*
Y32920D01*
X73461Y32773D01*
X73573Y32661D01*
X73720Y32600D01*
X73880D01*
X74027Y32661D01*
X74139Y32773D01*
X74200Y32920D01*
Y33080D01*
X74139Y33227D01*
X74027Y33339D01*
X73880Y33400D01*
D02*
G37*
G36*
X21680Y33166D02*
X21520D01*
X21373Y33105D01*
X21261Y32992D01*
X21200Y32845D01*
Y32686D01*
X21261Y32539D01*
X21373Y32426D01*
X21520Y32366D01*
X21680D01*
X21827Y32426D01*
X21939Y32539D01*
X22000Y32686D01*
Y32845D01*
X21939Y32992D01*
X21827Y33105D01*
X21680Y33166D01*
D02*
G37*
G36*
X40530Y32850D02*
X40370D01*
X40223Y32789D01*
X40111Y32677D01*
X40050Y32530D01*
Y32370D01*
X40111Y32223D01*
X40223Y32111D01*
X40370Y32050D01*
X40530D01*
X40677Y32111D01*
X40789Y32223D01*
X40850Y32370D01*
Y32530D01*
X40789Y32677D01*
X40677Y32789D01*
X40530Y32850D01*
D02*
G37*
G36*
X42005Y32825D02*
X41845D01*
X41698Y32764D01*
X41586Y32652D01*
X41525Y32505D01*
Y32345D01*
X41586Y32198D01*
X41698Y32086D01*
X41845Y32025D01*
X42005D01*
X42152Y32086D01*
X42264Y32198D01*
X42325Y32345D01*
Y32505D01*
X42264Y32652D01*
X42152Y32764D01*
X42005Y32825D01*
D02*
G37*
G36*
X75180Y32800D02*
X75020D01*
X74873Y32739D01*
X74761Y32627D01*
X74700Y32480D01*
Y32320D01*
X74761Y32173D01*
X74873Y32061D01*
X75020Y32000D01*
X75083D01*
X75183Y31983D01*
X75200Y31883D01*
Y31820D01*
X75261Y31673D01*
X75373Y31561D01*
X75520Y31500D01*
X75680D01*
X75827Y31561D01*
X75939Y31673D01*
X76000Y31820D01*
Y31980D01*
X75939Y32127D01*
X75827Y32239D01*
X75680Y32300D01*
X75617D01*
X75517Y32317D01*
X75500Y32417D01*
Y32480D01*
X75439Y32627D01*
X75327Y32739D01*
X75180Y32800D01*
D02*
G37*
G36*
X64105Y31975D02*
X63945D01*
X63798Y31914D01*
X63686Y31802D01*
X63625Y31655D01*
Y31495D01*
X63686Y31348D01*
X63798Y31236D01*
X63945Y31175D01*
X64105D01*
X64252Y31236D01*
X64364Y31348D01*
X64425Y31495D01*
Y31655D01*
X64364Y31802D01*
X64252Y31914D01*
X64105Y31975D01*
D02*
G37*
G36*
X67650Y31303D02*
X67491D01*
X67344Y31242D01*
X67231Y31129D01*
X67170Y30982D01*
Y30823D01*
X67231Y30676D01*
X67344Y30563D01*
X67491Y30503D01*
X67650D01*
X67797Y30563D01*
X67909Y30676D01*
X67970Y30823D01*
Y30982D01*
X67909Y31129D01*
X67797Y31242D01*
X67650Y31303D01*
D02*
G37*
G36*
X68730Y31250D02*
X68570D01*
X68423Y31189D01*
X68311Y31077D01*
X68250Y30930D01*
Y30770D01*
X68311Y30623D01*
X68423Y30511D01*
X68570Y30450D01*
X68730D01*
X68877Y30511D01*
X68989Y30623D01*
X69050Y30770D01*
Y30930D01*
X68989Y31077D01*
X68877Y31189D01*
X68730Y31250D01*
D02*
G37*
G36*
X63330Y31200D02*
X63170D01*
X63023Y31139D01*
X62911Y31027D01*
X62850Y30880D01*
Y30720D01*
X62911Y30573D01*
X63023Y30461D01*
X63170Y30400D01*
X63330D01*
X63477Y30461D01*
X63589Y30573D01*
X63650Y30720D01*
Y30880D01*
X63589Y31027D01*
X63477Y31139D01*
X63330Y31200D01*
D02*
G37*
G36*
X76630Y30500D02*
X76470D01*
X76323Y30439D01*
X76211Y30327D01*
X76150Y30180D01*
Y30020D01*
X76211Y29873D01*
X76323Y29761D01*
X76470Y29700D01*
X76630D01*
X76777Y29761D01*
X76889Y29873D01*
X76950Y30020D01*
Y30180D01*
X76889Y30327D01*
X76777Y30439D01*
X76630Y30500D01*
D02*
G37*
G36*
X68480Y29750D02*
X68320D01*
X68173Y29689D01*
X68061Y29577D01*
X68000Y29430D01*
Y29270D01*
X68061Y29123D01*
X68173Y29011D01*
X68320Y28950D01*
X68480D01*
X68627Y29011D01*
X68739Y29123D01*
X68800Y29270D01*
Y29430D01*
X68739Y29577D01*
X68627Y29689D01*
X68480Y29750D01*
D02*
G37*
G36*
X36580Y29650D02*
X36420D01*
X36273Y29589D01*
X36161Y29477D01*
X36100Y29330D01*
Y29170D01*
X36161Y29023D01*
X36273Y28911D01*
X36420Y28850D01*
X36580D01*
X36727Y28911D01*
X36839Y29023D01*
X36900Y29170D01*
Y29330D01*
X36839Y29477D01*
X36727Y29589D01*
X36580Y29650D01*
D02*
G37*
G36*
X70990Y29200D02*
X70831D01*
X70684Y29139D01*
X70572Y29027D01*
X70511Y28880D01*
Y28720D01*
X70572Y28573D01*
X70684Y28461D01*
X70831Y28400D01*
X70990D01*
X71137Y28461D01*
X71250Y28573D01*
X71311Y28720D01*
Y28880D01*
X71250Y29027D01*
X71137Y29139D01*
X70990Y29200D01*
D02*
G37*
G36*
X74930Y28825D02*
X74770D01*
X74623Y28764D01*
X74511Y28652D01*
X74450Y28505D01*
Y28345D01*
X74511Y28198D01*
X74623Y28086D01*
X74770Y28025D01*
X74930D01*
X75077Y28086D01*
X75189Y28198D01*
X75250Y28345D01*
Y28505D01*
X75189Y28652D01*
X75077Y28764D01*
X74930Y28825D01*
D02*
G37*
G36*
X57155Y28625D02*
X56995D01*
X56848Y28564D01*
X56736Y28452D01*
X56675Y28305D01*
Y28145D01*
X56736Y27998D01*
X56848Y27886D01*
X56995Y27825D01*
X57155D01*
X57302Y27886D01*
X57414Y27998D01*
X57475Y28145D01*
Y28305D01*
X57414Y28452D01*
X57302Y28564D01*
X57155Y28625D01*
D02*
G37*
G36*
X83205Y29100D02*
X83045D01*
X82898Y29039D01*
X82786Y28927D01*
X82725Y28780D01*
Y28620D01*
X82731Y28605D01*
X82689Y28549D01*
X82637Y28500D01*
X82494D01*
X82347Y28439D01*
X82235Y28327D01*
X82174Y28180D01*
Y28020D01*
X82235Y27873D01*
X82347Y27761D01*
X82494Y27700D01*
X82654D01*
X82801Y27761D01*
X82913Y27873D01*
X82974Y28020D01*
Y28180D01*
X82968Y28195D01*
X83009Y28251D01*
X83062Y28300D01*
X83205D01*
X83352Y28361D01*
X83464Y28473D01*
X83525Y28620D01*
Y28780D01*
X83464Y28927D01*
X83352Y29039D01*
X83205Y29100D01*
D02*
G37*
G36*
X35730Y28475D02*
X35570D01*
X35423Y28414D01*
X35311Y28302D01*
X35250Y28155D01*
Y27995D01*
X35311Y27848D01*
X35423Y27736D01*
X35570Y27675D01*
X35730D01*
X35877Y27736D01*
X35989Y27848D01*
X36050Y27995D01*
Y28155D01*
X35989Y28302D01*
X35877Y28414D01*
X35730Y28475D01*
D02*
G37*
G36*
X2505Y28425D02*
X2345D01*
X2198Y28364D01*
X2086Y28252D01*
X2025Y28105D01*
Y27945D01*
X2086Y27798D01*
X2198Y27686D01*
X2345Y27625D01*
X2505D01*
X2652Y27686D01*
X2764Y27798D01*
X2825Y27945D01*
Y28105D01*
X2764Y28252D01*
X2652Y28364D01*
X2505Y28425D01*
D02*
G37*
G36*
X71055Y28000D02*
X70895D01*
X70748Y27939D01*
X70636Y27827D01*
X70575Y27680D01*
Y27520D01*
X70636Y27373D01*
X70748Y27261D01*
X70895Y27200D01*
X71055D01*
X71202Y27261D01*
X71314Y27373D01*
X71375Y27520D01*
Y27680D01*
X71314Y27827D01*
X71202Y27939D01*
X71055Y28000D01*
D02*
G37*
G36*
X64180Y27950D02*
X64020D01*
X63873Y27889D01*
X63761Y27777D01*
X63700Y27630D01*
Y27470D01*
X63761Y27323D01*
X63873Y27211D01*
X64020Y27150D01*
X64180D01*
X64327Y27211D01*
X64439Y27323D01*
X64500Y27470D01*
Y27630D01*
X64439Y27777D01*
X64327Y27889D01*
X64180Y27950D01*
D02*
G37*
G36*
X20071Y27890D02*
X19912D01*
X19765Y27829D01*
X19652Y27716D01*
X19591Y27569D01*
Y27410D01*
X19652Y27263D01*
X19765Y27151D01*
X19912Y27090D01*
X20071D01*
X20218Y27151D01*
X20330Y27263D01*
X20391Y27410D01*
Y27569D01*
X20330Y27716D01*
X20218Y27829D01*
X20071Y27890D01*
D02*
G37*
G36*
X21256Y27851D02*
X21097D01*
X20950Y27791D01*
X20837Y27678D01*
X20776Y27531D01*
Y27372D01*
X20837Y27225D01*
X20950Y27112D01*
X21097Y27051D01*
X21256D01*
X21403Y27112D01*
X21516Y27225D01*
X21576Y27372D01*
Y27531D01*
X21516Y27678D01*
X21403Y27791D01*
X21256Y27851D01*
D02*
G37*
G36*
X10955Y29150D02*
X10795D01*
X10648Y29089D01*
X10536Y28977D01*
X10475Y28830D01*
Y28670D01*
X10536Y28523D01*
X10570Y28490D01*
X10598Y28364D01*
X10486Y28252D01*
X10425Y28105D01*
Y27945D01*
X10486Y27798D01*
X10539Y27745D01*
X10585Y27663D01*
X10539Y27580D01*
X10486Y27527D01*
X10425Y27380D01*
Y27220D01*
X10486Y27073D01*
X10598Y26961D01*
X10745Y26900D01*
X10905D01*
X11052Y26961D01*
X11164Y27073D01*
X11225Y27220D01*
Y27380D01*
X11164Y27527D01*
X11111Y27580D01*
X11065Y27663D01*
X11111Y27745D01*
X11164Y27798D01*
X11225Y27945D01*
Y28105D01*
X11164Y28252D01*
X11130Y28285D01*
X11102Y28411D01*
X11214Y28523D01*
X11275Y28670D01*
Y28830D01*
X11214Y28977D01*
X11102Y29089D01*
X10955Y29150D01*
D02*
G37*
G36*
X3380Y27575D02*
X3220D01*
X3073Y27514D01*
X2961Y27402D01*
X2900Y27255D01*
Y27095D01*
X2961Y26948D01*
X3073Y26836D01*
X3220Y26775D01*
X3380D01*
X3527Y26836D01*
X3639Y26948D01*
X3700Y27095D01*
Y27255D01*
X3639Y27402D01*
X3527Y27514D01*
X3380Y27575D01*
D02*
G37*
G36*
X37305Y27500D02*
X37145D01*
X36998Y27439D01*
X36886Y27327D01*
X36825Y27180D01*
Y27020D01*
X36886Y26873D01*
X36998Y26761D01*
X37145Y26700D01*
X37305D01*
X37452Y26761D01*
X37564Y26873D01*
X37625Y27020D01*
Y27180D01*
X37564Y27327D01*
X37452Y27439D01*
X37305Y27500D01*
D02*
G37*
G36*
X59455Y27250D02*
X59295D01*
X59148Y27189D01*
X59036Y27077D01*
X58975Y26930D01*
Y26770D01*
X59036Y26623D01*
X59148Y26511D01*
X59295Y26450D01*
X59455D01*
X59602Y26511D01*
X59714Y26623D01*
X59775Y26770D01*
Y26930D01*
X59714Y27077D01*
X59602Y27189D01*
X59455Y27250D01*
D02*
G37*
G36*
X35691Y27166D02*
X35532D01*
X35385Y27105D01*
X35272Y26993D01*
X35211Y26846D01*
Y26686D01*
X35272Y26539D01*
X35385Y26427D01*
X35532Y26366D01*
X35691D01*
X35838Y26427D01*
X35951Y26539D01*
X36011Y26686D01*
Y26846D01*
X35951Y26993D01*
X35838Y27105D01*
X35691Y27166D01*
D02*
G37*
G36*
X65680Y27025D02*
X65520D01*
X65373Y26964D01*
X65261Y26852D01*
X65200Y26705D01*
Y26545D01*
X65261Y26398D01*
X65373Y26286D01*
X65520Y26225D01*
X65680D01*
X65827Y26286D01*
X65939Y26398D01*
X66000Y26545D01*
Y26705D01*
X65939Y26852D01*
X65827Y26964D01*
X65680Y27025D01*
D02*
G37*
G36*
X64230Y26800D02*
X64070D01*
X63923Y26739D01*
X63811Y26627D01*
X63750Y26480D01*
Y26320D01*
X63811Y26173D01*
X63923Y26061D01*
X64070Y26000D01*
X64230D01*
X64377Y26061D01*
X64489Y26173D01*
X64550Y26320D01*
Y26480D01*
X64489Y26627D01*
X64377Y26739D01*
X64230Y26800D01*
D02*
G37*
G36*
X5980Y26750D02*
X5820D01*
X5673Y26689D01*
X5561Y26577D01*
X5500Y26430D01*
Y26270D01*
X5561Y26123D01*
X5673Y26011D01*
X5820Y25950D01*
X5980D01*
X6127Y26011D01*
X6239Y26123D01*
X6300Y26270D01*
Y26430D01*
X6239Y26577D01*
X6127Y26689D01*
X5980Y26750D01*
D02*
G37*
G36*
X76630Y26400D02*
X76470D01*
X76323Y26339D01*
X76211Y26227D01*
X76150Y26080D01*
Y25920D01*
X76211Y25773D01*
X76323Y25661D01*
X76470Y25600D01*
X76630D01*
X76777Y25661D01*
X76889Y25773D01*
X76950Y25920D01*
Y26080D01*
X76889Y26227D01*
X76777Y26339D01*
X76630Y26400D01*
D02*
G37*
G36*
X29705Y25825D02*
X29545D01*
X29398Y25764D01*
X29286Y25652D01*
X29225Y25505D01*
Y25345D01*
X29286Y25198D01*
X29398Y25086D01*
X29545Y25025D01*
X29705D01*
X29852Y25086D01*
X29964Y25198D01*
X30025Y25345D01*
Y25505D01*
X29964Y25652D01*
X29852Y25764D01*
X29705Y25825D01*
D02*
G37*
G36*
X5080Y25750D02*
X4920D01*
X4773Y25689D01*
X4661Y25577D01*
X4600Y25430D01*
Y25270D01*
X4661Y25123D01*
X4773Y25011D01*
X4920Y24950D01*
X5080D01*
X5227Y25011D01*
X5339Y25123D01*
X5400Y25270D01*
Y25430D01*
X5339Y25577D01*
X5227Y25689D01*
X5080Y25750D01*
D02*
G37*
G36*
X10905Y24975D02*
X10745D01*
X10598Y24914D01*
X10486Y24802D01*
X10425Y24655D01*
Y24495D01*
X10486Y24348D01*
X10598Y24236D01*
X10745Y24175D01*
X10905D01*
X11052Y24236D01*
X11164Y24348D01*
X11225Y24495D01*
Y24655D01*
X11164Y24802D01*
X11052Y24914D01*
X10905Y24975D01*
D02*
G37*
G36*
X78305Y24725D02*
X78145D01*
X77998Y24664D01*
X77886Y24552D01*
X77825Y24405D01*
Y24245D01*
X77886Y24098D01*
X77998Y23986D01*
X78145Y23925D01*
X78305D01*
X78452Y23986D01*
X78564Y24098D01*
X78625Y24245D01*
Y24405D01*
X78564Y24552D01*
X78452Y24664D01*
X78305Y24725D01*
D02*
G37*
G36*
X19456Y23660D02*
X19296D01*
X19149Y23599D01*
X19037Y23486D01*
X18976Y23339D01*
Y23180D01*
X19037Y23033D01*
X19149Y22921D01*
X19296Y22860D01*
X19456D01*
X19603Y22921D01*
X19715Y23033D01*
X19776Y23180D01*
Y23339D01*
X19715Y23486D01*
X19603Y23599D01*
X19456Y23660D01*
D02*
G37*
G36*
X17938Y23475D02*
X17779D01*
X17632Y23414D01*
X17519Y23301D01*
X17458Y23154D01*
Y22995D01*
X17519Y22848D01*
X17632Y22736D01*
X17779Y22675D01*
X17938D01*
X18085Y22736D01*
X18198Y22848D01*
X18258Y22995D01*
Y23154D01*
X18198Y23301D01*
X18085Y23414D01*
X17938Y23475D01*
D02*
G37*
G36*
X30505Y24825D02*
X30345D01*
X30198Y24764D01*
X30086Y24652D01*
X30025Y24505D01*
Y24345D01*
X30086Y24198D01*
X30198Y24086D01*
X30345Y24025D01*
X30505D01*
X30575Y23917D01*
Y23870D01*
X30636Y23723D01*
X30748Y23611D01*
X30895Y23550D01*
X30995D01*
X31025Y23505D01*
Y23345D01*
X31086Y23198D01*
X31198Y23086D01*
X31345Y23025D01*
X31475D01*
Y22870D01*
X31536Y22723D01*
X31648Y22611D01*
X31795Y22550D01*
X31955D01*
X32102Y22611D01*
X32214Y22723D01*
X32275Y22870D01*
Y23030D01*
X32214Y23177D01*
X32102Y23289D01*
X31955Y23350D01*
X31825D01*
Y23505D01*
X31764Y23652D01*
X31652Y23764D01*
X31505Y23825D01*
X31405D01*
X31375Y23870D01*
Y24030D01*
X31314Y24177D01*
X31202Y24289D01*
X31055Y24350D01*
X30895D01*
X30825Y24458D01*
Y24505D01*
X30764Y24652D01*
X30652Y24764D01*
X30505Y24825D01*
D02*
G37*
G36*
X24880Y23550D02*
X24720D01*
X24573Y23489D01*
X24461Y23377D01*
X24400Y23230D01*
Y23070D01*
X24461Y22923D01*
X24573Y22811D01*
X24720Y22750D01*
X24825D01*
Y22645D01*
X24886Y22498D01*
X24998Y22386D01*
X25145Y22325D01*
X25305D01*
X25452Y22386D01*
X25564Y22498D01*
X25625Y22645D01*
Y22805D01*
X25564Y22952D01*
X25452Y23064D01*
X25305Y23125D01*
X25200D01*
Y23230D01*
X25139Y23377D01*
X25027Y23489D01*
X24880Y23550D01*
D02*
G37*
G36*
X23180Y22700D02*
X23020D01*
X22873Y22639D01*
X22761Y22527D01*
X22700Y22380D01*
Y22220D01*
X22761Y22073D01*
X22873Y21961D01*
X23020Y21900D01*
X23180D01*
X23327Y21961D01*
X23439Y22073D01*
X23500Y22220D01*
Y22380D01*
X23439Y22527D01*
X23327Y22639D01*
X23180Y22700D01*
D02*
G37*
G36*
X37280Y22550D02*
X37120D01*
X36973Y22489D01*
X36861Y22377D01*
X36800Y22230D01*
Y22214D01*
X36705Y22150D01*
X36545D01*
X36398Y22089D01*
X36286Y21977D01*
X36225Y21830D01*
Y21789D01*
X36130Y21725D01*
X35970D01*
X35823Y21664D01*
X35711Y21552D01*
X35650Y21405D01*
Y21302D01*
X35543Y21216D01*
X35533Y21213D01*
X35505Y21225D01*
X35345D01*
X35198Y21164D01*
X35086Y21052D01*
X35025Y20905D01*
Y20832D01*
X34898Y20747D01*
X34830Y20775D01*
X34670D01*
X34523Y20714D01*
X34411Y20602D01*
X34350Y20455D01*
Y20295D01*
X34411Y20148D01*
X34523Y20036D01*
X34670Y19975D01*
X34830D01*
X34977Y20036D01*
X35089Y20148D01*
X35150Y20295D01*
Y20368D01*
X35277Y20453D01*
X35345Y20425D01*
X35505D01*
X35652Y20486D01*
X35764Y20598D01*
X35825Y20745D01*
Y20848D01*
X35932Y20934D01*
X35942Y20937D01*
X35970Y20925D01*
X36130D01*
X36277Y20986D01*
X36389Y21098D01*
X36450Y21245D01*
Y21286D01*
X36545Y21350D01*
X36705D01*
X36852Y21411D01*
X36964Y21523D01*
X37025Y21670D01*
Y21686D01*
X37120Y21750D01*
X37280D01*
X37427Y21811D01*
X37539Y21923D01*
X37600Y22070D01*
Y22230D01*
X37539Y22377D01*
X37427Y22489D01*
X37280Y22550D01*
D02*
G37*
G36*
X23880Y22000D02*
X23720D01*
X23573Y21939D01*
X23461Y21827D01*
X23400Y21680D01*
Y21520D01*
X23461Y21373D01*
X23573Y21261D01*
X23720Y21200D01*
X23880D01*
X24027Y21261D01*
X24139Y21373D01*
X24200Y21520D01*
Y21680D01*
X24139Y21827D01*
X24027Y21939D01*
X23880Y22000D01*
D02*
G37*
G36*
X63655Y21791D02*
X63495D01*
X63348Y21730D01*
X63236Y21617D01*
X63175Y21470D01*
Y21311D01*
X63236Y21164D01*
X63348Y21052D01*
X63495Y20991D01*
X63655D01*
X63802Y21052D01*
X63914Y21164D01*
X63975Y21311D01*
Y21470D01*
X63914Y21617D01*
X63802Y21730D01*
X63655Y21791D01*
D02*
G37*
G36*
X74755Y21050D02*
X74595D01*
X74448Y20989D01*
X74336Y20877D01*
X74275Y20730D01*
Y20570D01*
X74336Y20423D01*
X74448Y20311D01*
X74595Y20250D01*
X74755D01*
X74902Y20311D01*
X75014Y20423D01*
X75075Y20570D01*
Y20730D01*
X75014Y20877D01*
X74902Y20989D01*
X74755Y21050D01*
D02*
G37*
G36*
X61805Y19950D02*
X61645D01*
X61498Y19889D01*
X61386Y19777D01*
X61325Y19630D01*
Y19470D01*
X61386Y19323D01*
X61498Y19211D01*
X61645Y19150D01*
X61805D01*
X61952Y19211D01*
X62064Y19323D01*
X62125Y19470D01*
Y19630D01*
X62064Y19777D01*
X61952Y19889D01*
X61805Y19950D01*
D02*
G37*
G36*
X39755Y19414D02*
X39595D01*
X39448Y19353D01*
X39336Y19240D01*
X39275Y19093D01*
Y18934D01*
X39336Y18787D01*
X39448Y18675D01*
X39595Y18614D01*
X39755D01*
X39902Y18675D01*
X40014Y18787D01*
X40075Y18934D01*
Y19093D01*
X40014Y19240D01*
X39902Y19353D01*
X39755Y19414D01*
D02*
G37*
G36*
X68505Y18275D02*
X68345D01*
X68198Y18214D01*
X68086Y18102D01*
X68025Y17955D01*
Y17795D01*
X68086Y17648D01*
X68198Y17536D01*
X68345Y17475D01*
X68505D01*
X68652Y17536D01*
X68764Y17648D01*
X68825Y17795D01*
Y17955D01*
X68764Y18102D01*
X68652Y18214D01*
X68505Y18275D01*
D02*
G37*
G36*
X23530Y17950D02*
X23370D01*
X23223Y17889D01*
X23111Y17777D01*
X23050Y17630D01*
Y17470D01*
X23111Y17323D01*
X23223Y17211D01*
X23370Y17150D01*
X23530D01*
X23677Y17211D01*
X23789Y17323D01*
X23850Y17470D01*
Y17630D01*
X23789Y17777D01*
X23677Y17889D01*
X23530Y17950D01*
D02*
G37*
G36*
X24205Y17200D02*
X24045D01*
X23898Y17139D01*
X23786Y17027D01*
X23725Y16880D01*
Y16720D01*
X23786Y16573D01*
X23898Y16461D01*
X24045Y16400D01*
X24205D01*
X24352Y16461D01*
X24464Y16573D01*
X24525Y16720D01*
Y16880D01*
X24464Y17027D01*
X24352Y17139D01*
X24205Y17200D01*
D02*
G37*
G36*
X23255Y16925D02*
X23095D01*
X22948Y16864D01*
X22836Y16752D01*
X22775Y16605D01*
Y16445D01*
X22836Y16298D01*
X22948Y16186D01*
X23095Y16125D01*
X23255D01*
X23402Y16186D01*
X23514Y16298D01*
X23575Y16445D01*
Y16605D01*
X23514Y16752D01*
X23402Y16864D01*
X23255Y16925D01*
D02*
G37*
G36*
X67155Y16650D02*
X66995D01*
X66848Y16589D01*
X66736Y16477D01*
X66675Y16330D01*
Y16170D01*
X66736Y16023D01*
X66848Y15911D01*
X66995Y15850D01*
X67155D01*
X67302Y15911D01*
X67414Y16023D01*
X67475Y16170D01*
Y16330D01*
X67414Y16477D01*
X67302Y16589D01*
X67155Y16650D01*
D02*
G37*
G36*
X38555Y16450D02*
X38395D01*
X38248Y16389D01*
X38136Y16277D01*
X38075Y16130D01*
Y15970D01*
X38136Y15823D01*
X38248Y15711D01*
X38395Y15650D01*
X38555D01*
X38702Y15711D01*
X38814Y15823D01*
X38875Y15970D01*
Y16130D01*
X38814Y16277D01*
X38702Y16389D01*
X38555Y16450D01*
D02*
G37*
G36*
X31130Y16925D02*
X30970D01*
X30823Y16864D01*
X30711Y16752D01*
X30650Y16605D01*
Y16445D01*
X30711Y16298D01*
X30823Y16186D01*
X30970Y16125D01*
X31083D01*
X31145Y16101D01*
X31200Y16017D01*
Y15920D01*
X31261Y15773D01*
X31373Y15661D01*
X31520Y15600D01*
X31680D01*
X31827Y15661D01*
X31939Y15773D01*
X32000Y15920D01*
Y16080D01*
X31939Y16227D01*
X31827Y16339D01*
X31680Y16400D01*
X31567D01*
X31505Y16424D01*
X31450Y16508D01*
Y16605D01*
X31389Y16752D01*
X31277Y16864D01*
X31130Y16925D01*
D02*
G37*
G36*
X65873Y16263D02*
X65714D01*
X65567Y16202D01*
X65454Y16089D01*
X65393Y15942D01*
Y15783D01*
X65454Y15636D01*
X65567Y15524D01*
X65714Y15463D01*
X65873D01*
X66020Y15524D01*
X66133Y15636D01*
X66193Y15783D01*
Y15942D01*
X66133Y16089D01*
X66020Y16202D01*
X65873Y16263D01*
D02*
G37*
G36*
X69780Y16175D02*
X69620D01*
X69473Y16114D01*
X69361Y16002D01*
X69300Y15855D01*
Y15695D01*
X69361Y15548D01*
X69473Y15436D01*
X69620Y15375D01*
X69780D01*
X69927Y15436D01*
X70039Y15548D01*
X70100Y15695D01*
Y15855D01*
X70039Y16002D01*
X69927Y16114D01*
X69780Y16175D01*
D02*
G37*
G36*
X30480Y15950D02*
X30320D01*
X30173Y15889D01*
X30061Y15777D01*
X30000Y15630D01*
Y15470D01*
X30061Y15323D01*
X30173Y15211D01*
X30236Y15185D01*
Y15048D01*
X30148Y15012D01*
X30036Y14899D01*
X29975Y14752D01*
Y14593D01*
X30036Y14446D01*
X30148Y14333D01*
X30295Y14273D01*
X30455D01*
X30602Y14333D01*
X30714Y14446D01*
X30775Y14593D01*
Y14752D01*
X30714Y14899D01*
X30602Y15012D01*
X30539Y15037D01*
Y15175D01*
X30627Y15211D01*
X30739Y15323D01*
X30800Y15470D01*
Y15630D01*
X30739Y15777D01*
X30627Y15889D01*
X30480Y15950D01*
D02*
G37*
G36*
X27980Y14950D02*
X27820D01*
X27673Y14889D01*
X27561Y14777D01*
X27500Y14630D01*
Y14470D01*
X27561Y14323D01*
X27673Y14211D01*
X27820Y14150D01*
X27980D01*
X28127Y14211D01*
X28239Y14323D01*
X28300Y14470D01*
Y14630D01*
X28239Y14777D01*
X28127Y14889D01*
X27980Y14950D01*
D02*
G37*
G36*
X65105Y15150D02*
X64945D01*
X64798Y15089D01*
X64686Y14977D01*
X64625Y14830D01*
Y14670D01*
X64686Y14523D01*
X64798Y14411D01*
X64945Y14350D01*
X65105D01*
X65175Y14379D01*
X65300Y14321D01*
X65308Y14307D01*
X65363Y14173D01*
X65475Y14061D01*
X65622Y14000D01*
X65782D01*
X65929Y14061D01*
X66041Y14173D01*
X66102Y14320D01*
Y14480D01*
X66041Y14627D01*
X65929Y14739D01*
X65782Y14800D01*
X65622D01*
X65552Y14771D01*
X65427Y14829D01*
X65419Y14843D01*
X65364Y14977D01*
X65252Y15089D01*
X65105Y15150D01*
D02*
G37*
G36*
X30405Y11900D02*
X30245D01*
X30098Y11839D01*
X29986Y11727D01*
X29925Y11580D01*
Y11420D01*
X29986Y11273D01*
X30059Y11200D01*
X29986Y11127D01*
X29925Y10980D01*
Y10820D01*
X29986Y10673D01*
X30098Y10561D01*
X30245Y10500D01*
X30405D01*
X30552Y10561D01*
X30664Y10673D01*
X30725Y10820D01*
Y10980D01*
X30664Y11127D01*
X30591Y11200D01*
X30664Y11273D01*
X30725Y11420D01*
Y11580D01*
X30664Y11727D01*
X30552Y11839D01*
X30405Y11900D01*
D02*
G37*
G36*
X71880Y10750D02*
X71720D01*
X71573Y10689D01*
X71461Y10577D01*
X71400Y10430D01*
Y10270D01*
X71461Y10123D01*
X71573Y10011D01*
X71720Y9950D01*
X71880D01*
X72027Y10011D01*
X72139Y10123D01*
X72200Y10270D01*
Y10430D01*
X72139Y10577D01*
X72027Y10689D01*
X71880Y10750D01*
D02*
G37*
G36*
X49605Y10713D02*
X49445D01*
X49298Y10652D01*
X49186Y10540D01*
X49125Y10393D01*
Y10233D01*
X49186Y10086D01*
X49298Y9974D01*
X49445Y9913D01*
X49605D01*
X49752Y9974D01*
X49864Y10086D01*
X49925Y10233D01*
Y10393D01*
X49864Y10540D01*
X49752Y10652D01*
X49605Y10713D01*
D02*
G37*
G36*
X83180Y10700D02*
X83020D01*
X82873Y10639D01*
X82761Y10527D01*
X82700Y10380D01*
Y10220D01*
X82761Y10073D01*
X82873Y9961D01*
X83020Y9900D01*
X83180D01*
X83327Y9961D01*
X83439Y10073D01*
X83500Y10220D01*
Y10380D01*
X83439Y10527D01*
X83327Y10639D01*
X83180Y10700D01*
D02*
G37*
G36*
X80980D02*
X80820D01*
X80673Y10639D01*
X80561Y10527D01*
X80500Y10380D01*
Y10220D01*
X80561Y10073D01*
X80673Y9961D01*
X80820Y9900D01*
X80980D01*
X81127Y9961D01*
X81239Y10073D01*
X81300Y10220D01*
Y10380D01*
X81239Y10527D01*
X81127Y10639D01*
X80980Y10700D01*
D02*
G37*
G36*
X78955D02*
X78795D01*
X78648Y10639D01*
X78536Y10527D01*
X78475Y10380D01*
Y10220D01*
X78536Y10073D01*
X78648Y9961D01*
X78795Y9900D01*
X78955D01*
X79102Y9961D01*
X79214Y10073D01*
X79275Y10220D01*
Y10380D01*
X79214Y10527D01*
X79102Y10639D01*
X78955Y10700D01*
D02*
G37*
G36*
X76580D02*
X76420D01*
X76273Y10639D01*
X76161Y10527D01*
X76100Y10380D01*
Y10220D01*
X76161Y10073D01*
X76273Y9961D01*
X76420Y9900D01*
X76580D01*
X76727Y9961D01*
X76839Y10073D01*
X76900Y10220D01*
Y10380D01*
X76839Y10527D01*
X76727Y10639D01*
X76580Y10700D01*
D02*
G37*
G36*
X73980D02*
X73820D01*
X73673Y10639D01*
X73561Y10527D01*
X73500Y10380D01*
Y10220D01*
X73561Y10073D01*
X73673Y9961D01*
X73820Y9900D01*
X73980D01*
X74127Y9961D01*
X74239Y10073D01*
X74300Y10220D01*
Y10380D01*
X74239Y10527D01*
X74127Y10639D01*
X73980Y10700D01*
D02*
G37*
G36*
X69455D02*
X69295D01*
X69148Y10639D01*
X69036Y10527D01*
X68975Y10380D01*
Y10220D01*
X69036Y10073D01*
X69148Y9961D01*
X69295Y9900D01*
X69455D01*
X69602Y9961D01*
X69714Y10073D01*
X69775Y10220D01*
Y10380D01*
X69714Y10527D01*
X69602Y10639D01*
X69455Y10700D01*
D02*
G37*
G36*
X66355D02*
X66195D01*
X66048Y10639D01*
X65936Y10527D01*
X65875Y10380D01*
Y10220D01*
X65936Y10073D01*
X66048Y9961D01*
X66195Y9900D01*
X66355D01*
X66502Y9961D01*
X66614Y10073D01*
X66675Y10220D01*
Y10380D01*
X66614Y10527D01*
X66502Y10639D01*
X66355Y10700D01*
D02*
G37*
G36*
X63630D02*
X63470D01*
X63323Y10639D01*
X63211Y10527D01*
X63150Y10380D01*
Y10220D01*
X63211Y10073D01*
X63323Y9961D01*
X63470Y9900D01*
X63630D01*
X63777Y9961D01*
X63889Y10073D01*
X63950Y10220D01*
Y10380D01*
X63889Y10527D01*
X63777Y10639D01*
X63630Y10700D01*
D02*
G37*
G36*
X61755D02*
X61595D01*
X61448Y10639D01*
X61336Y10527D01*
X61275Y10380D01*
Y10220D01*
X61336Y10073D01*
X61448Y9961D01*
X61595Y9900D01*
X61755D01*
X61902Y9961D01*
X62014Y10073D01*
X62075Y10220D01*
Y10380D01*
X62014Y10527D01*
X61902Y10639D01*
X61755Y10700D01*
D02*
G37*
G36*
X58905D02*
X58746D01*
X58599Y10639D01*
X58487Y10527D01*
X58426Y10380D01*
Y10220D01*
X58487Y10073D01*
X58599Y9961D01*
X58746Y9900D01*
X58905D01*
X59052Y9961D01*
X59165Y10073D01*
X59226Y10220D01*
Y10380D01*
X59165Y10527D01*
X59052Y10639D01*
X58905Y10700D01*
D02*
G37*
G36*
X56805D02*
X56645D01*
X56498Y10639D01*
X56386Y10527D01*
X56325Y10380D01*
Y10220D01*
X56386Y10073D01*
X56498Y9961D01*
X56645Y9900D01*
X56805D01*
X56952Y9961D01*
X57064Y10073D01*
X57125Y10220D01*
Y10380D01*
X57064Y10527D01*
X56952Y10639D01*
X56805Y10700D01*
D02*
G37*
G36*
X53980D02*
X53820D01*
X53673Y10639D01*
X53561Y10527D01*
X53500Y10380D01*
Y10220D01*
X53561Y10073D01*
X53673Y9961D01*
X53820Y9900D01*
X53980D01*
X54127Y9961D01*
X54239Y10073D01*
X54300Y10220D01*
Y10380D01*
X54239Y10527D01*
X54127Y10639D01*
X53980Y10700D01*
D02*
G37*
G36*
X51305D02*
X51145D01*
X50998Y10639D01*
X50886Y10527D01*
X50825Y10380D01*
Y10220D01*
X50886Y10073D01*
X50998Y9961D01*
X51145Y9900D01*
X51305D01*
X51452Y9961D01*
X51564Y10073D01*
X51625Y10220D01*
Y10380D01*
X51564Y10527D01*
X51452Y10639D01*
X51305Y10700D01*
D02*
G37*
G36*
X46305D02*
X46145D01*
X45998Y10639D01*
X45886Y10527D01*
X45825Y10380D01*
Y10220D01*
X45886Y10073D01*
X45998Y9961D01*
X46145Y9900D01*
X46305D01*
X46452Y9961D01*
X46564Y10073D01*
X46625Y10220D01*
Y10380D01*
X46564Y10527D01*
X46452Y10639D01*
X46305Y10700D01*
D02*
G37*
G36*
X43005D02*
X42845D01*
X42698Y10639D01*
X42586Y10527D01*
X42525Y10380D01*
Y10220D01*
X42586Y10073D01*
X42698Y9961D01*
X42845Y9900D01*
X43005D01*
X43152Y9961D01*
X43264Y10073D01*
X43325Y10220D01*
Y10380D01*
X43264Y10527D01*
X43152Y10639D01*
X43005Y10700D01*
D02*
G37*
G36*
X40055D02*
X39895D01*
X39748Y10639D01*
X39636Y10527D01*
X39575Y10380D01*
Y10220D01*
X39636Y10073D01*
X39748Y9961D01*
X39895Y9900D01*
X40055D01*
X40202Y9961D01*
X40314Y10073D01*
X40375Y10220D01*
Y10380D01*
X40314Y10527D01*
X40202Y10639D01*
X40055Y10700D01*
D02*
G37*
G36*
X85380Y10675D02*
X85220D01*
X85073Y10614D01*
X84961Y10502D01*
X84900Y10355D01*
Y10195D01*
X84961Y10048D01*
X85073Y9936D01*
X85220Y9875D01*
X85380D01*
X85527Y9936D01*
X85639Y10048D01*
X85700Y10195D01*
Y10355D01*
X85639Y10502D01*
X85527Y10614D01*
X85380Y10675D01*
D02*
G37*
G36*
X21780Y10225D02*
X21620D01*
X21473Y10164D01*
X21361Y10052D01*
X21300Y9905D01*
Y9745D01*
X21361Y9598D01*
X21473Y9486D01*
X21620Y9425D01*
X21780D01*
X21927Y9486D01*
X22039Y9598D01*
X22100Y9745D01*
Y9905D01*
X22039Y10052D01*
X21927Y10164D01*
X21780Y10225D01*
D02*
G37*
G36*
X29930Y10175D02*
X29770D01*
X29623Y10114D01*
X29511Y10002D01*
X29450Y9855D01*
Y9695D01*
X29511Y9548D01*
X29623Y9436D01*
X29770Y9375D01*
X29930D01*
X30077Y9436D01*
X30189Y9548D01*
X30250Y9695D01*
Y9855D01*
X30189Y10002D01*
X30077Y10114D01*
X29930Y10175D01*
D02*
G37*
G36*
X37255Y10050D02*
X37095D01*
X36948Y9989D01*
X36836Y9877D01*
X36775Y9730D01*
Y9570D01*
X36836Y9423D01*
X36948Y9311D01*
X37095Y9250D01*
X37255D01*
X37402Y9311D01*
X37514Y9423D01*
X37575Y9570D01*
Y9730D01*
X37514Y9877D01*
X37402Y9989D01*
X37255Y10050D01*
D02*
G37*
G36*
X26805Y9800D02*
X26645D01*
X26498Y9739D01*
X26386Y9627D01*
X26325Y9480D01*
Y9320D01*
X26386Y9173D01*
X26498Y9061D01*
X26645Y9000D01*
X26805D01*
X26952Y9061D01*
X27064Y9173D01*
X27125Y9320D01*
Y9480D01*
X27064Y9627D01*
X26952Y9739D01*
X26805Y9800D01*
D02*
G37*
G36*
X34455Y9700D02*
X34295D01*
X34148Y9639D01*
X34036Y9527D01*
X33975Y9380D01*
Y9220D01*
X34036Y9073D01*
X34148Y8961D01*
X34295Y8900D01*
X34455D01*
X34602Y8961D01*
X34714Y9073D01*
X34775Y9220D01*
Y9380D01*
X34714Y9527D01*
X34602Y9639D01*
X34455Y9700D01*
D02*
G37*
G36*
X86266Y8802D02*
X86054D01*
X85850Y8747D01*
X85668Y8642D01*
X85518Y8492D01*
X85413Y8310D01*
X85358Y8106D01*
Y7894D01*
X85413Y7690D01*
X85518Y7508D01*
X85668Y7358D01*
X85850Y7253D01*
X86054Y7198D01*
X86266D01*
X86470Y7253D01*
X86652Y7358D01*
X86802Y7508D01*
X86907Y7690D01*
X86962Y7894D01*
Y8106D01*
X86907Y8310D01*
X86802Y8492D01*
X86652Y8642D01*
X86470Y8747D01*
X86266Y8802D01*
D02*
G37*
G36*
X83726D02*
X83514D01*
X83310Y8747D01*
X83128Y8642D01*
X82978Y8492D01*
X82873Y8310D01*
X82818Y8106D01*
Y7894D01*
X82873Y7690D01*
X82978Y7508D01*
X83128Y7358D01*
X83310Y7253D01*
X83514Y7198D01*
X83726D01*
X83930Y7253D01*
X84112Y7358D01*
X84262Y7508D01*
X84367Y7690D01*
X84422Y7894D01*
Y8106D01*
X84367Y8310D01*
X84262Y8492D01*
X84112Y8642D01*
X83930Y8747D01*
X83726Y8802D01*
D02*
G37*
G36*
X81186D02*
X80974D01*
X80770Y8747D01*
X80588Y8642D01*
X80438Y8492D01*
X80333Y8310D01*
X80278Y8106D01*
Y7894D01*
X80333Y7690D01*
X80438Y7508D01*
X80588Y7358D01*
X80770Y7253D01*
X80974Y7198D01*
X81186D01*
X81390Y7253D01*
X81572Y7358D01*
X81722Y7508D01*
X81827Y7690D01*
X81882Y7894D01*
Y8106D01*
X81827Y8310D01*
X81722Y8492D01*
X81572Y8642D01*
X81390Y8747D01*
X81186Y8802D01*
D02*
G37*
G36*
X78646D02*
X78434D01*
X78230Y8747D01*
X78048Y8642D01*
X77898Y8492D01*
X77793Y8310D01*
X77738Y8106D01*
Y7894D01*
X77793Y7690D01*
X77898Y7508D01*
X78048Y7358D01*
X78230Y7253D01*
X78434Y7198D01*
X78646D01*
X78850Y7253D01*
X79032Y7358D01*
X79182Y7508D01*
X79287Y7690D01*
X79342Y7894D01*
Y8106D01*
X79287Y8310D01*
X79182Y8492D01*
X79032Y8642D01*
X78850Y8747D01*
X78646Y8802D01*
D02*
G37*
G36*
X76106D02*
X75894D01*
X75690Y8747D01*
X75508Y8642D01*
X75358Y8492D01*
X75253Y8310D01*
X75198Y8106D01*
Y7894D01*
X75253Y7690D01*
X75358Y7508D01*
X75508Y7358D01*
X75690Y7253D01*
X75894Y7198D01*
X76106D01*
X76310Y7253D01*
X76492Y7358D01*
X76642Y7508D01*
X76747Y7690D01*
X76802Y7894D01*
Y8106D01*
X76747Y8310D01*
X76642Y8492D01*
X76492Y8642D01*
X76310Y8747D01*
X76106Y8802D01*
D02*
G37*
G36*
X73566D02*
X73354D01*
X73150Y8747D01*
X72968Y8642D01*
X72818Y8492D01*
X72713Y8310D01*
X72658Y8106D01*
Y7894D01*
X72713Y7690D01*
X72818Y7508D01*
X72968Y7358D01*
X73150Y7253D01*
X73354Y7198D01*
X73566D01*
X73770Y7253D01*
X73952Y7358D01*
X74102Y7508D01*
X74207Y7690D01*
X74262Y7894D01*
Y8106D01*
X74207Y8310D01*
X74102Y8492D01*
X73952Y8642D01*
X73770Y8747D01*
X73566Y8802D01*
D02*
G37*
G36*
X71026D02*
X70814D01*
X70610Y8747D01*
X70428Y8642D01*
X70278Y8492D01*
X70173Y8310D01*
X70118Y8106D01*
Y7894D01*
X70173Y7690D01*
X70278Y7508D01*
X70428Y7358D01*
X70610Y7253D01*
X70814Y7198D01*
X71026D01*
X71230Y7253D01*
X71412Y7358D01*
X71562Y7508D01*
X71667Y7690D01*
X71722Y7894D01*
Y8106D01*
X71667Y8310D01*
X71562Y8492D01*
X71412Y8642D01*
X71230Y8747D01*
X71026Y8802D01*
D02*
G37*
G36*
X68486D02*
X68274D01*
X68070Y8747D01*
X67888Y8642D01*
X67738Y8492D01*
X67633Y8310D01*
X67578Y8106D01*
Y7894D01*
X67633Y7690D01*
X67738Y7508D01*
X67888Y7358D01*
X68070Y7253D01*
X68274Y7198D01*
X68486D01*
X68690Y7253D01*
X68872Y7358D01*
X69022Y7508D01*
X69127Y7690D01*
X69182Y7894D01*
Y8106D01*
X69127Y8310D01*
X69022Y8492D01*
X68872Y8642D01*
X68690Y8747D01*
X68486Y8802D01*
D02*
G37*
G36*
X65946D02*
X65734D01*
X65530Y8747D01*
X65348Y8642D01*
X65198Y8492D01*
X65093Y8310D01*
X65038Y8106D01*
Y7894D01*
X65093Y7690D01*
X65198Y7508D01*
X65348Y7358D01*
X65530Y7253D01*
X65734Y7198D01*
X65946D01*
X66150Y7253D01*
X66332Y7358D01*
X66482Y7508D01*
X66587Y7690D01*
X66642Y7894D01*
Y8106D01*
X66587Y8310D01*
X66482Y8492D01*
X66332Y8642D01*
X66150Y8747D01*
X65946Y8802D01*
D02*
G37*
G36*
X63406D02*
X63194D01*
X62990Y8747D01*
X62808Y8642D01*
X62658Y8492D01*
X62553Y8310D01*
X62498Y8106D01*
Y7894D01*
X62553Y7690D01*
X62658Y7508D01*
X62808Y7358D01*
X62990Y7253D01*
X63194Y7198D01*
X63406D01*
X63610Y7253D01*
X63792Y7358D01*
X63942Y7508D01*
X64047Y7690D01*
X64102Y7894D01*
Y8106D01*
X64047Y8310D01*
X63942Y8492D01*
X63792Y8642D01*
X63610Y8747D01*
X63406Y8802D01*
D02*
G37*
G36*
X60866D02*
X60654D01*
X60450Y8747D01*
X60268Y8642D01*
X60118Y8492D01*
X60013Y8310D01*
X59958Y8106D01*
Y7894D01*
X60013Y7690D01*
X60118Y7508D01*
X60268Y7358D01*
X60450Y7253D01*
X60654Y7198D01*
X60866D01*
X61070Y7253D01*
X61252Y7358D01*
X61402Y7508D01*
X61507Y7690D01*
X61562Y7894D01*
Y8106D01*
X61507Y8310D01*
X61402Y8492D01*
X61252Y8642D01*
X61070Y8747D01*
X60866Y8802D01*
D02*
G37*
G36*
X58326D02*
X58114D01*
X57910Y8747D01*
X57728Y8642D01*
X57578Y8492D01*
X57473Y8310D01*
X57418Y8106D01*
Y7894D01*
X57473Y7690D01*
X57578Y7508D01*
X57728Y7358D01*
X57910Y7253D01*
X58114Y7198D01*
X58326D01*
X58530Y7253D01*
X58712Y7358D01*
X58862Y7508D01*
X58967Y7690D01*
X59022Y7894D01*
Y8106D01*
X58967Y8310D01*
X58862Y8492D01*
X58712Y8642D01*
X58530Y8747D01*
X58326Y8802D01*
D02*
G37*
G36*
X55786D02*
X55574D01*
X55370Y8747D01*
X55188Y8642D01*
X55038Y8492D01*
X54933Y8310D01*
X54878Y8106D01*
Y7894D01*
X54933Y7690D01*
X55038Y7508D01*
X55188Y7358D01*
X55370Y7253D01*
X55574Y7198D01*
X55786D01*
X55990Y7253D01*
X56172Y7358D01*
X56322Y7508D01*
X56427Y7690D01*
X56482Y7894D01*
Y8106D01*
X56427Y8310D01*
X56322Y8492D01*
X56172Y8642D01*
X55990Y8747D01*
X55786Y8802D01*
D02*
G37*
G36*
X53246D02*
X53034D01*
X52830Y8747D01*
X52648Y8642D01*
X52498Y8492D01*
X52393Y8310D01*
X52338Y8106D01*
Y7894D01*
X52393Y7690D01*
X52498Y7508D01*
X52648Y7358D01*
X52830Y7253D01*
X53034Y7198D01*
X53246D01*
X53450Y7253D01*
X53632Y7358D01*
X53782Y7508D01*
X53887Y7690D01*
X53942Y7894D01*
Y8106D01*
X53887Y8310D01*
X53782Y8492D01*
X53632Y8642D01*
X53450Y8747D01*
X53246Y8802D01*
D02*
G37*
G36*
X50706D02*
X50494D01*
X50290Y8747D01*
X50108Y8642D01*
X49958Y8492D01*
X49853Y8310D01*
X49798Y8106D01*
Y7894D01*
X49853Y7690D01*
X49958Y7508D01*
X50108Y7358D01*
X50290Y7253D01*
X50494Y7198D01*
X50706D01*
X50910Y7253D01*
X51092Y7358D01*
X51242Y7508D01*
X51347Y7690D01*
X51402Y7894D01*
Y8106D01*
X51347Y8310D01*
X51242Y8492D01*
X51092Y8642D01*
X50910Y8747D01*
X50706Y8802D01*
D02*
G37*
G36*
X48166D02*
X47954D01*
X47750Y8747D01*
X47568Y8642D01*
X47418Y8492D01*
X47313Y8310D01*
X47258Y8106D01*
Y7894D01*
X47313Y7690D01*
X47418Y7508D01*
X47568Y7358D01*
X47750Y7253D01*
X47954Y7198D01*
X48166D01*
X48370Y7253D01*
X48552Y7358D01*
X48702Y7508D01*
X48807Y7690D01*
X48862Y7894D01*
Y8106D01*
X48807Y8310D01*
X48702Y8492D01*
X48552Y8642D01*
X48370Y8747D01*
X48166Y8802D01*
D02*
G37*
G36*
X45626D02*
X45414D01*
X45210Y8747D01*
X45028Y8642D01*
X44878Y8492D01*
X44773Y8310D01*
X44718Y8106D01*
Y7894D01*
X44773Y7690D01*
X44878Y7508D01*
X45028Y7358D01*
X45210Y7253D01*
X45414Y7198D01*
X45626D01*
X45830Y7253D01*
X46012Y7358D01*
X46162Y7508D01*
X46267Y7690D01*
X46322Y7894D01*
Y8106D01*
X46267Y8310D01*
X46162Y8492D01*
X46012Y8642D01*
X45830Y8747D01*
X45626Y8802D01*
D02*
G37*
G36*
X43086D02*
X42874D01*
X42670Y8747D01*
X42488Y8642D01*
X42338Y8492D01*
X42233Y8310D01*
X42178Y8106D01*
Y7894D01*
X42233Y7690D01*
X42338Y7508D01*
X42488Y7358D01*
X42670Y7253D01*
X42874Y7198D01*
X43086D01*
X43290Y7253D01*
X43472Y7358D01*
X43622Y7508D01*
X43727Y7690D01*
X43782Y7894D01*
Y8106D01*
X43727Y8310D01*
X43622Y8492D01*
X43472Y8642D01*
X43290Y8747D01*
X43086Y8802D01*
D02*
G37*
G36*
X40546D02*
X40334D01*
X40130Y8747D01*
X39948Y8642D01*
X39798Y8492D01*
X39693Y8310D01*
X39638Y8106D01*
Y7894D01*
X39693Y7690D01*
X39798Y7508D01*
X39948Y7358D01*
X40130Y7253D01*
X40334Y7198D01*
X40546D01*
X40750Y7253D01*
X40932Y7358D01*
X41082Y7508D01*
X41187Y7690D01*
X41242Y7894D01*
Y8106D01*
X41187Y8310D01*
X41082Y8492D01*
X40932Y8642D01*
X40750Y8747D01*
X40546Y8802D01*
D02*
G37*
G36*
X38006D02*
X37794D01*
X37590Y8747D01*
X37408Y8642D01*
X37258Y8492D01*
X37153Y8310D01*
X37098Y8106D01*
Y7894D01*
X37153Y7690D01*
X37258Y7508D01*
X37408Y7358D01*
X37590Y7253D01*
X37794Y7198D01*
X38006D01*
X38210Y7253D01*
X38392Y7358D01*
X38542Y7508D01*
X38647Y7690D01*
X38702Y7894D01*
Y8106D01*
X38647Y8310D01*
X38542Y8492D01*
X38392Y8642D01*
X38210Y8747D01*
X38006Y8802D01*
D02*
G37*
G36*
X35466D02*
X35254D01*
X35050Y8747D01*
X34868Y8642D01*
X34718Y8492D01*
X34613Y8310D01*
X34558Y8106D01*
Y7894D01*
X34613Y7690D01*
X34718Y7508D01*
X34868Y7358D01*
X35050Y7253D01*
X35254Y7198D01*
X35466D01*
X35670Y7253D01*
X35852Y7358D01*
X36002Y7508D01*
X36107Y7690D01*
X36162Y7894D01*
Y8106D01*
X36107Y8310D01*
X36002Y8492D01*
X35852Y8642D01*
X35670Y8747D01*
X35466Y8802D01*
D02*
G37*
G36*
X32926D02*
X32714D01*
X32510Y8747D01*
X32328Y8642D01*
X32178Y8492D01*
X32073Y8310D01*
X32018Y8106D01*
Y7894D01*
X32073Y7690D01*
X32178Y7508D01*
X32328Y7358D01*
X32510Y7253D01*
X32714Y7198D01*
X32926D01*
X33130Y7253D01*
X33312Y7358D01*
X33462Y7508D01*
X33567Y7690D01*
X33622Y7894D01*
Y8106D01*
X33567Y8310D01*
X33462Y8492D01*
X33312Y8642D01*
X33130Y8747D01*
X32926Y8802D01*
D02*
G37*
G36*
X30386D02*
X30174D01*
X29970Y8747D01*
X29788Y8642D01*
X29638Y8492D01*
X29533Y8310D01*
X29478Y8106D01*
Y7894D01*
X29533Y7690D01*
X29638Y7508D01*
X29788Y7358D01*
X29970Y7253D01*
X30174Y7198D01*
X30386D01*
X30590Y7253D01*
X30772Y7358D01*
X30922Y7508D01*
X31027Y7690D01*
X31082Y7894D01*
Y8106D01*
X31027Y8310D01*
X30922Y8492D01*
X30772Y8642D01*
X30590Y8747D01*
X30386Y8802D01*
D02*
G37*
G36*
X27846D02*
X27634D01*
X27430Y8747D01*
X27248Y8642D01*
X27098Y8492D01*
X26993Y8310D01*
X26938Y8106D01*
Y7894D01*
X26993Y7690D01*
X27098Y7508D01*
X27248Y7358D01*
X27430Y7253D01*
X27634Y7198D01*
X27846D01*
X28050Y7253D01*
X28232Y7358D01*
X28382Y7508D01*
X28487Y7690D01*
X28542Y7894D01*
Y8106D01*
X28487Y8310D01*
X28382Y8492D01*
X28232Y8642D01*
X28050Y8747D01*
X27846Y8802D01*
D02*
G37*
G36*
X25306D02*
X25094D01*
X24890Y8747D01*
X24708Y8642D01*
X24558Y8492D01*
X24453Y8310D01*
X24398Y8106D01*
Y7894D01*
X24453Y7690D01*
X24558Y7508D01*
X24708Y7358D01*
X24890Y7253D01*
X25094Y7198D01*
X25306D01*
X25510Y7253D01*
X25692Y7358D01*
X25842Y7508D01*
X25947Y7690D01*
X26002Y7894D01*
Y8106D01*
X25947Y8310D01*
X25842Y8492D01*
X25692Y8642D01*
X25510Y8747D01*
X25306Y8802D01*
D02*
G37*
G36*
X22766D02*
X22554D01*
X22350Y8747D01*
X22168Y8642D01*
X22018Y8492D01*
X21913Y8310D01*
X21858Y8106D01*
Y7894D01*
X21913Y7690D01*
X22018Y7508D01*
X22168Y7358D01*
X22350Y7253D01*
X22554Y7198D01*
X22766D01*
X22970Y7253D01*
X23152Y7358D01*
X23302Y7508D01*
X23407Y7690D01*
X23462Y7894D01*
Y8106D01*
X23407Y8310D01*
X23302Y8492D01*
X23152Y8642D01*
X22970Y8747D01*
X22766Y8802D01*
D02*
G37*
G36*
X20226D02*
X20014D01*
X19810Y8747D01*
X19628Y8642D01*
X19478Y8492D01*
X19373Y8310D01*
X19318Y8106D01*
Y7894D01*
X19373Y7690D01*
X19478Y7508D01*
X19628Y7358D01*
X19810Y7253D01*
X20014Y7198D01*
X20226D01*
X20430Y7253D01*
X20612Y7358D01*
X20762Y7508D01*
X20867Y7690D01*
X20922Y7894D01*
Y8106D01*
X20867Y8310D01*
X20762Y8492D01*
X20612Y8642D01*
X20430Y8747D01*
X20226Y8802D01*
D02*
G37*
G36*
X17686D02*
X17474D01*
X17270Y8747D01*
X17088Y8642D01*
X16938Y8492D01*
X16833Y8310D01*
X16778Y8106D01*
Y7894D01*
X16833Y7690D01*
X16938Y7508D01*
X17088Y7358D01*
X17270Y7253D01*
X17474Y7198D01*
X17686D01*
X17890Y7253D01*
X18072Y7358D01*
X18222Y7508D01*
X18327Y7690D01*
X18382Y7894D01*
Y8106D01*
X18327Y8310D01*
X18222Y8492D01*
X18072Y8642D01*
X17890Y8747D01*
X17686Y8802D01*
D02*
G37*
G36*
X15146D02*
X14934D01*
X14730Y8747D01*
X14548Y8642D01*
X14398Y8492D01*
X14293Y8310D01*
X14238Y8106D01*
Y7894D01*
X14293Y7690D01*
X14398Y7508D01*
X14548Y7358D01*
X14730Y7253D01*
X14934Y7198D01*
X15146D01*
X15350Y7253D01*
X15532Y7358D01*
X15682Y7508D01*
X15787Y7690D01*
X15842Y7894D01*
Y8106D01*
X15787Y8310D01*
X15682Y8492D01*
X15532Y8642D01*
X15350Y8747D01*
X15146Y8802D01*
D02*
G37*
G36*
X13302D02*
X11698D01*
Y7198D01*
X13302D01*
Y8802D01*
D02*
G37*
G36*
X87536Y6897D02*
X87324D01*
X87120Y6842D01*
X86938Y6737D01*
X86788Y6587D01*
X86683Y6405D01*
X86628Y6201D01*
Y5989D01*
X86683Y5785D01*
X86788Y5603D01*
X86938Y5453D01*
X87120Y5348D01*
X87324Y5293D01*
X87536D01*
X87740Y5348D01*
X87922Y5453D01*
X88072Y5603D01*
X88177Y5785D01*
X88232Y5989D01*
Y6201D01*
X88177Y6405D01*
X88072Y6587D01*
X87922Y6737D01*
X87740Y6842D01*
X87536Y6897D01*
D02*
G37*
G36*
X84996D02*
X84784D01*
X84580Y6842D01*
X84398Y6737D01*
X84248Y6587D01*
X84143Y6405D01*
X84088Y6201D01*
Y5989D01*
X84143Y5785D01*
X84248Y5603D01*
X84398Y5453D01*
X84580Y5348D01*
X84784Y5293D01*
X84996D01*
X85200Y5348D01*
X85382Y5453D01*
X85532Y5603D01*
X85637Y5785D01*
X85692Y5989D01*
Y6201D01*
X85637Y6405D01*
X85532Y6587D01*
X85382Y6737D01*
X85200Y6842D01*
X84996Y6897D01*
D02*
G37*
G36*
X82456D02*
X82244D01*
X82040Y6842D01*
X81858Y6737D01*
X81708Y6587D01*
X81603Y6405D01*
X81548Y6201D01*
Y5989D01*
X81603Y5785D01*
X81708Y5603D01*
X81858Y5453D01*
X82040Y5348D01*
X82244Y5293D01*
X82456D01*
X82660Y5348D01*
X82842Y5453D01*
X82992Y5603D01*
X83097Y5785D01*
X83152Y5989D01*
Y6201D01*
X83097Y6405D01*
X82992Y6587D01*
X82842Y6737D01*
X82660Y6842D01*
X82456Y6897D01*
D02*
G37*
G36*
X79916D02*
X79704D01*
X79500Y6842D01*
X79318Y6737D01*
X79168Y6587D01*
X79063Y6405D01*
X79008Y6201D01*
Y5989D01*
X79063Y5785D01*
X79168Y5603D01*
X79318Y5453D01*
X79500Y5348D01*
X79704Y5293D01*
X79916D01*
X80120Y5348D01*
X80302Y5453D01*
X80452Y5603D01*
X80557Y5785D01*
X80612Y5989D01*
Y6201D01*
X80557Y6405D01*
X80452Y6587D01*
X80302Y6737D01*
X80120Y6842D01*
X79916Y6897D01*
D02*
G37*
G36*
X77376D02*
X77164D01*
X76960Y6842D01*
X76778Y6737D01*
X76628Y6587D01*
X76523Y6405D01*
X76468Y6201D01*
Y5989D01*
X76523Y5785D01*
X76628Y5603D01*
X76778Y5453D01*
X76960Y5348D01*
X77164Y5293D01*
X77376D01*
X77580Y5348D01*
X77762Y5453D01*
X77912Y5603D01*
X78017Y5785D01*
X78072Y5989D01*
Y6201D01*
X78017Y6405D01*
X77912Y6587D01*
X77762Y6737D01*
X77580Y6842D01*
X77376Y6897D01*
D02*
G37*
G36*
X74836D02*
X74624D01*
X74420Y6842D01*
X74238Y6737D01*
X74088Y6587D01*
X73983Y6405D01*
X73928Y6201D01*
Y5989D01*
X73983Y5785D01*
X74088Y5603D01*
X74238Y5453D01*
X74420Y5348D01*
X74624Y5293D01*
X74836D01*
X75040Y5348D01*
X75222Y5453D01*
X75372Y5603D01*
X75477Y5785D01*
X75532Y5989D01*
Y6201D01*
X75477Y6405D01*
X75372Y6587D01*
X75222Y6737D01*
X75040Y6842D01*
X74836Y6897D01*
D02*
G37*
G36*
X72296D02*
X72084D01*
X71880Y6842D01*
X71698Y6737D01*
X71548Y6587D01*
X71443Y6405D01*
X71388Y6201D01*
Y5989D01*
X71443Y5785D01*
X71548Y5603D01*
X71698Y5453D01*
X71880Y5348D01*
X72084Y5293D01*
X72296D01*
X72500Y5348D01*
X72682Y5453D01*
X72832Y5603D01*
X72937Y5785D01*
X72992Y5989D01*
Y6201D01*
X72937Y6405D01*
X72832Y6587D01*
X72682Y6737D01*
X72500Y6842D01*
X72296Y6897D01*
D02*
G37*
G36*
X69756D02*
X69544D01*
X69340Y6842D01*
X69158Y6737D01*
X69008Y6587D01*
X68903Y6405D01*
X68848Y6201D01*
Y5989D01*
X68903Y5785D01*
X69008Y5603D01*
X69158Y5453D01*
X69340Y5348D01*
X69544Y5293D01*
X69756D01*
X69960Y5348D01*
X70142Y5453D01*
X70292Y5603D01*
X70397Y5785D01*
X70452Y5989D01*
Y6201D01*
X70397Y6405D01*
X70292Y6587D01*
X70142Y6737D01*
X69960Y6842D01*
X69756Y6897D01*
D02*
G37*
G36*
X67216D02*
X67004D01*
X66800Y6842D01*
X66618Y6737D01*
X66468Y6587D01*
X66363Y6405D01*
X66308Y6201D01*
Y5989D01*
X66363Y5785D01*
X66468Y5603D01*
X66618Y5453D01*
X66800Y5348D01*
X67004Y5293D01*
X67216D01*
X67420Y5348D01*
X67602Y5453D01*
X67752Y5603D01*
X67857Y5785D01*
X67912Y5989D01*
Y6201D01*
X67857Y6405D01*
X67752Y6587D01*
X67602Y6737D01*
X67420Y6842D01*
X67216Y6897D01*
D02*
G37*
G36*
X64676D02*
X64464D01*
X64260Y6842D01*
X64078Y6737D01*
X63928Y6587D01*
X63823Y6405D01*
X63768Y6201D01*
Y5989D01*
X63823Y5785D01*
X63928Y5603D01*
X64078Y5453D01*
X64260Y5348D01*
X64464Y5293D01*
X64676D01*
X64880Y5348D01*
X65062Y5453D01*
X65212Y5603D01*
X65317Y5785D01*
X65372Y5989D01*
Y6201D01*
X65317Y6405D01*
X65212Y6587D01*
X65062Y6737D01*
X64880Y6842D01*
X64676Y6897D01*
D02*
G37*
G36*
X62136D02*
X61924D01*
X61720Y6842D01*
X61538Y6737D01*
X61388Y6587D01*
X61283Y6405D01*
X61228Y6201D01*
Y5989D01*
X61283Y5785D01*
X61388Y5603D01*
X61538Y5453D01*
X61720Y5348D01*
X61924Y5293D01*
X62136D01*
X62340Y5348D01*
X62522Y5453D01*
X62672Y5603D01*
X62777Y5785D01*
X62832Y5989D01*
Y6201D01*
X62777Y6405D01*
X62672Y6587D01*
X62522Y6737D01*
X62340Y6842D01*
X62136Y6897D01*
D02*
G37*
G36*
X59596D02*
X59384D01*
X59180Y6842D01*
X58998Y6737D01*
X58848Y6587D01*
X58743Y6405D01*
X58688Y6201D01*
Y5989D01*
X58743Y5785D01*
X58848Y5603D01*
X58998Y5453D01*
X59180Y5348D01*
X59384Y5293D01*
X59596D01*
X59800Y5348D01*
X59982Y5453D01*
X60132Y5603D01*
X60237Y5785D01*
X60292Y5989D01*
Y6201D01*
X60237Y6405D01*
X60132Y6587D01*
X59982Y6737D01*
X59800Y6842D01*
X59596Y6897D01*
D02*
G37*
G36*
X57056D02*
X56844D01*
X56640Y6842D01*
X56458Y6737D01*
X56308Y6587D01*
X56203Y6405D01*
X56148Y6201D01*
Y5989D01*
X56203Y5785D01*
X56308Y5603D01*
X56458Y5453D01*
X56640Y5348D01*
X56844Y5293D01*
X57056D01*
X57260Y5348D01*
X57442Y5453D01*
X57592Y5603D01*
X57697Y5785D01*
X57752Y5989D01*
Y6201D01*
X57697Y6405D01*
X57592Y6587D01*
X57442Y6737D01*
X57260Y6842D01*
X57056Y6897D01*
D02*
G37*
G36*
X54516D02*
X54304D01*
X54100Y6842D01*
X53918Y6737D01*
X53768Y6587D01*
X53663Y6405D01*
X53608Y6201D01*
Y5989D01*
X53663Y5785D01*
X53768Y5603D01*
X53918Y5453D01*
X54100Y5348D01*
X54304Y5293D01*
X54516D01*
X54720Y5348D01*
X54902Y5453D01*
X55052Y5603D01*
X55157Y5785D01*
X55212Y5989D01*
Y6201D01*
X55157Y6405D01*
X55052Y6587D01*
X54902Y6737D01*
X54720Y6842D01*
X54516Y6897D01*
D02*
G37*
G36*
X51976D02*
X51764D01*
X51560Y6842D01*
X51378Y6737D01*
X51228Y6587D01*
X51123Y6405D01*
X51068Y6201D01*
Y5989D01*
X51123Y5785D01*
X51228Y5603D01*
X51378Y5453D01*
X51560Y5348D01*
X51764Y5293D01*
X51976D01*
X52180Y5348D01*
X52362Y5453D01*
X52512Y5603D01*
X52617Y5785D01*
X52672Y5989D01*
Y6201D01*
X52617Y6405D01*
X52512Y6587D01*
X52362Y6737D01*
X52180Y6842D01*
X51976Y6897D01*
D02*
G37*
G36*
X49436D02*
X49224D01*
X49020Y6842D01*
X48838Y6737D01*
X48688Y6587D01*
X48583Y6405D01*
X48528Y6201D01*
Y5989D01*
X48583Y5785D01*
X48688Y5603D01*
X48838Y5453D01*
X49020Y5348D01*
X49224Y5293D01*
X49436D01*
X49640Y5348D01*
X49822Y5453D01*
X49972Y5603D01*
X50077Y5785D01*
X50132Y5989D01*
Y6201D01*
X50077Y6405D01*
X49972Y6587D01*
X49822Y6737D01*
X49640Y6842D01*
X49436Y6897D01*
D02*
G37*
G36*
X46896D02*
X46684D01*
X46480Y6842D01*
X46298Y6737D01*
X46148Y6587D01*
X46043Y6405D01*
X45988Y6201D01*
Y5989D01*
X46043Y5785D01*
X46148Y5603D01*
X46298Y5453D01*
X46480Y5348D01*
X46684Y5293D01*
X46896D01*
X47100Y5348D01*
X47282Y5453D01*
X47432Y5603D01*
X47537Y5785D01*
X47592Y5989D01*
Y6201D01*
X47537Y6405D01*
X47432Y6587D01*
X47282Y6737D01*
X47100Y6842D01*
X46896Y6897D01*
D02*
G37*
G36*
X44356D02*
X44144D01*
X43940Y6842D01*
X43758Y6737D01*
X43608Y6587D01*
X43503Y6405D01*
X43448Y6201D01*
Y5989D01*
X43503Y5785D01*
X43608Y5603D01*
X43758Y5453D01*
X43940Y5348D01*
X44144Y5293D01*
X44356D01*
X44560Y5348D01*
X44742Y5453D01*
X44892Y5603D01*
X44997Y5785D01*
X45052Y5989D01*
Y6201D01*
X44997Y6405D01*
X44892Y6587D01*
X44742Y6737D01*
X44560Y6842D01*
X44356Y6897D01*
D02*
G37*
G36*
X41816D02*
X41604D01*
X41400Y6842D01*
X41218Y6737D01*
X41068Y6587D01*
X40963Y6405D01*
X40908Y6201D01*
Y5989D01*
X40963Y5785D01*
X41068Y5603D01*
X41218Y5453D01*
X41400Y5348D01*
X41604Y5293D01*
X41816D01*
X42020Y5348D01*
X42202Y5453D01*
X42352Y5603D01*
X42457Y5785D01*
X42512Y5989D01*
Y6201D01*
X42457Y6405D01*
X42352Y6587D01*
X42202Y6737D01*
X42020Y6842D01*
X41816Y6897D01*
D02*
G37*
G36*
X39276D02*
X39064D01*
X38860Y6842D01*
X38678Y6737D01*
X38528Y6587D01*
X38423Y6405D01*
X38368Y6201D01*
Y5989D01*
X38423Y5785D01*
X38528Y5603D01*
X38678Y5453D01*
X38860Y5348D01*
X39064Y5293D01*
X39276D01*
X39480Y5348D01*
X39662Y5453D01*
X39812Y5603D01*
X39917Y5785D01*
X39972Y5989D01*
Y6201D01*
X39917Y6405D01*
X39812Y6587D01*
X39662Y6737D01*
X39480Y6842D01*
X39276Y6897D01*
D02*
G37*
G36*
X36736D02*
X36524D01*
X36320Y6842D01*
X36138Y6737D01*
X35988Y6587D01*
X35883Y6405D01*
X35828Y6201D01*
Y5989D01*
X35883Y5785D01*
X35988Y5603D01*
X36138Y5453D01*
X36320Y5348D01*
X36524Y5293D01*
X36736D01*
X36940Y5348D01*
X37122Y5453D01*
X37272Y5603D01*
X37377Y5785D01*
X37432Y5989D01*
Y6201D01*
X37377Y6405D01*
X37272Y6587D01*
X37122Y6737D01*
X36940Y6842D01*
X36736Y6897D01*
D02*
G37*
G36*
X34196D02*
X33984D01*
X33780Y6842D01*
X33598Y6737D01*
X33448Y6587D01*
X33343Y6405D01*
X33288Y6201D01*
Y5989D01*
X33343Y5785D01*
X33448Y5603D01*
X33598Y5453D01*
X33780Y5348D01*
X33984Y5293D01*
X34196D01*
X34400Y5348D01*
X34582Y5453D01*
X34732Y5603D01*
X34837Y5785D01*
X34892Y5989D01*
Y6201D01*
X34837Y6405D01*
X34732Y6587D01*
X34582Y6737D01*
X34400Y6842D01*
X34196Y6897D01*
D02*
G37*
G36*
X31656D02*
X31444D01*
X31240Y6842D01*
X31058Y6737D01*
X30908Y6587D01*
X30803Y6405D01*
X30748Y6201D01*
Y5989D01*
X30803Y5785D01*
X30908Y5603D01*
X31058Y5453D01*
X31240Y5348D01*
X31444Y5293D01*
X31656D01*
X31860Y5348D01*
X32042Y5453D01*
X32192Y5603D01*
X32297Y5785D01*
X32352Y5989D01*
Y6201D01*
X32297Y6405D01*
X32192Y6587D01*
X32042Y6737D01*
X31860Y6842D01*
X31656Y6897D01*
D02*
G37*
G36*
X29116D02*
X28904D01*
X28700Y6842D01*
X28518Y6737D01*
X28368Y6587D01*
X28263Y6405D01*
X28208Y6201D01*
Y5989D01*
X28263Y5785D01*
X28368Y5603D01*
X28518Y5453D01*
X28700Y5348D01*
X28904Y5293D01*
X29116D01*
X29320Y5348D01*
X29502Y5453D01*
X29652Y5603D01*
X29757Y5785D01*
X29812Y5989D01*
Y6201D01*
X29757Y6405D01*
X29652Y6587D01*
X29502Y6737D01*
X29320Y6842D01*
X29116Y6897D01*
D02*
G37*
G36*
X26576D02*
X26364D01*
X26160Y6842D01*
X25978Y6737D01*
X25828Y6587D01*
X25723Y6405D01*
X25668Y6201D01*
Y5989D01*
X25723Y5785D01*
X25828Y5603D01*
X25978Y5453D01*
X26160Y5348D01*
X26364Y5293D01*
X26576D01*
X26780Y5348D01*
X26962Y5453D01*
X27112Y5603D01*
X27217Y5785D01*
X27272Y5989D01*
Y6201D01*
X27217Y6405D01*
X27112Y6587D01*
X26962Y6737D01*
X26780Y6842D01*
X26576Y6897D01*
D02*
G37*
G36*
X24036D02*
X23824D01*
X23620Y6842D01*
X23438Y6737D01*
X23288Y6587D01*
X23183Y6405D01*
X23128Y6201D01*
Y5989D01*
X23183Y5785D01*
X23288Y5603D01*
X23438Y5453D01*
X23620Y5348D01*
X23824Y5293D01*
X24036D01*
X24240Y5348D01*
X24422Y5453D01*
X24572Y5603D01*
X24677Y5785D01*
X24732Y5989D01*
Y6201D01*
X24677Y6405D01*
X24572Y6587D01*
X24422Y6737D01*
X24240Y6842D01*
X24036Y6897D01*
D02*
G37*
G36*
X21496D02*
X21284D01*
X21080Y6842D01*
X20898Y6737D01*
X20748Y6587D01*
X20643Y6405D01*
X20588Y6201D01*
Y5989D01*
X20643Y5785D01*
X20748Y5603D01*
X20898Y5453D01*
X21080Y5348D01*
X21284Y5293D01*
X21496D01*
X21700Y5348D01*
X21882Y5453D01*
X22032Y5603D01*
X22137Y5785D01*
X22192Y5989D01*
Y6201D01*
X22137Y6405D01*
X22032Y6587D01*
X21882Y6737D01*
X21700Y6842D01*
X21496Y6897D01*
D02*
G37*
G36*
X18956D02*
X18744D01*
X18540Y6842D01*
X18358Y6737D01*
X18208Y6587D01*
X18103Y6405D01*
X18048Y6201D01*
Y5989D01*
X18103Y5785D01*
X18208Y5603D01*
X18358Y5453D01*
X18540Y5348D01*
X18744Y5293D01*
X18956D01*
X19160Y5348D01*
X19342Y5453D01*
X19492Y5603D01*
X19597Y5785D01*
X19652Y5989D01*
Y6201D01*
X19597Y6405D01*
X19492Y6587D01*
X19342Y6737D01*
X19160Y6842D01*
X18956Y6897D01*
D02*
G37*
G36*
X16416D02*
X16204D01*
X16000Y6842D01*
X15818Y6737D01*
X15668Y6587D01*
X15563Y6405D01*
X15508Y6201D01*
Y5989D01*
X15563Y5785D01*
X15668Y5603D01*
X15818Y5453D01*
X16000Y5348D01*
X16204Y5293D01*
X16416D01*
X16620Y5348D01*
X16802Y5453D01*
X16952Y5603D01*
X17057Y5785D01*
X17112Y5989D01*
Y6201D01*
X17057Y6405D01*
X16952Y6587D01*
X16802Y6737D01*
X16620Y6842D01*
X16416Y6897D01*
D02*
G37*
G36*
X13876D02*
X13664D01*
X13460Y6842D01*
X13278Y6737D01*
X13128Y6587D01*
X13023Y6405D01*
X12968Y6201D01*
Y5989D01*
X13023Y5785D01*
X13128Y5603D01*
X13278Y5453D01*
X13460Y5348D01*
X13664Y5293D01*
X13876D01*
X14080Y5348D01*
X14262Y5453D01*
X14412Y5603D01*
X14517Y5785D01*
X14572Y5989D01*
Y6201D01*
X14517Y6405D01*
X14412Y6587D01*
X14262Y6737D01*
X14080Y6842D01*
X13876Y6897D01*
D02*
G37*
G36*
X83719Y4942D02*
X83697D01*
Y4266D01*
X84372D01*
Y4289D01*
X84320Y4480D01*
X84221Y4651D01*
X84081Y4791D01*
X83910Y4890D01*
X83719Y4942D01*
D02*
G37*
G36*
X60859D02*
X60836D01*
Y4266D01*
X61512D01*
Y4289D01*
X61460Y4480D01*
X61361Y4651D01*
X61221Y4791D01*
X61050Y4890D01*
X60859Y4942D01*
D02*
G37*
G36*
X37999D02*
X37977D01*
Y4266D01*
X38652D01*
Y4289D01*
X38600Y4480D01*
X38501Y4651D01*
X38361Y4791D01*
X38190Y4890D01*
X37999Y4942D01*
D02*
G37*
G36*
X15139D02*
X15116D01*
Y4266D01*
X15792D01*
Y4289D01*
X15740Y4480D01*
X15641Y4651D01*
X15501Y4791D01*
X15330Y4890D01*
X15139Y4942D01*
D02*
G37*
G36*
X76099D02*
X76076D01*
Y4266D01*
X76752D01*
Y4289D01*
X76700Y4480D01*
X76601Y4651D01*
X76461Y4791D01*
X76290Y4890D01*
X76099Y4942D01*
D02*
G37*
G36*
X53239D02*
X53216D01*
Y4266D01*
X53892D01*
Y4289D01*
X53840Y4480D01*
X53741Y4651D01*
X53601Y4791D01*
X53430Y4890D01*
X53239Y4942D01*
D02*
G37*
G36*
X45619D02*
X45597D01*
Y4266D01*
X46272D01*
Y4289D01*
X46220Y4480D01*
X46121Y4651D01*
X45981Y4791D01*
X45810Y4890D01*
X45619Y4942D01*
D02*
G37*
G36*
X30379D02*
X30357D01*
Y4266D01*
X31032D01*
Y4289D01*
X30980Y4480D01*
X30881Y4651D01*
X30741Y4791D01*
X30570Y4890D01*
X30379Y4942D01*
D02*
G37*
G36*
X22759D02*
X22736D01*
Y4266D01*
X23412D01*
Y4289D01*
X23360Y4480D01*
X23261Y4651D01*
X23121Y4791D01*
X22950Y4890D01*
X22759Y4942D01*
D02*
G37*
G36*
X68479D02*
X68456D01*
Y4266D01*
X69132D01*
Y4289D01*
X69080Y4480D01*
X68981Y4651D01*
X68841Y4791D01*
X68670Y4890D01*
X68479Y4942D01*
D02*
G37*
G36*
X17679D02*
X17656D01*
Y4266D01*
X18332D01*
Y4289D01*
X18280Y4480D01*
X18181Y4651D01*
X18041Y4791D01*
X17870Y4890D01*
X17679Y4942D01*
D02*
G37*
G36*
X83544D02*
X83521D01*
X83330Y4890D01*
X83159Y4791D01*
X83019Y4651D01*
X82920Y4480D01*
X82868Y4289D01*
Y4266D01*
X83544D01*
Y4942D01*
D02*
G37*
G36*
X60683D02*
X60661D01*
X60470Y4890D01*
X60299Y4791D01*
X60159Y4651D01*
X60060Y4480D01*
X60008Y4289D01*
Y4266D01*
X60683D01*
Y4942D01*
D02*
G37*
G36*
X37824D02*
X37801D01*
X37610Y4890D01*
X37439Y4791D01*
X37299Y4651D01*
X37200Y4480D01*
X37148Y4289D01*
Y4266D01*
X37824D01*
Y4942D01*
D02*
G37*
G36*
X14964D02*
X14941D01*
X14750Y4890D01*
X14579Y4791D01*
X14439Y4651D01*
X14340Y4480D01*
X14288Y4289D01*
Y4266D01*
X14964D01*
Y4942D01*
D02*
G37*
G36*
X75924D02*
X75901D01*
X75710Y4890D01*
X75539Y4791D01*
X75399Y4651D01*
X75300Y4480D01*
X75248Y4289D01*
Y4266D01*
X75924D01*
Y4942D01*
D02*
G37*
G36*
X68303D02*
X68281D01*
X68090Y4890D01*
X67919Y4791D01*
X67779Y4651D01*
X67680Y4480D01*
X67628Y4289D01*
Y4266D01*
X68303D01*
Y4942D01*
D02*
G37*
G36*
X53063D02*
X53041D01*
X52850Y4890D01*
X52679Y4791D01*
X52539Y4651D01*
X52440Y4480D01*
X52388Y4289D01*
Y4266D01*
X53063D01*
Y4942D01*
D02*
G37*
G36*
X45444D02*
X45421D01*
X45230Y4890D01*
X45059Y4791D01*
X44919Y4651D01*
X44820Y4480D01*
X44768Y4289D01*
Y4266D01*
X45444D01*
Y4942D01*
D02*
G37*
G36*
X30204D02*
X30181D01*
X29990Y4890D01*
X29819Y4791D01*
X29679Y4651D01*
X29580Y4480D01*
X29528Y4289D01*
Y4266D01*
X30204D01*
Y4942D01*
D02*
G37*
G36*
X22583D02*
X22561D01*
X22370Y4890D01*
X22199Y4791D01*
X22059Y4651D01*
X21960Y4480D01*
X21908Y4289D01*
Y4266D01*
X22583D01*
Y4942D01*
D02*
G37*
G36*
X17503D02*
X17481D01*
X17290Y4890D01*
X17119Y4791D01*
X16979Y4651D01*
X16880Y4480D01*
X16828Y4289D01*
Y4266D01*
X17503D01*
Y4942D01*
D02*
G37*
G36*
X84372Y4113D02*
X83697D01*
Y3438D01*
X83719D01*
X83910Y3490D01*
X84081Y3589D01*
X84221Y3728D01*
X84320Y3900D01*
X84372Y4091D01*
Y4113D01*
D02*
G37*
G36*
X83544D02*
X82868D01*
Y4091D01*
X82920Y3900D01*
X83019Y3728D01*
X83159Y3589D01*
X83330Y3490D01*
X83521Y3438D01*
X83544D01*
Y4113D01*
D02*
G37*
G36*
X76752D02*
X76076D01*
Y3438D01*
X76099D01*
X76290Y3490D01*
X76461Y3589D01*
X76601Y3728D01*
X76700Y3900D01*
X76752Y4091D01*
Y4113D01*
D02*
G37*
G36*
X75924D02*
X75248D01*
Y4091D01*
X75300Y3900D01*
X75399Y3728D01*
X75539Y3589D01*
X75710Y3490D01*
X75901Y3438D01*
X75924D01*
Y4113D01*
D02*
G37*
G36*
X69132D02*
X68456D01*
Y3438D01*
X68479D01*
X68670Y3490D01*
X68841Y3589D01*
X68981Y3728D01*
X69080Y3900D01*
X69132Y4091D01*
Y4113D01*
D02*
G37*
G36*
X68303D02*
X67628D01*
Y4091D01*
X67680Y3900D01*
X67779Y3728D01*
X67919Y3589D01*
X68090Y3490D01*
X68281Y3438D01*
X68303D01*
Y4113D01*
D02*
G37*
G36*
X61512D02*
X60836D01*
Y3438D01*
X60859D01*
X61050Y3490D01*
X61221Y3589D01*
X61361Y3728D01*
X61460Y3900D01*
X61512Y4091D01*
Y4113D01*
D02*
G37*
G36*
X60683D02*
X60008D01*
Y4091D01*
X60060Y3900D01*
X60159Y3728D01*
X60299Y3589D01*
X60470Y3490D01*
X60661Y3438D01*
X60683D01*
Y4113D01*
D02*
G37*
G36*
X53892D02*
X53216D01*
Y3438D01*
X53239D01*
X53430Y3490D01*
X53601Y3589D01*
X53741Y3728D01*
X53840Y3900D01*
X53892Y4091D01*
Y4113D01*
D02*
G37*
G36*
X53063D02*
X52388D01*
Y4091D01*
X52440Y3900D01*
X52539Y3728D01*
X52679Y3589D01*
X52850Y3490D01*
X53041Y3438D01*
X53063D01*
Y4113D01*
D02*
G37*
G36*
X46272D02*
X45597D01*
Y3438D01*
X45619D01*
X45810Y3490D01*
X45981Y3589D01*
X46121Y3728D01*
X46220Y3900D01*
X46272Y4091D01*
Y4113D01*
D02*
G37*
G36*
X45444D02*
X44768D01*
Y4091D01*
X44820Y3900D01*
X44919Y3728D01*
X45059Y3589D01*
X45230Y3490D01*
X45421Y3438D01*
X45444D01*
Y4113D01*
D02*
G37*
G36*
X38652D02*
X37977D01*
Y3438D01*
X37999D01*
X38190Y3490D01*
X38361Y3589D01*
X38501Y3728D01*
X38600Y3900D01*
X38652Y4091D01*
Y4113D01*
D02*
G37*
G36*
X37824D02*
X37148D01*
Y4091D01*
X37200Y3900D01*
X37299Y3728D01*
X37439Y3589D01*
X37610Y3490D01*
X37801Y3438D01*
X37824D01*
Y4113D01*
D02*
G37*
G36*
X31032D02*
X30357D01*
Y3438D01*
X30379D01*
X30570Y3490D01*
X30741Y3589D01*
X30881Y3728D01*
X30980Y3900D01*
X31032Y4091D01*
Y4113D01*
D02*
G37*
G36*
X30204D02*
X29528D01*
Y4091D01*
X29580Y3900D01*
X29679Y3728D01*
X29819Y3589D01*
X29990Y3490D01*
X30181Y3438D01*
X30204D01*
Y4113D01*
D02*
G37*
G36*
X23412D02*
X22736D01*
Y3438D01*
X22759D01*
X22950Y3490D01*
X23121Y3589D01*
X23261Y3728D01*
X23360Y3900D01*
X23412Y4091D01*
Y4113D01*
D02*
G37*
G36*
X22583D02*
X21908D01*
Y4091D01*
X21960Y3900D01*
X22059Y3728D01*
X22199Y3589D01*
X22370Y3490D01*
X22561Y3438D01*
X22583D01*
Y4113D01*
D02*
G37*
G36*
X18332D02*
X17656D01*
Y3438D01*
X17679D01*
X17870Y3490D01*
X18041Y3589D01*
X18181Y3728D01*
X18280Y3900D01*
X18332Y4091D01*
Y4113D01*
D02*
G37*
G36*
X17503D02*
X16828D01*
Y4091D01*
X16880Y3900D01*
X16979Y3728D01*
X17119Y3589D01*
X17290Y3490D01*
X17481Y3438D01*
X17503D01*
Y4113D01*
D02*
G37*
G36*
X15792D02*
X15116D01*
Y3438D01*
X15139D01*
X15330Y3490D01*
X15501Y3589D01*
X15641Y3728D01*
X15740Y3900D01*
X15792Y4091D01*
Y4113D01*
D02*
G37*
G36*
X14964D02*
X14288D01*
Y4091D01*
X14340Y3900D01*
X14439Y3728D01*
X14579Y3589D01*
X14750Y3490D01*
X14941Y3438D01*
X14964D01*
Y4113D01*
D02*
G37*
G36*
X86266Y4992D02*
X86054D01*
X85850Y4937D01*
X85668Y4832D01*
X85518Y4682D01*
X85413Y4500D01*
X85358Y4296D01*
Y4084D01*
X85413Y3880D01*
X85518Y3698D01*
X85668Y3548D01*
X85850Y3443D01*
X86054Y3388D01*
X86266D01*
X86470Y3443D01*
X86652Y3548D01*
X86802Y3698D01*
X86907Y3880D01*
X86962Y4084D01*
Y4296D01*
X86907Y4500D01*
X86802Y4682D01*
X86652Y4832D01*
X86470Y4937D01*
X86266Y4992D01*
D02*
G37*
G36*
X81186D02*
X80974D01*
X80770Y4937D01*
X80588Y4832D01*
X80438Y4682D01*
X80333Y4500D01*
X80278Y4296D01*
Y4084D01*
X80333Y3880D01*
X80438Y3698D01*
X80588Y3548D01*
X80770Y3443D01*
X80974Y3388D01*
X81186D01*
X81390Y3443D01*
X81572Y3548D01*
X81722Y3698D01*
X81827Y3880D01*
X81882Y4084D01*
Y4296D01*
X81827Y4500D01*
X81722Y4682D01*
X81572Y4832D01*
X81390Y4937D01*
X81186Y4992D01*
D02*
G37*
G36*
X78646D02*
X78434D01*
X78230Y4937D01*
X78048Y4832D01*
X77898Y4682D01*
X77793Y4500D01*
X77738Y4296D01*
Y4084D01*
X77793Y3880D01*
X77898Y3698D01*
X78048Y3548D01*
X78230Y3443D01*
X78434Y3388D01*
X78646D01*
X78850Y3443D01*
X79032Y3548D01*
X79182Y3698D01*
X79287Y3880D01*
X79342Y4084D01*
Y4296D01*
X79287Y4500D01*
X79182Y4682D01*
X79032Y4832D01*
X78850Y4937D01*
X78646Y4992D01*
D02*
G37*
G36*
X73566D02*
X73354D01*
X73150Y4937D01*
X72968Y4832D01*
X72818Y4682D01*
X72713Y4500D01*
X72658Y4296D01*
Y4084D01*
X72713Y3880D01*
X72818Y3698D01*
X72968Y3548D01*
X73150Y3443D01*
X73354Y3388D01*
X73566D01*
X73770Y3443D01*
X73952Y3548D01*
X74102Y3698D01*
X74207Y3880D01*
X74262Y4084D01*
Y4296D01*
X74207Y4500D01*
X74102Y4682D01*
X73952Y4832D01*
X73770Y4937D01*
X73566Y4992D01*
D02*
G37*
G36*
X71026D02*
X70814D01*
X70610Y4937D01*
X70428Y4832D01*
X70278Y4682D01*
X70173Y4500D01*
X70118Y4296D01*
Y4084D01*
X70173Y3880D01*
X70278Y3698D01*
X70428Y3548D01*
X70610Y3443D01*
X70814Y3388D01*
X71026D01*
X71230Y3443D01*
X71412Y3548D01*
X71562Y3698D01*
X71667Y3880D01*
X71722Y4084D01*
Y4296D01*
X71667Y4500D01*
X71562Y4682D01*
X71412Y4832D01*
X71230Y4937D01*
X71026Y4992D01*
D02*
G37*
G36*
X65946D02*
X65734D01*
X65530Y4937D01*
X65348Y4832D01*
X65198Y4682D01*
X65093Y4500D01*
X65038Y4296D01*
Y4084D01*
X65093Y3880D01*
X65198Y3698D01*
X65348Y3548D01*
X65530Y3443D01*
X65734Y3388D01*
X65946D01*
X66150Y3443D01*
X66332Y3548D01*
X66482Y3698D01*
X66587Y3880D01*
X66642Y4084D01*
Y4296D01*
X66587Y4500D01*
X66482Y4682D01*
X66332Y4832D01*
X66150Y4937D01*
X65946Y4992D01*
D02*
G37*
G36*
X63406D02*
X63194D01*
X62990Y4937D01*
X62808Y4832D01*
X62658Y4682D01*
X62553Y4500D01*
X62498Y4296D01*
Y4084D01*
X62553Y3880D01*
X62658Y3698D01*
X62808Y3548D01*
X62990Y3443D01*
X63194Y3388D01*
X63406D01*
X63610Y3443D01*
X63792Y3548D01*
X63942Y3698D01*
X64047Y3880D01*
X64102Y4084D01*
Y4296D01*
X64047Y4500D01*
X63942Y4682D01*
X63792Y4832D01*
X63610Y4937D01*
X63406Y4992D01*
D02*
G37*
G36*
X58326D02*
X58114D01*
X57910Y4937D01*
X57728Y4832D01*
X57578Y4682D01*
X57473Y4500D01*
X57418Y4296D01*
Y4084D01*
X57473Y3880D01*
X57578Y3698D01*
X57728Y3548D01*
X57910Y3443D01*
X58114Y3388D01*
X58326D01*
X58530Y3443D01*
X58712Y3548D01*
X58862Y3698D01*
X58967Y3880D01*
X59022Y4084D01*
Y4296D01*
X58967Y4500D01*
X58862Y4682D01*
X58712Y4832D01*
X58530Y4937D01*
X58326Y4992D01*
D02*
G37*
G36*
X55786D02*
X55574D01*
X55370Y4937D01*
X55188Y4832D01*
X55038Y4682D01*
X54933Y4500D01*
X54878Y4296D01*
Y4084D01*
X54933Y3880D01*
X55038Y3698D01*
X55188Y3548D01*
X55370Y3443D01*
X55574Y3388D01*
X55786D01*
X55990Y3443D01*
X56172Y3548D01*
X56322Y3698D01*
X56427Y3880D01*
X56482Y4084D01*
Y4296D01*
X56427Y4500D01*
X56322Y4682D01*
X56172Y4832D01*
X55990Y4937D01*
X55786Y4992D01*
D02*
G37*
G36*
X50706D02*
X50494D01*
X50290Y4937D01*
X50108Y4832D01*
X49958Y4682D01*
X49853Y4500D01*
X49798Y4296D01*
Y4084D01*
X49853Y3880D01*
X49958Y3698D01*
X50108Y3548D01*
X50290Y3443D01*
X50494Y3388D01*
X50706D01*
X50910Y3443D01*
X51092Y3548D01*
X51242Y3698D01*
X51347Y3880D01*
X51402Y4084D01*
Y4296D01*
X51347Y4500D01*
X51242Y4682D01*
X51092Y4832D01*
X50910Y4937D01*
X50706Y4992D01*
D02*
G37*
G36*
X48166D02*
X47954D01*
X47750Y4937D01*
X47568Y4832D01*
X47418Y4682D01*
X47313Y4500D01*
X47258Y4296D01*
Y4084D01*
X47313Y3880D01*
X47418Y3698D01*
X47568Y3548D01*
X47750Y3443D01*
X47954Y3388D01*
X48166D01*
X48370Y3443D01*
X48552Y3548D01*
X48702Y3698D01*
X48807Y3880D01*
X48862Y4084D01*
Y4296D01*
X48807Y4500D01*
X48702Y4682D01*
X48552Y4832D01*
X48370Y4937D01*
X48166Y4992D01*
D02*
G37*
G36*
X43086D02*
X42874D01*
X42670Y4937D01*
X42488Y4832D01*
X42338Y4682D01*
X42233Y4500D01*
X42178Y4296D01*
Y4084D01*
X42233Y3880D01*
X42338Y3698D01*
X42488Y3548D01*
X42670Y3443D01*
X42874Y3388D01*
X43086D01*
X43290Y3443D01*
X43472Y3548D01*
X43622Y3698D01*
X43727Y3880D01*
X43782Y4084D01*
Y4296D01*
X43727Y4500D01*
X43622Y4682D01*
X43472Y4832D01*
X43290Y4937D01*
X43086Y4992D01*
D02*
G37*
G36*
X40546D02*
X40334D01*
X40130Y4937D01*
X39948Y4832D01*
X39798Y4682D01*
X39693Y4500D01*
X39638Y4296D01*
Y4084D01*
X39693Y3880D01*
X39798Y3698D01*
X39948Y3548D01*
X40130Y3443D01*
X40334Y3388D01*
X40546D01*
X40750Y3443D01*
X40932Y3548D01*
X41082Y3698D01*
X41187Y3880D01*
X41242Y4084D01*
Y4296D01*
X41187Y4500D01*
X41082Y4682D01*
X40932Y4832D01*
X40750Y4937D01*
X40546Y4992D01*
D02*
G37*
G36*
X35466D02*
X35254D01*
X35050Y4937D01*
X34868Y4832D01*
X34718Y4682D01*
X34613Y4500D01*
X34558Y4296D01*
Y4084D01*
X34613Y3880D01*
X34718Y3698D01*
X34868Y3548D01*
X35050Y3443D01*
X35254Y3388D01*
X35466D01*
X35670Y3443D01*
X35852Y3548D01*
X36002Y3698D01*
X36107Y3880D01*
X36162Y4084D01*
Y4296D01*
X36107Y4500D01*
X36002Y4682D01*
X35852Y4832D01*
X35670Y4937D01*
X35466Y4992D01*
D02*
G37*
G36*
X32926D02*
X32714D01*
X32510Y4937D01*
X32328Y4832D01*
X32178Y4682D01*
X32073Y4500D01*
X32018Y4296D01*
Y4084D01*
X32073Y3880D01*
X32178Y3698D01*
X32328Y3548D01*
X32510Y3443D01*
X32714Y3388D01*
X32926D01*
X33130Y3443D01*
X33312Y3548D01*
X33462Y3698D01*
X33567Y3880D01*
X33622Y4084D01*
Y4296D01*
X33567Y4500D01*
X33462Y4682D01*
X33312Y4832D01*
X33130Y4937D01*
X32926Y4992D01*
D02*
G37*
G36*
X27846D02*
X27634D01*
X27430Y4937D01*
X27248Y4832D01*
X27098Y4682D01*
X26993Y4500D01*
X26938Y4296D01*
Y4084D01*
X26993Y3880D01*
X27098Y3698D01*
X27248Y3548D01*
X27430Y3443D01*
X27634Y3388D01*
X27846D01*
X28050Y3443D01*
X28232Y3548D01*
X28382Y3698D01*
X28487Y3880D01*
X28542Y4084D01*
Y4296D01*
X28487Y4500D01*
X28382Y4682D01*
X28232Y4832D01*
X28050Y4937D01*
X27846Y4992D01*
D02*
G37*
G36*
X25306D02*
X25094D01*
X24890Y4937D01*
X24708Y4832D01*
X24558Y4682D01*
X24453Y4500D01*
X24398Y4296D01*
Y4084D01*
X24453Y3880D01*
X24558Y3698D01*
X24708Y3548D01*
X24890Y3443D01*
X25094Y3388D01*
X25306D01*
X25510Y3443D01*
X25692Y3548D01*
X25842Y3698D01*
X25947Y3880D01*
X26002Y4084D01*
Y4296D01*
X25947Y4500D01*
X25842Y4682D01*
X25692Y4832D01*
X25510Y4937D01*
X25306Y4992D01*
D02*
G37*
G36*
X20226D02*
X20014D01*
X19810Y4937D01*
X19628Y4832D01*
X19478Y4682D01*
X19373Y4500D01*
X19318Y4296D01*
Y4084D01*
X19373Y3880D01*
X19478Y3698D01*
X19628Y3548D01*
X19810Y3443D01*
X20014Y3388D01*
X20226D01*
X20430Y3443D01*
X20612Y3548D01*
X20762Y3698D01*
X20867Y3880D01*
X20922Y4084D01*
Y4296D01*
X20867Y4500D01*
X20762Y4682D01*
X20612Y4832D01*
X20430Y4937D01*
X20226Y4992D01*
D02*
G37*
G36*
X12606D02*
X12394D01*
X12190Y4937D01*
X12008Y4832D01*
X11858Y4682D01*
X11753Y4500D01*
X11698Y4296D01*
Y4084D01*
X11753Y3880D01*
X11858Y3698D01*
X12008Y3548D01*
X12190Y3443D01*
X12394Y3388D01*
X12606D01*
X12810Y3443D01*
X12992Y3548D01*
X13142Y3698D01*
X13247Y3880D01*
X13302Y4084D01*
Y4296D01*
X13247Y4500D01*
X13142Y4682D01*
X12992Y4832D01*
X12810Y4937D01*
X12606Y4992D01*
D02*
G37*
G36*
X97223Y5302D02*
X97044D01*
X96541Y5202D01*
X96068Y5006D01*
X95642Y4721D01*
X95279Y4358D01*
X94994Y3932D01*
X94798Y3459D01*
X94698Y2956D01*
Y2777D01*
X97223D01*
Y5302D01*
D02*
G37*
G36*
X2956Y5302D02*
X2777D01*
Y2776D01*
X5302D01*
Y2956D01*
X5202Y3459D01*
X5006Y3932D01*
X4721Y4358D01*
X4358Y4721D01*
X3932Y5005D01*
X3459Y5202D01*
X2956Y5302D01*
D02*
G37*
G36*
X92683Y4037D02*
X92587D01*
Y2361D01*
X94262D01*
Y2457D01*
X94194Y2796D01*
X94062Y3115D01*
X93871Y3402D01*
X93627Y3646D01*
X93340Y3837D01*
X93021Y3969D01*
X92683Y4037D01*
D02*
G37*
G36*
X7593D02*
X7497D01*
Y2361D01*
X9172D01*
Y2457D01*
X9104Y2796D01*
X8972Y3115D01*
X8781Y3402D01*
X8537Y3646D01*
X8250Y3837D01*
X7931Y3969D01*
X7593Y4037D01*
D02*
G37*
G36*
X92434D02*
X92337D01*
X91999Y3969D01*
X91680Y3837D01*
X91393Y3646D01*
X91149Y3402D01*
X90958Y3115D01*
X90826Y2796D01*
X90758Y2457D01*
Y2361D01*
X92434D01*
Y4037D01*
D02*
G37*
G36*
X7344D02*
X7247D01*
X6909Y3969D01*
X6590Y3837D01*
X6303Y3646D01*
X6059Y3402D01*
X5868Y3115D01*
X5736Y2796D01*
X5668Y2457D01*
Y2361D01*
X7344D01*
Y4037D01*
D02*
G37*
G36*
X87536Y3087D02*
X87324D01*
X87120Y3032D01*
X86938Y2927D01*
X86788Y2777D01*
X86683Y2595D01*
X86628Y2391D01*
Y2179D01*
X86683Y1975D01*
X86788Y1793D01*
X86938Y1643D01*
X87120Y1538D01*
X87324Y1483D01*
X87536D01*
X87740Y1538D01*
X87922Y1643D01*
X88072Y1793D01*
X88177Y1975D01*
X88232Y2179D01*
Y2391D01*
X88177Y2595D01*
X88072Y2777D01*
X87922Y2927D01*
X87740Y3032D01*
X87536Y3087D01*
D02*
G37*
G36*
X84996D02*
X84784D01*
X84580Y3032D01*
X84398Y2927D01*
X84248Y2777D01*
X84143Y2595D01*
X84088Y2391D01*
Y2179D01*
X84143Y1975D01*
X84248Y1793D01*
X84398Y1643D01*
X84580Y1538D01*
X84784Y1483D01*
X84996D01*
X85200Y1538D01*
X85382Y1643D01*
X85532Y1793D01*
X85637Y1975D01*
X85692Y2179D01*
Y2391D01*
X85637Y2595D01*
X85532Y2777D01*
X85382Y2927D01*
X85200Y3032D01*
X84996Y3087D01*
D02*
G37*
G36*
X82456D02*
X82244D01*
X82040Y3032D01*
X81858Y2927D01*
X81708Y2777D01*
X81603Y2595D01*
X81548Y2391D01*
Y2179D01*
X81603Y1975D01*
X81708Y1793D01*
X81858Y1643D01*
X82040Y1538D01*
X82244Y1483D01*
X82456D01*
X82660Y1538D01*
X82842Y1643D01*
X82992Y1793D01*
X83097Y1975D01*
X83152Y2179D01*
Y2391D01*
X83097Y2595D01*
X82992Y2777D01*
X82842Y2927D01*
X82660Y3032D01*
X82456Y3087D01*
D02*
G37*
G36*
X79916D02*
X79704D01*
X79500Y3032D01*
X79318Y2927D01*
X79168Y2777D01*
X79063Y2595D01*
X79008Y2391D01*
Y2179D01*
X79063Y1975D01*
X79168Y1793D01*
X79318Y1643D01*
X79500Y1538D01*
X79704Y1483D01*
X79916D01*
X80120Y1538D01*
X80302Y1643D01*
X80452Y1793D01*
X80557Y1975D01*
X80612Y2179D01*
Y2391D01*
X80557Y2595D01*
X80452Y2777D01*
X80302Y2927D01*
X80120Y3032D01*
X79916Y3087D01*
D02*
G37*
G36*
X77376D02*
X77164D01*
X76960Y3032D01*
X76778Y2927D01*
X76628Y2777D01*
X76523Y2595D01*
X76468Y2391D01*
Y2179D01*
X76523Y1975D01*
X76628Y1793D01*
X76778Y1643D01*
X76960Y1538D01*
X77164Y1483D01*
X77376D01*
X77580Y1538D01*
X77762Y1643D01*
X77912Y1793D01*
X78017Y1975D01*
X78072Y2179D01*
Y2391D01*
X78017Y2595D01*
X77912Y2777D01*
X77762Y2927D01*
X77580Y3032D01*
X77376Y3087D01*
D02*
G37*
G36*
X74836D02*
X74624D01*
X74420Y3032D01*
X74238Y2927D01*
X74088Y2777D01*
X73983Y2595D01*
X73928Y2391D01*
Y2179D01*
X73983Y1975D01*
X74088Y1793D01*
X74238Y1643D01*
X74420Y1538D01*
X74624Y1483D01*
X74836D01*
X75040Y1538D01*
X75222Y1643D01*
X75372Y1793D01*
X75477Y1975D01*
X75532Y2179D01*
Y2391D01*
X75477Y2595D01*
X75372Y2777D01*
X75222Y2927D01*
X75040Y3032D01*
X74836Y3087D01*
D02*
G37*
G36*
X72296D02*
X72084D01*
X71880Y3032D01*
X71698Y2927D01*
X71548Y2777D01*
X71443Y2595D01*
X71388Y2391D01*
Y2179D01*
X71443Y1975D01*
X71548Y1793D01*
X71698Y1643D01*
X71880Y1538D01*
X72084Y1483D01*
X72296D01*
X72500Y1538D01*
X72682Y1643D01*
X72832Y1793D01*
X72937Y1975D01*
X72992Y2179D01*
Y2391D01*
X72937Y2595D01*
X72832Y2777D01*
X72682Y2927D01*
X72500Y3032D01*
X72296Y3087D01*
D02*
G37*
G36*
X69756D02*
X69544D01*
X69340Y3032D01*
X69158Y2927D01*
X69008Y2777D01*
X68903Y2595D01*
X68848Y2391D01*
Y2179D01*
X68903Y1975D01*
X69008Y1793D01*
X69158Y1643D01*
X69340Y1538D01*
X69544Y1483D01*
X69756D01*
X69960Y1538D01*
X70142Y1643D01*
X70292Y1793D01*
X70397Y1975D01*
X70452Y2179D01*
Y2391D01*
X70397Y2595D01*
X70292Y2777D01*
X70142Y2927D01*
X69960Y3032D01*
X69756Y3087D01*
D02*
G37*
G36*
X67216D02*
X67004D01*
X66800Y3032D01*
X66618Y2927D01*
X66468Y2777D01*
X66363Y2595D01*
X66308Y2391D01*
Y2179D01*
X66363Y1975D01*
X66468Y1793D01*
X66618Y1643D01*
X66800Y1538D01*
X67004Y1483D01*
X67216D01*
X67420Y1538D01*
X67602Y1643D01*
X67752Y1793D01*
X67857Y1975D01*
X67912Y2179D01*
Y2391D01*
X67857Y2595D01*
X67752Y2777D01*
X67602Y2927D01*
X67420Y3032D01*
X67216Y3087D01*
D02*
G37*
G36*
X64676D02*
X64464D01*
X64260Y3032D01*
X64078Y2927D01*
X63928Y2777D01*
X63823Y2595D01*
X63768Y2391D01*
Y2179D01*
X63823Y1975D01*
X63928Y1793D01*
X64078Y1643D01*
X64260Y1538D01*
X64464Y1483D01*
X64676D01*
X64880Y1538D01*
X65062Y1643D01*
X65212Y1793D01*
X65317Y1975D01*
X65372Y2179D01*
Y2391D01*
X65317Y2595D01*
X65212Y2777D01*
X65062Y2927D01*
X64880Y3032D01*
X64676Y3087D01*
D02*
G37*
G36*
X62136D02*
X61924D01*
X61720Y3032D01*
X61538Y2927D01*
X61388Y2777D01*
X61283Y2595D01*
X61228Y2391D01*
Y2179D01*
X61283Y1975D01*
X61388Y1793D01*
X61538Y1643D01*
X61720Y1538D01*
X61924Y1483D01*
X62136D01*
X62340Y1538D01*
X62522Y1643D01*
X62672Y1793D01*
X62777Y1975D01*
X62832Y2179D01*
Y2391D01*
X62777Y2595D01*
X62672Y2777D01*
X62522Y2927D01*
X62340Y3032D01*
X62136Y3087D01*
D02*
G37*
G36*
X59596D02*
X59384D01*
X59180Y3032D01*
X58998Y2927D01*
X58848Y2777D01*
X58743Y2595D01*
X58688Y2391D01*
Y2179D01*
X58743Y1975D01*
X58848Y1793D01*
X58998Y1643D01*
X59180Y1538D01*
X59384Y1483D01*
X59596D01*
X59800Y1538D01*
X59982Y1643D01*
X60132Y1793D01*
X60237Y1975D01*
X60292Y2179D01*
Y2391D01*
X60237Y2595D01*
X60132Y2777D01*
X59982Y2927D01*
X59800Y3032D01*
X59596Y3087D01*
D02*
G37*
G36*
X57056D02*
X56844D01*
X56640Y3032D01*
X56458Y2927D01*
X56308Y2777D01*
X56203Y2595D01*
X56148Y2391D01*
Y2179D01*
X56203Y1975D01*
X56308Y1793D01*
X56458Y1643D01*
X56640Y1538D01*
X56844Y1483D01*
X57056D01*
X57260Y1538D01*
X57442Y1643D01*
X57592Y1793D01*
X57697Y1975D01*
X57752Y2179D01*
Y2391D01*
X57697Y2595D01*
X57592Y2777D01*
X57442Y2927D01*
X57260Y3032D01*
X57056Y3087D01*
D02*
G37*
G36*
X54516D02*
X54304D01*
X54100Y3032D01*
X53918Y2927D01*
X53768Y2777D01*
X53663Y2595D01*
X53608Y2391D01*
Y2179D01*
X53663Y1975D01*
X53768Y1793D01*
X53918Y1643D01*
X54100Y1538D01*
X54304Y1483D01*
X54516D01*
X54720Y1538D01*
X54902Y1643D01*
X55052Y1793D01*
X55157Y1975D01*
X55212Y2179D01*
Y2391D01*
X55157Y2595D01*
X55052Y2777D01*
X54902Y2927D01*
X54720Y3032D01*
X54516Y3087D01*
D02*
G37*
G36*
X51976D02*
X51764D01*
X51560Y3032D01*
X51378Y2927D01*
X51228Y2777D01*
X51123Y2595D01*
X51068Y2391D01*
Y2179D01*
X51123Y1975D01*
X51228Y1793D01*
X51378Y1643D01*
X51560Y1538D01*
X51764Y1483D01*
X51976D01*
X52180Y1538D01*
X52362Y1643D01*
X52512Y1793D01*
X52617Y1975D01*
X52672Y2179D01*
Y2391D01*
X52617Y2595D01*
X52512Y2777D01*
X52362Y2927D01*
X52180Y3032D01*
X51976Y3087D01*
D02*
G37*
G36*
X49436D02*
X49224D01*
X49020Y3032D01*
X48838Y2927D01*
X48688Y2777D01*
X48583Y2595D01*
X48528Y2391D01*
Y2179D01*
X48583Y1975D01*
X48688Y1793D01*
X48838Y1643D01*
X49020Y1538D01*
X49224Y1483D01*
X49436D01*
X49640Y1538D01*
X49822Y1643D01*
X49972Y1793D01*
X50077Y1975D01*
X50132Y2179D01*
Y2391D01*
X50077Y2595D01*
X49972Y2777D01*
X49822Y2927D01*
X49640Y3032D01*
X49436Y3087D01*
D02*
G37*
G36*
X46896D02*
X46684D01*
X46480Y3032D01*
X46298Y2927D01*
X46148Y2777D01*
X46043Y2595D01*
X45988Y2391D01*
Y2179D01*
X46043Y1975D01*
X46148Y1793D01*
X46298Y1643D01*
X46480Y1538D01*
X46684Y1483D01*
X46896D01*
X47100Y1538D01*
X47282Y1643D01*
X47432Y1793D01*
X47537Y1975D01*
X47592Y2179D01*
Y2391D01*
X47537Y2595D01*
X47432Y2777D01*
X47282Y2927D01*
X47100Y3032D01*
X46896Y3087D01*
D02*
G37*
G36*
X44356D02*
X44144D01*
X43940Y3032D01*
X43758Y2927D01*
X43608Y2777D01*
X43503Y2595D01*
X43448Y2391D01*
Y2179D01*
X43503Y1975D01*
X43608Y1793D01*
X43758Y1643D01*
X43940Y1538D01*
X44144Y1483D01*
X44356D01*
X44560Y1538D01*
X44742Y1643D01*
X44892Y1793D01*
X44997Y1975D01*
X45052Y2179D01*
Y2391D01*
X44997Y2595D01*
X44892Y2777D01*
X44742Y2927D01*
X44560Y3032D01*
X44356Y3087D01*
D02*
G37*
G36*
X41816D02*
X41604D01*
X41400Y3032D01*
X41218Y2927D01*
X41068Y2777D01*
X40963Y2595D01*
X40908Y2391D01*
Y2179D01*
X40963Y1975D01*
X41068Y1793D01*
X41218Y1643D01*
X41400Y1538D01*
X41604Y1483D01*
X41816D01*
X42020Y1538D01*
X42202Y1643D01*
X42352Y1793D01*
X42457Y1975D01*
X42512Y2179D01*
Y2391D01*
X42457Y2595D01*
X42352Y2777D01*
X42202Y2927D01*
X42020Y3032D01*
X41816Y3087D01*
D02*
G37*
G36*
X39276D02*
X39064D01*
X38860Y3032D01*
X38678Y2927D01*
X38528Y2777D01*
X38423Y2595D01*
X38368Y2391D01*
Y2179D01*
X38423Y1975D01*
X38528Y1793D01*
X38678Y1643D01*
X38860Y1538D01*
X39064Y1483D01*
X39276D01*
X39480Y1538D01*
X39662Y1643D01*
X39812Y1793D01*
X39917Y1975D01*
X39972Y2179D01*
Y2391D01*
X39917Y2595D01*
X39812Y2777D01*
X39662Y2927D01*
X39480Y3032D01*
X39276Y3087D01*
D02*
G37*
G36*
X36736D02*
X36524D01*
X36320Y3032D01*
X36138Y2927D01*
X35988Y2777D01*
X35883Y2595D01*
X35828Y2391D01*
Y2179D01*
X35883Y1975D01*
X35988Y1793D01*
X36138Y1643D01*
X36320Y1538D01*
X36524Y1483D01*
X36736D01*
X36940Y1538D01*
X37122Y1643D01*
X37272Y1793D01*
X37377Y1975D01*
X37432Y2179D01*
Y2391D01*
X37377Y2595D01*
X37272Y2777D01*
X37122Y2927D01*
X36940Y3032D01*
X36736Y3087D01*
D02*
G37*
G36*
X34196D02*
X33984D01*
X33780Y3032D01*
X33598Y2927D01*
X33448Y2777D01*
X33343Y2595D01*
X33288Y2391D01*
Y2179D01*
X33343Y1975D01*
X33448Y1793D01*
X33598Y1643D01*
X33780Y1538D01*
X33984Y1483D01*
X34196D01*
X34400Y1538D01*
X34582Y1643D01*
X34732Y1793D01*
X34837Y1975D01*
X34892Y2179D01*
Y2391D01*
X34837Y2595D01*
X34732Y2777D01*
X34582Y2927D01*
X34400Y3032D01*
X34196Y3087D01*
D02*
G37*
G36*
X31656D02*
X31444D01*
X31240Y3032D01*
X31058Y2927D01*
X30908Y2777D01*
X30803Y2595D01*
X30748Y2391D01*
Y2179D01*
X30803Y1975D01*
X30908Y1793D01*
X31058Y1643D01*
X31240Y1538D01*
X31444Y1483D01*
X31656D01*
X31860Y1538D01*
X32042Y1643D01*
X32192Y1793D01*
X32297Y1975D01*
X32352Y2179D01*
Y2391D01*
X32297Y2595D01*
X32192Y2777D01*
X32042Y2927D01*
X31860Y3032D01*
X31656Y3087D01*
D02*
G37*
G36*
X29116D02*
X28904D01*
X28700Y3032D01*
X28518Y2927D01*
X28368Y2777D01*
X28263Y2595D01*
X28208Y2391D01*
Y2179D01*
X28263Y1975D01*
X28368Y1793D01*
X28518Y1643D01*
X28700Y1538D01*
X28904Y1483D01*
X29116D01*
X29320Y1538D01*
X29502Y1643D01*
X29652Y1793D01*
X29757Y1975D01*
X29812Y2179D01*
Y2391D01*
X29757Y2595D01*
X29652Y2777D01*
X29502Y2927D01*
X29320Y3032D01*
X29116Y3087D01*
D02*
G37*
G36*
X26576D02*
X26364D01*
X26160Y3032D01*
X25978Y2927D01*
X25828Y2777D01*
X25723Y2595D01*
X25668Y2391D01*
Y2179D01*
X25723Y1975D01*
X25828Y1793D01*
X25978Y1643D01*
X26160Y1538D01*
X26364Y1483D01*
X26576D01*
X26780Y1538D01*
X26962Y1643D01*
X27112Y1793D01*
X27217Y1975D01*
X27272Y2179D01*
Y2391D01*
X27217Y2595D01*
X27112Y2777D01*
X26962Y2927D01*
X26780Y3032D01*
X26576Y3087D01*
D02*
G37*
G36*
X24036D02*
X23824D01*
X23620Y3032D01*
X23438Y2927D01*
X23288Y2777D01*
X23183Y2595D01*
X23128Y2391D01*
Y2179D01*
X23183Y1975D01*
X23288Y1793D01*
X23438Y1643D01*
X23620Y1538D01*
X23824Y1483D01*
X24036D01*
X24240Y1538D01*
X24422Y1643D01*
X24572Y1793D01*
X24677Y1975D01*
X24732Y2179D01*
Y2391D01*
X24677Y2595D01*
X24572Y2777D01*
X24422Y2927D01*
X24240Y3032D01*
X24036Y3087D01*
D02*
G37*
G36*
X21496D02*
X21284D01*
X21080Y3032D01*
X20898Y2927D01*
X20748Y2777D01*
X20643Y2595D01*
X20588Y2391D01*
Y2179D01*
X20643Y1975D01*
X20748Y1793D01*
X20898Y1643D01*
X21080Y1538D01*
X21284Y1483D01*
X21496D01*
X21700Y1538D01*
X21882Y1643D01*
X22032Y1793D01*
X22137Y1975D01*
X22192Y2179D01*
Y2391D01*
X22137Y2595D01*
X22032Y2777D01*
X21882Y2927D01*
X21700Y3032D01*
X21496Y3087D01*
D02*
G37*
G36*
X18956D02*
X18744D01*
X18540Y3032D01*
X18358Y2927D01*
X18208Y2777D01*
X18103Y2595D01*
X18048Y2391D01*
Y2179D01*
X18103Y1975D01*
X18208Y1793D01*
X18358Y1643D01*
X18540Y1538D01*
X18744Y1483D01*
X18956D01*
X19160Y1538D01*
X19342Y1643D01*
X19492Y1793D01*
X19597Y1975D01*
X19652Y2179D01*
Y2391D01*
X19597Y2595D01*
X19492Y2777D01*
X19342Y2927D01*
X19160Y3032D01*
X18956Y3087D01*
D02*
G37*
G36*
X16416D02*
X16204D01*
X16000Y3032D01*
X15818Y2927D01*
X15668Y2777D01*
X15563Y2595D01*
X15508Y2391D01*
Y2179D01*
X15563Y1975D01*
X15668Y1793D01*
X15818Y1643D01*
X16000Y1538D01*
X16204Y1483D01*
X16416D01*
X16620Y1538D01*
X16802Y1643D01*
X16952Y1793D01*
X17057Y1975D01*
X17112Y2179D01*
Y2391D01*
X17057Y2595D01*
X16952Y2777D01*
X16802Y2927D01*
X16620Y3032D01*
X16416Y3087D01*
D02*
G37*
G36*
X13876D02*
X13664D01*
X13460Y3032D01*
X13278Y2927D01*
X13128Y2777D01*
X13023Y2595D01*
X12968Y2391D01*
Y2179D01*
X13023Y1975D01*
X13128Y1793D01*
X13278Y1643D01*
X13460Y1538D01*
X13664Y1483D01*
X13876D01*
X14080Y1538D01*
X14262Y1643D01*
X14412Y1793D01*
X14517Y1975D01*
X14572Y2179D01*
Y2391D01*
X14517Y2595D01*
X14412Y2777D01*
X14262Y2927D01*
X14080Y3032D01*
X13876Y3087D01*
D02*
G37*
%LPD*%
D166*
X97300Y67300D02*
D03*
X2700Y2700D02*
D03*
X97300Y2700D02*
D03*
D167*
X92510Y2285D02*
D03*
X7420D02*
D03*
D168*
X87430D02*
D03*
X86160Y4190D02*
D03*
X84890Y2285D02*
D03*
X83620Y4190D02*
D03*
X82350Y2285D02*
D03*
X81080Y4190D02*
D03*
X79810Y2285D02*
D03*
X78540Y4190D02*
D03*
X77270Y2285D02*
D03*
X76000Y4190D02*
D03*
X74730Y2285D02*
D03*
X73460Y4190D02*
D03*
X72190Y2285D02*
D03*
X70920Y4190D02*
D03*
X69650Y2285D02*
D03*
X68380Y4190D02*
D03*
X67110Y2285D02*
D03*
X65840Y4190D02*
D03*
X64570Y2285D02*
D03*
X63300Y4190D02*
D03*
X62030Y2285D02*
D03*
X60760Y4190D02*
D03*
X59490Y2285D02*
D03*
X58220Y4190D02*
D03*
X56950Y2285D02*
D03*
X55680Y4190D02*
D03*
X54410Y2285D02*
D03*
X53140Y4190D02*
D03*
X51870Y2285D02*
D03*
X50600Y4190D02*
D03*
X49330Y2285D02*
D03*
X48060Y4190D02*
D03*
X46790Y2285D02*
D03*
X45520Y4190D02*
D03*
X44250Y2285D02*
D03*
X42980Y4190D02*
D03*
X41710Y2285D02*
D03*
X40440Y4190D02*
D03*
X39170Y2285D02*
D03*
X37900Y4190D02*
D03*
X36630Y2285D02*
D03*
X35360Y4190D02*
D03*
X34090Y2285D02*
D03*
X32820Y4190D02*
D03*
X31550Y2285D02*
D03*
X30280Y4190D02*
D03*
X27740D02*
D03*
X26470Y2285D02*
D03*
X25200Y4190D02*
D03*
X23930Y2285D02*
D03*
X22660Y4190D02*
D03*
X21390Y2285D02*
D03*
X20120Y4190D02*
D03*
X18850Y2285D02*
D03*
X17580Y4190D02*
D03*
X16310Y2285D02*
D03*
X15040Y4190D02*
D03*
X13770Y2285D02*
D03*
X12500Y4190D02*
D03*
X87430Y6095D02*
D03*
X86160Y8000D02*
D03*
X84890Y6095D02*
D03*
X83620Y8000D02*
D03*
X82350Y6095D02*
D03*
X81080Y8000D02*
D03*
X79810Y6095D02*
D03*
X78540Y8000D02*
D03*
X77270Y6095D02*
D03*
X76000Y8000D02*
D03*
X74730Y6095D02*
D03*
X73460Y8000D02*
D03*
X72190Y6095D02*
D03*
X70920Y8000D02*
D03*
X69650Y6095D02*
D03*
X68380Y8000D02*
D03*
X67110Y6095D02*
D03*
X65840Y8000D02*
D03*
X64570Y6095D02*
D03*
X63300Y8000D02*
D03*
X62030Y6095D02*
D03*
X60760Y8000D02*
D03*
X59490Y6095D02*
D03*
X58220Y8000D02*
D03*
X56950Y6095D02*
D03*
X55680Y8000D02*
D03*
X54410Y6095D02*
D03*
X53140Y8000D02*
D03*
X51870Y6095D02*
D03*
X50600Y8000D02*
D03*
X49330Y6095D02*
D03*
X48060Y8000D02*
D03*
X46790Y6095D02*
D03*
X45520Y8000D02*
D03*
X44250Y6095D02*
D03*
X42980Y8000D02*
D03*
X41710Y6095D02*
D03*
X40440Y8000D02*
D03*
X39170Y6095D02*
D03*
X37900Y8000D02*
D03*
X36630Y6095D02*
D03*
X35360Y8000D02*
D03*
X34090Y6095D02*
D03*
X32820Y8000D02*
D03*
X31550Y6095D02*
D03*
X29010D02*
D03*
X27740Y8000D02*
D03*
X26470Y6095D02*
D03*
X25200Y8000D02*
D03*
X23930Y6095D02*
D03*
X22660Y8000D02*
D03*
X21390Y6095D02*
D03*
X20120Y8000D02*
D03*
X18850Y6095D02*
D03*
X17580Y8000D02*
D03*
X16310Y6095D02*
D03*
X15040Y8000D02*
D03*
X13770Y6095D02*
D03*
X29010Y2285D02*
D03*
X30280Y8000D02*
D03*
D169*
X12500D02*
D03*
D170*
X34414Y67100D02*
D03*
X26794D02*
D03*
X64290Y45200D02*
D03*
X71910D02*
D03*
D172*
X75700Y45300D02*
D03*
X78240D02*
D03*
X80780D02*
D03*
X83320D02*
D03*
X85860D02*
D03*
D173*
X88400D02*
D03*
D174*
X6850Y62995D02*
D03*
Y54355D02*
D03*
D175*
X6200Y54655D02*
D03*
Y62695D02*
D03*
D176*
X1800Y62995D02*
D03*
Y54355D02*
D03*
D177*
X48925Y60525D02*
D03*
X41750Y56700D02*
D03*
X67333Y12929D02*
D03*
X66375Y13875D02*
D03*
X78231Y31218D02*
D03*
X15726Y34075D02*
D03*
X18075Y41625D02*
D03*
X41100Y62256D02*
D03*
X49450Y60090D02*
D03*
X47525Y60541D02*
D03*
X44797Y59065D02*
D03*
X44800Y60690D02*
D03*
X44900Y56300D02*
D03*
X44375Y55875D02*
D03*
X48025Y55916D02*
D03*
X48696D02*
D03*
X68100Y19350D02*
D03*
X66725Y20775D02*
D03*
X65625Y21800D02*
D03*
X69575Y25375D02*
D03*
X68425Y24208D02*
D03*
X67150Y22975D02*
D03*
X71175Y23825D02*
D03*
X70025Y22658D02*
D03*
X68750Y21425D02*
D03*
X70125Y20000D02*
D03*
X71400Y21233D02*
D03*
X72550Y22400D02*
D03*
X22316Y32068D02*
D03*
X37225Y41900D02*
D03*
X41791Y36155D02*
D03*
X43024D02*
D03*
X43900D02*
D03*
X39700Y37100D02*
D03*
X76550Y32800D02*
D03*
X80010Y36664D02*
D03*
X77812Y34088D02*
D03*
X78300Y38300D02*
D03*
X76600Y38400D02*
D03*
X20201Y23200D02*
D03*
X16900Y22700D02*
D03*
X3800Y35700D02*
D03*
X4500Y38950D02*
D03*
X40000Y49200D02*
D03*
X54026Y58500D02*
D03*
X15599Y47700D02*
D03*
X22150Y42700D02*
D03*
X23525Y42687D02*
D03*
X34725Y44600D02*
D03*
X37239Y44666D02*
D03*
X37900Y45700D02*
D03*
X33800Y58125D02*
D03*
X37174Y53574D02*
D03*
X38100Y54200D02*
D03*
X48827Y52163D02*
D03*
Y53539D02*
D03*
X18075Y38900D02*
D03*
X44900Y56975D02*
D03*
X42759Y55401D02*
D03*
X51512Y61813D02*
D03*
X23800Y21600D02*
D03*
X23100Y22300D02*
D03*
X67570Y30903D02*
D03*
X35312Y54865D02*
D03*
X75723Y25186D02*
D03*
X19991Y27490D02*
D03*
X65793Y15863D02*
D03*
X68575Y34688D02*
D03*
X17858Y23075D02*
D03*
X19376Y23260D02*
D03*
X31450Y61534D02*
D03*
Y62242D02*
D03*
X35273Y54204D02*
D03*
X38700Y47700D02*
D03*
X37900Y48400D02*
D03*
X41823Y67762D02*
D03*
X49900Y52000D02*
D03*
X29607Y54672D02*
D03*
X59375Y26850D02*
D03*
X6744Y59367D02*
D03*
X6725Y60025D02*
D03*
X6675Y58050D02*
D03*
X6750Y57250D02*
D03*
X50700Y52900D02*
D03*
X29625Y25425D02*
D03*
X30375Y51525D02*
D03*
X10825Y28025D02*
D03*
X10875Y28750D02*
D03*
X41233Y50950D02*
D03*
X53125Y49150D02*
D03*
X46075Y64625D02*
D03*
X76500Y10300D02*
D03*
X31050Y16525D02*
D03*
X31875Y22950D02*
D03*
X31425Y23425D02*
D03*
X30975Y23950D02*
D03*
X30425Y24425D02*
D03*
X70375Y50575D02*
D03*
X73375Y50625D02*
D03*
X64350D02*
D03*
X77757Y46822D02*
D03*
X69125Y43100D02*
D03*
X81425Y43825D02*
D03*
X85225Y43800D02*
D03*
X75134Y43784D02*
D03*
X88400Y42625D02*
D03*
X87675D02*
D03*
X89050Y43850D02*
D03*
X87675Y43300D02*
D03*
X54300Y49450D02*
D03*
X51924Y43319D02*
D03*
X50658Y42553D02*
D03*
X43900Y37100D02*
D03*
X31450Y60825D02*
D03*
Y59400D02*
D03*
X31500Y63450D02*
D03*
X30978Y55245D02*
D03*
X31600Y40510D02*
D03*
X32255D02*
D03*
X34725Y41800D02*
D03*
X40925Y39995D02*
D03*
X43450Y38900D02*
D03*
X41125Y38925D02*
D03*
X39850Y41900D02*
D03*
X42375Y38925D02*
D03*
X40975Y41175D02*
D03*
X40465Y36155D02*
D03*
X3308Y31304D02*
D03*
X2525Y29275D02*
D03*
X3300Y30075D02*
D03*
X8459Y34126D02*
D03*
X3450Y34125D02*
D03*
X18400Y34166D02*
D03*
X17400D02*
D03*
X32325Y35742D02*
D03*
X19575Y34450D02*
D03*
X54026Y64300D02*
D03*
X54808Y60717D02*
D03*
X40983Y68492D02*
D03*
X58446Y67338D02*
D03*
X54908Y62017D02*
D03*
X54933Y63442D02*
D03*
X54900Y59300D02*
D03*
X43850Y68375D02*
D03*
X40655Y43971D02*
D03*
X46750Y46250D02*
D03*
X38825Y46450D02*
D03*
X40696Y42699D02*
D03*
X39871Y44700D02*
D03*
X47900Y52875D02*
D03*
X49400Y58433D02*
D03*
X49367Y55916D02*
D03*
X46665Y58705D02*
D03*
X36100Y64513D02*
D03*
X35211Y58997D02*
D03*
X32550Y55600D02*
D03*
X35200Y55779D02*
D03*
X50707Y64975D02*
D03*
X51512Y61213D02*
D03*
X48400Y63600D02*
D03*
X47675Y63600D02*
D03*
X47486Y64300D02*
D03*
X49900Y65786D02*
D03*
X46595Y61310D02*
D03*
X44800Y61500D02*
D03*
X44797Y59757D02*
D03*
X43000Y67800D02*
D03*
X41923Y55948D02*
D03*
X41850Y57700D02*
D03*
X41750Y64538D02*
D03*
X41700Y60850D02*
D03*
X41000Y66800D02*
D03*
X44875Y63375D02*
D03*
X44844Y58352D02*
D03*
X32978Y53477D02*
D03*
X34125Y53300D02*
D03*
X33900Y50450D02*
D03*
X34725Y50425D02*
D03*
X35625Y50400D02*
D03*
X41250Y50271D02*
D03*
X39117Y55263D02*
D03*
X39850Y65575D02*
D03*
X38600Y65600D02*
D03*
X37583Y62192D02*
D03*
X37608Y59767D02*
D03*
X36958Y65342D02*
D03*
X37608Y61417D02*
D03*
X37600Y60575D02*
D03*
X34859Y48292D02*
D03*
X34225Y47675D02*
D03*
X33609Y47000D02*
D03*
X34859D02*
D03*
X33609Y48297D02*
D03*
X55056Y40010D02*
D03*
X55056Y42131D02*
D03*
X55056Y37728D02*
D03*
X69100Y41425D02*
D03*
X66350Y14975D02*
D03*
X67125Y17870D02*
D03*
X68425Y17875D02*
D03*
X69700Y15775D02*
D03*
X67075Y16250D02*
D03*
X65702Y14400D02*
D03*
X65025Y14750D02*
D03*
X63550Y10300D02*
D03*
X63200Y27875D02*
D03*
X64025Y31575D02*
D03*
X62550Y33650D02*
D03*
X63250Y30800D02*
D03*
X64100Y27550D02*
D03*
X65600Y26625D02*
D03*
X64150Y26400D02*
D03*
X65000Y32525D02*
D03*
X64533Y28054D02*
D03*
X69375Y10300D02*
D03*
X66275D02*
D03*
X71800Y10350D02*
D03*
X74764Y37064D02*
D03*
X69350Y32550D02*
D03*
X66975Y31750D02*
D03*
X68650Y30850D02*
D03*
X68400Y29350D02*
D03*
X70911Y28800D02*
D03*
X70975Y27600D02*
D03*
X72100Y26450D02*
D03*
X68975Y34200D02*
D03*
X81612Y35082D02*
D03*
X70700Y36950D02*
D03*
X74271Y34447D02*
D03*
X70125Y36425D02*
D03*
X68575Y36525D02*
D03*
X78536Y35166D02*
D03*
X62800Y23450D02*
D03*
X63750Y24450D02*
D03*
X63000Y22025D02*
D03*
X63575Y21391D02*
D03*
X65075Y24325D02*
D03*
X75300Y24725D02*
D03*
X78400Y23575D02*
D03*
X74850Y28425D02*
D03*
X78225Y24325D02*
D03*
X73050Y25575D02*
D03*
X76550Y30100D02*
D03*
Y26000D02*
D03*
X74000Y24650D02*
D03*
X74675Y20650D02*
D03*
X85300Y10275D02*
D03*
X78875Y10300D02*
D03*
X83100D02*
D03*
X80900D02*
D03*
X73900D02*
D03*
X82414Y32486D02*
D03*
X83125Y28700D02*
D03*
X82574Y28100D02*
D03*
X80935Y31174D02*
D03*
X75600Y31900D02*
D03*
X75100Y32400D02*
D03*
X73800Y33000D02*
D03*
X62275Y28700D02*
D03*
X57925Y28850D02*
D03*
X49350Y35000D02*
D03*
X61800Y33700D02*
D03*
X46575Y33825D02*
D03*
X62325Y29950D02*
D03*
X61750Y33025D02*
D03*
X34632Y26228D02*
D03*
X35611Y26766D02*
D03*
X37225Y27100D02*
D03*
X34029Y25619D02*
D03*
X38475Y16050D02*
D03*
X39975Y10300D02*
D03*
X31600Y16000D02*
D03*
X37175Y9650D02*
D03*
X34375Y9300D02*
D03*
X37200Y22150D02*
D03*
X36625Y21750D02*
D03*
X36050Y21325D02*
D03*
X35425Y20825D02*
D03*
X34750Y20375D02*
D03*
X38471Y19060D02*
D03*
X39675Y19014D02*
D03*
X61275Y27575D02*
D03*
X57075Y28225D02*
D03*
X59825Y27450D02*
D03*
X62050Y25300D02*
D03*
X61725Y19550D02*
D03*
X62225Y26675D02*
D03*
X35650Y28075D02*
D03*
X36500Y29250D02*
D03*
X41925Y32425D02*
D03*
X40450Y32450D02*
D03*
X42925Y10300D02*
D03*
X46225D02*
D03*
X58826D02*
D03*
X56725D02*
D03*
X53900D02*
D03*
X51225D02*
D03*
X49525Y10313D02*
D03*
X61675Y10300D02*
D03*
X19465Y18115D02*
D03*
X18188Y17970D02*
D03*
X26725Y9400D02*
D03*
X21700Y9825D02*
D03*
X5925Y22825D02*
D03*
X5133Y23879D02*
D03*
X10825Y27300D02*
D03*
Y24575D02*
D03*
X23057Y33973D02*
D03*
X24533Y32704D02*
D03*
X21600Y32766D02*
D03*
X21224Y33869D02*
D03*
X21176Y27451D02*
D03*
X20288Y33869D02*
D03*
X28000Y18100D02*
D03*
X27475Y20575D02*
D03*
X27786Y19403D02*
D03*
X26975Y17175D02*
D03*
X27900Y14550D02*
D03*
X7505Y34025D02*
D03*
X19324Y33850D02*
D03*
X14700Y35375D02*
D03*
X12263Y33765D02*
D03*
X9858Y34004D02*
D03*
X6300Y33900D02*
D03*
X3866Y32737D02*
D03*
X16800Y32700D02*
D03*
X10325Y31400D02*
D03*
X11408Y32729D02*
D03*
X9296Y32725D02*
D03*
X15650Y31450D02*
D03*
X21015Y18818D02*
D03*
X17858Y20679D02*
D03*
X17124Y21335D02*
D03*
X19603Y19077D02*
D03*
X25575Y26950D02*
D03*
X27462Y28793D02*
D03*
X26459Y27841D02*
D03*
X26225Y20550D02*
D03*
X22256Y21676D02*
D03*
X22514Y20580D02*
D03*
X26250Y17725D02*
D03*
X24410Y19393D02*
D03*
X25225Y22725D02*
D03*
X24125Y16800D02*
D03*
X23450Y17550D02*
D03*
X23175Y16525D02*
D03*
X24800Y23150D02*
D03*
X62971Y67338D02*
D03*
X30325Y11500D02*
D03*
X29850Y9775D02*
D03*
X30325Y10900D02*
D03*
X61100Y50625D02*
D03*
X59821Y67338D02*
D03*
X28350Y21400D02*
D03*
X38975Y36475D02*
D03*
X71248Y67338D02*
D03*
X68021D02*
D03*
X64747D02*
D03*
X61596D02*
D03*
X29875Y19900D02*
D03*
X28925Y18975D02*
D03*
X30375Y14673D02*
D03*
X30400Y15550D02*
D03*
X5900Y26350D02*
D03*
X5000Y25350D02*
D03*
X3300Y27175D02*
D03*
X4400Y34150D02*
D03*
X2508Y22429D02*
D03*
Y13329D02*
D03*
X4474Y35021D02*
D03*
X5414Y34166D02*
D03*
X6641Y34483D02*
D03*
X2425Y28025D02*
D03*
X1558Y32754D02*
D03*
X2533Y19504D02*
D03*
X2500Y10100D02*
D03*
X74750Y53000D02*
D03*
X73725Y53800D02*
D03*
X76200Y52975D02*
D03*
X72623Y67338D02*
D03*
X69372D02*
D03*
X66122D02*
D03*
X22150Y38200D02*
D03*
X24200D02*
D03*
X26250Y40475D02*
D03*
X23758Y36704D02*
D03*
X22296Y36579D02*
D03*
X23025Y35300D02*
D03*
X24800Y36450D02*
D03*
X5458Y39529D02*
D03*
X1608Y35404D02*
D03*
X6535Y35340D02*
D03*
X7000Y37000D02*
D03*
X8550Y52925D02*
D03*
X10975Y61350D02*
D03*
X9700Y61400D02*
D03*
X10800Y52925D02*
D03*
X11025Y60075D02*
D03*
X11083Y38254D02*
D03*
X13092Y43301D02*
D03*
X9990Y36931D02*
D03*
X12773Y42350D02*
D03*
X10808Y36829D02*
D03*
X11809Y36309D02*
D03*
X10050Y35325D02*
D03*
X7600Y36600D02*
D03*
X8450Y36625D02*
D03*
X8899Y38204D02*
D03*
X9400Y36500D02*
D03*
X30500Y64475D02*
D03*
X29635Y61009D02*
D03*
X31400Y58500D02*
D03*
X31500Y64400D02*
D03*
X30500Y58500D02*
D03*
X19225Y65450D02*
D03*
X18300D02*
D03*
Y66225D02*
D03*
X18325Y64625D02*
D03*
X19225Y66250D02*
D03*
Y64625D02*
D03*
X29141Y48225D02*
D03*
Y47275D02*
D03*
X26466Y46885D02*
D03*
Y45924D02*
D03*
Y45010D02*
D03*
X29790Y45617D02*
D03*
X25610Y45021D02*
D03*
X24818Y45014D02*
D03*
X25715Y46906D02*
D03*
X29141Y46324D02*
D03*
X18975Y42687D02*
D03*
X20100Y39500D02*
D03*
X18800Y39300D02*
D03*
X20800Y39500D02*
D03*
X20291Y43764D02*
D03*
X8575Y62975D02*
D03*
X10850Y63475D02*
D03*
X10050Y63500D02*
D03*
X17252Y65416D02*
D03*
X16522Y66262D02*
D03*
X7623Y66815D02*
D03*
X15475Y62350D02*
D03*
Y63025D02*
D03*
X11700Y63500D02*
D03*
X10953Y66792D02*
D03*
X10110Y65705D02*
D03*
X10049Y64474D02*
D03*
X8450Y66100D02*
D03*
X8225Y64700D02*
D03*
X13776Y67046D02*
D03*
X17375Y62350D02*
D03*
X16875Y40950D02*
D03*
X16110Y47074D02*
D03*
X15975Y40950D02*
D03*
X17633Y47067D02*
D03*
X16875Y42350D02*
D03*
X15051Y40950D02*
D03*
X15050Y42350D02*
D03*
X15599Y46320D02*
D03*
X28258Y53829D02*
D03*
X30400Y53561D02*
D03*
X22154Y49841D02*
D03*
X18750Y49843D02*
D03*
X23850Y51000D02*
D03*
X18600Y53875D02*
D03*
X25610Y49841D02*
D03*
X17330Y54655D02*
D03*
X17325Y53875D02*
D03*
X20505Y51000D02*
D03*
X16800Y36000D02*
D03*
X20800Y36579D02*
D03*
X20035Y36938D02*
D03*
X17500Y35200D02*
D03*
X21527Y36825D02*
D03*
X19495Y35429D02*
D03*
X7550Y61925D02*
D03*
X6700Y55625D02*
D03*
X7700Y55275D02*
D03*
D178*
X9000Y43700D02*
D03*
X3920D02*
D03*
Y48780D02*
D03*
X11540D02*
D03*
M02*
