G04*
G04 #@! TF.GenerationSoftware,Altium Limited,Altium Designer,23.5.1 (21)*
G04*
G04 Layer_Physical_Order=4*
G04 Layer_Color=13391121*
%FSLAX43Y43*%
%MOMM*%
G71*
G04*
G04 #@! TF.SameCoordinates,091AA0F9-E177-443C-B5AA-68A9A74CA1F2*
G04*
G04*
G04 #@! TF.FilePolarity,Positive*
G04*
G01*
G75*
%ADD12C,0.400*%
%ADD15C,0.500*%
%ADD21C,0.153*%
%ADD32R,0.807X0.858*%
%ADD47R,0.858X0.807*%
%ADD50R,0.958X0.912*%
G04:AMPARAMS|DCode=66|XSize=0.758mm|YSize=0.812mm|CornerRadius=0mm|HoleSize=0mm|Usage=FLASHONLY|Rotation=135.000|XOffset=0mm|YOffset=0mm|HoleType=Round|Shape=Rectangle|*
%AMROTATEDRECTD66*
4,1,4,0.555,0.019,-0.019,-0.555,-0.555,-0.019,0.019,0.555,0.555,0.019,0.0*
%
%ADD66ROTATEDRECTD66*%

G04:AMPARAMS|DCode=67|XSize=0.807mm|YSize=0.858mm|CornerRadius=0mm|HoleSize=0mm|Usage=FLASHONLY|Rotation=135.000|XOffset=0mm|YOffset=0mm|HoleType=Round|Shape=Rectangle|*
%AMROTATEDRECTD67*
4,1,4,0.589,0.018,-0.018,-0.589,-0.589,-0.018,0.018,0.589,0.589,0.018,0.0*
%
%ADD67ROTATEDRECTD67*%

G04:AMPARAMS|DCode=68|XSize=0.85mm|YSize=0.75mm|CornerRadius=0mm|HoleSize=0mm|Usage=FLASHONLY|Rotation=45.000|XOffset=0mm|YOffset=0mm|HoleType=Round|Shape=Rectangle|*
%AMROTATEDRECTD68*
4,1,4,-0.035,-0.566,-0.566,-0.035,0.035,0.566,0.566,0.035,-0.035,-0.566,0.0*
%
%ADD68ROTATEDRECTD68*%

G04:AMPARAMS|DCode=74|XSize=0.807mm|YSize=0.858mm|CornerRadius=0mm|HoleSize=0mm|Usage=FLASHONLY|Rotation=45.000|XOffset=0mm|YOffset=0mm|HoleType=Round|Shape=Rectangle|*
%AMROTATEDRECTD74*
4,1,4,0.018,-0.589,-0.589,0.018,-0.018,0.589,0.589,-0.018,0.018,-0.589,0.0*
%
%ADD74ROTATEDRECTD74*%

%ADD76R,0.450X0.400*%
%ADD150C,1.270*%
%ADD159C,0.600*%
%ADD160C,1.000*%
%ADD161C,0.203*%
%ADD166C,5.000*%
%ADD167C,3.300*%
%ADD168C,1.300*%
%ADD169R,1.300X1.300*%
%ADD170C,1.580*%
%ADD171R,1.580X1.580*%
%ADD172C,1.600*%
%ADD173R,1.600X1.600*%
%ADD174O,2.300X1.200*%
%ADD175O,1.000X1.500*%
%ADD176O,2.600X1.300*%
%ADD177C,0.450*%
%ADD179R,0.600X0.800*%
G04:AMPARAMS|DCode=180|XSize=0.905mm|YSize=0.906mm|CornerRadius=0mm|HoleSize=0mm|Usage=FLASHONLY|Rotation=225.000|XOffset=0mm|YOffset=0mm|HoleType=Round|Shape=Rectangle|*
%AMROTATEDRECTD180*
4,1,4,-0.000,0.640,0.640,-0.000,0.000,-0.640,-0.640,0.000,-0.000,0.640,0.0*
%
%ADD180ROTATEDRECTD180*%

%ADD181P,1.344X4X180.0*%
%ADD182R,0.950X0.950*%
%ADD183R,0.806X0.858*%
%ADD184R,0.906X0.905*%
%ADD185R,0.905X0.906*%
%ADD186R,1.703X2.606*%
G04:AMPARAMS|DCode=187|XSize=0.758mm|YSize=0.812mm|CornerRadius=0mm|HoleSize=0mm|Usage=FLASHONLY|Rotation=225.000|XOffset=0mm|YOffset=0mm|HoleType=Round|Shape=Rectangle|*
%AMROTATEDRECTD187*
4,1,4,-0.019,0.555,0.555,-0.019,0.019,-0.555,-0.555,0.019,-0.019,0.555,0.0*
%
%ADD187ROTATEDRECTD187*%

G04:AMPARAMS|DCode=188|XSize=0.85mm|YSize=0.75mm|CornerRadius=0mm|HoleSize=0mm|Usage=FLASHONLY|Rotation=315.000|XOffset=0mm|YOffset=0mm|HoleType=Round|Shape=Rectangle|*
%AMROTATEDRECTD188*
4,1,4,-0.566,0.035,-0.035,0.566,0.566,-0.035,0.035,-0.566,-0.566,0.035,0.0*
%
%ADD188ROTATEDRECTD188*%

G36*
X51100Y62975D02*
Y62200D01*
X51025Y62125D01*
X45075D01*
Y62825D01*
X44450Y63450D01*
X43650D01*
Y64350D01*
X43700Y64400D01*
X45735D01*
X45736Y64398D01*
X45848Y64286D01*
X45995Y64225D01*
X46155D01*
X46302Y64286D01*
X46414Y64398D01*
X46415Y64400D01*
X47072D01*
X47086Y64380D01*
Y64220D01*
X47147Y64073D01*
X47259Y63961D01*
X47406Y63900D01*
X47565D01*
X47712Y63961D01*
X47825Y64073D01*
X47886Y64220D01*
Y64380D01*
X47899Y64400D01*
X49675D01*
X51100Y62975D01*
D02*
G37*
G36*
X43300Y64200D02*
X43300Y60675D01*
X43040Y60415D01*
X42433D01*
X42428Y60413D01*
D01*
X42398D01*
X42373Y60402D01*
X42370D01*
X42365Y60400D01*
X41700D01*
X41300Y60800D01*
Y61906D01*
X41327Y61917D01*
X41439Y62029D01*
X41500Y62176D01*
Y62335D01*
X41439Y62482D01*
X41327Y62595D01*
X41300Y62606D01*
Y63300D01*
X42300Y64300D01*
X43200D01*
X43300Y64200D01*
D02*
G37*
G36*
X11475Y61750D02*
X11625Y61600D01*
Y58450D01*
X10700Y57525D01*
X9217Y57525D01*
X9100Y57642D01*
X9100Y61750D01*
X11475Y61750D01*
D02*
G37*
G36*
X43300Y60075D02*
Y59081D01*
Y58979D01*
Y57731D01*
Y57670D01*
Y56463D01*
X43278Y56440D01*
X42460Y56440D01*
X42150Y56750D01*
Y56780D01*
X42089Y56927D01*
X41977Y57039D01*
X41830Y57100D01*
X41800D01*
X41550Y57350D01*
Y59400D01*
X42398Y60248D01*
X42428D01*
X42428Y60248D01*
X42428D01*
X42433Y60250D01*
X43125D01*
X43300Y60075D01*
D02*
G37*
G36*
X44801Y62825D02*
X44783Y62807D01*
Y61826D01*
X44877D01*
X44994Y61804D01*
X44994Y61699D01*
Y61376D01*
X45525D01*
X46056D01*
X46056Y61804D01*
X46173Y61826D01*
X46868D01*
X46994Y61825D01*
X46994Y61699D01*
Y61397D01*
X47525D01*
X48056D01*
X48056Y61825D01*
X48182Y61826D01*
X48355D01*
X48482Y61825D01*
X48482Y61699D01*
Y61397D01*
X49012D01*
X49543D01*
X49543Y61825D01*
X49670Y61826D01*
X49970D01*
Y61446D01*
X50525D01*
X51080D01*
Y61862D01*
X51386Y62169D01*
X51786D01*
X52167Y61789D01*
Y56460D01*
X52153Y56447D01*
X52158Y56319D01*
X52117Y56066D01*
X52027Y55826D01*
X51893Y55608D01*
X51718Y55420D01*
X51510Y55270D01*
X51277Y55164D01*
X51028Y55105D01*
X50900Y55100D01*
X43460Y55100D01*
X43460Y55589D01*
X43473D01*
X43610Y55616D01*
X43727Y55694D01*
X44102Y56069D01*
X44180Y56186D01*
X44207Y56323D01*
Y56394D01*
X44606D01*
Y57556D01*
X43496D01*
X43465Y57670D01*
Y57731D01*
X43546Y57824D01*
X43592Y57824D01*
X43974D01*
Y58355D01*
Y58886D01*
X43592D01*
X43546Y58886D01*
X43465Y58979D01*
Y59081D01*
X43471Y59205D01*
X43592Y59205D01*
X43949D01*
Y59760D01*
Y60315D01*
X43471Y60315D01*
X43460Y60437D01*
Y60493D01*
X43546Y60584D01*
X43587Y60584D01*
X43974D01*
Y61115D01*
Y61646D01*
X43592D01*
X43546Y61646D01*
X43465Y61739D01*
Y61841D01*
X43592Y61965D01*
X43949D01*
Y62520D01*
X44026D01*
Y62596D01*
X44580D01*
Y62881D01*
X44697Y62930D01*
X44801Y62825D01*
D02*
G37*
G36*
X12665Y51929D02*
X12515Y48378D01*
X11860Y47800D01*
X7898D01*
Y47967D01*
X7954Y48071D01*
X8025Y48071D01*
X8383D01*
Y48602D01*
Y49132D01*
X8025D01*
X7954Y49132D01*
X7898Y49236D01*
Y49384D01*
X7931Y49497D01*
X8025Y49497D01*
X8807D01*
Y50902D01*
Y52306D01*
X8025D01*
X7931Y52306D01*
X7898Y52420D01*
Y53400D01*
X11051D01*
X12665Y51929D01*
D02*
G37*
G36*
X7634Y47700D02*
X3200Y47700D01*
X2675Y48225D01*
X2675Y50775D01*
X4105Y52205D01*
X7634Y52205D01*
X7634Y47700D01*
D02*
G37*
G36*
X17619Y43100D02*
X17840Y43009D01*
X18009Y42840D01*
X18100Y42619D01*
Y42500D01*
X18100D01*
X18100Y42500D01*
X18100Y42025D01*
X17995D01*
X17848Y41964D01*
X17736Y41852D01*
X17675Y41705D01*
Y41545D01*
X17736Y41398D01*
X17848Y41286D01*
X17974Y41234D01*
X18020Y41141D01*
X18033Y41098D01*
X17963Y40928D01*
X17858Y40772D01*
X14535Y37448D01*
X14520Y37439D01*
X14458Y37413D01*
X14392Y37400D01*
X7100D01*
X7082Y37399D01*
X7080Y37400D01*
X6920D01*
X6823Y37360D01*
X6810Y37357D01*
X6629Y37282D01*
X6466Y37173D01*
X6327Y37034D01*
X6218Y36871D01*
X6143Y36690D01*
X6105Y36498D01*
X6100Y36400D01*
Y34250D01*
X6073Y34239D01*
X5961Y34127D01*
X5931Y34055D01*
X5814Y34086D01*
X5814Y34133D01*
Y34245D01*
X5753Y34392D01*
X5641Y34505D01*
X5494Y34566D01*
X5334D01*
X5187Y34505D01*
X5075Y34392D01*
X5014Y34245D01*
Y34086D01*
X5075Y33939D01*
X5187Y33827D01*
X5334Y33766D01*
X5494D01*
X5641Y33827D01*
X5753Y33939D01*
X5783Y34011D01*
X5900Y33980D01*
X5900Y33933D01*
Y33820D01*
X5961Y33673D01*
X6073Y33561D01*
X6100Y33550D01*
Y26814D01*
X5994Y26744D01*
X5980Y26750D01*
X5820D01*
X5673Y26689D01*
X5561Y26577D01*
X5500Y26430D01*
Y26270D01*
X5561Y26123D01*
X5673Y26011D01*
X5820Y25950D01*
X5980D01*
X5994Y25956D01*
X6100Y25886D01*
Y23289D01*
X6005Y23225D01*
X5845D01*
X5698Y23164D01*
X5586Y23052D01*
X5525Y22905D01*
Y22745D01*
X5586Y22598D01*
X5698Y22486D01*
X5845Y22425D01*
X6005D01*
X6100Y22361D01*
Y17752D01*
X6112Y17503D01*
X6209Y17015D01*
X6400Y16555D01*
X6677Y16141D01*
X6844Y15956D01*
X6844D01*
X11200Y11600D01*
X11271Y11529D01*
X11383Y11361D01*
X11461Y11175D01*
X11497Y10993D01*
X11500Y10876D01*
Y10876D01*
X11500D01*
X11500Y10876D01*
Y7100D01*
X11503Y7029D01*
X11531Y6890D01*
X11586Y6759D01*
X11634Y6685D01*
X11636Y6683D01*
X11636Y6683D01*
X11664Y6641D01*
X11712Y6588D01*
X11712Y6588D01*
X13761Y4539D01*
X14246Y4054D01*
X14293Y3880D01*
X14398Y3698D01*
X14548Y3548D01*
X14730Y3443D01*
X14934Y3388D01*
X15146D01*
X15350Y3443D01*
X15449Y3500D01*
X16700Y3500D01*
X16789Y3500D01*
X16963Y3465D01*
X17126Y3398D01*
X17274Y3299D01*
X17399Y3174D01*
X17498Y3026D01*
X17565Y2863D01*
X17594Y2717D01*
X17600Y2600D01*
Y2600D01*
X17600D01*
X17600Y2600D01*
Y1401D01*
X17524Y1217D01*
X17383Y1076D01*
X17199Y1000D01*
X12200D01*
X11986Y1000D01*
X11566Y1084D01*
X11171Y1247D01*
X10815Y1485D01*
X10664Y1636D01*
Y1636D01*
X2675Y9625D01*
X2700Y9750D01*
X2727Y9761D01*
X2839Y9873D01*
X2900Y10020D01*
Y10180D01*
X2839Y10327D01*
X2727Y10439D01*
X2580Y10500D01*
X2420D01*
X2273Y10439D01*
X2161Y10327D01*
X2150Y10300D01*
X2025Y10275D01*
X1000Y11300D01*
X976Y11324D01*
X939Y11380D01*
X913Y11442D01*
X900Y11508D01*
X900Y11541D01*
Y38500D01*
Y38666D01*
X965Y38993D01*
X1092Y39300D01*
X1277Y39577D01*
X1395Y39695D01*
Y39695D01*
X3200Y41500D01*
X3224Y41524D01*
X3280Y41561D01*
X3342Y41587D01*
X3408Y41600D01*
X3441Y41600D01*
X3441Y41600D01*
X12700D01*
X12771Y41603D01*
X12910Y41631D01*
X13041Y41686D01*
X13159Y41764D01*
X13212Y41812D01*
X14400Y43000D01*
X14424Y43024D01*
X14480Y43061D01*
X14542Y43087D01*
X14608Y43100D01*
X14641Y43100D01*
X14641Y43100D01*
X17619Y43100D01*
D02*
G37*
G36*
X88625Y42420D02*
X88519Y42315D01*
X87483D01*
X87370Y42427D01*
Y43371D01*
X87545Y43546D01*
X88625D01*
Y42420D01*
D02*
G37*
G36*
X6177Y42206D02*
X6142Y42171D01*
X3529D01*
X2800Y42900D01*
X2800Y44400D01*
X3656Y45256D01*
X6177D01*
Y42206D01*
D02*
G37*
G36*
X10375Y45275D02*
Y42525D01*
X9625Y41775D01*
X6700D01*
X6533Y41942D01*
X6585Y42069D01*
X6949D01*
Y42600D01*
Y43131D01*
X6577D01*
X6521Y43131D01*
X6450Y43228D01*
Y44168D01*
X6546Y44242D01*
X6577Y44242D01*
X7050D01*
Y44800D01*
Y45358D01*
X6577D01*
X6546Y45358D01*
X6521Y45377D01*
X6512Y45537D01*
X6750Y45775D01*
X9875D01*
X10375Y45275D01*
D02*
G37*
G36*
X22592Y34225D02*
X22676Y34098D01*
X22657Y34052D01*
Y33893D01*
X22718Y33746D01*
X22831Y33634D01*
X22978Y33573D01*
X23137D01*
X23284Y33634D01*
X23397Y33746D01*
X23457Y33893D01*
Y34052D01*
X23439Y34098D01*
X23523Y34225D01*
X30448Y34225D01*
X30448Y34225D01*
X36200Y28473D01*
X36200Y26525D01*
X36000Y26325D01*
X35050D01*
X35008Y26367D01*
X34971Y26455D01*
X34859Y26567D01*
X34771Y26604D01*
X34450Y26925D01*
X28950Y32425D01*
X24986D01*
X24903Y32552D01*
X24933Y32625D01*
Y32784D01*
X24873Y32931D01*
X24760Y33043D01*
X24613Y33104D01*
X24454D01*
X24307Y33043D01*
X24194Y32931D01*
X24133Y32784D01*
Y32625D01*
X24163Y32552D01*
X24081Y32425D01*
X22847D01*
X22499D01*
X22395Y32468D01*
X22236D01*
X22132Y32425D01*
X20650D01*
X20050Y33025D01*
Y34000D01*
X20275Y34225D01*
X22592D01*
D02*
G37*
G36*
X24300Y22100D02*
Y21600D01*
X24000Y21300D01*
X23300D01*
X18800Y25800D01*
X19574Y26574D01*
X19826D01*
X24300Y22100D01*
D02*
G37*
G36*
X69739Y37500D02*
X70300Y36939D01*
Y36870D01*
X70361Y36723D01*
X70473Y36611D01*
X70620Y36550D01*
X70689D01*
X73492Y33747D01*
Y33257D01*
X73461Y33227D01*
X73400Y33080D01*
Y32920D01*
X73461Y32773D01*
X73573Y32661D01*
X73720Y32600D01*
X73880D01*
X74027Y32661D01*
X74139Y32773D01*
X74182Y32877D01*
X74317Y32922D01*
X74717Y32522D01*
X74700Y32480D01*
Y32320D01*
X74761Y32173D01*
X74873Y32061D01*
X75020Y32000D01*
X75083D01*
X75183Y31983D01*
X75200Y31883D01*
Y31820D01*
X75261Y31673D01*
X75373Y31561D01*
X75520Y31500D01*
X75680D01*
X75722Y31517D01*
X80500Y26739D01*
Y23966D01*
X77443Y20908D01*
X74982D01*
X74902Y20989D01*
X74755Y21050D01*
X74595D01*
X74448Y20989D01*
X74336Y20877D01*
X74275Y20730D01*
Y20570D01*
X74336Y20423D01*
X74448Y20311D01*
X74595Y20250D01*
X74755D01*
X74902Y20311D01*
X74982Y20392D01*
X77226D01*
X77274Y20274D01*
X73114Y16114D01*
X73033Y16033D01*
X70007D01*
X69927Y16114D01*
X69780Y16175D01*
X69620D01*
X69473Y16114D01*
X69361Y16002D01*
X69345Y15963D01*
X69195Y15933D01*
X68683Y16445D01*
Y17568D01*
X68764Y17648D01*
X68825Y17795D01*
Y17955D01*
X68764Y18102D01*
X68652Y18214D01*
X68505Y18275D01*
X68345D01*
X68198Y18214D01*
X68086Y18102D01*
X68025Y17955D01*
Y17795D01*
X68086Y17648D01*
X68167Y17568D01*
Y16338D01*
X68186Y16239D01*
X68242Y16155D01*
X69309Y15089D01*
X69393Y15033D01*
X69491Y15013D01*
X69491Y15013D01*
X69909D01*
X69926Y15017D01*
X71851D01*
X71899Y14899D01*
X70500Y13500D01*
X68870D01*
X68768Y13602D01*
Y13602D01*
X68652Y13650D01*
X68651Y13650D01*
X68586Y13623D01*
X68038Y14171D01*
X68066Y14236D01*
X68017Y14353D01*
X67897Y14473D01*
X67880Y14480D01*
X67870Y14495D01*
X67770Y14560D01*
X67724Y14568D01*
X67680Y14586D01*
X67664Y14579D01*
X67646Y14582D01*
X67613Y14560D01*
X67101Y15072D01*
X67123Y15105D01*
X67120Y15123D01*
X67127Y15139D01*
X67109Y15183D01*
X67101Y15229D01*
X67036Y15329D01*
X67021Y15339D01*
X67014Y15356D01*
X67004Y15366D01*
X66949Y15389D01*
X66933Y15401D01*
X66925Y15399D01*
X66888Y15415D01*
X66300D01*
X66184Y15366D01*
X66137Y15320D01*
X66123Y15314D01*
X66011Y15202D01*
X66005Y15188D01*
X65791Y14974D01*
X65785Y14959D01*
X65772Y14950D01*
X65761Y14903D01*
X65755Y14897D01*
X65628Y14865D01*
X65624Y14866D01*
X56708Y23804D01*
Y32208D01*
X62000Y37500D01*
X69739Y37500D01*
D02*
G37*
G36*
X31600Y20400D02*
Y19425D01*
X31440Y19265D01*
X31400D01*
X31284Y19216D01*
X28784Y16716D01*
X28735Y16600D01*
Y16560D01*
X28625Y16450D01*
X27135D01*
X27022Y16486D01*
X27022D01*
X27022Y16486D01*
X26719Y16789D01*
X26344Y16414D01*
X25969Y16038D01*
X26229Y15778D01*
X26026Y15575D01*
X25765Y15836D01*
X25406Y15477D01*
X25047Y15118D01*
X25148Y15017D01*
X25099Y14900D01*
X24500D01*
X23585Y15815D01*
X24171Y16400D01*
X24205D01*
X24352Y16461D01*
X24464Y16573D01*
X24525Y16720D01*
Y16880D01*
X24464Y17027D01*
X24352Y17139D01*
X24205Y17200D01*
X24045D01*
X23898Y17139D01*
X23786Y17027D01*
X23725Y16880D01*
Y16772D01*
X23660Y16707D01*
X23559Y16721D01*
X23517Y16744D01*
X23514Y16752D01*
X23500Y16766D01*
Y17150D01*
X23530D01*
X23677Y17211D01*
X23789Y17323D01*
X23850Y17470D01*
Y17630D01*
X23789Y17777D01*
X23677Y17889D01*
X23530Y17950D01*
X23500D01*
Y21135D01*
X24000D01*
X24116Y21184D01*
X24416Y21484D01*
X24465Y21600D01*
Y22100D01*
X24416Y22216D01*
X23638Y22995D01*
X23611Y23110D01*
X23656Y23156D01*
X23914Y23413D01*
X23538Y23788D01*
X23163Y24164D01*
X22915Y23915D01*
X22860Y23861D01*
X22750Y23900D01*
X22669Y23981D01*
X22637Y24094D01*
X22686Y24143D01*
X22923Y24380D01*
X22564Y24739D01*
X22205Y25098D01*
X21968Y24861D01*
X21919Y24812D01*
X21806Y24844D01*
X21718Y24932D01*
X21718Y25059D01*
X21938Y25278D01*
X21546Y25671D01*
X21153Y26063D01*
X20926Y25835D01*
X20816Y25889D01*
X20806Y26006D01*
X21663Y26863D01*
X25137D01*
X31600Y20400D01*
D02*
G37*
G36*
X66898Y15240D02*
X66963Y15139D01*
X66677Y14854D01*
X67036Y14495D01*
X67395Y14136D01*
X67608Y14349D01*
X67680Y14422D01*
X67781Y14357D01*
X67901Y14236D01*
X67598Y13934D01*
X67974Y13558D01*
X68349Y13183D01*
X68652Y13486D01*
X68950Y13188D01*
X68137Y12375D01*
X66325D01*
X65175Y13525D01*
Y13829D01*
X65441Y14095D01*
X65475Y14061D01*
X65622Y14000D01*
X65782D01*
X65929Y14061D01*
X66041Y14173D01*
X66102Y14320D01*
Y14480D01*
X66041Y14627D01*
X65929Y14738D01*
X65907Y14857D01*
X66300Y15250D01*
X66888D01*
X66898Y15240D01*
D02*
G37*
G36*
X28800Y14800D02*
X27700Y13700D01*
X26400D01*
X25600Y14500D01*
X25619Y14619D01*
X26100Y15100D01*
X27200Y16200D01*
Y16200D01*
X27400D01*
X28800Y14800D01*
D02*
G37*
G36*
X32000Y18600D02*
Y18100D01*
X30600Y16700D01*
Y16300D01*
X31000Y15900D01*
Y13502D01*
X30870Y13372D01*
X29828D01*
X29700Y13500D01*
Y14800D01*
X28900Y15600D01*
Y16600D01*
X31400Y19100D01*
X31500D01*
X32000Y18600D01*
D02*
G37*
%LPC*%
G36*
X10052Y59752D02*
X9726D01*
Y59326D01*
X10052D01*
Y59752D01*
D02*
G37*
G36*
X9573D02*
X9248D01*
Y59326D01*
X9573D01*
Y59752D01*
D02*
G37*
G36*
X10052Y59174D02*
X9650D01*
X9248D01*
Y58748D01*
Y58326D01*
X9650D01*
X10052D01*
Y58748D01*
Y59174D01*
D02*
G37*
G36*
Y58174D02*
X9726D01*
Y57748D01*
X10052D01*
Y58174D01*
D02*
G37*
G36*
X9573D02*
X9248D01*
Y57748D01*
X9573D01*
Y58174D01*
D02*
G37*
G36*
X44580Y62443D02*
X44102D01*
Y61965D01*
X44580D01*
Y62443D01*
D02*
G37*
G36*
X44127Y61646D02*
Y61192D01*
X44556D01*
Y61646D01*
X44127D01*
D02*
G37*
G36*
X49543Y61244D02*
X49089D01*
Y60816D01*
X49543D01*
Y61244D01*
D02*
G37*
G36*
X48936D02*
X48482D01*
Y60816D01*
X48936D01*
Y61244D01*
D02*
G37*
G36*
X48056D02*
X47602D01*
Y60816D01*
X48056D01*
Y61244D01*
D02*
G37*
G36*
X47449D02*
X46994D01*
Y60816D01*
X47449D01*
Y61244D01*
D02*
G37*
G36*
X51080Y61293D02*
X50601D01*
Y60816D01*
X51080D01*
Y61293D01*
D02*
G37*
G36*
X50448D02*
X49970D01*
Y60816D01*
X50448D01*
Y61293D01*
D02*
G37*
G36*
X46056Y61223D02*
X45602D01*
Y60794D01*
X46056D01*
Y61223D01*
D02*
G37*
G36*
X45449D02*
X44994D01*
Y60794D01*
X45449D01*
Y61223D01*
D02*
G37*
G36*
X44556Y61039D02*
X44127D01*
Y60584D01*
X44556D01*
Y61039D01*
D02*
G37*
G36*
X44102Y60315D02*
Y59837D01*
X44580D01*
Y60315D01*
X44102D01*
D02*
G37*
G36*
X44580Y59684D02*
X44102D01*
Y59205D01*
X44580D01*
Y59684D01*
D02*
G37*
G36*
X44127Y58886D02*
Y58431D01*
X44556D01*
Y58886D01*
X44127D01*
D02*
G37*
G36*
X44556Y58278D02*
X44127D01*
Y57824D01*
X44556D01*
Y58278D01*
D02*
G37*
G36*
X8960Y52306D02*
Y50978D01*
X9837D01*
Y52306D01*
X8960D01*
D02*
G37*
G36*
X9837Y50825D02*
X8960D01*
Y49497D01*
X9837D01*
Y50825D01*
D02*
G37*
G36*
X11637Y49517D02*
X11616D01*
Y48856D01*
X12277D01*
Y48877D01*
X12226Y49064D01*
X12129Y49232D01*
X11992Y49369D01*
X11824Y49466D01*
X11637Y49517D01*
D02*
G37*
G36*
X11463D02*
X11443D01*
X11256Y49466D01*
X11088Y49369D01*
X10951Y49232D01*
X10854Y49064D01*
X10803Y48877D01*
Y48856D01*
X11463D01*
Y49517D01*
D02*
G37*
G36*
X8536Y49132D02*
Y48678D01*
X8964D01*
Y49132D01*
X8536D01*
D02*
G37*
G36*
X8964Y48525D02*
X8536D01*
Y48071D01*
X8964D01*
Y48525D01*
D02*
G37*
G36*
X12277Y48703D02*
X11616D01*
Y48043D01*
X11637D01*
X11824Y48094D01*
X11992Y48191D01*
X12129Y48328D01*
X12226Y48496D01*
X12277Y48683D01*
Y48703D01*
D02*
G37*
G36*
X11463D02*
X10803D01*
Y48683D01*
X10854Y48496D01*
X10951Y48328D01*
X11088Y48191D01*
X11256Y48094D01*
X11443Y48043D01*
X11463D01*
Y48703D01*
D02*
G37*
G36*
X4047Y49666D02*
Y48907D01*
X4806D01*
X4748Y49123D01*
X4631Y49326D01*
X4466Y49491D01*
X4263Y49608D01*
X4047Y49666D01*
D02*
G37*
G36*
X3793D02*
X3577Y49608D01*
X3374Y49491D01*
X3209Y49326D01*
X3092Y49123D01*
X3034Y48907D01*
X3793D01*
Y49666D01*
D02*
G37*
G36*
X4806Y48653D02*
X4047D01*
Y47894D01*
X4263Y47952D01*
X4466Y48069D01*
X4631Y48234D01*
X4748Y48437D01*
X4806Y48653D01*
D02*
G37*
G36*
X3793D02*
X3034D01*
X3092Y48437D01*
X3209Y48234D01*
X3374Y48069D01*
X3577Y47952D01*
X3793Y47894D01*
Y48653D01*
D02*
G37*
G36*
X5538Y39929D02*
X5379D01*
X5232Y39868D01*
X5119Y39756D01*
X5058Y39609D01*
Y39450D01*
X5119Y39303D01*
X5232Y39190D01*
X5379Y39129D01*
X5538D01*
X5685Y39190D01*
X5798Y39303D01*
X5858Y39450D01*
Y39609D01*
X5798Y39756D01*
X5685Y39868D01*
X5538Y39929D01*
D02*
G37*
G36*
X4580Y39350D02*
X4420D01*
X4273Y39289D01*
X4161Y39177D01*
X4100Y39030D01*
Y38870D01*
X4161Y38723D01*
X4273Y38611D01*
X4420Y38550D01*
X4580D01*
X4727Y38611D01*
X4839Y38723D01*
X4900Y38870D01*
Y39030D01*
X4839Y39177D01*
X4727Y39289D01*
X4580Y39350D01*
D02*
G37*
G36*
X11163Y38654D02*
X11004D01*
X10857Y38593D01*
X10744Y38481D01*
X10683Y38334D01*
Y38175D01*
X10744Y38028D01*
X10857Y37915D01*
X11004Y37854D01*
X11163D01*
X11310Y37915D01*
X11423Y38028D01*
X11483Y38175D01*
Y38334D01*
X11423Y38481D01*
X11310Y38593D01*
X11163Y38654D01*
D02*
G37*
G36*
X8979Y38604D02*
X8819D01*
X8672Y38543D01*
X8560Y38430D01*
X8499Y38283D01*
Y38124D01*
X8560Y37977D01*
X8672Y37865D01*
X8819Y37804D01*
X8979D01*
X9126Y37865D01*
X9238Y37977D01*
X9299Y38124D01*
Y38283D01*
X9238Y38430D01*
X9126Y38543D01*
X8979Y38604D01*
D02*
G37*
G36*
X3880Y36100D02*
X3720D01*
X3573Y36039D01*
X3461Y35927D01*
X3400Y35780D01*
Y35620D01*
X3461Y35473D01*
X3573Y35361D01*
X3720Y35300D01*
X3880D01*
X4027Y35361D01*
X4139Y35473D01*
X4200Y35620D01*
Y35780D01*
X4139Y35927D01*
X4027Y36039D01*
X3880Y36100D01*
D02*
G37*
G36*
X1688Y35804D02*
X1529D01*
X1382Y35743D01*
X1269Y35631D01*
X1208Y35484D01*
Y35325D01*
X1269Y35178D01*
X1382Y35065D01*
X1529Y35004D01*
X1688D01*
X1835Y35065D01*
X1948Y35178D01*
X2008Y35325D01*
Y35484D01*
X1948Y35631D01*
X1835Y35743D01*
X1688Y35804D01*
D02*
G37*
G36*
X4553Y35421D02*
X4394D01*
X4247Y35360D01*
X4135Y35248D01*
X4074Y35101D01*
Y34942D01*
X4135Y34794D01*
X4247Y34682D01*
X4282Y34667D01*
X4277Y34532D01*
X4173Y34489D01*
X4061Y34377D01*
X4000Y34230D01*
Y34070D01*
X4061Y33923D01*
X4173Y33811D01*
X4320Y33750D01*
X4480D01*
X4627Y33811D01*
X4739Y33923D01*
X4800Y34070D01*
Y34230D01*
X4739Y34377D01*
X4627Y34489D01*
X4591Y34504D01*
X4597Y34639D01*
X4700Y34682D01*
X4813Y34794D01*
X4874Y34942D01*
Y35101D01*
X4813Y35248D01*
X4700Y35360D01*
X4553Y35421D01*
D02*
G37*
G36*
X3530Y34525D02*
X3370D01*
X3223Y34464D01*
X3111Y34352D01*
X3050Y34205D01*
Y34045D01*
X3111Y33898D01*
X3223Y33786D01*
X3370Y33725D01*
X3530D01*
X3677Y33786D01*
X3789Y33898D01*
X3850Y34045D01*
Y34205D01*
X3789Y34352D01*
X3677Y34464D01*
X3530Y34525D01*
D02*
G37*
G36*
X1638Y33154D02*
X1479D01*
X1332Y33093D01*
X1219Y32981D01*
X1158Y32834D01*
Y32675D01*
X1219Y32528D01*
X1332Y32415D01*
X1479Y32354D01*
X1638D01*
X1785Y32415D01*
X1898Y32528D01*
X1958Y32675D01*
Y32834D01*
X1898Y32981D01*
X1785Y33093D01*
X1638Y33154D01*
D02*
G37*
G36*
X3945Y33137D02*
X3786D01*
X3639Y33076D01*
X3527Y32963D01*
X3466Y32816D01*
Y32657D01*
X3527Y32510D01*
X3639Y32398D01*
X3786Y32337D01*
X3945D01*
X4092Y32398D01*
X4205Y32510D01*
X4266Y32657D01*
Y32816D01*
X4205Y32963D01*
X4092Y33076D01*
X3945Y33137D01*
D02*
G37*
G36*
X3388Y31704D02*
X3229D01*
X3082Y31643D01*
X2969Y31531D01*
X2908Y31384D01*
Y31225D01*
X2969Y31078D01*
X3082Y30965D01*
X3229Y30904D01*
X3388D01*
X3535Y30965D01*
X3648Y31078D01*
X3708Y31225D01*
Y31384D01*
X3648Y31531D01*
X3535Y31643D01*
X3388Y31704D01*
D02*
G37*
G36*
X3380Y30475D02*
X3220D01*
X3073Y30414D01*
X2961Y30302D01*
X2900Y30155D01*
Y29995D01*
X2961Y29848D01*
X3073Y29736D01*
X3220Y29675D01*
X3380D01*
X3527Y29736D01*
X3639Y29848D01*
X3700Y29995D01*
Y30155D01*
X3639Y30302D01*
X3527Y30414D01*
X3380Y30475D01*
D02*
G37*
G36*
X2605Y29675D02*
X2445D01*
X2298Y29614D01*
X2186Y29502D01*
X2125Y29355D01*
Y29195D01*
X2186Y29048D01*
X2298Y28936D01*
X2445Y28875D01*
X2605D01*
X2752Y28936D01*
X2864Y29048D01*
X2925Y29195D01*
Y29355D01*
X2864Y29502D01*
X2752Y29614D01*
X2605Y29675D01*
D02*
G37*
G36*
X2505Y28425D02*
X2345D01*
X2198Y28364D01*
X2086Y28252D01*
X2025Y28105D01*
Y27945D01*
X2086Y27798D01*
X2198Y27686D01*
X2345Y27625D01*
X2505D01*
X2652Y27686D01*
X2764Y27798D01*
X2825Y27945D01*
Y28105D01*
X2764Y28252D01*
X2652Y28364D01*
X2505Y28425D01*
D02*
G37*
G36*
X3380Y27575D02*
X3220D01*
X3073Y27514D01*
X2961Y27402D01*
X2900Y27255D01*
Y27095D01*
X2961Y26948D01*
X3073Y26836D01*
X3220Y26775D01*
X3380D01*
X3527Y26836D01*
X3639Y26948D01*
X3700Y27095D01*
Y27255D01*
X3639Y27402D01*
X3527Y27514D01*
X3380Y27575D01*
D02*
G37*
G36*
X5080Y25750D02*
X4920D01*
X4773Y25689D01*
X4661Y25577D01*
X4600Y25430D01*
Y25270D01*
X4661Y25123D01*
X4773Y25011D01*
X4920Y24950D01*
X5080D01*
X5227Y25011D01*
X5339Y25123D01*
X5400Y25270D01*
Y25430D01*
X5339Y25577D01*
X5227Y25689D01*
X5080Y25750D01*
D02*
G37*
G36*
X5213Y24279D02*
X5054D01*
X4907Y24218D01*
X4794Y24106D01*
X4733Y23959D01*
Y23800D01*
X4794Y23653D01*
X4907Y23540D01*
X5054Y23479D01*
X5213D01*
X5360Y23540D01*
X5473Y23653D01*
X5533Y23800D01*
Y23959D01*
X5473Y24106D01*
X5360Y24218D01*
X5213Y24279D01*
D02*
G37*
G36*
X2588Y22829D02*
X2429D01*
X2282Y22768D01*
X2169Y22656D01*
X2108Y22509D01*
Y22350D01*
X2169Y22203D01*
X2282Y22090D01*
X2429Y22029D01*
X2588D01*
X2735Y22090D01*
X2848Y22203D01*
X2908Y22350D01*
Y22509D01*
X2848Y22656D01*
X2735Y22768D01*
X2588Y22829D01*
D02*
G37*
G36*
X2613Y19904D02*
X2454D01*
X2307Y19843D01*
X2194Y19731D01*
X2133Y19584D01*
Y19425D01*
X2194Y19278D01*
X2307Y19165D01*
X2454Y19104D01*
X2613D01*
X2760Y19165D01*
X2873Y19278D01*
X2933Y19425D01*
Y19584D01*
X2873Y19731D01*
X2760Y19843D01*
X2613Y19904D01*
D02*
G37*
G36*
X2588Y13729D02*
X2429D01*
X2282Y13668D01*
X2169Y13556D01*
X2108Y13409D01*
Y13250D01*
X2169Y13103D01*
X2282Y12990D01*
X2429Y12929D01*
X2588D01*
X2735Y12990D01*
X2848Y13103D01*
X2908Y13250D01*
Y13409D01*
X2848Y13556D01*
X2735Y13668D01*
X2588Y13729D01*
D02*
G37*
G36*
X12627Y5092D02*
Y4317D01*
X13402D01*
X13342Y4539D01*
X13223Y4745D01*
X13055Y4913D01*
X12849Y5032D01*
X12627Y5092D01*
D02*
G37*
G36*
X12373D02*
X12151Y5032D01*
X11945Y4913D01*
X11777Y4745D01*
X11658Y4539D01*
X11598Y4317D01*
X12373D01*
Y5092D01*
D02*
G37*
G36*
X13402Y4063D02*
X12627D01*
Y3288D01*
X12849Y3348D01*
X13055Y3467D01*
X13223Y3635D01*
X13342Y3841D01*
X13402Y4063D01*
D02*
G37*
G36*
X12373D02*
X11598D01*
X11658Y3841D01*
X11777Y3635D01*
X11945Y3467D01*
X12151Y3348D01*
X12373Y3288D01*
Y4063D01*
D02*
G37*
G36*
X16437Y3187D02*
Y2412D01*
X17212D01*
X17152Y2634D01*
X17033Y2840D01*
X16865Y3008D01*
X16659Y3127D01*
X16437Y3187D01*
D02*
G37*
G36*
X13897D02*
Y2412D01*
X14672D01*
X14612Y2634D01*
X14493Y2840D01*
X14325Y3008D01*
X14119Y3127D01*
X13897Y3187D01*
D02*
G37*
G36*
X16183D02*
X15961Y3127D01*
X15755Y3008D01*
X15587Y2840D01*
X15468Y2634D01*
X15408Y2412D01*
X16183D01*
Y3187D01*
D02*
G37*
G36*
X13643D02*
X13421Y3127D01*
X13215Y3008D01*
X13047Y2840D01*
X12928Y2634D01*
X12868Y2412D01*
X13643D01*
Y3187D01*
D02*
G37*
G36*
X17212Y2158D02*
X16437D01*
Y1383D01*
X16659Y1443D01*
X16865Y1562D01*
X17033Y1730D01*
X17152Y1936D01*
X17212Y2158D01*
D02*
G37*
G36*
X14672D02*
X13897D01*
Y1383D01*
X14119Y1443D01*
X14325Y1562D01*
X14493Y1730D01*
X14612Y1936D01*
X14672Y2158D01*
D02*
G37*
G36*
X16183D02*
X15408D01*
X15468Y1936D01*
X15587Y1730D01*
X15755Y1562D01*
X15961Y1443D01*
X16183Y1383D01*
Y2158D01*
D02*
G37*
G36*
X13643D02*
X12868D01*
X12928Y1936D01*
X13047Y1730D01*
X13215Y1562D01*
X13421Y1443D01*
X13643Y1383D01*
Y2158D01*
D02*
G37*
G36*
X4047Y44586D02*
Y43827D01*
X4806D01*
X4748Y44043D01*
X4631Y44246D01*
X4466Y44411D01*
X4263Y44528D01*
X4047Y44586D01*
D02*
G37*
G36*
X3793D02*
X3577Y44528D01*
X3374Y44411D01*
X3209Y44246D01*
X3092Y44043D01*
X3034Y43827D01*
X3793D01*
Y44586D01*
D02*
G37*
G36*
X4806Y43573D02*
X4047D01*
Y42814D01*
X4263Y42872D01*
X4466Y42989D01*
X4631Y43154D01*
X4748Y43357D01*
X4806Y43573D01*
D02*
G37*
G36*
X3793D02*
X3034D01*
X3092Y43357D01*
X3209Y43154D01*
X3374Y42989D01*
X3577Y42872D01*
X3793Y42814D01*
Y43573D01*
D02*
G37*
G36*
X7203Y45358D02*
Y44877D01*
X7708D01*
Y45358D01*
X7203D01*
D02*
G37*
G36*
X7708Y44724D02*
X7203D01*
Y44242D01*
X7708D01*
Y44724D01*
D02*
G37*
G36*
X9097Y44437D02*
X9076D01*
Y43776D01*
X9737D01*
Y43797D01*
X9686Y43984D01*
X9589Y44152D01*
X9452Y44289D01*
X9284Y44386D01*
X9097Y44437D01*
D02*
G37*
G36*
X8923D02*
X8903D01*
X8716Y44386D01*
X8548Y44289D01*
X8411Y44152D01*
X8314Y43984D01*
X8263Y43797D01*
Y43776D01*
X8923D01*
Y44437D01*
D02*
G37*
G36*
X9737Y43623D02*
X9076D01*
Y42963D01*
X9097D01*
X9284Y43014D01*
X9452Y43111D01*
X9589Y43248D01*
X9686Y43416D01*
X9737Y43603D01*
Y43623D01*
D02*
G37*
G36*
X8923D02*
X8263D01*
Y43603D01*
X8314Y43416D01*
X8411Y43248D01*
X8548Y43111D01*
X8716Y43014D01*
X8903Y42963D01*
X8923D01*
Y43623D01*
D02*
G37*
G36*
X7102Y43131D02*
Y42677D01*
X7531D01*
Y43131D01*
X7102D01*
D02*
G37*
G36*
X7531Y42524D02*
X7102D01*
Y42069D01*
X7531D01*
Y42524D01*
D02*
G37*
G36*
X68655Y36925D02*
X68495D01*
X68348Y36864D01*
X68236Y36752D01*
X68175Y36605D01*
Y36445D01*
X68236Y36298D01*
X68348Y36186D01*
X68495Y36125D01*
X68655D01*
X68802Y36186D01*
X68914Y36298D01*
X68975Y36445D01*
Y36605D01*
X68914Y36752D01*
X68802Y36864D01*
X68655Y36925D01*
D02*
G37*
G36*
X69055Y34600D02*
X68895D01*
X68748Y34539D01*
X68636Y34427D01*
X68626Y34403D01*
X68559Y34336D01*
X68510Y34219D01*
Y34058D01*
X66634Y32182D01*
X65581Y33235D01*
X65465Y33283D01*
X64868D01*
X64752Y33235D01*
X64258Y32741D01*
X64225Y32662D01*
X64093Y32615D01*
X63391Y33316D01*
X63275Y33365D01*
X62996D01*
X62917Y33492D01*
X62950Y33570D01*
Y33730D01*
X62889Y33877D01*
X62777Y33989D01*
X62630Y34050D01*
X62470D01*
X62390Y34017D01*
X62266Y33984D01*
X62159Y34091D01*
X62043Y34140D01*
X61600D01*
X61484Y34091D01*
X61409Y34016D01*
X61360Y33900D01*
Y33550D01*
X61409Y33434D01*
X61501Y33341D01*
X61411Y33252D01*
X61388Y33195D01*
X61384Y33191D01*
X61335Y33075D01*
Y31975D01*
X61384Y31859D01*
X62306Y30936D01*
X62303Y30760D01*
X59284Y27741D01*
X59235Y27625D01*
Y27358D01*
X59284Y27241D01*
X59429Y27096D01*
X59459Y27084D01*
X59482Y27060D01*
X59508Y27050D01*
X59575Y26983D01*
X59585Y26957D01*
X59609Y26934D01*
X59621Y26904D01*
X61325Y25200D01*
X61330Y25187D01*
X61510Y25007D01*
Y22475D01*
X61559Y22359D01*
X62584Y21334D01*
X62700Y21285D01*
X62917D01*
X63034Y21334D01*
X63117Y21417D01*
X65249Y23549D01*
X65282D01*
X65292Y23553D01*
X65302Y23549D01*
X65314D01*
X65430Y23597D01*
X65525Y23693D01*
X65574Y23809D01*
Y24546D01*
X65525Y24663D01*
X65372Y24816D01*
X65255Y24865D01*
X64921D01*
X63954Y25832D01*
X63960Y25911D01*
X64070Y26000D01*
X64230D01*
X64377Y26061D01*
X64489Y26173D01*
X64489Y26174D01*
X64614Y26199D01*
X64737Y26076D01*
X65121Y26460D01*
X65246Y26435D01*
X65261Y26398D01*
X65373Y26286D01*
X65520Y26225D01*
X65680D01*
X65827Y26286D01*
X65939Y26398D01*
X66000Y26545D01*
Y26705D01*
X65939Y26852D01*
X65998Y26972D01*
X66036D01*
X66153Y27020D01*
X66741Y27609D01*
X66790Y27725D01*
Y28000D01*
X66741Y28116D01*
X63835Y31023D01*
X63887Y31150D01*
X63892Y31150D01*
X63984Y31059D01*
X66789Y28253D01*
X66905Y28205D01*
X67270D01*
X67386Y28253D01*
X67510Y28377D01*
X67809Y28078D01*
Y27910D01*
X67878Y27744D01*
X68005Y27617D01*
X68171Y27548D01*
X68351D01*
X68517Y27617D01*
X68645Y27744D01*
X68713Y27910D01*
Y28090D01*
X68645Y28256D01*
X68517Y28383D01*
X68351Y28452D01*
X68171D01*
X68168Y28451D01*
X67876Y28743D01*
X68041Y28909D01*
X68057Y28947D01*
X68089Y28965D01*
X68207Y28997D01*
X68320Y28950D01*
X68480D01*
X68627Y29011D01*
X68739Y29123D01*
X68800Y29270D01*
Y29430D01*
X68739Y29577D01*
X68627Y29689D01*
X68578Y29709D01*
X68548Y29859D01*
X68940Y30251D01*
X68818Y30372D01*
X68843Y30497D01*
X68877Y30511D01*
X68989Y30623D01*
X69050Y30770D01*
Y30930D01*
X68989Y31077D01*
X68877Y31189D01*
X68837Y31205D01*
X68813Y31330D01*
X69791Y32309D01*
X69840Y32425D01*
Y33900D01*
X69791Y34016D01*
X69266Y34541D01*
X69150Y34590D01*
X69080Y34590D01*
X69055Y34600D01*
D02*
G37*
G36*
X58005Y29250D02*
X57845D01*
X57698Y29189D01*
X57586Y29077D01*
X57525Y28930D01*
Y28770D01*
X57586Y28623D01*
X57698Y28511D01*
X57845Y28450D01*
X58005D01*
X58152Y28511D01*
X58264Y28623D01*
X58325Y28770D01*
Y28930D01*
X58264Y29077D01*
X58152Y29189D01*
X58005Y29250D01*
D02*
G37*
G36*
X69655Y25775D02*
X69495D01*
X69348Y25714D01*
X69236Y25602D01*
X69175Y25455D01*
Y25295D01*
X69236Y25148D01*
X69348Y25036D01*
X69495Y24975D01*
X69655D01*
X69802Y25036D01*
X69914Y25148D01*
X69975Y25295D01*
Y25455D01*
X69914Y25602D01*
X69802Y25714D01*
X69655Y25775D01*
D02*
G37*
G36*
X68505Y24608D02*
X68345D01*
X68198Y24547D01*
X68086Y24434D01*
X68025Y24287D01*
Y24128D01*
X68086Y23981D01*
X68198Y23869D01*
X68345Y23808D01*
X68505D01*
X68652Y23869D01*
X68764Y23981D01*
X68825Y24128D01*
Y24287D01*
X68764Y24434D01*
X68652Y24547D01*
X68505Y24608D01*
D02*
G37*
G36*
X71255Y24225D02*
X71095D01*
X70948Y24164D01*
X70836Y24052D01*
X70775Y23905D01*
Y23745D01*
X70836Y23598D01*
X70948Y23486D01*
X71095Y23425D01*
X71255D01*
X71402Y23486D01*
X71514Y23598D01*
X71575Y23745D01*
Y23905D01*
X71514Y24052D01*
X71402Y24164D01*
X71255Y24225D01*
D02*
G37*
G36*
X70990Y29200D02*
X70831D01*
X70684Y29139D01*
X70572Y29027D01*
X70511Y28880D01*
Y28720D01*
X70572Y28573D01*
X70684Y28461D01*
X70710Y28450D01*
X70739Y28301D01*
X70631Y28193D01*
X70765Y28059D01*
X70727Y27918D01*
X70636Y27827D01*
X70575Y27680D01*
Y27520D01*
X70636Y27373D01*
X70748Y27261D01*
X70895Y27200D01*
X71055D01*
X71202Y27261D01*
X71311Y27371D01*
X71330Y27374D01*
X71411Y27310D01*
X71419Y27162D01*
X71334Y27077D01*
X71285Y26960D01*
Y26375D01*
X71334Y26259D01*
X74359Y23234D01*
X74475Y23185D01*
X74925D01*
X75041Y23234D01*
X76641Y24834D01*
X76641Y24834D01*
X76690Y24950D01*
X76641Y25066D01*
X76166Y25541D01*
X76050Y25590D01*
X75619D01*
X75503Y25541D01*
X75501Y25539D01*
X75486Y25543D01*
X75437Y25564D01*
X75427Y25559D01*
X75416Y25562D01*
X75334Y25552D01*
X75312Y25539D01*
X75287Y25539D01*
X75282Y25534D01*
X75167Y25509D01*
X75108Y25529D01*
X75107Y25530D01*
X74732Y25904D01*
X74754Y25937D01*
X74751Y25955D01*
X74758Y25972D01*
X74740Y26015D01*
X74731Y26061D01*
X74666Y26161D01*
X74652Y26171D01*
X74645Y26188D01*
X74600Y26233D01*
X74566Y26247D01*
X74539Y26272D01*
X74428Y26311D01*
X74399Y26310D01*
X74373Y26321D01*
X74339Y26307D01*
X74302Y26305D01*
X74295Y26305D01*
X73803Y26797D01*
X73803Y26804D01*
X73805Y26841D01*
X73819Y26874D01*
X73808Y26901D01*
X73810Y26930D01*
X73770Y27041D01*
X73745Y27068D01*
X73731Y27101D01*
X73603Y27230D01*
X73487Y27278D01*
X73470Y27271D01*
X72860Y27882D01*
X72866Y27897D01*
X72867Y27898D01*
X72818Y28014D01*
X72818D01*
X72706Y28126D01*
X72590Y28174D01*
X72524D01*
X72482Y28181D01*
X72427Y28200D01*
X72373Y28224D01*
X71518Y29079D01*
X71410Y28971D01*
X71260Y29001D01*
X71250Y29027D01*
X71137Y29139D01*
X70990Y29200D01*
D02*
G37*
G36*
X78480Y23975D02*
X78320D01*
X78173Y23914D01*
X78061Y23802D01*
X78000Y23655D01*
Y23495D01*
X78061Y23348D01*
X78173Y23236D01*
X78320Y23175D01*
X78480D01*
X78627Y23236D01*
X78739Y23348D01*
X78800Y23495D01*
Y23655D01*
X78739Y23802D01*
X78627Y23914D01*
X78480Y23975D01*
D02*
G37*
G36*
X67230Y23375D02*
X67070D01*
X66923Y23314D01*
X66811Y23202D01*
X66750Y23055D01*
Y22895D01*
X66811Y22748D01*
X66923Y22636D01*
X67070Y22575D01*
X67230D01*
X67377Y22636D01*
X67489Y22748D01*
X67550Y22895D01*
Y23055D01*
X67489Y23202D01*
X67377Y23314D01*
X67230Y23375D01*
D02*
G37*
G36*
X70105Y23058D02*
X69945D01*
X69798Y22997D01*
X69686Y22884D01*
X69625Y22737D01*
Y22578D01*
X69686Y22431D01*
X69798Y22319D01*
X69945Y22258D01*
X70105D01*
X70252Y22319D01*
X70364Y22431D01*
X70425Y22578D01*
Y22737D01*
X70364Y22884D01*
X70252Y22997D01*
X70105Y23058D01*
D02*
G37*
G36*
X72630Y22800D02*
X72470D01*
X72323Y22739D01*
X72211Y22627D01*
X72150Y22480D01*
Y22320D01*
X72211Y22173D01*
X72323Y22061D01*
X72470Y22000D01*
X72630D01*
X72777Y22061D01*
X72889Y22173D01*
X72950Y22320D01*
Y22480D01*
X72889Y22627D01*
X72777Y22739D01*
X72630Y22800D01*
D02*
G37*
G36*
X65705Y22200D02*
X65545D01*
X65398Y22139D01*
X65286Y22027D01*
X65225Y21880D01*
Y21720D01*
X65286Y21573D01*
X65398Y21461D01*
X65545Y21400D01*
X65705D01*
X65852Y21461D01*
X65964Y21573D01*
X66025Y21720D01*
Y21880D01*
X65964Y22027D01*
X65852Y22139D01*
X65705Y22200D01*
D02*
G37*
G36*
X68830Y21825D02*
X68670D01*
X68523Y21764D01*
X68411Y21652D01*
X68350Y21505D01*
Y21345D01*
X68411Y21198D01*
X68523Y21086D01*
X68670Y21025D01*
X68830D01*
X68977Y21086D01*
X69089Y21198D01*
X69150Y21345D01*
Y21505D01*
X69089Y21652D01*
X68977Y21764D01*
X68830Y21825D01*
D02*
G37*
G36*
X71480Y21633D02*
X71320D01*
X71173Y21572D01*
X71061Y21459D01*
X71000Y21312D01*
Y21153D01*
X71061Y21006D01*
X71173Y20894D01*
X71320Y20833D01*
X71480D01*
X71627Y20894D01*
X71739Y21006D01*
X71800Y21153D01*
Y21312D01*
X71739Y21459D01*
X71627Y21572D01*
X71480Y21633D01*
D02*
G37*
G36*
X66805Y21175D02*
X66645D01*
X66498Y21114D01*
X66386Y21002D01*
X66325Y20855D01*
Y20695D01*
X66386Y20548D01*
X66498Y20436D01*
X66645Y20375D01*
X66805D01*
X66952Y20436D01*
X67064Y20548D01*
X67125Y20695D01*
Y20855D01*
X67064Y21002D01*
X66952Y21114D01*
X66805Y21175D01*
D02*
G37*
G36*
X70205Y20400D02*
X70045D01*
X69898Y20339D01*
X69786Y20227D01*
X69725Y20080D01*
Y19920D01*
X69786Y19773D01*
X69898Y19661D01*
X70045Y19600D01*
X70205D01*
X70352Y19661D01*
X70464Y19773D01*
X70525Y19920D01*
Y20080D01*
X70464Y20227D01*
X70352Y20339D01*
X70205Y20400D01*
D02*
G37*
G36*
X68180Y19750D02*
X68020D01*
X67873Y19689D01*
X67761Y19577D01*
X67700Y19430D01*
Y19270D01*
X67761Y19123D01*
X67873Y19011D01*
X68020Y18950D01*
X68180D01*
X68327Y19011D01*
X68439Y19123D01*
X68500Y19270D01*
Y19430D01*
X68439Y19577D01*
X68327Y19689D01*
X68180Y19750D01*
D02*
G37*
G36*
X67205Y18270D02*
X67045D01*
X66898Y18209D01*
X66786Y18096D01*
X66725Y17949D01*
Y17790D01*
X66786Y17643D01*
X66898Y17531D01*
X67045Y17470D01*
X67205D01*
X67352Y17531D01*
X67464Y17643D01*
X67525Y17790D01*
Y17949D01*
X67464Y18096D01*
X67352Y18209D01*
X67205Y18270D01*
D02*
G37*
%LPD*%
G36*
X69675Y33900D02*
Y32425D01*
X68475Y31225D01*
X67813D01*
X67797Y31242D01*
X67650Y31303D01*
X67491D01*
X67344Y31242D01*
X67327Y31225D01*
X67325D01*
Y31223D01*
X67280Y31178D01*
X67118Y31162D01*
X66999Y31281D01*
X66659Y30941D01*
X66605Y30995D01*
X66551Y30941D01*
X66192Y31300D01*
X65906Y31014D01*
X65783Y31025D01*
X65722Y31087D01*
X65685Y31199D01*
X65988Y31502D01*
X65613Y31877D01*
X65237Y32252D01*
X64987Y32002D01*
X64934Y31949D01*
X64823Y31986D01*
X64375Y32434D01*
Y32625D01*
X64868Y33119D01*
X65465D01*
X66634Y31949D01*
X68675Y33990D01*
Y34219D01*
X68881Y34425D01*
X69150Y34425D01*
X69675Y33900D01*
D02*
G37*
G36*
X62150Y33868D02*
Y33730D01*
Y33650D01*
Y33570D01*
X62211Y33423D01*
X62323Y33311D01*
X62470Y33250D01*
X62550D01*
X62600Y33200D01*
X63275D01*
X66375Y30100D01*
X67150D01*
X67925Y29325D01*
Y29025D01*
X67270Y28370D01*
X66905D01*
X64100Y31175D01*
X62240Y33035D01*
Y33050D01*
X62191Y33166D01*
X62016Y33341D01*
X61987Y33353D01*
X61977Y33364D01*
X61830Y33425D01*
X61670D01*
X61656Y33419D01*
X61525Y33550D01*
Y33900D01*
X61600Y33975D01*
X62043D01*
X62150Y33868D01*
D02*
G37*
G36*
X64850Y28375D02*
Y27916D01*
X64737Y27849D01*
X64737D01*
X64638Y27750D01*
X64450D01*
X64439Y27777D01*
X64327Y27889D01*
X64267Y27914D01*
X64204Y27977D01*
X64179Y28021D01*
X64147Y28100D01*
X64489Y28442D01*
X64184Y28747D01*
X63844Y28407D01*
X63504Y28067D01*
X63778Y27793D01*
X63761Y27777D01*
X63732Y27706D01*
X63718Y27692D01*
X63718Y27672D01*
X63700Y27630D01*
Y27470D01*
X63718Y27426D01*
X63724Y25829D01*
X64853Y24700D01*
X65255D01*
X65409Y24546D01*
Y23809D01*
X65314Y23714D01*
X65302D01*
X65274Y23741D01*
X65246Y23712D01*
X65133Y23665D01*
X62917Y21450D01*
X62700D01*
X61675Y22475D01*
Y25075D01*
X61447Y25303D01*
X61441Y25316D01*
X59737Y27020D01*
X59714Y27077D01*
X59602Y27189D01*
X59545Y27212D01*
X59400Y27358D01*
Y27625D01*
X62500Y30725D01*
X64850Y28375D01*
D02*
G37*
G36*
X62075Y33050D02*
Y32550D01*
X66625Y28000D01*
Y27725D01*
X66036Y27136D01*
X65764D01*
X65050Y27850D01*
Y28425D01*
X61500Y31975D01*
Y33075D01*
X61650Y33225D01*
X61900D01*
X62075Y33050D01*
D02*
G37*
%LPC*%
G36*
X68763Y33833D02*
X68442Y33512D01*
X68745Y33209D01*
X69066Y33530D01*
X68763Y33833D01*
D02*
G37*
G36*
X69174Y33422D02*
X68853Y33101D01*
X69156Y32798D01*
X69477Y33119D01*
X69174Y33422D01*
D02*
G37*
G36*
X68334Y33403D02*
X68012Y33082D01*
X68315Y32779D01*
X68636Y33101D01*
X68334Y33403D01*
D02*
G37*
G36*
X68745Y32992D02*
X68423Y32671D01*
X68726Y32368D01*
X69047Y32689D01*
X68745Y32992D01*
D02*
G37*
G36*
X67827Y32861D02*
X67522Y32557D01*
X67808Y32271D01*
X68113Y32576D01*
X67827Y32861D01*
D02*
G37*
G36*
X65648Y32663D02*
X65346Y32360D01*
X65667Y32039D01*
X65970Y32342D01*
X65648Y32663D01*
D02*
G37*
G36*
X68221Y32467D02*
X67916Y32163D01*
X68202Y31877D01*
X68507Y32182D01*
X68221Y32467D01*
D02*
G37*
G36*
X67414Y32448D02*
X67109Y32144D01*
X67395Y31858D01*
X67700Y32163D01*
X67414Y32448D01*
D02*
G37*
G36*
X66078Y32234D02*
X65775Y31931D01*
X66096Y31610D01*
X66399Y31913D01*
X66078Y32234D01*
D02*
G37*
G36*
X67808Y32054D02*
X67503Y31750D01*
X67789Y31464D01*
X68094Y31769D01*
X67808Y32054D01*
D02*
G37*
G36*
X66586Y31694D02*
X66300Y31408D01*
X66605Y31103D01*
X66890Y31389D01*
X66586Y31694D01*
D02*
G37*
G36*
X62890Y30038D02*
X62607Y29755D01*
X62925Y29437D01*
X63208Y29720D01*
X62890Y30038D01*
D02*
G37*
G36*
X62499Y29647D02*
X62216Y29364D01*
X62534Y29046D01*
X62817Y29329D01*
X62499Y29647D01*
D02*
G37*
G36*
X63316Y29612D02*
X63033Y29329D01*
X63351Y29010D01*
X63634Y29293D01*
X63316Y29612D01*
D02*
G37*
G36*
X62925Y29220D02*
X62642Y28937D01*
X62960Y28619D01*
X63243Y28902D01*
X62925Y29220D01*
D02*
G37*
G36*
X63771Y29160D02*
X63485Y28874D01*
X63790Y28569D01*
X64076Y28855D01*
X63771Y29160D01*
D02*
G37*
G36*
X63377Y28766D02*
X63091Y28480D01*
X63396Y28175D01*
X63682Y28461D01*
X63377Y28766D01*
D02*
G37*
G36*
X60670Y27696D02*
X60384Y27410D01*
X60689Y27105D01*
X60975Y27391D01*
X60670Y27696D01*
D02*
G37*
G36*
X60276Y27302D02*
X59990Y27016D01*
X60295Y26711D01*
X60581Y26997D01*
X60276Y27302D01*
D02*
G37*
G36*
X61083Y27283D02*
X60797Y26997D01*
X61102Y26692D01*
X61388Y26978D01*
X61083Y27283D01*
D02*
G37*
G36*
X60689Y26889D02*
X60403Y26603D01*
X60708Y26298D01*
X60994Y26584D01*
X60689Y26889D01*
D02*
G37*
G36*
X61607Y26791D02*
X61304Y26488D01*
X61625Y26167D01*
X61928Y26470D01*
X61607Y26791D01*
D02*
G37*
G36*
X61196Y26380D02*
X60893Y26077D01*
X61214Y25756D01*
X61517Y26059D01*
X61196Y26380D01*
D02*
G37*
G36*
X62036Y26362D02*
X61733Y26059D01*
X62055Y25738D01*
X62358Y26041D01*
X62036Y26362D01*
D02*
G37*
G36*
X61625Y25951D02*
X61322Y25648D01*
X61644Y25327D01*
X61946Y25630D01*
X61625Y25951D01*
D02*
G37*
G36*
X64388Y24556D02*
X64083Y24251D01*
X64369Y23966D01*
X64674Y24271D01*
X64388Y24556D01*
D02*
G37*
G36*
X64782Y24162D02*
X64477Y23857D01*
X64763Y23572D01*
X65068Y23877D01*
X64782Y24162D01*
D02*
G37*
G36*
X63975Y24143D02*
X63670Y23838D01*
X63956Y23553D01*
X64260Y23857D01*
X63975Y24143D01*
D02*
G37*
G36*
X64369Y23749D02*
X64064Y23444D01*
X64350Y23159D01*
X64654Y23463D01*
X64369Y23749D01*
D02*
G37*
G36*
X63451Y23652D02*
X63130Y23331D01*
X63432Y23028D01*
X63754Y23349D01*
X63451Y23652D01*
D02*
G37*
G36*
X63862Y23241D02*
X63541Y22920D01*
X63843Y22617D01*
X64165Y22938D01*
X63862Y23241D01*
D02*
G37*
G36*
X63021Y23222D02*
X62700Y22901D01*
X63003Y22598D01*
X63324Y22920D01*
X63021Y23222D01*
D02*
G37*
G36*
X63432Y22811D02*
X63111Y22490D01*
X63414Y22187D01*
X63735Y22508D01*
X63432Y22811D01*
D02*
G37*
%LPD*%
G36*
X72500Y28010D02*
X72590D01*
X72702Y27898D01*
X72399Y27595D01*
X72792Y27203D01*
X73184Y26811D01*
X73487Y27113D01*
X73615Y26985D01*
X73655Y26874D01*
X73369Y26589D01*
X73728Y26230D01*
X74087Y25871D01*
X74318Y26102D01*
X74373Y26156D01*
X74483Y26117D01*
X74528Y26072D01*
X74593Y25972D01*
X74290Y25669D01*
X74666Y25293D01*
X75041Y24918D01*
X75344Y25221D01*
X75306Y25259D01*
X75355Y25389D01*
X75437Y25399D01*
X75515Y25321D01*
X75619Y25425D01*
X76050D01*
X76525Y24950D01*
X74925Y23350D01*
X74475D01*
X71450Y26375D01*
Y26960D01*
X72500Y28010D01*
X72500Y28010D01*
D02*
G37*
%LPC*%
G36*
X72291Y27487D02*
X71954Y27149D01*
X72292Y26811D01*
X72629Y27149D01*
X72291Y27487D01*
D02*
G37*
G36*
X72738Y27041D02*
X72400Y26703D01*
X72738Y26365D01*
X73076Y26703D01*
X72738Y27041D01*
D02*
G37*
G36*
X73261Y26480D02*
X72975Y26195D01*
X73280Y25890D01*
X73566Y26176D01*
X73261Y26480D01*
D02*
G37*
G36*
X73674Y26067D02*
X73388Y25782D01*
X73693Y25477D01*
X73979Y25762D01*
X73674Y26067D01*
D02*
G37*
G36*
X74182Y25560D02*
X73879Y25258D01*
X74201Y24936D01*
X74503Y25239D01*
X74182Y25560D01*
D02*
G37*
G36*
X74612Y25131D02*
X74309Y24828D01*
X74630Y24507D01*
X74933Y24810D01*
X74612Y25131D01*
D02*
G37*
G36*
X21599Y26509D02*
X21262Y26171D01*
X21600Y25833D01*
X21937Y26171D01*
X21599Y26509D01*
D02*
G37*
G36*
X22046Y26062D02*
X21708Y25725D01*
X22046Y25386D01*
X22384Y25724D01*
X22046Y26062D01*
D02*
G37*
G36*
X22599Y25492D02*
X22313Y25206D01*
X22618Y24902D01*
X22904Y25187D01*
X22599Y25492D01*
D02*
G37*
G36*
X23012Y25079D02*
X22727Y24793D01*
X23031Y24488D01*
X23317Y24774D01*
X23012Y25079D01*
D02*
G37*
G36*
X23574Y24575D02*
X23271Y24272D01*
X23593Y23951D01*
X23895Y24254D01*
X23574Y24575D01*
D02*
G37*
G36*
X24004Y24145D02*
X23701Y23843D01*
X24022Y23521D01*
X24325Y23824D01*
X24004Y24145D01*
D02*
G37*
G36*
X28152Y22371D02*
X27833Y22053D01*
X28116Y21770D01*
X28435Y22088D01*
X28152Y22371D01*
D02*
G37*
G36*
X26800Y23765D02*
X24700D01*
X24584Y23716D01*
X24084Y23216D01*
X24035Y23100D01*
X24084Y22984D01*
X25784Y21284D01*
X25900Y21235D01*
X26000D01*
X26027Y21246D01*
X26109Y21150D01*
Y21150D01*
X26412Y20847D01*
X26788Y21222D01*
X27163Y21597D01*
X26904Y21856D01*
X26904Y21943D01*
X26919Y22003D01*
X26982Y22040D01*
X27016Y22017D01*
X27023Y22010D01*
X27299Y21734D01*
X27671Y22107D01*
X28043Y22479D01*
X27761Y22762D01*
X27734Y22735D01*
X27626Y22807D01*
X27665Y22900D01*
X27616Y23016D01*
X26916Y23716D01*
X26800Y23765D01*
D02*
G37*
G36*
X27725Y21945D02*
X27407Y21626D01*
X27690Y21343D01*
X28008Y21662D01*
X27725Y21945D01*
D02*
G37*
G36*
X27271Y21489D02*
X26950Y21168D01*
X27253Y20865D01*
X27574Y21186D01*
X27271Y21489D01*
D02*
G37*
G36*
X26842Y21060D02*
X26521Y20739D01*
X26823Y20436D01*
X27145Y20757D01*
X26842Y21060D01*
D02*
G37*
G36*
X30476Y20042D02*
X30171Y19737D01*
X30457Y19452D01*
X30762Y19756D01*
X30476Y20042D01*
D02*
G37*
G36*
X30870Y19648D02*
X30565Y19343D01*
X30851Y19058D01*
X31156Y19362D01*
X30870Y19648D01*
D02*
G37*
G36*
X30063Y19629D02*
X29758Y19324D01*
X30044Y19038D01*
X30348Y19343D01*
X30063Y19629D01*
D02*
G37*
G36*
X30457Y19235D02*
X30152Y18930D01*
X30438Y18645D01*
X30742Y18949D01*
X30457Y19235D01*
D02*
G37*
G36*
X29526Y19125D02*
X29205Y18804D01*
X29507Y18501D01*
X29829Y18822D01*
X29526Y19125D01*
D02*
G37*
G36*
X29937Y18714D02*
X29616Y18393D01*
X29919Y18090D01*
X30240Y18411D01*
X29937Y18714D01*
D02*
G37*
G36*
X29096Y18695D02*
X28775Y18374D01*
X29078Y18071D01*
X29399Y18393D01*
X29096Y18695D01*
D02*
G37*
G36*
X29507Y18284D02*
X29186Y17963D01*
X29489Y17660D01*
X29810Y17981D01*
X29507Y18284D01*
D02*
G37*
G36*
X28668Y18176D02*
X28350Y17858D01*
X28633Y17575D01*
X28951Y17893D01*
X28668Y18176D01*
D02*
G37*
G36*
X29060Y17785D02*
X28741Y17467D01*
X29024Y17184D01*
X29342Y17502D01*
X29060Y17785D01*
D02*
G37*
G36*
X28242Y17750D02*
X27924Y17432D01*
X28207Y17149D01*
X28525Y17467D01*
X28242Y17750D01*
D02*
G37*
G36*
X28633Y17359D02*
X28315Y17040D01*
X28598Y16758D01*
X28916Y17076D01*
X28633Y17359D01*
D02*
G37*
G36*
X26308Y17200D02*
X25987Y16879D01*
X26290Y16576D01*
X26611Y16897D01*
X26308Y17200D01*
D02*
G37*
G36*
X25879Y16771D02*
X25557Y16449D01*
X25860Y16147D01*
X26181Y16468D01*
X25879Y16771D01*
D02*
G37*
G36*
X25371Y16230D02*
X25066Y15925D01*
X25352Y15640D01*
X25657Y15945D01*
X25371Y16230D01*
D02*
G37*
G36*
X24958Y15817D02*
X24653Y15512D01*
X24939Y15227D01*
X25244Y15531D01*
X24958Y15817D01*
D02*
G37*
%LPD*%
G36*
X27500Y22900D02*
X26000Y21400D01*
X25900D01*
X24200Y23100D01*
X24700Y23600D01*
X26800D01*
X27500Y22900D01*
D02*
G37*
%LPC*%
G36*
X66569Y14745D02*
X66283Y14460D01*
X66588Y14155D01*
X66873Y14441D01*
X66569Y14745D01*
D02*
G37*
G36*
X66982Y14332D02*
X66696Y14047D01*
X67001Y13742D01*
X67287Y14028D01*
X66982Y14332D01*
D02*
G37*
G36*
X67490Y13826D02*
X67187Y13523D01*
X67508Y13201D01*
X67811Y13504D01*
X67490Y13826D01*
D02*
G37*
G36*
X67920Y13396D02*
X67617Y13093D01*
X67938Y12772D01*
X68241Y13075D01*
X67920Y13396D01*
D02*
G37*
%LPD*%
D12*
X43848Y56772D02*
X44051Y56975D01*
X43848Y56323D02*
Y56772D01*
X43473Y55948D02*
X43848Y56323D01*
X41923Y55948D02*
X43473D01*
D15*
X88400Y43300D02*
Y45300D01*
X88400Y45300D01*
X42759Y55401D02*
Y55866D01*
X42758Y55867D02*
X42759Y55866D01*
X20588Y26863D02*
Y26893D01*
X19991Y27490D02*
X20588Y26893D01*
X19991Y27490D02*
Y27490D01*
X20588Y26863D02*
X21176Y27451D01*
X30325Y10900D02*
Y11500D01*
X30325Y11500D02*
Y12400D01*
D21*
X6675Y58050D02*
X6738D01*
X6938Y58250D01*
X8350D01*
X6955Y59250D02*
X8350D01*
X6838Y59367D02*
X6955Y59250D01*
X6744Y59367D02*
X6838D01*
X56069Y34619D02*
X56479Y35029D01*
X54281Y50419D02*
X56479Y48221D01*
Y35029D02*
Y48221D01*
X54408Y50725D02*
X56785Y48348D01*
Y34902D02*
Y48348D01*
X56375Y34492D02*
X56785Y34902D01*
X56375Y21478D02*
Y34492D01*
X56069Y21351D02*
Y34619D01*
Y21351D02*
X63545Y13875D01*
X56375Y21478D02*
X63672Y14181D01*
X63545Y13875D02*
X64892D01*
X65373Y14356D02*
X65658D01*
X65702Y14400D01*
X64765Y14181D02*
X64994Y14409D01*
X63672Y14181D02*
X64765D01*
X64994Y14409D02*
Y14719D01*
X64892Y13875D02*
X65373Y14356D01*
X64994Y14719D02*
X65025Y14750D01*
X41478Y50725D02*
X54408D01*
X41478Y50419D02*
X54281D01*
X32550Y55600D02*
Y65236D01*
X34414Y67100D01*
X41330Y50271D02*
X41478Y50419D01*
X41250Y50271D02*
X41330D01*
X41250Y50873D02*
X41330D01*
X41478Y50725D01*
D32*
X42799Y58355D02*
D03*
X44051D02*
D03*
X42799Y61115D02*
D03*
X44051D02*
D03*
X7026Y42600D02*
D03*
X5774D02*
D03*
X7208Y48602D02*
D03*
X8459D02*
D03*
D47*
X45525Y61299D02*
D03*
Y62551D02*
D03*
X49012Y61321D02*
D03*
Y62572D02*
D03*
X47525Y61321D02*
D03*
Y62572D02*
D03*
D50*
X7127Y44800D02*
D03*
X5673D02*
D03*
D66*
X64369Y23857D02*
D03*
X65255Y22971D02*
D03*
X67808Y32163D02*
D03*
X66922Y33049D02*
D03*
X26238Y14645D02*
D03*
X25352Y15531D02*
D03*
X31343Y18457D02*
D03*
X30457Y19343D02*
D03*
D67*
X63432Y22920D02*
D03*
X64318Y22034D02*
D03*
X68745Y33101D02*
D03*
X67859Y33986D02*
D03*
X27175Y15583D02*
D03*
X26290Y16468D02*
D03*
X30393Y17507D02*
D03*
X29507Y18393D02*
D03*
X25957Y22053D02*
D03*
X26842Y21168D02*
D03*
D68*
X28633Y17467D02*
D03*
X29517Y16583D02*
D03*
X27725Y22053D02*
D03*
X26841Y22937D02*
D03*
D74*
X65667Y31931D02*
D03*
X64782Y31046D02*
D03*
X74612Y25239D02*
D03*
X75497Y26124D02*
D03*
X67920Y13504D02*
D03*
X68805Y14389D02*
D03*
X61625Y26059D02*
D03*
X60740Y25174D02*
D03*
X22707Y22957D02*
D03*
X23593Y23843D02*
D03*
D76*
X89050Y43300D02*
D03*
X88400Y43300D02*
D03*
X85875Y43300D02*
D03*
X85225Y43300D02*
D03*
X80775Y43300D02*
D03*
X81425D02*
D03*
X78300Y47400D02*
D03*
X77650Y47400D02*
D03*
X75700Y43300D02*
D03*
X75050D02*
D03*
D150*
X9000Y43700D02*
D03*
X3920D02*
D03*
Y48780D02*
D03*
X11540D02*
D03*
D159*
X68261Y28000D02*
D03*
X71518Y30303D02*
D03*
D160*
X98700Y6600D02*
D03*
X6700Y68100D02*
D03*
D161*
X76012Y32399D02*
X79711Y28700D01*
X75810Y32399D02*
X76012D01*
X75808Y32402D02*
X75810Y32399D01*
X75101D02*
X75104Y32402D01*
X75808D01*
X79711Y28700D02*
X83125D01*
X79737Y28100D02*
X82574D01*
X75600Y31900D02*
X75603Y31897D01*
X75940D01*
X79737Y28100D01*
X38599Y66299D02*
X43049D01*
X45250Y68500D02*
X69983D01*
X43049Y66299D02*
X45250Y68500D01*
X14405Y18593D02*
X16973Y16025D01*
X22675D02*
X23175Y16525D01*
X16973Y16025D02*
X22675D01*
X17715Y16700D02*
X22600D01*
X15100Y19315D02*
X17715Y16700D01*
X22600D02*
X23450Y17550D01*
X15100Y19315D02*
Y24525D01*
X10875Y28750D02*
X15100Y24525D01*
X16425Y15375D02*
X22780D01*
X13500Y18300D02*
Y23800D01*
Y18300D02*
X16425Y15375D01*
X10225Y27075D02*
X13500Y23800D01*
X10790Y27990D02*
X10825Y28025D01*
X10517Y27990D02*
X10790D01*
X10225Y27697D02*
X10517Y27990D01*
X36700Y54702D02*
Y64000D01*
X37779Y65079D02*
Y65488D01*
X36700Y64000D02*
X37779Y65079D01*
X38392Y66102D02*
X38402D01*
X38599Y66299D01*
X37779Y65488D02*
X38392Y66102D01*
X42421Y54475D02*
X52275D01*
X64747Y66947D02*
Y67338D01*
X52275Y54475D02*
X64747Y66947D01*
X46614Y65576D02*
X48376Y67338D01*
X58446D01*
X46281Y65931D02*
X48250Y67900D01*
X41331Y65931D02*
X46281D01*
X67383Y67900D02*
X68021Y67263D01*
X48250Y67900D02*
X67383D01*
X29083Y52383D02*
X34883D01*
X21074Y44374D02*
X29083Y52383D01*
X15174Y44374D02*
X21074D01*
X13092Y43301D02*
X15391Y45600D01*
X20558D02*
X27697Y52738D01*
X15391Y45600D02*
X20558D01*
X35600Y46300D02*
Y50375D01*
X24600Y35300D02*
X35600Y46300D01*
X23025Y35300D02*
X24600D01*
X25950Y34750D02*
X26942Y35742D01*
X32325D01*
X39348Y41848D02*
Y44886D01*
X39400Y44938D02*
Y51454D01*
X30726Y33226D02*
X39348Y41848D01*
Y44886D02*
X39400Y44938D01*
Y51454D02*
X42421Y54475D01*
X37225Y27100D02*
Y28525D01*
X36500Y29250D02*
X37225Y28525D01*
X29625Y25358D02*
Y25425D01*
Y25358D02*
X29867Y25116D01*
X34234D01*
X34694Y16525D02*
X35169Y16050D01*
X31050Y16525D02*
X34694D01*
X40000Y49200D02*
X43000D01*
X43600Y49800D02*
X54017D01*
X43000Y49200D02*
X43600Y49800D01*
X34883Y52383D02*
X37100Y54600D01*
Y60366D01*
X27697Y52738D02*
X34736D01*
X36700Y54702D01*
X38622Y64022D02*
X39422D01*
X41331Y65931D01*
X39117Y62755D02*
X41938Y65576D01*
X39117Y55263D02*
Y62755D01*
X41938Y65576D02*
X46614D01*
X54017Y49800D02*
X54300Y49517D01*
Y30044D02*
Y49517D01*
X87675Y43300D02*
X88400D01*
X22343Y37443D02*
X24100Y39200D01*
X26025D02*
X32451Y45626D01*
X24100Y39200D02*
X26025D01*
X22343Y36626D02*
Y37443D01*
X9650Y58250D02*
Y59250D01*
X67570Y30903D02*
X68053Y30420D01*
Y30306D02*
Y30420D01*
X68425Y16338D02*
X69491Y15271D01*
X68425Y16338D02*
Y17875D01*
X37081Y60384D02*
Y62400D01*
X37100Y62500D02*
X38622Y64022D01*
X37081Y62400D02*
X37100Y62419D01*
Y62500D01*
X37081Y60384D02*
X37100Y60366D01*
X22700Y40525D02*
X26200D01*
X18900Y36725D02*
X22700Y40525D01*
X26200D02*
X26250Y40475D01*
X19866Y35800D02*
X21625D01*
X22675Y34750D01*
X25950D01*
X31145Y16687D02*
X33483Y19025D01*
X36125D02*
X53125Y36025D01*
X33483Y19025D02*
X33963D01*
X34437D02*
X36125D01*
X33963D02*
X33991Y19053D01*
X34409D01*
X34437Y19025D01*
X35600Y50375D02*
X35625Y50400D01*
X34234Y25116D02*
X37200Y22150D01*
X29480Y52028D02*
X33696D01*
X10050Y35325D02*
X12777D01*
X29480Y52028D01*
X30375Y51445D02*
Y51525D01*
X30101Y51171D02*
X30375Y51445D01*
X33696Y52028D02*
X34725Y51000D01*
X30101Y50671D02*
Y51171D01*
X30076Y50646D02*
X30101Y50671D01*
X30076Y50496D02*
Y50646D01*
X10225Y27075D02*
Y27697D01*
X53125Y36025D02*
Y49150D01*
X76443Y10243D02*
X76500Y10300D01*
X76243Y10243D02*
X76443D01*
X74999Y8999D02*
X76243Y10243D01*
X74999Y8193D02*
Y8999D01*
X26466Y46885D02*
X30076Y50496D01*
X31050Y16525D02*
X31178Y16653D01*
X32451Y45626D02*
Y49001D01*
X19495Y35429D02*
X19866Y35800D01*
X13202Y34775D02*
X15152Y36725D01*
X6535Y35340D02*
X7100Y34775D01*
X13202D01*
X31875Y22950D02*
X31955D01*
X32489Y22636D02*
X34750Y20375D01*
X32269Y22636D02*
X32489D01*
X31955Y22950D02*
X32269Y22636D01*
X32675Y23575D02*
X35425Y20825D01*
X31425Y23425D02*
X31505D01*
X31655Y23575D02*
X32675D01*
X31505Y23425D02*
X31655Y23575D01*
X30975Y23950D02*
X31032Y24007D01*
X31237D01*
X31255Y24025D01*
X33922Y24454D02*
X36625Y21750D01*
X30454Y24454D02*
X33922D01*
X30425Y24425D02*
X30454Y24454D01*
X31255Y24025D02*
X33350D01*
X36050Y21325D01*
X62904Y29329D02*
X62925D01*
X62275Y28700D02*
X62904Y29329D01*
X62275Y28700D02*
X62275D01*
X63200Y27875D02*
X63739Y28414D01*
X64174D01*
X22780Y15375D02*
X24125Y16720D01*
Y16800D01*
X25200Y6375D02*
X26725Y7900D01*
Y9400D01*
X31600Y10950D02*
Y16000D01*
X30975Y10325D02*
X31600Y10950D01*
X21912Y10325D02*
X30975D01*
X10825Y18000D02*
X18500Y10325D01*
X21488D01*
X21491Y10328D02*
X21909D01*
X21912Y10325D01*
X21488D02*
X21491Y10328D01*
X31600Y16000D02*
X32193D01*
X33668Y14525D01*
X69912Y15275D02*
X76175D01*
X69491Y15271D02*
X69909D01*
X76175Y15275D02*
X85860Y24960D01*
X69909Y15271D02*
X69912Y15275D01*
X71750Y10350D02*
X71800D01*
X69650Y8250D02*
X71750Y10350D01*
X73750Y33050D02*
X73800Y33000D01*
X73750Y33050D02*
Y47325D01*
X74825Y48400D01*
X12773Y42350D02*
X13150D01*
X15174Y44374D01*
X69983Y68500D02*
X71248Y67236D01*
X38975Y39150D02*
X40450Y40625D01*
X38975Y36475D02*
Y39150D01*
X40450Y40625D02*
X43300D01*
X46750Y44075D01*
X22296Y36579D02*
X22343Y36626D01*
X77774Y47184D02*
Y47302D01*
Y47184D02*
X77774Y47183D01*
X77757Y46822D02*
X77774Y46840D01*
Y47183D01*
X77675Y47400D02*
X77774Y47302D01*
X77650Y47400D02*
X77675D01*
X78240Y45300D02*
X78300Y45360D01*
Y47900D01*
X15152Y36725D02*
X18900D01*
X32451Y49001D02*
X33900Y50450D01*
X77270Y6095D02*
Y9220D01*
X78325Y10275D02*
X78875D01*
X77270Y9220D02*
X78325Y10275D01*
X67188Y8688D02*
X68800Y10300D01*
X67188Y7518D02*
Y8688D01*
X68800Y10300D02*
X69375D01*
X67028Y29225D02*
X68253Y28000D01*
X64174Y28414D02*
X64533Y28054D01*
X89050Y43850D02*
X89050Y43850D01*
X89050Y43300D02*
Y43850D01*
X85225Y43300D02*
Y43800D01*
X81425Y43825D02*
X81425Y43825D01*
X81425Y43300D02*
Y43825D01*
X75050Y43700D02*
X75134Y43784D01*
X75050Y43300D02*
Y43700D01*
X33668Y14525D02*
X38781D01*
X54300Y30044D01*
X46750Y44075D02*
Y46250D01*
X46575Y33825D02*
X48175D01*
X49350Y35000D01*
X64100Y27550D02*
X64150D01*
X64737Y26962D01*
Y26962D02*
Y26962D01*
X64150Y26400D02*
X64712Y26962D01*
X64737D01*
X65263D02*
X65600Y26625D01*
X64737Y26962D02*
X65263D01*
X68053Y30303D02*
X68103D01*
X68650Y30850D01*
X68400Y29350D02*
Y29376D01*
X68053Y29723D02*
X68400Y29376D01*
X68053Y29723D02*
Y30303D01*
X70911Y28800D02*
X71518Y28193D01*
X71518D01*
X70975Y27600D02*
Y27649D01*
X71518Y28193D02*
Y28193D01*
X70975Y27649D02*
X71518Y28193D01*
X40450Y32450D02*
X40463Y32438D01*
X41912D01*
X41925Y32425D01*
X30325Y11500D02*
X30325Y11500D01*
X34725Y50425D02*
Y51000D01*
X10825Y18000D02*
Y24575D01*
X35169Y16050D02*
X38475D01*
X14405Y18593D02*
Y23720D01*
X10825Y27300D02*
X14405Y23720D01*
X84900Y25925D02*
Y36850D01*
X80775Y40975D02*
X84900Y36850D01*
X80775Y40975D02*
Y43300D01*
X83900Y27000D02*
Y36100D01*
X76025Y41925D02*
X78075D01*
X83900Y36100D01*
X85860Y24960D02*
Y43300D01*
X87675Y42625D02*
X88400D01*
X88400Y42625D01*
Y43300D01*
X74825Y48400D02*
X77800D01*
X78300Y47900D01*
X75700Y42250D02*
Y43300D01*
Y42250D02*
X76025Y41925D01*
X77550Y20650D02*
X83900Y27000D01*
X74675Y20650D02*
X77550D01*
X69700Y15775D02*
X74750D01*
X84900Y25925D01*
X85860Y43300D02*
Y45300D01*
X75700Y43300D02*
Y45300D01*
X75700Y43300D02*
X75700Y43300D01*
X80780Y43305D02*
Y45300D01*
X80775Y43300D02*
X80780Y43305D01*
X84890Y9865D02*
X85300Y10275D01*
X84890Y6095D02*
Y9865D01*
X83094Y9669D02*
Y10294D01*
X82077Y8653D02*
X83094Y9669D01*
Y10294D02*
X83100Y10300D01*
X82077Y7477D02*
Y8653D01*
X81080Y6480D02*
X82077Y7477D01*
X81080Y4190D02*
Y6480D01*
X79751Y7676D02*
Y9226D01*
X80900Y10375D01*
X78540Y4190D02*
X78550Y4200D01*
Y6475D01*
X79751Y7676D01*
X73460Y6654D02*
X74999Y8193D01*
X73460Y4190D02*
Y6654D01*
X72125Y7650D02*
Y8525D01*
X73900Y10300D01*
X69650Y6095D02*
Y8250D01*
X66271Y10196D02*
X66275Y10200D01*
X64675Y9125D02*
X65745Y10196D01*
X66271D01*
X41700Y7431D02*
Y9075D01*
X42950Y10325D01*
X39150Y6115D02*
Y9475D01*
X39975Y10300D01*
X46225Y10300D02*
X46402D01*
X46216Y10291D02*
X46225Y10300D01*
X45891Y10291D02*
X46216D01*
X44300Y8700D02*
X45891Y10291D01*
X47450Y9375D02*
X48587D01*
X49525Y10313D01*
X49350Y7750D02*
Y8425D01*
X51334Y10409D01*
X53325Y10300D02*
X53957D01*
X51925Y8900D02*
X53325Y10300D01*
X54410Y8685D02*
X56025Y10300D01*
X56783D01*
X58200D02*
X58826D01*
X56637Y8737D02*
X58200Y10300D01*
X61173D02*
X61737D01*
X59450Y8577D02*
X61173Y10300D01*
X62030Y6095D02*
Y8780D01*
X63577Y10327D01*
X64675Y7800D02*
Y9125D01*
X58220Y6570D02*
X59450Y7800D01*
Y8577D01*
X40375Y6106D02*
X41700Y7431D01*
X40375Y4255D02*
Y6106D01*
Y4255D02*
X40440Y4190D01*
X42980Y6171D02*
X44300Y7491D01*
Y8700D01*
X42980Y4190D02*
Y6171D01*
X46825Y8750D02*
X47450Y9375D01*
X46825Y6130D02*
Y8750D01*
X46790Y6095D02*
X46825Y6130D01*
X70950Y6475D02*
X72125Y7650D01*
X70920Y4190D02*
X70950Y4220D01*
Y6475D01*
X65800Y4230D02*
X65840Y4190D01*
X63275Y4215D02*
X63300Y4190D01*
X63275Y4215D02*
Y6400D01*
X39150Y6115D02*
X39170Y6095D01*
X48060Y4190D02*
X48075Y4205D01*
X50625Y6475D02*
X51925Y7775D01*
X50600Y4190D02*
Y5185D01*
X50625Y5210D01*
Y6475D01*
X54410Y6095D02*
Y8685D01*
X55680Y6430D02*
X56637Y7387D01*
X55680Y4190D02*
Y6430D01*
X58220Y4190D02*
Y6570D01*
X36575Y7625D02*
Y9050D01*
X37175Y9650D01*
X48075Y6475D02*
X49350Y7750D01*
X48075Y4205D02*
Y6475D01*
X65800Y4230D02*
Y6131D01*
X67188Y7518D01*
X63275Y6400D02*
X64675Y7800D01*
X56637Y7387D02*
Y8737D01*
X51925Y7775D02*
Y8900D01*
X35360Y6410D02*
X36575Y7625D01*
X35360Y4190D02*
Y6410D01*
X34409Y7759D02*
Y9267D01*
X34375Y9300D02*
X34409Y9267D01*
X32820Y6171D02*
X34409Y7759D01*
X32820Y4190D02*
Y6171D01*
X29397Y9322D02*
X29850Y9775D01*
X29097Y9322D02*
X29397D01*
X28691Y8917D02*
X29097Y9322D01*
X28691Y7396D02*
Y8917D01*
X27740Y6444D02*
X28691Y7396D01*
X27740Y4190D02*
Y6444D01*
X25200Y4190D02*
Y6375D01*
X21700Y8229D02*
Y9825D01*
X20100Y6629D02*
X21700Y8229D01*
X20100Y4190D02*
Y6629D01*
D166*
X97300Y67300D02*
D03*
X2700Y2700D02*
D03*
X97300Y2700D02*
D03*
D167*
X92510Y2285D02*
D03*
X7420D02*
D03*
D168*
X87430D02*
D03*
X86160Y4190D02*
D03*
X84890Y2285D02*
D03*
X83620Y4190D02*
D03*
X82350Y2285D02*
D03*
X81080Y4190D02*
D03*
X79810Y2285D02*
D03*
X78540Y4190D02*
D03*
X77270Y2285D02*
D03*
X76000Y4190D02*
D03*
X74730Y2285D02*
D03*
X73460Y4190D02*
D03*
X72190Y2285D02*
D03*
X70920Y4190D02*
D03*
X69650Y2285D02*
D03*
X68380Y4190D02*
D03*
X67110Y2285D02*
D03*
X65840Y4190D02*
D03*
X64570Y2285D02*
D03*
X63300Y4190D02*
D03*
X62030Y2285D02*
D03*
X60760Y4190D02*
D03*
X59490Y2285D02*
D03*
X58220Y4190D02*
D03*
X56950Y2285D02*
D03*
X55680Y4190D02*
D03*
X54410Y2285D02*
D03*
X53140Y4190D02*
D03*
X51870Y2285D02*
D03*
X50600Y4190D02*
D03*
X49330Y2285D02*
D03*
X48060Y4190D02*
D03*
X46790Y2285D02*
D03*
X45520Y4190D02*
D03*
X44250Y2285D02*
D03*
X42980Y4190D02*
D03*
X41710Y2285D02*
D03*
X40440Y4190D02*
D03*
X39170Y2285D02*
D03*
X37900Y4190D02*
D03*
X36630Y2285D02*
D03*
X35360Y4190D02*
D03*
X34090Y2285D02*
D03*
X32820Y4190D02*
D03*
X31550Y2285D02*
D03*
X30280Y4190D02*
D03*
X27740D02*
D03*
X26470Y2285D02*
D03*
X25200Y4190D02*
D03*
X23930Y2285D02*
D03*
X22660Y4190D02*
D03*
X21390Y2285D02*
D03*
X20120Y4190D02*
D03*
X18850Y2285D02*
D03*
X17580Y4190D02*
D03*
X16310Y2285D02*
D03*
X15040Y4190D02*
D03*
X13770Y2285D02*
D03*
X12500Y4190D02*
D03*
X87430Y6095D02*
D03*
X86160Y8000D02*
D03*
X84890Y6095D02*
D03*
X83620Y8000D02*
D03*
X82350Y6095D02*
D03*
X81080Y8000D02*
D03*
X79810Y6095D02*
D03*
X78540Y8000D02*
D03*
X77270Y6095D02*
D03*
X76000Y8000D02*
D03*
X74730Y6095D02*
D03*
X73460Y8000D02*
D03*
X72190Y6095D02*
D03*
X70920Y8000D02*
D03*
X69650Y6095D02*
D03*
X68380Y8000D02*
D03*
X67110Y6095D02*
D03*
X65840Y8000D02*
D03*
X64570Y6095D02*
D03*
X63300Y8000D02*
D03*
X62030Y6095D02*
D03*
X60760Y8000D02*
D03*
X59490Y6095D02*
D03*
X58220Y8000D02*
D03*
X56950Y6095D02*
D03*
X55680Y8000D02*
D03*
X54410Y6095D02*
D03*
X53140Y8000D02*
D03*
X51870Y6095D02*
D03*
X50600Y8000D02*
D03*
X49330Y6095D02*
D03*
X48060Y8000D02*
D03*
X46790Y6095D02*
D03*
X45520Y8000D02*
D03*
X44250Y6095D02*
D03*
X42980Y8000D02*
D03*
X41710Y6095D02*
D03*
X40440Y8000D02*
D03*
X39170Y6095D02*
D03*
X37900Y8000D02*
D03*
X36630Y6095D02*
D03*
X35360Y8000D02*
D03*
X34090Y6095D02*
D03*
X32820Y8000D02*
D03*
X31550Y6095D02*
D03*
X29010D02*
D03*
X27740Y8000D02*
D03*
X26470Y6095D02*
D03*
X25200Y8000D02*
D03*
X23930Y6095D02*
D03*
X22660Y8000D02*
D03*
X21390Y6095D02*
D03*
X20120Y8000D02*
D03*
X18850Y6095D02*
D03*
X17580Y8000D02*
D03*
X16310Y6095D02*
D03*
X15040Y8000D02*
D03*
X13770Y6095D02*
D03*
X29010Y2285D02*
D03*
X30280Y8000D02*
D03*
D169*
X12500D02*
D03*
D170*
X34414Y67100D02*
D03*
X64290Y45200D02*
D03*
D171*
X26794Y67100D02*
D03*
X71910Y45200D02*
D03*
D172*
X75700Y45300D02*
D03*
X78240D02*
D03*
X80780D02*
D03*
X83320D02*
D03*
X85860D02*
D03*
D173*
X88400D02*
D03*
D174*
X6850Y62995D02*
D03*
Y54355D02*
D03*
D175*
X6200Y54655D02*
D03*
Y62695D02*
D03*
D176*
X1800Y62995D02*
D03*
Y54355D02*
D03*
D177*
X48925Y60525D02*
D03*
X41750Y56700D02*
D03*
X67333Y12929D02*
D03*
X66375Y13875D02*
D03*
X78231Y31218D02*
D03*
X15726Y34075D02*
D03*
X18075Y41625D02*
D03*
X41100Y62256D02*
D03*
X49450Y60090D02*
D03*
X47525Y60541D02*
D03*
X44797Y59065D02*
D03*
X44800Y60690D02*
D03*
X44900Y56300D02*
D03*
X44375Y55875D02*
D03*
X48025Y55916D02*
D03*
X48696D02*
D03*
X68100Y19350D02*
D03*
X66725Y20775D02*
D03*
X65625Y21800D02*
D03*
X69575Y25375D02*
D03*
X68425Y24208D02*
D03*
X67150Y22975D02*
D03*
X71175Y23825D02*
D03*
X70025Y22658D02*
D03*
X68750Y21425D02*
D03*
X70125Y20000D02*
D03*
X71400Y21233D02*
D03*
X72550Y22400D02*
D03*
X22316Y32068D02*
D03*
X37225Y41900D02*
D03*
X41791Y36155D02*
D03*
X43024D02*
D03*
X43900D02*
D03*
X39700Y37100D02*
D03*
X76550Y32800D02*
D03*
X80010Y36664D02*
D03*
X77812Y34088D02*
D03*
X78300Y38300D02*
D03*
X76600Y38400D02*
D03*
X20201Y23200D02*
D03*
X16900Y22700D02*
D03*
X3800Y35700D02*
D03*
X4500Y38950D02*
D03*
X40000Y49200D02*
D03*
X54026Y58500D02*
D03*
X15599Y47700D02*
D03*
X22150Y42700D02*
D03*
X23525Y42687D02*
D03*
X34725Y44600D02*
D03*
X37239Y44666D02*
D03*
X37900Y45700D02*
D03*
X33800Y58125D02*
D03*
X37174Y53574D02*
D03*
X38100Y54200D02*
D03*
X48827Y52163D02*
D03*
Y53539D02*
D03*
X18075Y38900D02*
D03*
X44900Y56975D02*
D03*
X42759Y55401D02*
D03*
X51512Y61813D02*
D03*
X23800Y21600D02*
D03*
X23100Y22300D02*
D03*
X67570Y30903D02*
D03*
X35312Y54865D02*
D03*
X75723Y25186D02*
D03*
X19991Y27490D02*
D03*
X65793Y15863D02*
D03*
X68575Y34688D02*
D03*
X17858Y23075D02*
D03*
X19376Y23260D02*
D03*
X31450Y61534D02*
D03*
Y62242D02*
D03*
X35273Y54204D02*
D03*
X38700Y47700D02*
D03*
X37900Y48400D02*
D03*
X41823Y67762D02*
D03*
X49900Y52000D02*
D03*
X29607Y54672D02*
D03*
X59375Y26850D02*
D03*
X6744Y59367D02*
D03*
X6725Y60025D02*
D03*
X6675Y58050D02*
D03*
X6750Y57250D02*
D03*
X50700Y52900D02*
D03*
X29625Y25425D02*
D03*
X30375Y51525D02*
D03*
X10825Y28025D02*
D03*
X10875Y28750D02*
D03*
X41233Y50950D02*
D03*
X53125Y49150D02*
D03*
X46075Y64625D02*
D03*
X76500Y10300D02*
D03*
X31050Y16525D02*
D03*
X31875Y22950D02*
D03*
X31425Y23425D02*
D03*
X30975Y23950D02*
D03*
X30425Y24425D02*
D03*
X70375Y50575D02*
D03*
X73375Y50625D02*
D03*
X64350D02*
D03*
X77757Y46822D02*
D03*
X69125Y43100D02*
D03*
X81425Y43825D02*
D03*
X85225Y43800D02*
D03*
X75134Y43784D02*
D03*
X88400Y42625D02*
D03*
X87675D02*
D03*
X89050Y43850D02*
D03*
X87675Y43300D02*
D03*
X54300Y49450D02*
D03*
X51924Y43319D02*
D03*
X50658Y42553D02*
D03*
X43900Y37100D02*
D03*
X31450Y60825D02*
D03*
Y59400D02*
D03*
X31500Y63450D02*
D03*
X30978Y55245D02*
D03*
X31600Y40510D02*
D03*
X32255D02*
D03*
X34725Y41800D02*
D03*
X40925Y39995D02*
D03*
X43450Y38900D02*
D03*
X41125Y38925D02*
D03*
X39850Y41900D02*
D03*
X42375Y38925D02*
D03*
X40975Y41175D02*
D03*
X40465Y36155D02*
D03*
X3308Y31304D02*
D03*
X2525Y29275D02*
D03*
X3300Y30075D02*
D03*
X8459Y34126D02*
D03*
X3450Y34125D02*
D03*
X18400Y34166D02*
D03*
X17400D02*
D03*
X32325Y35742D02*
D03*
X19575Y34450D02*
D03*
X54026Y64300D02*
D03*
X54808Y60717D02*
D03*
X40983Y68492D02*
D03*
X58446Y67338D02*
D03*
X54908Y62017D02*
D03*
X54933Y63442D02*
D03*
X54900Y59300D02*
D03*
X43850Y68375D02*
D03*
X40655Y43971D02*
D03*
X46750Y46250D02*
D03*
X38825Y46450D02*
D03*
X40696Y42699D02*
D03*
X39871Y44700D02*
D03*
X47900Y52875D02*
D03*
X49400Y58433D02*
D03*
X49367Y55916D02*
D03*
X46665Y58705D02*
D03*
X36100Y64513D02*
D03*
X35211Y58997D02*
D03*
X32550Y55600D02*
D03*
X35200Y55779D02*
D03*
X50707Y64975D02*
D03*
X51512Y61213D02*
D03*
X48400Y63600D02*
D03*
X47675Y63600D02*
D03*
X47486Y64300D02*
D03*
X49900Y65786D02*
D03*
X46595Y61310D02*
D03*
X44800Y61500D02*
D03*
X44797Y59757D02*
D03*
X43000Y67800D02*
D03*
X41923Y55948D02*
D03*
X41850Y57700D02*
D03*
X41750Y64538D02*
D03*
X41700Y60850D02*
D03*
X41000Y66800D02*
D03*
X44875Y63375D02*
D03*
X44844Y58352D02*
D03*
X32978Y53477D02*
D03*
X34125Y53300D02*
D03*
X33900Y50450D02*
D03*
X34725Y50425D02*
D03*
X35625Y50400D02*
D03*
X41250Y50271D02*
D03*
X39117Y55263D02*
D03*
X39850Y65575D02*
D03*
X38600Y65600D02*
D03*
X37583Y62192D02*
D03*
X37608Y59767D02*
D03*
X36958Y65342D02*
D03*
X37608Y61417D02*
D03*
X37600Y60575D02*
D03*
X34859Y48292D02*
D03*
X34225Y47675D02*
D03*
X33609Y47000D02*
D03*
X34859D02*
D03*
X33609Y48297D02*
D03*
X55056Y40010D02*
D03*
X55056Y42131D02*
D03*
X55056Y37728D02*
D03*
X69100Y41425D02*
D03*
X66350Y14975D02*
D03*
X67125Y17870D02*
D03*
X68425Y17875D02*
D03*
X69700Y15775D02*
D03*
X67075Y16250D02*
D03*
X65702Y14400D02*
D03*
X65025Y14750D02*
D03*
X63550Y10300D02*
D03*
X63200Y27875D02*
D03*
X64025Y31575D02*
D03*
X62550Y33650D02*
D03*
X63250Y30800D02*
D03*
X64100Y27550D02*
D03*
X65600Y26625D02*
D03*
X64150Y26400D02*
D03*
X65000Y32525D02*
D03*
X64533Y28054D02*
D03*
X69375Y10300D02*
D03*
X66275D02*
D03*
X71800Y10350D02*
D03*
X74764Y37064D02*
D03*
X69350Y32550D02*
D03*
X66975Y31750D02*
D03*
X68650Y30850D02*
D03*
X68400Y29350D02*
D03*
X70911Y28800D02*
D03*
X70975Y27600D02*
D03*
X72100Y26450D02*
D03*
X68975Y34200D02*
D03*
X81612Y35082D02*
D03*
X70700Y36950D02*
D03*
X74271Y34447D02*
D03*
X70125Y36425D02*
D03*
X68575Y36525D02*
D03*
X78536Y35166D02*
D03*
X62800Y23450D02*
D03*
X63750Y24450D02*
D03*
X63000Y22025D02*
D03*
X63575Y21391D02*
D03*
X65075Y24325D02*
D03*
X75300Y24725D02*
D03*
X78400Y23575D02*
D03*
X74850Y28425D02*
D03*
X78225Y24325D02*
D03*
X73050Y25575D02*
D03*
X76550Y30100D02*
D03*
Y26000D02*
D03*
X74000Y24650D02*
D03*
X74675Y20650D02*
D03*
X85300Y10275D02*
D03*
X78875Y10300D02*
D03*
X83100D02*
D03*
X80900D02*
D03*
X73900D02*
D03*
X82414Y32486D02*
D03*
X83125Y28700D02*
D03*
X82574Y28100D02*
D03*
X80935Y31174D02*
D03*
X75600Y31900D02*
D03*
X75100Y32400D02*
D03*
X73800Y33000D02*
D03*
X62275Y28700D02*
D03*
X57925Y28850D02*
D03*
X49350Y35000D02*
D03*
X61800Y33700D02*
D03*
X46575Y33825D02*
D03*
X62325Y29950D02*
D03*
X61750Y33025D02*
D03*
X34632Y26228D02*
D03*
X35611Y26766D02*
D03*
X37225Y27100D02*
D03*
X34029Y25619D02*
D03*
X38475Y16050D02*
D03*
X39975Y10300D02*
D03*
X31600Y16000D02*
D03*
X37175Y9650D02*
D03*
X34375Y9300D02*
D03*
X37200Y22150D02*
D03*
X36625Y21750D02*
D03*
X36050Y21325D02*
D03*
X35425Y20825D02*
D03*
X34750Y20375D02*
D03*
X38471Y19060D02*
D03*
X39675Y19014D02*
D03*
X61275Y27575D02*
D03*
X57075Y28225D02*
D03*
X59825Y27450D02*
D03*
X62050Y25300D02*
D03*
X61725Y19550D02*
D03*
X62225Y26675D02*
D03*
X35650Y28075D02*
D03*
X36500Y29250D02*
D03*
X41925Y32425D02*
D03*
X40450Y32450D02*
D03*
X42925Y10300D02*
D03*
X46225D02*
D03*
X58826D02*
D03*
X56725D02*
D03*
X53900D02*
D03*
X51225D02*
D03*
X49525Y10313D02*
D03*
X61675Y10300D02*
D03*
X19465Y18115D02*
D03*
X18188Y17970D02*
D03*
X26725Y9400D02*
D03*
X21700Y9825D02*
D03*
X5925Y22825D02*
D03*
X5133Y23879D02*
D03*
X10825Y27300D02*
D03*
Y24575D02*
D03*
X23057Y33973D02*
D03*
X24533Y32704D02*
D03*
X21600Y32766D02*
D03*
X21224Y33869D02*
D03*
X21176Y27451D02*
D03*
X20288Y33869D02*
D03*
X28000Y18100D02*
D03*
X27475Y20575D02*
D03*
X27786Y19403D02*
D03*
X26975Y17175D02*
D03*
X27900Y14550D02*
D03*
X7505Y34025D02*
D03*
X19324Y33850D02*
D03*
X14700Y35375D02*
D03*
X12263Y33765D02*
D03*
X9858Y34004D02*
D03*
X6300Y33900D02*
D03*
X3866Y32737D02*
D03*
X16800Y32700D02*
D03*
X10325Y31400D02*
D03*
X11408Y32729D02*
D03*
X9296Y32725D02*
D03*
X15650Y31450D02*
D03*
X21015Y18818D02*
D03*
X17858Y20679D02*
D03*
X17124Y21335D02*
D03*
X19603Y19077D02*
D03*
X25575Y26950D02*
D03*
X27462Y28793D02*
D03*
X26459Y27841D02*
D03*
X26225Y20550D02*
D03*
X22256Y21676D02*
D03*
X22514Y20580D02*
D03*
X26250Y17725D02*
D03*
X24410Y19393D02*
D03*
X25225Y22725D02*
D03*
X24125Y16800D02*
D03*
X23450Y17550D02*
D03*
X23175Y16525D02*
D03*
X24800Y23150D02*
D03*
X62971Y67338D02*
D03*
X30325Y11500D02*
D03*
X29850Y9775D02*
D03*
X30325Y10900D02*
D03*
X61100Y50625D02*
D03*
X59821Y67338D02*
D03*
X28350Y21400D02*
D03*
X38975Y36475D02*
D03*
X71248Y67338D02*
D03*
X68021D02*
D03*
X64747D02*
D03*
X61596D02*
D03*
X29875Y19900D02*
D03*
X28925Y18975D02*
D03*
X30375Y14673D02*
D03*
X30400Y15550D02*
D03*
X5900Y26350D02*
D03*
X5000Y25350D02*
D03*
X3300Y27175D02*
D03*
X4400Y34150D02*
D03*
X2508Y22429D02*
D03*
Y13329D02*
D03*
X4474Y35021D02*
D03*
X5414Y34166D02*
D03*
X6641Y34483D02*
D03*
X2425Y28025D02*
D03*
X1558Y32754D02*
D03*
X2533Y19504D02*
D03*
X2500Y10100D02*
D03*
X74750Y53000D02*
D03*
X73725Y53800D02*
D03*
X76200Y52975D02*
D03*
X72623Y67338D02*
D03*
X69372D02*
D03*
X66122D02*
D03*
X22150Y38200D02*
D03*
X24200D02*
D03*
X26250Y40475D02*
D03*
X23758Y36704D02*
D03*
X22296Y36579D02*
D03*
X23025Y35300D02*
D03*
X24800Y36450D02*
D03*
X5458Y39529D02*
D03*
X1608Y35404D02*
D03*
X6535Y35340D02*
D03*
X7000Y37000D02*
D03*
X8550Y52925D02*
D03*
X10975Y61350D02*
D03*
X9700Y61400D02*
D03*
X10800Y52925D02*
D03*
X11025Y60075D02*
D03*
X11083Y38254D02*
D03*
X13092Y43301D02*
D03*
X9990Y36931D02*
D03*
X12773Y42350D02*
D03*
X10808Y36829D02*
D03*
X11809Y36309D02*
D03*
X10050Y35325D02*
D03*
X7600Y36600D02*
D03*
X8450Y36625D02*
D03*
X8899Y38204D02*
D03*
X9400Y36500D02*
D03*
X30500Y64475D02*
D03*
X29635Y61009D02*
D03*
X31400Y58500D02*
D03*
X31500Y64400D02*
D03*
X30500Y58500D02*
D03*
X19225Y65450D02*
D03*
X18300D02*
D03*
Y66225D02*
D03*
X18325Y64625D02*
D03*
X19225Y66250D02*
D03*
Y64625D02*
D03*
X29141Y48225D02*
D03*
Y47275D02*
D03*
X26466Y46885D02*
D03*
Y45924D02*
D03*
Y45010D02*
D03*
X29790Y45617D02*
D03*
X25610Y45021D02*
D03*
X24818Y45014D02*
D03*
X25715Y46906D02*
D03*
X29141Y46324D02*
D03*
X18975Y42687D02*
D03*
X20100Y39500D02*
D03*
X18800Y39300D02*
D03*
X20800Y39500D02*
D03*
X20291Y43764D02*
D03*
X8575Y62975D02*
D03*
X10850Y63475D02*
D03*
X10050Y63500D02*
D03*
X17252Y65416D02*
D03*
X16522Y66262D02*
D03*
X7623Y66815D02*
D03*
X15475Y62350D02*
D03*
Y63025D02*
D03*
X11700Y63500D02*
D03*
X10953Y66792D02*
D03*
X10110Y65705D02*
D03*
X10049Y64474D02*
D03*
X8450Y66100D02*
D03*
X8225Y64700D02*
D03*
X13776Y67046D02*
D03*
X17375Y62350D02*
D03*
X16875Y40950D02*
D03*
X16110Y47074D02*
D03*
X15975Y40950D02*
D03*
X17633Y47067D02*
D03*
X16875Y42350D02*
D03*
X15051Y40950D02*
D03*
X15050Y42350D02*
D03*
X15599Y46320D02*
D03*
X28258Y53829D02*
D03*
X30400Y53561D02*
D03*
X22154Y49841D02*
D03*
X18750Y49843D02*
D03*
X23850Y51000D02*
D03*
X18600Y53875D02*
D03*
X25610Y49841D02*
D03*
X17330Y54655D02*
D03*
X17325Y53875D02*
D03*
X20505Y51000D02*
D03*
X16800Y36000D02*
D03*
X20800Y36579D02*
D03*
X20035Y36938D02*
D03*
X17500Y35200D02*
D03*
X21527Y36825D02*
D03*
X19495Y35429D02*
D03*
X7550Y61925D02*
D03*
X6700Y55625D02*
D03*
X7700Y55275D02*
D03*
D179*
X9650Y59250D02*
D03*
X8350D02*
D03*
X9650Y58250D02*
D03*
X8350D02*
D03*
D180*
X20750Y24875D02*
D03*
X21600Y25725D02*
D03*
X72738Y27149D02*
D03*
X73587Y27998D02*
D03*
D181*
X68053Y30251D02*
D03*
X67028Y29225D02*
D03*
X64737Y26962D02*
D03*
X65763Y27988D02*
D03*
X71518Y28193D02*
D03*
X72543Y29218D02*
D03*
X19562Y25837D02*
D03*
X20588Y26863D02*
D03*
D182*
X30325Y13850D02*
D03*
X30325Y12400D02*
D03*
D183*
X42799Y56975D02*
D03*
X44051D02*
D03*
X42799Y63875D02*
D03*
X44051D02*
D03*
D184*
X50525Y61370D02*
D03*
Y62571D02*
D03*
D185*
X42824Y59760D02*
D03*
X44026D02*
D03*
X42824Y62520D02*
D03*
X44026D02*
D03*
D186*
X6783Y50902D02*
D03*
X8884D02*
D03*
D187*
X66605Y30995D02*
D03*
X65718Y30108D02*
D03*
X63790Y28461D02*
D03*
X64677Y29347D02*
D03*
X73674Y26176D02*
D03*
X74560Y27062D02*
D03*
X66982Y14441D02*
D03*
X67868Y15327D02*
D03*
X60689Y26997D02*
D03*
X59802Y26110D02*
D03*
X21732Y23907D02*
D03*
X22618Y24793D02*
D03*
D188*
X63809Y30212D02*
D03*
X62925Y29329D02*
D03*
M02*
