G04*
G04 #@! TF.GenerationSoftware,Altium Limited,Altium Designer,23.5.1 (21)*
G04*
G04 Layer_Color=16711935*
%FSLAX43Y43*%
%MOMM*%
G71*
G04*
G04 #@! TF.SameCoordinates,091AA0F9-E177-443C-B5AA-68A9A74CA1F2*
G04*
G04*
G04 #@! TF.FilePolarity,Positive*
G04*
G01*
G75*
%ADD11C,0.200*%
%ADD17C,0.152*%
%ADD193C,0.254*%
D11*
X0Y1295D02*
G03*
X1295Y0I1295J0D01*
G01*
X98705D02*
G03*
X100000Y1295I0J1295D01*
G01*
Y68705D02*
G03*
X98705Y70000I-1295J0D01*
G01*
X1295D02*
G03*
X0Y68705I0J-1295D01*
G01*
X1295Y0D02*
X98705D01*
X100000Y1295D02*
Y68705D01*
X1295Y70000D02*
X98705D01*
X0Y1295D02*
Y68705D01*
D17*
X-13790Y73713D02*
Y75236D01*
X-13028D01*
X-12774Y74982D01*
Y74474D01*
X-13028Y74220D01*
X-13790D01*
X-13282D02*
X-12774Y73713D01*
X-10743D02*
X-10235D01*
X-10489D01*
Y75236D01*
X-10743Y74982D01*
X-9473Y73713D02*
Y73966D01*
X-9219D01*
Y73713D01*
X-9473D01*
X-8204Y74982D02*
X-7950Y75236D01*
X-7442D01*
X-7188Y74982D01*
Y74728D01*
X-7442Y74474D01*
X-7696D01*
X-7442D01*
X-7188Y74220D01*
Y73966D01*
X-7442Y73713D01*
X-7950D01*
X-8204Y73966D01*
X-6680Y74982D02*
X-6426Y75236D01*
X-5918D01*
X-5664Y74982D01*
Y73966D01*
X-5918Y73713D01*
X-6426D01*
X-6680Y73966D01*
Y74982D01*
X-24409Y31166D02*
Y32181D01*
X-24155D01*
X-23140Y31166D01*
X-22886D01*
X-24155Y32689D02*
X-24409Y32943D01*
Y33451D01*
X-24155Y33705D01*
X-23140D01*
X-22886Y33451D01*
Y32943D01*
X-23140Y32689D01*
X-24155D01*
X-22886Y34213D02*
X-23140D01*
Y34467D01*
X-22886D01*
Y34213D01*
X-24155Y35482D02*
X-24409Y35736D01*
Y36244D01*
X-24155Y36498D01*
X-23140D01*
X-22886Y36244D01*
Y35736D01*
X-23140Y35482D01*
X-24155D01*
Y37006D02*
X-24409Y37260D01*
Y37768D01*
X-24155Y38021D01*
X-23140D01*
X-22886Y37768D01*
Y37260D01*
X-23140Y37006D01*
X-24155D01*
X45531Y98486D02*
X46039D01*
X45785D01*
Y100009D01*
X45531Y99755D01*
X46800D02*
X47054Y100009D01*
X47562D01*
X47816Y99755D01*
Y98740D01*
X47562Y98486D01*
X47054D01*
X46800Y98740D01*
Y99755D01*
X48324D02*
X48578Y100009D01*
X49086D01*
X49340Y99755D01*
Y98740D01*
X49086Y98486D01*
X48578D01*
X48324Y98740D01*
Y99755D01*
X49848Y98486D02*
Y98740D01*
X50101D01*
Y98486D01*
X49848D01*
X51117Y99755D02*
X51371Y100009D01*
X51879D01*
X52133Y99755D01*
Y98740D01*
X51879Y98486D01*
X51371D01*
X51117Y98740D01*
Y99755D01*
X52641D02*
X52895Y100009D01*
X53402D01*
X53656Y99755D01*
Y98740D01*
X53402Y98486D01*
X52895D01*
X52641Y98740D01*
Y99755D01*
D193*
X-1057Y70339D02*
X379Y69621D01*
X-339Y71057D02*
X379Y69621D01*
X-4627Y74627D02*
X379Y69621D01*
X-5106Y74627D02*
X-4627D01*
X-23800Y70000D02*
X-23292Y68476D01*
X-24308D02*
X-23800Y70000D01*
X-24308Y1524D02*
X-23800Y0D01*
X-23292Y1524D01*
X-23800Y38428D02*
Y70000D01*
Y0D02*
Y30759D01*
X-24054Y70000D02*
X941D01*
X-24054Y0D02*
X941D01*
X0Y99400D02*
X1524Y99908D01*
X0Y99400D02*
X1524Y98892D01*
X98476D02*
X100000Y99400D01*
X98476Y99908D02*
X100000Y99400D01*
X0D02*
X45125D01*
X54063D02*
X100000D01*
X0Y69059D02*
Y99654D01*
X100000Y69059D02*
Y99654D01*
M02*
