G04*
G04 #@! TF.GenerationSoftware,Altium Limited,Altium Designer,23.5.1 (21)*
G04*
G04 Layer_Color=16711935*
%FSLAX43Y43*%
%MOMM*%
G71*
G04*
G04 #@! TF.SameCoordinates,3CC85EA5-9251-4F65-83BD-490A156F9735*
G04*
G04*
G04 #@! TF.FilePolarity,Negative*
G04*
G01*
G75*
%ADD29R,0.807X0.858*%
%ADD47R,0.858X0.807*%
%ADD50R,0.958X0.912*%
G04:AMPARAMS|DCode=66|XSize=0.758mm|YSize=0.812mm|CornerRadius=0mm|HoleSize=0mm|Usage=FLASHONLY|Rotation=135.000|XOffset=0mm|YOffset=0mm|HoleType=Round|Shape=Rectangle|*
%AMROTATEDRECTD66*
4,1,4,0.555,0.019,-0.019,-0.555,-0.555,-0.019,0.019,0.555,0.555,0.019,0.0*
%
%ADD66ROTATEDRECTD66*%

G04:AMPARAMS|DCode=67|XSize=0.807mm|YSize=0.858mm|CornerRadius=0mm|HoleSize=0mm|Usage=FLASHONLY|Rotation=135.000|XOffset=0mm|YOffset=0mm|HoleType=Round|Shape=Rectangle|*
%AMROTATEDRECTD67*
4,1,4,0.589,0.018,-0.018,-0.589,-0.589,-0.018,0.018,0.589,0.589,0.018,0.0*
%
%ADD67ROTATEDRECTD67*%

G04:AMPARAMS|DCode=74|XSize=0.807mm|YSize=0.858mm|CornerRadius=0mm|HoleSize=0mm|Usage=FLASHONLY|Rotation=45.000|XOffset=0mm|YOffset=0mm|HoleType=Round|Shape=Rectangle|*
%AMROTATEDRECTD74*
4,1,4,0.018,-0.589,-0.589,0.018,-0.018,0.589,0.589,-0.018,0.018,-0.589,0.0*
%
%ADD74ROTATEDRECTD74*%

%ADD106C,0.750*%
G04:AMPARAMS|DCode=121|XSize=1mm|YSize=0.9mm|CornerRadius=0mm|HoleSize=0mm|Usage=FLASHONLY|Rotation=45.000|XOffset=0mm|YOffset=0mm|HoleType=Round|Shape=Rectangle|*
%AMROTATEDRECTD121*
4,1,4,-0.035,-0.672,-0.672,-0.035,0.035,0.672,0.672,0.035,-0.035,-0.672,0.0*
%
%ADD121ROTATEDRECTD121*%

%ADD126R,0.600X0.550*%
%ADD136C,2.000*%
%ADD146C,5.150*%
%ADD147C,3.450*%
%ADD148C,1.450*%
%ADD149R,1.450X1.450*%
%ADD150C,1.270*%
%ADD151C,0.150*%
%ADD152C,1.730*%
%ADD153R,1.730X1.730*%
%ADD154C,1.750*%
%ADD155R,1.750X1.750*%
%ADD156O,2.450X1.350*%
%ADD157O,1.150X1.650*%
%ADD158O,2.750X1.450*%
G04:AMPARAMS|DCode=177|XSize=0.905mm|YSize=0.906mm|CornerRadius=0mm|HoleSize=0mm|Usage=FLASHONLY|Rotation=225.000|XOffset=0mm|YOffset=0mm|HoleType=Round|Shape=Rectangle|*
%AMROTATEDRECTD177*
4,1,4,-0.000,0.640,0.640,-0.000,0.000,-0.640,-0.640,0.000,-0.000,0.640,0.0*
%
%ADD177ROTATEDRECTD177*%

%ADD180R,0.806X0.858*%
%ADD181R,0.906X0.905*%
%ADD182R,0.905X0.906*%
%ADD183R,1.703X2.606*%
G04:AMPARAMS|DCode=184|XSize=0.758mm|YSize=0.812mm|CornerRadius=0mm|HoleSize=0mm|Usage=FLASHONLY|Rotation=225.000|XOffset=0mm|YOffset=0mm|HoleType=Round|Shape=Rectangle|*
%AMROTATEDRECTD184*
4,1,4,-0.019,0.555,0.555,-0.019,0.019,-0.555,-0.555,0.019,-0.019,0.555,0.0*
%
%ADD184ROTATEDRECTD184*%

%ADD186R,0.750X0.950*%
%ADD187P,1.556X4X180.0*%
%ADD188R,1.100X1.100*%
G04:AMPARAMS|DCode=189|XSize=1mm|YSize=0.9mm|CornerRadius=0mm|HoleSize=0mm|Usage=FLASHONLY|Rotation=315.000|XOffset=0mm|YOffset=0mm|HoleType=Round|Shape=Rectangle|*
%AMROTATEDRECTD189*
4,1,4,-0.672,0.035,-0.035,0.672,0.672,-0.035,0.035,-0.672,-0.672,0.035,0.0*
%
%ADD189ROTATEDRECTD189*%

D29*
X42799Y58355D02*
D03*
X44051D02*
D03*
X42799Y61115D02*
D03*
X44051D02*
D03*
X7026Y42600D02*
D03*
X5774D02*
D03*
X7208Y48602D02*
D03*
X8459D02*
D03*
D47*
X45525Y61299D02*
D03*
Y62551D02*
D03*
X49012Y61321D02*
D03*
Y62572D02*
D03*
X47525Y61321D02*
D03*
Y62572D02*
D03*
D50*
X7127Y44800D02*
D03*
X5673D02*
D03*
D66*
X64369Y23857D02*
D03*
X65255Y22971D02*
D03*
X67808Y32163D02*
D03*
X66922Y33049D02*
D03*
X26238Y14645D02*
D03*
X25352Y15531D02*
D03*
X31343Y18457D02*
D03*
X30457Y19343D02*
D03*
D67*
X63432Y22920D02*
D03*
X64318Y22034D02*
D03*
X68745Y33101D02*
D03*
X67859Y33986D02*
D03*
X27175Y15583D02*
D03*
X26290Y16468D02*
D03*
X30393Y17507D02*
D03*
X29507Y18393D02*
D03*
X25957Y22053D02*
D03*
X26842Y21168D02*
D03*
D74*
X65667Y31931D02*
D03*
X64782Y31046D02*
D03*
X74612Y25239D02*
D03*
X75497Y26124D02*
D03*
X67920Y13504D02*
D03*
X68805Y14389D02*
D03*
X61625Y26059D02*
D03*
X60740Y25174D02*
D03*
X22707Y22957D02*
D03*
X23593Y23843D02*
D03*
D106*
X68261Y28000D02*
D03*
X71518Y30303D02*
D03*
D121*
X28633Y17467D02*
D03*
X29517Y16583D02*
D03*
X27725Y22053D02*
D03*
X26841Y22937D02*
D03*
D126*
X89050Y43300D02*
D03*
X88400Y43300D02*
D03*
X85875Y43300D02*
D03*
X85225Y43300D02*
D03*
X80775Y43300D02*
D03*
X81425D02*
D03*
X78300Y47400D02*
D03*
X77650Y47400D02*
D03*
X75700Y43300D02*
D03*
X75050D02*
D03*
D136*
X98700Y6600D02*
D03*
X6700Y68100D02*
D03*
D146*
X97300Y67300D02*
D03*
X2700Y2700D02*
D03*
X97300Y2700D02*
D03*
D147*
X92510Y2285D02*
D03*
X7420D02*
D03*
D148*
X87430D02*
D03*
X86160Y4190D02*
D03*
X84890Y2285D02*
D03*
X83620Y4190D02*
D03*
X82350Y2285D02*
D03*
X81080Y4190D02*
D03*
X79810Y2285D02*
D03*
X78540Y4190D02*
D03*
X77270Y2285D02*
D03*
X76000Y4190D02*
D03*
X74730Y2285D02*
D03*
X73460Y4190D02*
D03*
X72190Y2285D02*
D03*
X70920Y4190D02*
D03*
X69650Y2285D02*
D03*
X68380Y4190D02*
D03*
X67110Y2285D02*
D03*
X65840Y4190D02*
D03*
X64570Y2285D02*
D03*
X63300Y4190D02*
D03*
X62030Y2285D02*
D03*
X60760Y4190D02*
D03*
X59490Y2285D02*
D03*
X58220Y4190D02*
D03*
X56950Y2285D02*
D03*
X55680Y4190D02*
D03*
X54410Y2285D02*
D03*
X53140Y4190D02*
D03*
X51870Y2285D02*
D03*
X50600Y4190D02*
D03*
X49330Y2285D02*
D03*
X48060Y4190D02*
D03*
X46790Y2285D02*
D03*
X45520Y4190D02*
D03*
X44250Y2285D02*
D03*
X42980Y4190D02*
D03*
X41710Y2285D02*
D03*
X40440Y4190D02*
D03*
X39170Y2285D02*
D03*
X37900Y4190D02*
D03*
X36630Y2285D02*
D03*
X35360Y4190D02*
D03*
X34090Y2285D02*
D03*
X32820Y4190D02*
D03*
X31550Y2285D02*
D03*
X30280Y4190D02*
D03*
X27740D02*
D03*
X26470Y2285D02*
D03*
X25200Y4190D02*
D03*
X23930Y2285D02*
D03*
X22660Y4190D02*
D03*
X21390Y2285D02*
D03*
X20120Y4190D02*
D03*
X18850Y2285D02*
D03*
X17580Y4190D02*
D03*
X16310Y2285D02*
D03*
X15040Y4190D02*
D03*
X13770Y2285D02*
D03*
X12500Y4190D02*
D03*
X87430Y6095D02*
D03*
X86160Y8000D02*
D03*
X84890Y6095D02*
D03*
X83620Y8000D02*
D03*
X82350Y6095D02*
D03*
X81080Y8000D02*
D03*
X79810Y6095D02*
D03*
X78540Y8000D02*
D03*
X77270Y6095D02*
D03*
X76000Y8000D02*
D03*
X74730Y6095D02*
D03*
X73460Y8000D02*
D03*
X72190Y6095D02*
D03*
X70920Y8000D02*
D03*
X69650Y6095D02*
D03*
X68380Y8000D02*
D03*
X67110Y6095D02*
D03*
X65840Y8000D02*
D03*
X64570Y6095D02*
D03*
X63300Y8000D02*
D03*
X62030Y6095D02*
D03*
X60760Y8000D02*
D03*
X59490Y6095D02*
D03*
X58220Y8000D02*
D03*
X56950Y6095D02*
D03*
X55680Y8000D02*
D03*
X54410Y6095D02*
D03*
X53140Y8000D02*
D03*
X51870Y6095D02*
D03*
X50600Y8000D02*
D03*
X49330Y6095D02*
D03*
X48060Y8000D02*
D03*
X46790Y6095D02*
D03*
X45520Y8000D02*
D03*
X44250Y6095D02*
D03*
X42980Y8000D02*
D03*
X41710Y6095D02*
D03*
X40440Y8000D02*
D03*
X39170Y6095D02*
D03*
X37900Y8000D02*
D03*
X36630Y6095D02*
D03*
X35360Y8000D02*
D03*
X34090Y6095D02*
D03*
X32820Y8000D02*
D03*
X31550Y6095D02*
D03*
X29010D02*
D03*
X27740Y8000D02*
D03*
X26470Y6095D02*
D03*
X25200Y8000D02*
D03*
X23930Y6095D02*
D03*
X22660Y8000D02*
D03*
X21390Y6095D02*
D03*
X20120Y8000D02*
D03*
X18850Y6095D02*
D03*
X17580Y8000D02*
D03*
X16310Y6095D02*
D03*
X15040Y8000D02*
D03*
X13770Y6095D02*
D03*
X29010Y2285D02*
D03*
X30280Y8000D02*
D03*
D149*
X12500D02*
D03*
D150*
X9000Y43700D02*
D03*
X3920D02*
D03*
Y48780D02*
D03*
X11540D02*
D03*
D151*
X2700Y67300D02*
D03*
X4850Y62275D02*
D03*
X4915Y55075D02*
D03*
D152*
X34414Y67100D02*
D03*
X64290Y45200D02*
D03*
D153*
X26794Y67100D02*
D03*
X71910Y45200D02*
D03*
D154*
X75700Y45300D02*
D03*
X78240D02*
D03*
X80780D02*
D03*
X83320D02*
D03*
X85860D02*
D03*
D155*
X88400D02*
D03*
D156*
X6850Y62995D02*
D03*
Y54355D02*
D03*
D157*
X6200Y54655D02*
D03*
Y62695D02*
D03*
D158*
X1800Y62995D02*
D03*
Y54355D02*
D03*
D177*
X20750Y24875D02*
D03*
X21600Y25725D02*
D03*
X72738Y27149D02*
D03*
X73587Y27998D02*
D03*
D180*
X42799Y56975D02*
D03*
X44051D02*
D03*
X42799Y63875D02*
D03*
X44051D02*
D03*
D181*
X50525Y61370D02*
D03*
Y62571D02*
D03*
D182*
X42824Y59760D02*
D03*
X44026D02*
D03*
X42824Y62520D02*
D03*
X44026D02*
D03*
D183*
X6783Y50902D02*
D03*
X8884D02*
D03*
D184*
X66605Y30995D02*
D03*
X65718Y30108D02*
D03*
X63790Y28461D02*
D03*
X64677Y29347D02*
D03*
X73674Y26176D02*
D03*
X74560Y27062D02*
D03*
X66982Y14441D02*
D03*
X67868Y15327D02*
D03*
X60689Y26997D02*
D03*
X59802Y26110D02*
D03*
X21732Y23907D02*
D03*
X22618Y24793D02*
D03*
D186*
X9650Y59250D02*
D03*
X8350D02*
D03*
X9650Y58250D02*
D03*
X8350D02*
D03*
D187*
X68053Y30251D02*
D03*
X67028Y29225D02*
D03*
X64737Y26962D02*
D03*
X65763Y27988D02*
D03*
X71518Y28193D02*
D03*
X72543Y29218D02*
D03*
X19562Y25837D02*
D03*
X20588Y26863D02*
D03*
D188*
X30325Y13850D02*
D03*
X30325Y12400D02*
D03*
D189*
X63809Y30212D02*
D03*
X62925Y29329D02*
D03*
M02*
