G04*
G04 #@! TF.GenerationSoftware,Altium Limited,Altium Designer,23.5.1 (21)*
G04*
G04 Layer_Physical_Order=1*
G04 Layer_Color=255*
%FSLAX43Y43*%
%MOMM*%
G71*
G04*
G04 #@! TF.SameCoordinates,091AA0F9-E177-443C-B5AA-68A9A74CA1F2*
G04*
G04*
G04 #@! TF.FilePolarity,Positive*
G04*
G01*
G75*
%ADD11C,0.200*%
%ADD12C,0.400*%
%ADD15C,0.500*%
%ADD18C,1.000*%
%ADD21C,0.153*%
%ADD29R,0.800X0.200*%
%ADD30O,0.800X0.200*%
%ADD31R,0.690X1.500*%
%ADD32R,0.807X0.858*%
%ADD33R,0.350X0.630*%
%ADD34R,0.530X0.300*%
%ADD35R,0.530X0.250*%
%ADD36R,0.600X1.100*%
%ADD37R,0.900X1.100*%
%ADD38R,1.044X0.242*%
G04:AMPARAMS|DCode=39|XSize=1.044mm|YSize=0.242mm|CornerRadius=0.121mm|HoleSize=0mm|Usage=FLASHONLY|Rotation=0.000|XOffset=0mm|YOffset=0mm|HoleType=Round|Shape=RoundedRectangle|*
%AMROUNDEDRECTD39*
21,1,1.044,0.000,0,0,0.0*
21,1,0.801,0.242,0,0,0.0*
1,1,0.242,0.401,0.000*
1,1,0.242,-0.401,0.000*
1,1,0.242,-0.401,0.000*
1,1,0.242,0.401,0.000*
%
%ADD39ROUNDEDRECTD39*%
G04:AMPARAMS|DCode=40|XSize=0.242mm|YSize=1.044mm|CornerRadius=0.121mm|HoleSize=0mm|Usage=FLASHONLY|Rotation=0.000|XOffset=0mm|YOffset=0mm|HoleType=Round|Shape=RoundedRectangle|*
%AMROUNDEDRECTD40*
21,1,0.242,0.801,0,0,0.0*
21,1,0.000,1.044,0,0,0.0*
1,1,0.242,0.000,-0.401*
1,1,0.242,0.000,-0.401*
1,1,0.242,0.000,0.401*
1,1,0.242,0.000,0.401*
%
%ADD40ROUNDEDRECTD40*%
%ADD41R,0.800X0.950*%
%ADD42R,0.950X0.800*%
%ADD43R,0.700X0.650*%
%ADD44R,0.800X0.600*%
%ADD45R,0.850X0.700*%
G04:AMPARAMS|DCode=46|XSize=0.76mm|YSize=0.66mm|CornerRadius=0.083mm|HoleSize=0mm|Usage=FLASHONLY|Rotation=90.000|XOffset=0mm|YOffset=0mm|HoleType=Round|Shape=RoundedRectangle|*
%AMROUNDEDRECTD46*
21,1,0.760,0.495,0,0,90.0*
21,1,0.595,0.660,0,0,90.0*
1,1,0.165,0.248,0.297*
1,1,0.165,0.248,-0.297*
1,1,0.165,-0.248,-0.297*
1,1,0.165,-0.248,0.297*
%
%ADD46ROUNDEDRECTD46*%
%ADD47R,0.858X0.807*%
%ADD48R,0.850X0.750*%
%ADD49R,0.812X0.758*%
%ADD50R,0.958X0.912*%
G04:AMPARAMS|DCode=51|XSize=0.55mm|YSize=0.5mm|CornerRadius=0.063mm|HoleSize=0mm|Usage=FLASHONLY|Rotation=0.000|XOffset=0mm|YOffset=0mm|HoleType=Round|Shape=RoundedRectangle|*
%AMROUNDEDRECTD51*
21,1,0.550,0.375,0,0,0.0*
21,1,0.425,0.500,0,0,0.0*
1,1,0.125,0.213,-0.188*
1,1,0.125,-0.213,-0.188*
1,1,0.125,-0.213,0.188*
1,1,0.125,0.213,0.188*
%
%ADD51ROUNDEDRECTD51*%
%ADD52R,1.350X1.800*%
%ADD53R,0.750X0.850*%
%ADD54R,2.606X1.703*%
%ADD55R,1.004X0.239*%
G04:AMPARAMS|DCode=56|XSize=1.004mm|YSize=0.239mm|CornerRadius=0.12mm|HoleSize=0mm|Usage=FLASHONLY|Rotation=0.000|XOffset=0mm|YOffset=0mm|HoleType=Round|Shape=RoundedRectangle|*
%AMROUNDEDRECTD56*
21,1,1.004,0.000,0,0,0.0*
21,1,0.765,0.239,0,0,0.0*
1,1,0.239,0.382,0.000*
1,1,0.239,-0.382,0.000*
1,1,0.239,-0.382,0.000*
1,1,0.239,0.382,0.000*
%
%ADD56ROUNDEDRECTD56*%
G04:AMPARAMS|DCode=57|XSize=0.239mm|YSize=1.004mm|CornerRadius=0.12mm|HoleSize=0mm|Usage=FLASHONLY|Rotation=0.000|XOffset=0mm|YOffset=0mm|HoleType=Round|Shape=RoundedRectangle|*
%AMROUNDEDRECTD57*
21,1,0.239,0.765,0,0,0.0*
21,1,0.000,1.004,0,0,0.0*
1,1,0.239,0.000,-0.382*
1,1,0.239,0.000,-0.382*
1,1,0.239,0.000,0.382*
1,1,0.239,0.000,0.382*
%
%ADD57ROUNDEDRECTD57*%
%ADD58R,0.912X0.958*%
%ADD59O,1.700X0.600*%
G04:AMPARAMS|DCode=60|XSize=0.252mm|YSize=1.655mm|CornerRadius=0.126mm|HoleSize=0mm|Usage=FLASHONLY|Rotation=225.000|XOffset=0mm|YOffset=0mm|HoleType=Round|Shape=RoundedRectangle|*
%AMROUNDEDRECTD60*
21,1,0.252,1.403,0,0,225.0*
21,1,0.000,1.655,0,0,225.0*
1,1,0.252,-0.496,0.496*
1,1,0.252,-0.496,0.496*
1,1,0.252,0.496,-0.496*
1,1,0.252,0.496,-0.496*
%
%ADD60ROUNDEDRECTD60*%
G04:AMPARAMS|DCode=61|XSize=1.655mm|YSize=0.252mm|CornerRadius=0mm|HoleSize=0mm|Usage=FLASHONLY|Rotation=225.000|XOffset=0mm|YOffset=0mm|HoleType=Round|Shape=Rectangle|*
%AMROTATEDRECTD61*
4,1,4,0.496,0.674,0.674,0.496,-0.496,-0.674,-0.674,-0.496,0.496,0.674,0.0*
%
%ADD61ROTATEDRECTD61*%

G04:AMPARAMS|DCode=62|XSize=1.655mm|YSize=0.252mm|CornerRadius=0.126mm|HoleSize=0mm|Usage=FLASHONLY|Rotation=225.000|XOffset=0mm|YOffset=0mm|HoleType=Round|Shape=RoundedRectangle|*
%AMROUNDEDRECTD62*
21,1,1.655,0.000,0,0,225.0*
21,1,1.403,0.252,0,0,225.0*
1,1,0.252,-0.496,-0.496*
1,1,0.252,0.496,0.496*
1,1,0.252,0.496,0.496*
1,1,0.252,-0.496,-0.496*
%
%ADD62ROUNDEDRECTD62*%
%ADD63R,3.560X1.270*%
%ADD64P,1.344X4X270.0*%
G04:AMPARAMS|DCode=65|XSize=0.905mm|YSize=0.906mm|CornerRadius=0mm|HoleSize=0mm|Usage=FLASHONLY|Rotation=135.000|XOffset=0mm|YOffset=0mm|HoleType=Round|Shape=Rectangle|*
%AMROTATEDRECTD65*
4,1,4,0.640,0.000,-0.000,-0.640,-0.640,-0.000,0.000,0.640,0.640,0.000,0.0*
%
%ADD65ROTATEDRECTD65*%

G04:AMPARAMS|DCode=66|XSize=0.758mm|YSize=0.812mm|CornerRadius=0mm|HoleSize=0mm|Usage=FLASHONLY|Rotation=135.000|XOffset=0mm|YOffset=0mm|HoleType=Round|Shape=Rectangle|*
%AMROTATEDRECTD66*
4,1,4,0.555,0.019,-0.019,-0.555,-0.555,-0.019,0.019,0.555,0.555,0.019,0.0*
%
%ADD66ROTATEDRECTD66*%

G04:AMPARAMS|DCode=67|XSize=0.807mm|YSize=0.858mm|CornerRadius=0mm|HoleSize=0mm|Usage=FLASHONLY|Rotation=135.000|XOffset=0mm|YOffset=0mm|HoleType=Round|Shape=Rectangle|*
%AMROTATEDRECTD67*
4,1,4,0.589,0.018,-0.018,-0.589,-0.589,-0.018,0.018,0.589,0.589,0.018,0.0*
%
%ADD67ROTATEDRECTD67*%

G04:AMPARAMS|DCode=68|XSize=0.85mm|YSize=0.75mm|CornerRadius=0mm|HoleSize=0mm|Usage=FLASHONLY|Rotation=45.000|XOffset=0mm|YOffset=0mm|HoleType=Round|Shape=Rectangle|*
%AMROTATEDRECTD68*
4,1,4,-0.035,-0.566,-0.566,-0.035,0.035,0.566,0.566,0.035,-0.035,-0.566,0.0*
%
%ADD68ROTATEDRECTD68*%

%ADD69R,0.800X0.800*%
G04:AMPARAMS|DCode=70|XSize=0.192mm|YSize=0.908mm|CornerRadius=0.096mm|HoleSize=0mm|Usage=FLASHONLY|Rotation=135.000|XOffset=0mm|YOffset=0mm|HoleType=Round|Shape=RoundedRectangle|*
%AMROUNDEDRECTD70*
21,1,0.192,0.715,0,0,135.0*
21,1,0.000,0.908,0,0,135.0*
1,1,0.192,0.253,0.253*
1,1,0.192,0.253,0.253*
1,1,0.192,-0.253,-0.253*
1,1,0.192,-0.253,-0.253*
%
%ADD70ROUNDEDRECTD70*%
G04:AMPARAMS|DCode=71|XSize=0.908mm|YSize=0.192mm|CornerRadius=0.096mm|HoleSize=0mm|Usage=FLASHONLY|Rotation=135.000|XOffset=0mm|YOffset=0mm|HoleType=Round|Shape=RoundedRectangle|*
%AMROUNDEDRECTD71*
21,1,0.908,0.000,0,0,135.0*
21,1,0.715,0.192,0,0,135.0*
1,1,0.192,-0.253,0.253*
1,1,0.192,0.253,-0.253*
1,1,0.192,0.253,-0.253*
1,1,0.192,-0.253,0.253*
%
%ADD71ROUNDEDRECTD71*%
G04:AMPARAMS|DCode=72|XSize=0.908mm|YSize=0.192mm|CornerRadius=0mm|HoleSize=0mm|Usage=FLASHONLY|Rotation=135.000|XOffset=0mm|YOffset=0mm|HoleType=Round|Shape=Rectangle|*
%AMROTATEDRECTD72*
4,1,4,0.389,-0.253,0.253,-0.389,-0.389,0.253,-0.253,0.389,0.389,-0.253,0.0*
%
%ADD72ROTATEDRECTD72*%

G04:AMPARAMS|DCode=73|XSize=1.1mm|YSize=0.9mm|CornerRadius=0mm|HoleSize=0mm|Usage=FLASHONLY|Rotation=315.000|XOffset=0mm|YOffset=0mm|HoleType=Round|Shape=Rectangle|*
%AMROTATEDRECTD73*
4,1,4,-0.707,0.071,-0.071,0.707,0.707,-0.071,0.071,-0.707,-0.707,0.071,0.0*
%
%ADD73ROTATEDRECTD73*%

G04:AMPARAMS|DCode=74|XSize=0.807mm|YSize=0.858mm|CornerRadius=0mm|HoleSize=0mm|Usage=FLASHONLY|Rotation=45.000|XOffset=0mm|YOffset=0mm|HoleType=Round|Shape=Rectangle|*
%AMROTATEDRECTD74*
4,1,4,0.018,-0.589,-0.589,0.018,-0.018,0.589,0.589,-0.018,0.018,-0.589,0.0*
%
%ADD74ROTATEDRECTD74*%

G04:AMPARAMS|DCode=75|XSize=0.95mm|YSize=0.8mm|CornerRadius=0mm|HoleSize=0mm|Usage=FLASHONLY|Rotation=225.000|XOffset=0mm|YOffset=0mm|HoleType=Round|Shape=Rectangle|*
%AMROTATEDRECTD75*
4,1,4,0.053,0.619,0.619,0.053,-0.053,-0.619,-0.619,-0.053,0.053,0.619,0.0*
%
%ADD75ROTATEDRECTD75*%

%ADD76R,0.450X0.400*%
%ADD77R,1.400X2.100*%
G04:AMPARAMS|DCode=78|XSize=0.55mm|YSize=0.5mm|CornerRadius=0.063mm|HoleSize=0mm|Usage=FLASHONLY|Rotation=270.000|XOffset=0mm|YOffset=0mm|HoleType=Round|Shape=RoundedRectangle|*
%AMROUNDEDRECTD78*
21,1,0.550,0.375,0,0,270.0*
21,1,0.425,0.500,0,0,270.0*
1,1,0.125,-0.188,-0.213*
1,1,0.125,-0.188,0.213*
1,1,0.125,0.188,0.213*
1,1,0.125,0.188,-0.213*
%
%ADD78ROUNDEDRECTD78*%
G04:AMPARAMS|DCode=79|XSize=0.8mm|YSize=0.75mm|CornerRadius=0.094mm|HoleSize=0mm|Usage=FLASHONLY|Rotation=90.000|XOffset=0mm|YOffset=0mm|HoleType=Round|Shape=RoundedRectangle|*
%AMROUNDEDRECTD79*
21,1,0.800,0.563,0,0,90.0*
21,1,0.613,0.750,0,0,90.0*
1,1,0.188,0.281,0.306*
1,1,0.188,0.281,-0.306*
1,1,0.188,-0.281,-0.306*
1,1,0.188,-0.281,0.306*
%
%ADD79ROUNDEDRECTD79*%
%ADD80R,1.800X1.350*%
%ADD81R,0.958X1.007*%
%ADD82R,1.058X1.206*%
G04:AMPARAMS|DCode=83|XSize=0.67mm|YSize=0.3mm|CornerRadius=0.075mm|HoleSize=0mm|Usage=FLASHONLY|Rotation=270.000|XOffset=0mm|YOffset=0mm|HoleType=Round|Shape=RoundedRectangle|*
%AMROUNDEDRECTD83*
21,1,0.670,0.150,0,0,270.0*
21,1,0.520,0.300,0,0,270.0*
1,1,0.150,-0.075,-0.260*
1,1,0.150,-0.075,0.260*
1,1,0.150,0.075,0.260*
1,1,0.150,0.075,-0.260*
%
%ADD83ROUNDEDRECTD83*%
%ADD84R,1.300X1.400*%
%ADD85R,1.230X2.220*%
%ADD86O,1.900X0.600*%
%ADD87R,0.800X0.800*%
%ADD88R,1.100X1.000*%
%ADD89R,0.650X0.700*%
%ADD90P,0.735X4X180.0*%
G04:AMPARAMS|DCode=91|XSize=1mm|YSize=1.8mm|CornerRadius=0.1mm|HoleSize=0mm|Usage=FLASHONLY|Rotation=135.000|XOffset=0mm|YOffset=0mm|HoleType=Round|Shape=RoundedRectangle|*
%AMROUNDEDRECTD91*
21,1,1.000,1.600,0,0,135.0*
21,1,0.800,1.800,0,0,135.0*
1,1,0.200,0.283,0.849*
1,1,0.200,0.849,0.283*
1,1,0.200,-0.283,-0.849*
1,1,0.200,-0.849,-0.283*
%
%ADD91ROUNDEDRECTD91*%
G04:AMPARAMS|DCode=92|XSize=0.62mm|YSize=0.66mm|CornerRadius=0mm|HoleSize=0mm|Usage=FLASHONLY|Rotation=225.000|XOffset=0mm|YOffset=0mm|HoleType=Round|Shape=Rectangle|*
%AMROTATEDRECTD92*
4,1,4,-0.014,0.453,0.453,-0.014,0.014,-0.453,-0.453,0.014,-0.014,0.453,0.0*
%
%ADD92ROTATEDRECTD92*%

G04:AMPARAMS|DCode=93|XSize=0.8mm|YSize=0.9mm|CornerRadius=0.08mm|HoleSize=0mm|Usage=FLASHONLY|Rotation=225.000|XOffset=0mm|YOffset=0mm|HoleType=Round|Shape=RoundedRectangle|*
%AMROUNDEDRECTD93*
21,1,0.800,0.740,0,0,225.0*
21,1,0.640,0.900,0,0,225.0*
1,1,0.160,-0.488,0.035*
1,1,0.160,-0.035,0.488*
1,1,0.160,0.488,-0.035*
1,1,0.160,0.035,-0.488*
%
%ADD93ROUNDEDRECTD93*%
%ADD94R,0.400X0.450*%
%ADD95R,2.100X1.400*%
G04:AMPARAMS|DCode=96|XSize=0.27mm|YSize=0.9mm|CornerRadius=0.034mm|HoleSize=0mm|Usage=FLASHONLY|Rotation=270.000|XOffset=0mm|YOffset=0mm|HoleType=Round|Shape=RoundedRectangle|*
%AMROUNDEDRECTD96*
21,1,0.270,0.832,0,0,270.0*
21,1,0.203,0.900,0,0,270.0*
1,1,0.068,-0.416,-0.101*
1,1,0.068,-0.416,0.101*
1,1,0.068,0.416,0.101*
1,1,0.068,0.416,-0.101*
%
%ADD96ROUNDEDRECTD96*%
G04:AMPARAMS|DCode=97|XSize=0.27mm|YSize=0.8mm|CornerRadius=0.034mm|HoleSize=0mm|Usage=FLASHONLY|Rotation=270.000|XOffset=0mm|YOffset=0mm|HoleType=Round|Shape=RoundedRectangle|*
%AMROUNDEDRECTD97*
21,1,0.270,0.733,0,0,270.0*
21,1,0.203,0.800,0,0,270.0*
1,1,0.068,-0.366,-0.101*
1,1,0.068,-0.366,0.101*
1,1,0.068,0.366,0.101*
1,1,0.068,0.366,-0.101*
%
%ADD97ROUNDEDRECTD97*%
%ADD105R,6.250X6.250*%
%ADD117R,2.032X2.032*%
%ADD123P,7.778X4X180.0*%
%ADD150C,1.270*%
%ADD159C,0.600*%
%ADD160C,1.000*%
%ADD161C,0.203*%
%ADD162C,0.300*%
%ADD163C,0.160*%
%ADD164C,0.152*%
%ADD165C,0.950*%
%ADD166C,5.000*%
%ADD167C,3.300*%
%ADD168C,1.300*%
%ADD169R,1.300X1.300*%
%ADD170C,1.580*%
%ADD171R,1.580X1.580*%
%ADD172C,1.600*%
%ADD173R,1.600X1.600*%
%ADD174O,2.300X1.200*%
%ADD175O,1.000X1.500*%
%ADD176O,2.600X1.300*%
%ADD177C,0.450*%
G36*
X16592Y67549D02*
X16845Y67446D01*
X17073Y67295D01*
X17267Y67103D01*
X17420Y66876D01*
X17525Y66624D01*
X17580Y66356D01*
X17580Y66220D01*
X17580Y66220D01*
X17580Y66220D01*
X17580Y65065D01*
X17490Y64975D01*
X17105D01*
X17008Y65046D01*
X17008Y65102D01*
Y65450D01*
X16500D01*
X15992D01*
Y65130D01*
X15937Y65080D01*
X15865Y65051D01*
X15818Y65075D01*
Y66182D01*
X15810Y66263D01*
X15748Y66414D01*
X15632Y66530D01*
X15482Y66592D01*
X15400Y66600D01*
X12400D01*
X12331Y66597D01*
X12197Y66570D01*
X12070Y66517D01*
X11956Y66441D01*
X11859Y66344D01*
X11783Y66230D01*
X11730Y66103D01*
X11703Y65969D01*
X11700Y65900D01*
Y65640D01*
X11654Y65530D01*
X11608Y65483D01*
X11481Y65536D01*
Y65849D01*
X10900D01*
X10319D01*
Y65400D01*
X10100Y65400D01*
X10002Y65395D01*
X9810Y65357D01*
X9629Y65282D01*
X9466Y65173D01*
X9327Y65034D01*
X9218Y64871D01*
X9143Y64690D01*
X9110Y64523D01*
X9105Y64498D01*
X9100Y64400D01*
X9100Y64400D01*
X9097Y64388D01*
X9064Y64218D01*
X9067Y64202D01*
X9060Y64186D01*
Y63225D01*
X9070Y63202D01*
X9070Y63113D01*
X9083Y63083D01*
Y63050D01*
X9161Y62860D01*
X9184Y62837D01*
X9197Y62807D01*
X9342Y62662D01*
X9372Y62650D01*
X9395Y62626D01*
X9585Y62548D01*
X9617D01*
X9648Y62535D01*
X9664D01*
X9700Y62500D01*
X12578D01*
X12630Y62503D01*
X12734Y62524D01*
X12832Y62564D01*
X12920Y62624D01*
X12959Y62659D01*
X12959Y62659D01*
X13136Y62835D01*
X13551Y63112D01*
X14013Y63303D01*
X14502Y63400D01*
X14752Y63400D01*
X14752Y63400D01*
X17076Y63400D01*
X17177Y63400D01*
X17375Y63361D01*
X17561Y63283D01*
X17729Y63171D01*
X17800Y63100D01*
X17800Y63100D01*
X18020D01*
X18100Y63084D01*
X19358D01*
X19540Y63009D01*
X19709Y62840D01*
X19765Y62704D01*
X19747Y62676D01*
X19577Y62640D01*
X19557Y62653D01*
X19400Y62684D01*
X18827D01*
Y62275D01*
X18750D01*
Y62199D01*
X17706D01*
X17722Y62118D01*
X17810Y61985D01*
X17898Y61927D01*
X17859Y61800D01*
X17095Y61800D01*
X17081Y61927D01*
Y62449D01*
X16500D01*
X15919D01*
Y61927D01*
X15919Y61921D01*
X15905Y61800D01*
X15252Y61800D01*
X15003Y61788D01*
X14515Y61691D01*
X14055Y61500D01*
X13641Y61223D01*
X13456Y61056D01*
X13456Y61056D01*
Y61056D01*
X11500Y59100D01*
X11476Y59076D01*
X11420Y59039D01*
X11377Y59021D01*
X11259Y59000D01*
X11259Y59000D01*
X9100D01*
X9021Y59000D01*
X8867Y59031D01*
X8721Y59091D01*
X8590Y59179D01*
X8479Y59290D01*
X8391Y59421D01*
X8331Y59567D01*
X8300Y59721D01*
X8300Y59800D01*
X8300Y60800D01*
X8294Y60859D01*
X8249Y60967D01*
X8179Y61038D01*
X8167Y61049D01*
X8113Y61199D01*
Y61223D01*
X7550D01*
Y61300D01*
X7473D01*
Y61548D01*
X7134D01*
X7030Y61505D01*
X6997Y61425D01*
X6478D01*
X6463Y61448D01*
Y61473D01*
X5950D01*
Y61626D01*
X6463D01*
Y61651D01*
X6458Y61661D01*
Y61894D01*
X6634Y62011D01*
X6767Y62210D01*
X6774Y62244D01*
Y62995D01*
Y63702D01*
X6450D01*
X6426Y63829D01*
X6690Y63934D01*
X7080Y64005D01*
X7476Y63999D01*
X7863Y63915D01*
X8045Y63836D01*
Y63836D01*
X8163Y63883D01*
X8370Y64030D01*
X8521Y64233D01*
X8601Y64473D01*
X8612Y64594D01*
X8633Y64700D01*
X8612Y64803D01*
X8612Y64900D01*
X8601Y65003D01*
X8520Y65193D01*
X8372Y65337D01*
X8198Y65407D01*
X8181Y65414D01*
X8077Y65423D01*
X8077Y65423D01*
X8077Y65423D01*
X7502D01*
X7449Y65445D01*
X7437Y65475D01*
X7524Y65602D01*
X7548D01*
Y66104D01*
Y66605D01*
X7200D01*
Y66800D01*
X7200Y66880D01*
X7261Y67027D01*
X7373Y67139D01*
X7520Y67200D01*
X7600Y67200D01*
X7600Y67200D01*
X10659D01*
X10692Y67202D01*
X10758Y67215D01*
X10820Y67240D01*
X10875Y67277D01*
X10900Y67300D01*
X10972Y67372D01*
X11141Y67485D01*
X11329Y67562D01*
X11529Y67601D01*
X11631Y67600D01*
X11631Y67600D01*
X16187Y67600D01*
X16323Y67601D01*
X16592Y67549D01*
D02*
G37*
G36*
X45150Y68875D02*
Y67568D01*
X42675D01*
Y68950D01*
X42791Y69066D01*
X44959D01*
X45150Y68875D01*
D02*
G37*
G36*
X19200Y66900D02*
X19299Y66900D01*
X19483Y66824D01*
X19624Y66683D01*
X19693Y66517D01*
X19700Y66400D01*
Y66400D01*
X19700D01*
X19700Y66400D01*
X19700Y63540D01*
X19654Y63430D01*
X19570Y63346D01*
X19460Y63300D01*
X19400Y63300D01*
X17926D01*
X17593Y63607D01*
X17522Y63671D01*
X17362Y63778D01*
X17185Y63852D01*
X17017Y63885D01*
X16996Y63889D01*
X16900Y63894D01*
X16900Y63894D01*
X16900Y63894D01*
X16900Y63894D01*
X16094D01*
X15998Y63990D01*
X14270D01*
Y66210D01*
X15500D01*
X15500Y65239D01*
X15512Y65124D01*
X15602Y64911D01*
X15766Y64749D01*
X15980Y64663D01*
X16095Y64652D01*
X16095Y64652D01*
X17300Y64652D01*
X17352Y64652D01*
X17459Y64663D01*
X17655Y64745D01*
X17806Y64896D01*
X17887Y65093D01*
X17897Y65200D01*
X17897Y65200D01*
Y66276D01*
X17900Y66400D01*
D01*
X17910Y66523D01*
X17976Y66683D01*
X18117Y66824D01*
X18301Y66900D01*
X18400Y66900D01*
X18400Y66900D01*
X19200Y66900D01*
D02*
G37*
G36*
X31842Y64613D02*
Y63228D01*
X31737Y63123D01*
X27597D01*
X27388Y63333D01*
X27600Y63545D01*
Y63845D01*
X28900D01*
X29882Y64827D01*
X31627D01*
X31842Y64613D01*
D02*
G37*
G36*
X13330Y63986D02*
X13330Y63859D01*
X13280Y63610D01*
X13182Y63376D01*
X13040Y63165D01*
X12860Y62986D01*
X12649Y62845D01*
X12414Y62749D01*
X12165Y62700D01*
X12038Y62700D01*
X12038Y62700D01*
X12038Y62700D01*
X9750Y62700D01*
X9648Y62700D01*
X9458Y62778D01*
X9313Y62923D01*
X9235Y63113D01*
X9235Y63215D01*
X9225Y63225D01*
Y64186D01*
X9259Y64356D01*
X9325Y64515D01*
X9421Y64659D01*
X9543Y64781D01*
X9686Y64876D01*
X9846Y64942D01*
X10015Y64976D01*
X10101D01*
X10129Y64977D01*
X11379D01*
X11450Y64981D01*
X11588Y65008D01*
X11719Y65063D01*
X11836Y65141D01*
X11936Y65241D01*
X12015Y65358D01*
X12069Y65489D01*
X12097Y65628D01*
X12100Y65698D01*
X12100Y65700D01*
Y66210D01*
X13330D01*
X13330Y63986D01*
D02*
G37*
G36*
X32000Y62300D02*
Y60700D01*
X31655Y60355D01*
X31084D01*
Y60756D01*
X30527D01*
Y60833D01*
X30450D01*
Y61414D01*
X30069D01*
Y61770D01*
X30424D01*
Y62275D01*
X30500D01*
Y62352D01*
X31031D01*
Y62700D01*
X31600D01*
X32000Y62300D01*
D02*
G37*
G36*
X55800Y64700D02*
X56100Y64400D01*
Y59940D01*
X53600Y59940D01*
Y60227D01*
X53924D01*
Y60754D01*
Y61281D01*
X53600D01*
Y61523D01*
X53949D01*
Y62054D01*
Y62585D01*
X53600D01*
Y62923D01*
X53949D01*
Y63454D01*
Y63985D01*
X53600D01*
Y64700D01*
X55800Y64700D01*
D02*
G37*
G36*
X38779Y62221D02*
X38730Y62104D01*
X38616D01*
Y61452D01*
Y60801D01*
X39000D01*
Y60487D01*
X38966Y60374D01*
X38873Y60374D01*
X38541D01*
Y59797D01*
Y59221D01*
X38841D01*
X38894Y59094D01*
X38800Y59000D01*
X37426D01*
X37200Y59226D01*
Y62400D01*
X37240Y62440D01*
X38560D01*
X38779Y62221D01*
D02*
G37*
G36*
X31685Y59566D02*
X31685Y58385D01*
X31462Y58162D01*
X27479D01*
X27388Y58253D01*
Y58553D01*
X27600Y58765D01*
X29936D01*
X30071Y58900D01*
Y59858D01*
X31393D01*
X31685Y59566D01*
D02*
G37*
G36*
X6959Y56126D02*
X6970Y56110D01*
X7030Y56005D01*
X6987Y55901D01*
Y55876D01*
X7550D01*
Y55800D01*
X7627D01*
Y55552D01*
X7950D01*
Y55550D01*
X8446D01*
X8469Y55493D01*
X8509Y55293D01*
X8509Y55191D01*
X8509Y54189D01*
X8515Y54133D01*
X8558Y54029D01*
X8638Y53949D01*
X8742Y53906D01*
X8799Y53900D01*
X15800D01*
X15845Y53911D01*
X15930Y53946D01*
X16007Y53998D01*
X16072Y54063D01*
X16100Y54100D01*
X16481Y54481D01*
X16566Y54566D01*
X16566Y54566D01*
X16566Y54566D01*
X16566Y54566D01*
X16742Y54742D01*
X17158Y55020D01*
X17621Y55212D01*
X18111Y55310D01*
X18362Y55309D01*
X19398Y55309D01*
X19398Y55309D01*
X19398Y55309D01*
X19398D01*
X19515Y55303D01*
X19687Y55232D01*
X19809Y55110D01*
X19797Y54987D01*
X19718Y54956D01*
X19683Y54949D01*
X19557Y55033D01*
X19400Y55064D01*
X18827D01*
Y54655D01*
Y54246D01*
X19400D01*
X19557Y54277D01*
X19683Y54361D01*
X19718Y54354D01*
X19810Y54318D01*
Y53850D01*
X19841Y53777D01*
X19839Y53773D01*
X19727Y53661D01*
X19580Y53600D01*
X19500D01*
X18441Y53600D01*
X18441Y53600D01*
X18437Y53600D01*
X18429Y53600D01*
X18420Y53599D01*
X18412Y53599D01*
X18408Y53598D01*
X18400Y53598D01*
X18400Y53598D01*
X18187Y53587D01*
X17770Y53505D01*
X17376Y53343D01*
X17022Y53107D01*
X16864Y52964D01*
X12371Y48371D01*
X12371Y48371D01*
X12306Y48278D01*
X12140Y48121D01*
X11948Y48000D01*
X11735Y47919D01*
X11623Y47900D01*
X11430Y47898D01*
X11050Y47970D01*
X10693Y48116D01*
X10371Y48329D01*
X10234Y48466D01*
X5606Y53094D01*
X5606D01*
X5565Y53135D01*
X5500Y53232D01*
X5455Y53340D01*
X5432Y53455D01*
X5432Y53513D01*
Y55383D01*
X5432Y55383D01*
X5440Y55507D01*
X5464Y55628D01*
X5496Y55705D01*
X5584Y55802D01*
X5873D01*
Y56050D01*
X5950D01*
Y56126D01*
X6463D01*
X6463Y56132D01*
X6580Y56132D01*
X6958D01*
X6959Y56126D01*
D02*
G37*
G36*
X36477Y55223D02*
Y53946D01*
X36439Y53908D01*
X33948D01*
X33948Y55236D01*
X35139Y56427D01*
X35273Y56427D01*
X36477Y55223D01*
D02*
G37*
G36*
X34900Y52825D02*
X36276D01*
Y52225D01*
X32025Y52225D01*
Y52825D01*
X33445D01*
X33925Y53400D01*
X34325D01*
X34900Y52825D01*
D02*
G37*
G36*
X49554Y55246D02*
X49571Y55229D01*
X50900Y53900D01*
X50900Y53900D01*
X50971Y53829D01*
X51083Y53661D01*
X51161Y53474D01*
X51200Y53277D01*
Y52001D01*
X51124Y51817D01*
X50983Y51676D01*
X50799Y51600D01*
X49708D01*
X49642Y51613D01*
X49597Y51632D01*
X49500Y51700D01*
Y51700D01*
X49420Y51794D01*
X49364Y51877D01*
X49307Y52016D01*
X49277Y52162D01*
Y55129D01*
X49366Y55217D01*
X49373Y55225D01*
X49386Y55244D01*
X49395Y55266D01*
X49523Y55266D01*
X49554Y55246D01*
D02*
G37*
G36*
X38088Y48647D02*
X38173Y48647D01*
X38340Y48614D01*
X38497Y48549D01*
X38638Y48454D01*
X38758Y48334D01*
X38852Y48193D01*
X38917Y48036D01*
X38944Y47902D01*
X38950Y47785D01*
Y47785D01*
X38950D01*
X38939Y47666D01*
X38888Y47528D01*
X38770Y47394D01*
X38613Y47309D01*
X38524Y47297D01*
X37518D01*
X37067Y47748D01*
X36991Y47817D01*
X36820Y47932D01*
X36630Y48010D01*
X36443Y48048D01*
X36428Y48050D01*
X36326Y48055D01*
X36326Y48055D01*
X36326Y48055D01*
X36326Y48055D01*
X36049D01*
X36000Y48055D01*
X35905Y48074D01*
X35815Y48112D01*
X35734Y48166D01*
X35732Y48168D01*
X35777Y48295D01*
X36547D01*
X36582Y48297D01*
X36651Y48310D01*
X36715Y48337D01*
X36774Y48376D01*
X36800Y48400D01*
X36859Y48459D01*
X36859Y48459D01*
X36864Y48460D01*
X36864Y48460D01*
X36940Y48510D01*
X36947Y48518D01*
X36948Y48518D01*
X37056Y48575D01*
X37150Y48614D01*
X37313Y48647D01*
X37396Y48647D01*
X37396Y48647D01*
X38088Y48647D01*
D02*
G37*
G36*
X16775Y48721D02*
Y47800D01*
X16475D01*
Y48159D01*
X16333Y48302D01*
X15602Y48302D01*
X15181Y47881D01*
Y46081D01*
X14063Y44963D01*
X12263D01*
X6779Y44963D01*
X4208Y42392D01*
X3308D01*
X3303Y42403D01*
X2500Y43207D01*
X2504Y43896D01*
X4909Y46300D01*
X12500D01*
X12510Y46310D01*
X13810D01*
X14200Y46700D01*
Y48000D01*
X15181Y48981D01*
X16515D01*
X16775Y48721D01*
D02*
G37*
G36*
X19202Y48593D02*
X21808D01*
X21816Y48601D01*
X23450D01*
X25153Y46898D01*
X24265Y46010D01*
Y44248D01*
X22581D01*
X22544Y44285D01*
X21665D01*
X21175Y44775D01*
X18719D01*
Y45094D01*
X18670Y45210D01*
X18554Y45259D01*
X17215Y45259D01*
X16975Y45499D01*
Y46580D01*
X17275D01*
X17275Y45980D01*
X17459Y45796D01*
X17796D01*
X18075Y46075D01*
Y47466D01*
X18082Y48043D01*
X17791Y48333D01*
X17473Y48333D01*
X17275Y48135D01*
X17275Y47540D01*
X16975D01*
Y48837D01*
X18958D01*
X19202Y48593D01*
D02*
G37*
G36*
X37369Y47214D02*
Y47145D01*
X37489D01*
X37518Y47133D01*
X38524D01*
X38535Y47137D01*
X38546Y47134D01*
X38635Y47146D01*
X38661Y47161D01*
X38691Y47164D01*
X38785Y47215D01*
X39300Y46700D01*
Y45800D01*
X38900Y45400D01*
X37666Y45400D01*
X36985Y46081D01*
X36901Y46137D01*
X36854Y46146D01*
X36700Y46300D01*
X35900D01*
Y46449D01*
X35926D01*
Y46675D01*
X36002D01*
Y46752D01*
X36595D01*
X36593Y46761D01*
X36544Y46835D01*
X36514Y46854D01*
X36513Y46858D01*
Y46992D01*
X36514Y46996D01*
X36544Y47015D01*
X36593Y47089D01*
X36595Y47098D01*
X36002D01*
Y47251D01*
X36670D01*
X36708Y47300D01*
X37283D01*
X37369Y47214D01*
D02*
G37*
G36*
X16775Y46280D02*
X16775Y45466D01*
X17147Y45094D01*
X18554Y45094D01*
Y43424D01*
X17596D01*
X17196Y43024D01*
X14888D01*
Y44946D01*
X16225Y45834D01*
X16289Y45846D01*
X16364Y45896D01*
X16398Y45948D01*
X16475Y45999D01*
Y46414D01*
X16592Y46463D01*
X16775Y46280D01*
D02*
G37*
G36*
X26765Y47129D02*
Y44826D01*
X26656Y44718D01*
Y42981D01*
X25725Y42050D01*
Y41244D01*
X24031Y39550D01*
X21573D01*
X21100Y39077D01*
Y36514D01*
X21071Y36471D01*
X20604Y36004D01*
X20288Y36003D01*
X20125Y36102D01*
Y36503D01*
X19749Y36879D01*
Y39070D01*
X19469Y39350D01*
X19200D01*
Y39380D01*
X19189Y39407D01*
X19179Y39457D01*
X19151Y39499D01*
X19139Y39527D01*
X19118Y39548D01*
X19090Y39590D01*
X19048Y39618D01*
X19027Y39639D01*
X18999Y39651D01*
X18957Y39679D01*
X18907Y39689D01*
X18880Y39700D01*
X18850D01*
X18800Y39710D01*
X18750Y39700D01*
X18720D01*
X18693Y39689D01*
X18643Y39679D01*
X18601Y39651D01*
X18573Y39639D01*
X18552Y39618D01*
X18510Y39590D01*
X18482Y39548D01*
X18461Y39527D01*
X18449Y39499D01*
X18421Y39457D01*
X18411Y39407D01*
X18400Y39380D01*
Y39350D01*
X8175D01*
X7925Y39100D01*
Y38113D01*
X7900Y38031D01*
Y36209D01*
X7720Y36029D01*
X7263Y36028D01*
X7100Y36127D01*
Y36528D01*
X6549Y37079D01*
Y38800D01*
X6550D01*
Y40350D01*
X6700Y40500D01*
X17165D01*
X17914Y41249D01*
X17918Y41246D01*
X17968Y41236D01*
X17995Y41225D01*
X18025D01*
X18075Y41215D01*
X18125Y41225D01*
X18155D01*
X18182Y41236D01*
X18232Y41246D01*
X18274Y41274D01*
X18302Y41286D01*
X18323Y41307D01*
X18365Y41335D01*
X18393Y41377D01*
X18414Y41398D01*
X18426Y41426D01*
X18454Y41468D01*
X18464Y41518D01*
X18475Y41545D01*
Y41575D01*
X18485Y41625D01*
Y41725D01*
X21184D01*
X21459Y42000D01*
X23580D01*
X24556Y42976D01*
X24556Y45913D01*
X24927Y46323D01*
X25303Y46659D01*
Y46746D01*
X25305D01*
Y46868D01*
X25318Y46898D01*
X25305Y46928D01*
Y47033D01*
X25492Y47220D01*
X26673D01*
X26765Y47129D01*
D02*
G37*
G36*
X17250Y42453D02*
Y40818D01*
X17096Y40665D01*
X14835D01*
X14700Y40800D01*
Y42450D01*
X14828Y42578D01*
X17125D01*
X17250Y42453D01*
D02*
G37*
G36*
X12200Y35905D02*
X11838D01*
X11754Y35889D01*
X11683Y35841D01*
X11635Y35770D01*
X11619Y35686D01*
Y35311D01*
X11581Y35283D01*
X11477Y35227D01*
X10462D01*
X10450Y35245D01*
Y35405D01*
X10496Y35474D01*
X10774D01*
Y35899D01*
X10273D01*
Y35832D01*
X10225Y35725D01*
X10100D01*
Y35725D01*
X10025D01*
X9970Y35725D01*
X9890Y35804D01*
X9845Y35870D01*
X9907Y35982D01*
X9937Y36027D01*
X9957Y36125D01*
X9937Y36223D01*
X9882Y36307D01*
X9798Y36362D01*
X9786Y36386D01*
X9800Y36420D01*
Y36580D01*
X9739Y36727D01*
X9627Y36839D01*
X9480Y36900D01*
X9320D01*
X9173Y36839D01*
X9061Y36727D01*
X9000Y36580D01*
Y36420D01*
X9014Y36386D01*
X9002Y36362D01*
X8918Y36307D01*
X8863Y36223D01*
X8853Y36177D01*
X8527D01*
Y35325D01*
Y34473D01*
X8848D01*
Y34273D01*
X9367D01*
X9400Y34267D01*
X10223D01*
Y34123D01*
X11477D01*
Y34125D01*
X12200D01*
Y32000D01*
X11308Y31108D01*
X9897D01*
X8415Y32590D01*
Y33624D01*
X8407Y33642D01*
X8409Y33653D01*
X8410Y33661D01*
X8402Y33777D01*
X8392D01*
D01*
X8392D01*
X8277Y33801D01*
X8100Y33912D01*
Y34473D01*
X8374D01*
Y35325D01*
Y36177D01*
X8100D01*
Y39042D01*
X8243Y39185D01*
X9198D01*
Y38276D01*
X9975D01*
X10752D01*
Y39185D01*
X12200D01*
Y35905D01*
D02*
G37*
G36*
X42200Y39600D02*
X42206Y39541D01*
X42251Y39433D01*
X42333Y39351D01*
X42441Y39306D01*
X42500Y39300D01*
X45300D01*
Y39300D01*
X45380D01*
X45527Y39239D01*
X45639Y39127D01*
X45700Y38980D01*
X45700Y38640D01*
X45654Y38530D01*
X45570Y38446D01*
X45460Y38400D01*
X44600D01*
X44600Y38400D01*
X44553Y38398D01*
X44460Y38379D01*
X44372Y38343D01*
X44294Y38290D01*
X44259Y38259D01*
X43900Y37900D01*
X43900Y37900D01*
X43852Y37852D01*
X43741Y37778D01*
X43616Y37726D01*
X43484Y37700D01*
X40300D01*
X40189Y37746D01*
X40105Y37830D01*
X40059Y37940D01*
Y38521D01*
X40060Y38579D01*
X40083Y38692D01*
X40128Y38798D01*
X40193Y38894D01*
X40234Y38934D01*
X40400Y39100D01*
X40445Y39150D01*
X40476Y39196D01*
X40519Y39261D01*
X40571Y39385D01*
X40597Y39516D01*
X40600Y39583D01*
X40600Y41000D01*
X40600Y41000D01*
X40614Y41121D01*
X40620Y41155D01*
X40661Y41252D01*
X40719Y41340D01*
X40756Y41377D01*
X41300Y42100D01*
X42200D01*
Y39600D01*
D02*
G37*
G36*
X44400Y36100D02*
X43924Y35624D01*
X40276D01*
X39400Y36500D01*
Y37326D01*
X39958D01*
Y36962D01*
X40465D01*
X40973D01*
Y37326D01*
X41260D01*
Y36963D01*
X41791D01*
X42321D01*
Y37326D01*
X42514D01*
Y36964D01*
X43041D01*
Y36888D01*
D01*
Y36964D01*
X43568D01*
Y37326D01*
X44400D01*
Y36100D01*
D02*
G37*
G36*
X25100Y36031D02*
X25039Y35980D01*
X24614D01*
X24530Y35964D01*
X24459Y35916D01*
X24415Y35850D01*
X24277D01*
Y36326D01*
X23852D01*
Y35924D01*
X23776D01*
Y35847D01*
X23274D01*
Y35825D01*
X22975D01*
X22933Y35783D01*
X22811Y35809D01*
X22781Y35906D01*
X22850Y35975D01*
Y36086D01*
X22853Y36100D01*
X22850Y36114D01*
Y36275D01*
X22675Y36450D01*
X22696Y36500D01*
Y36659D01*
X22635Y36806D01*
X22522Y36918D01*
X22375Y36979D01*
X22216D01*
X22069Y36918D01*
X21957Y36806D01*
X21896Y36659D01*
X21896Y36500D01*
X21900Y36475D01*
X21868Y36368D01*
X21675Y36175D01*
Y36152D01*
X21422D01*
Y35300D01*
Y34448D01*
X21744D01*
Y34248D01*
X22667D01*
X22700Y34242D01*
X22732Y34248D01*
X22848D01*
Y34250D01*
X23224D01*
Y34172D01*
X24328D01*
Y34250D01*
X25100D01*
Y32075D01*
X24733Y31708D01*
X24313D01*
X24197Y31717D01*
X24197Y31828D01*
Y32642D01*
X23420D01*
X22644D01*
X22644Y31717D01*
X22528Y31708D01*
X22167D01*
X22045Y31830D01*
Y32420D01*
X22065Y32466D01*
Y33466D01*
X22064Y33467D01*
X22065Y33468D01*
X22040Y33525D01*
X22016Y33582D01*
X22015Y33582D01*
X22015Y33584D01*
X21614Y33973D01*
X21563Y34095D01*
X21450Y34208D01*
X21312Y34265D01*
X21238Y34337D01*
X21269Y34414D01*
Y35300D01*
Y36152D01*
X21188D01*
Y36357D01*
X21194Y36370D01*
X21208Y36380D01*
X21237Y36423D01*
X21246Y36470D01*
X21265Y36514D01*
Y38965D01*
X21675Y39375D01*
X25100Y39375D01*
Y36031D01*
D02*
G37*
G36*
X19485Y35946D02*
X19503Y35855D01*
X19559Y35771D01*
X19812Y35519D01*
X19895Y35463D01*
X19948Y35452D01*
X20016Y35380D01*
X20550Y35396D01*
X20634Y35293D01*
X20597Y35201D01*
X19741D01*
X19407Y34814D01*
X19348Y34789D01*
X19236Y34677D01*
X19186Y34556D01*
X19154Y34519D01*
X18721Y34519D01*
Y34001D01*
X18606Y33866D01*
X17427D01*
X17415Y33861D01*
X17200Y34076D01*
X17200Y35730D01*
X17429Y35959D01*
X17795D01*
Y36172D01*
X17799Y36178D01*
X19145Y36309D01*
X19485Y35946D01*
D02*
G37*
G36*
X6100Y35855D02*
X6531Y35425D01*
X7727D01*
X7770Y35298D01*
X7713Y35229D01*
X6529D01*
X5400Y33900D01*
X4290Y33900D01*
X4200Y33990D01*
X4200Y35100D01*
X5400Y36300D01*
X6100D01*
Y35855D01*
D02*
G37*
G36*
X20849Y34476D02*
Y34398D01*
X20939D01*
X21900Y33466D01*
Y32466D01*
X19996D01*
Y34500D01*
X20754Y34565D01*
X20849Y34476D01*
D02*
G37*
G36*
X67547Y35831D02*
Y32827D01*
X67542Y32819D01*
X67522Y32720D01*
X67542Y32621D01*
X67598Y32537D01*
X68767Y31367D01*
X68752Y31320D01*
X68705Y31250D01*
X68570D01*
X68423Y31189D01*
X68311Y31077D01*
X68250Y30930D01*
Y30770D01*
X68311Y30623D01*
X68423Y30511D01*
X68570Y30450D01*
X68730D01*
X68877Y30511D01*
X68989Y30623D01*
X69050Y30770D01*
Y30905D01*
X69120Y30952D01*
X69167Y30967D01*
X70817Y29317D01*
X70777Y29178D01*
X70684Y29139D01*
X70572Y29027D01*
X70511Y28880D01*
Y28720D01*
X70572Y28573D01*
X70684Y28461D01*
X70831Y28400D01*
X70990D01*
X71137Y28461D01*
X71250Y28573D01*
X71288Y28667D01*
X71428Y28706D01*
X74388Y25746D01*
Y24391D01*
X74408Y24293D01*
X74431Y24258D01*
X74433Y24249D01*
X74489Y24165D01*
X74731Y23923D01*
X74689Y23785D01*
X74682Y23783D01*
X74590Y23722D01*
X74529Y23630D01*
X74516Y23565D01*
X74437Y23451D01*
X74329Y23430D01*
X74237Y23368D01*
X74175Y23276D01*
X74153Y23168D01*
X74084Y23098D01*
X73975Y23076D01*
X73883Y23015D01*
X73821Y22923D01*
X73800Y22814D01*
X73730Y22744D01*
X73730Y22744D01*
X73621Y22723D01*
X73529Y22661D01*
X73468Y22569D01*
X73446Y22461D01*
X73376Y22391D01*
X73268Y22369D01*
X73176Y22308D01*
X73114Y22216D01*
X73101Y22151D01*
X73023Y22037D01*
X72914Y22016D01*
X72822Y21954D01*
X72761Y21862D01*
X72739Y21754D01*
X72669Y21684D01*
X72561Y21662D01*
X72469Y21601D01*
X72407Y21509D01*
X72394Y21444D01*
X72316Y21330D01*
X72207Y21309D01*
X72115Y21247D01*
X72054Y21155D01*
X72032Y21046D01*
X71962Y20977D01*
X71854Y20955D01*
X71762Y20894D01*
X71700Y20801D01*
X71679Y20693D01*
X71609Y20623D01*
X71500Y20601D01*
X71408Y20540D01*
X71347Y20448D01*
X71325Y20339D01*
X71255Y20270D01*
X71255Y20270D01*
X71147Y20248D01*
X71054Y20186D01*
X70993Y20094D01*
X70980Y20030D01*
X70902Y19916D01*
X70793Y19894D01*
X70701Y19833D01*
X70639Y19741D01*
X70627Y19676D01*
X70577Y19604D01*
X70504Y19554D01*
X70439Y19541D01*
X70347Y19479D01*
X70286Y19387D01*
X70273Y19323D01*
X70223Y19250D01*
X70150Y19200D01*
X70086Y19187D01*
X69994Y19126D01*
X69932Y19034D01*
X69920Y18969D01*
X69841Y18855D01*
X69732Y18834D01*
X69640Y18772D01*
X69579Y18680D01*
X69557Y18572D01*
X69487Y18502D01*
X69379Y18480D01*
X69287Y18419D01*
X69225Y18327D01*
X69212Y18262D01*
X69162Y18190D01*
X69090Y18139D01*
X69025Y18127D01*
X68933Y18065D01*
X68923Y18050D01*
X68780Y18064D01*
X68764Y18102D01*
X68652Y18214D01*
X68505Y18275D01*
X68345D01*
X68198Y18214D01*
X68086Y18102D01*
X68025Y17955D01*
Y17795D01*
X68086Y17648D01*
X68198Y17536D01*
X68239Y17519D01*
X68253Y17376D01*
X68226Y17358D01*
X68165Y17266D01*
X68151Y17200D01*
X67395D01*
X67382Y17266D01*
X67320Y17358D01*
X67228Y17420D01*
X67120Y17441D01*
X67104Y17438D01*
X66999Y17511D01*
X66981Y17600D01*
X66930Y17675D01*
X66855Y17726D01*
X66766Y17743D01*
X66693Y17849D01*
X66696Y17865D01*
X66675Y17973D01*
X66613Y18065D01*
X66521Y18127D01*
X66413Y18148D01*
X66334Y18262D01*
X66321Y18327D01*
X66260Y18419D01*
X66168Y18480D01*
X66059Y18502D01*
X65981Y18616D01*
X65968Y18680D01*
X65906Y18772D01*
X65814Y18834D01*
X65706Y18855D01*
X65636Y18925D01*
X65614Y19034D01*
X65553Y19126D01*
X65461Y19187D01*
X65352Y19209D01*
X65273Y19323D01*
X65261Y19387D01*
X65199Y19479D01*
X65107Y19541D01*
X64998Y19562D01*
X64929Y19632D01*
X64907Y19741D01*
X64845Y19833D01*
X64753Y19894D01*
X64645Y19916D01*
X64566Y20030D01*
X64553Y20094D01*
X64492Y20186D01*
X64400Y20248D01*
X64335Y20261D01*
X64263Y20311D01*
X64213Y20383D01*
X64200Y20448D01*
X64138Y20540D01*
X64046Y20601D01*
X63938Y20623D01*
X63859Y20737D01*
X63846Y20801D01*
X63785Y20894D01*
X63772Y20902D01*
X63786Y21045D01*
X63802Y21052D01*
X63914Y21164D01*
X63975Y21311D01*
Y21470D01*
X63914Y21617D01*
X63802Y21730D01*
X63655Y21791D01*
X63495D01*
X63348Y21730D01*
X63236Y21617D01*
X63202Y21536D01*
X63063Y21532D01*
X63041Y21564D01*
X62966Y21615D01*
X62877Y21632D01*
X62804Y21738D01*
X62807Y21754D01*
X62786Y21862D01*
X62724Y21954D01*
X62632Y22016D01*
X62568Y22029D01*
X62454Y22107D01*
X62432Y22216D01*
X62371Y22308D01*
X62279Y22369D01*
X62170Y22391D01*
X62100Y22461D01*
X62079Y22569D01*
X62017Y22661D01*
X61925Y22723D01*
X61860Y22736D01*
X61747Y22814D01*
X61725Y22923D01*
X61664Y23015D01*
X61572Y23076D01*
X61463Y23098D01*
X61393Y23168D01*
X61371Y23276D01*
X61310Y23368D01*
X61218Y23430D01*
X61109Y23451D01*
X61040Y23521D01*
X61018Y23630D01*
X60956Y23722D01*
X60864Y23783D01*
X60756Y23805D01*
X60677Y23919D01*
X60664Y23983D01*
X60603Y24076D01*
X60511Y24137D01*
X60446Y24150D01*
X60374Y24200D01*
X60324Y24272D01*
X60311Y24337D01*
X60249Y24429D01*
X60157Y24491D01*
X60093Y24503D01*
X59979Y24582D01*
X59957Y24691D01*
X59896Y24783D01*
X59804Y24844D01*
X59739Y24857D01*
X59667Y24907D01*
X59617Y24980D01*
X59604Y25044D01*
X59542Y25136D01*
X59450Y25198D01*
X59386Y25211D01*
X59313Y25261D01*
X59263Y25333D01*
X59250Y25398D01*
X59189Y25490D01*
X59097Y25551D01*
X59032Y25564D01*
X58960Y25614D01*
X58909Y25687D01*
X58897Y25751D01*
X58835Y25843D01*
X58743Y25905D01*
X58634Y25926D01*
X58563Y25912D01*
X58270Y26205D01*
X58723Y26658D01*
X58727Y26663D01*
X58768Y26704D01*
X58835Y26749D01*
X58849Y26769D01*
X58902Y26770D01*
X58985Y26745D01*
X59036Y26623D01*
X59148Y26511D01*
X59295Y26450D01*
X59455D01*
X59602Y26511D01*
X59714Y26623D01*
X59775Y26770D01*
Y26930D01*
X59714Y27077D01*
X59602Y27189D01*
X59455Y27250D01*
X59446D01*
X59399Y27312D01*
X59422Y27407D01*
X59442Y27448D01*
X58792Y28099D01*
X58900Y28207D01*
X59549Y27557D01*
X59556Y27568D01*
X59574Y27657D01*
X59689Y27728D01*
X59695Y27727D01*
X59804Y27748D01*
X59896Y27810D01*
X59957Y27902D01*
X59979Y28010D01*
X60093Y28089D01*
X60157Y28102D01*
X60249Y28163D01*
X60311Y28255D01*
X60324Y28320D01*
X60402Y28434D01*
X60511Y28455D01*
X60603Y28517D01*
X60664Y28609D01*
X60677Y28673D01*
X60756Y28787D01*
X60864Y28809D01*
X60956Y28870D01*
X61018Y28962D01*
X61040Y29071D01*
X61109Y29141D01*
X61218Y29162D01*
X61310Y29224D01*
X61371Y29316D01*
X61393Y29424D01*
X61463Y29494D01*
X61572Y29516D01*
X61664Y29577D01*
X61725Y29669D01*
X61738Y29734D01*
X61816Y29848D01*
X61925Y29869D01*
X62017Y29931D01*
X62079Y30023D01*
X62100Y30132D01*
X62170Y30201D01*
X62279Y30223D01*
X62371Y30284D01*
X62432Y30377D01*
X62454Y30485D01*
X62568Y30564D01*
X62632Y30577D01*
X62724Y30638D01*
X62738Y30659D01*
X62881Y30645D01*
X62911Y30573D01*
X63023Y30461D01*
X63170Y30400D01*
X63330D01*
X63477Y30461D01*
X63589Y30573D01*
X63650Y30720D01*
Y30880D01*
X63589Y31027D01*
X63515Y31100D01*
Y31330D01*
X63580Y31397D01*
X63672Y31381D01*
X63686Y31348D01*
X63798Y31236D01*
X63945Y31175D01*
X64105D01*
X64252Y31236D01*
X64364Y31348D01*
X64425Y31495D01*
Y31655D01*
X64364Y31802D01*
X64252Y31914D01*
X64139Y31961D01*
X64111Y32058D01*
X64108Y32072D01*
X64110Y32100D01*
X64152Y32164D01*
X64170Y32253D01*
X64285Y32324D01*
X64291Y32323D01*
X64400Y32344D01*
X64492Y32406D01*
X64553Y32498D01*
X64575Y32606D01*
X64645Y32676D01*
X64754Y32698D01*
X64846Y32759D01*
X64907Y32851D01*
X64920Y32916D01*
X64998Y33030D01*
X65107Y33051D01*
X65199Y33113D01*
X65261Y33205D01*
X65273Y33270D01*
X65324Y33342D01*
X65396Y33392D01*
X65461Y33405D01*
X65553Y33466D01*
X65614Y33559D01*
X65627Y33623D01*
X65706Y33737D01*
X65814Y33759D01*
X65906Y33820D01*
X65968Y33912D01*
X65989Y34021D01*
X66059Y34091D01*
X66168Y34112D01*
X66260Y34174D01*
X66321Y34266D01*
X66343Y34374D01*
X66457Y34453D01*
X66521Y34466D01*
X66613Y34527D01*
X66675Y34619D01*
X66696Y34728D01*
X66766Y34798D01*
X66875Y34819D01*
X66967Y34881D01*
X67028Y34973D01*
X67050Y35081D01*
X67120Y35151D01*
X67228Y35173D01*
X67320Y35234D01*
X67382Y35326D01*
X67403Y35435D01*
X67382Y35543D01*
X67320Y35635D01*
X67253Y35703D01*
X67430Y35880D01*
X67547Y35831D01*
D02*
G37*
G36*
X7800Y34425D02*
Y33906D01*
X8250Y33624D01*
Y31825D01*
X6900D01*
Y33624D01*
X7200Y33906D01*
Y34425D01*
X7350Y34598D01*
X7660D01*
X7800Y34425D01*
D02*
G37*
G36*
X7719Y35024D02*
Y34827D01*
X7127D01*
X6900Y34600D01*
Y34000D01*
X6200Y33300D01*
X6200Y31825D01*
X4939Y31825D01*
X4849Y31915D01*
X4849Y33614D01*
X5609D01*
X6404Y34410D01*
Y34666D01*
X6724Y34985D01*
X6762Y35001D01*
X6785Y35024D01*
X7719D01*
X7719Y35024D01*
D02*
G37*
G36*
X20669Y34949D02*
Y34800D01*
X19996D01*
X19825Y34629D01*
Y33899D01*
X19150Y33225D01*
X19150Y31819D01*
X17889Y31819D01*
X17799Y31909D01*
X17799Y33539D01*
X18559D01*
X19355Y34335D01*
Y34533D01*
X19375Y34583D01*
X19442Y34650D01*
X19470Y34662D01*
X19498Y34689D01*
X19532Y34706D01*
X19785Y35000D01*
X20648D01*
X20669Y34949D01*
D02*
G37*
G36*
X36020Y28601D02*
X36082Y28575D01*
X36138Y28538D01*
X36162Y28514D01*
X36192Y28484D01*
X36238Y28414D01*
X36270Y28336D01*
X36287Y28254D01*
Y27242D01*
X36259Y27103D01*
X36204Y26971D01*
X36128Y26857D01*
X35585Y26314D01*
X35533D01*
X35428Y26335D01*
X35330Y26376D01*
X35241Y26435D01*
X35203Y26473D01*
X34287Y27389D01*
X35494Y28596D01*
X35494Y28596D01*
Y28596D01*
X35531Y28614D01*
X35954D01*
X36020Y28601D01*
D02*
G37*
G36*
X68875Y36775D02*
X69120Y36530D01*
X68226Y35635D01*
X68165Y35543D01*
X68143Y35435D01*
X68165Y35326D01*
X68226Y35234D01*
X68318Y35173D01*
X68341Y35168D01*
X68352Y35151D01*
X68350Y35027D01*
X68348Y35027D01*
X68236Y34914D01*
X68175Y34767D01*
Y34608D01*
X68236Y34461D01*
X68348Y34348D01*
X68495Y34288D01*
X68655D01*
X68802Y34348D01*
X68914Y34461D01*
X69045Y34513D01*
X69134Y34495D01*
X69205Y34380D01*
X69204Y34374D01*
X69225Y34266D01*
X69287Y34174D01*
X69379Y34112D01*
X69443Y34099D01*
X69516Y34049D01*
X69566Y33977D01*
X69579Y33912D01*
X69640Y33820D01*
X69732Y33759D01*
X69841Y33737D01*
X69911Y33667D01*
X69932Y33559D01*
X69994Y33466D01*
X70086Y33405D01*
X70194Y33383D01*
X70264Y33314D01*
X70286Y33205D01*
X70347Y33113D01*
X70439Y33051D01*
X70504Y33039D01*
X70618Y32960D01*
X70639Y32851D01*
X70701Y32759D01*
X70793Y32698D01*
X70902Y32676D01*
X70971Y32606D01*
X70993Y32498D01*
X71054Y32406D01*
X71147Y32344D01*
X71255Y32323D01*
X71325Y32253D01*
X71347Y32144D01*
X71408Y32052D01*
X71500Y31991D01*
X71609Y31969D01*
X71679Y31899D01*
X71700Y31791D01*
X71762Y31699D01*
X71854Y31637D01*
X71962Y31616D01*
X72032Y31546D01*
X72054Y31437D01*
X72115Y31345D01*
X72207Y31284D01*
X72316Y31262D01*
X72386Y31192D01*
X72407Y31084D01*
X72469Y30992D01*
X72561Y30930D01*
X72669Y30909D01*
X72739Y30839D01*
X72761Y30730D01*
X72822Y30638D01*
X72914Y30577D01*
X73023Y30555D01*
X73093Y30485D01*
X73114Y30377D01*
X73176Y30284D01*
X73268Y30223D01*
X73332Y30210D01*
X73405Y30160D01*
X73455Y30088D01*
X73468Y30023D01*
X73529Y29931D01*
X73621Y29869D01*
X73730Y29848D01*
X73800Y29778D01*
X73821Y29669D01*
X73883Y29577D01*
X73975Y29516D01*
X74040Y29503D01*
X74112Y29453D01*
X74162Y29380D01*
X74175Y29316D01*
X74236Y29224D01*
X74329Y29162D01*
X74437Y29141D01*
X74507Y29071D01*
X74529Y28962D01*
X74581Y28884D01*
X74589Y28860D01*
X74582Y28723D01*
X74511Y28652D01*
X74450Y28505D01*
Y28345D01*
X74511Y28198D01*
X74623Y28086D01*
X74770Y28025D01*
X74930D01*
X75077Y28086D01*
X75148Y28158D01*
X75288Y28163D01*
X75309Y28155D01*
X75389Y28102D01*
X75498Y28080D01*
X75576Y27966D01*
X75589Y27902D01*
X75651Y27810D01*
X75743Y27748D01*
X75851Y27727D01*
X75921Y27657D01*
X75943Y27548D01*
X76004Y27456D01*
X76096Y27395D01*
X76205Y27373D01*
X76275Y27303D01*
X76296Y27195D01*
X76358Y27103D01*
X76438Y27049D01*
X76518Y26950D01*
Y26950D01*
X76879Y26589D01*
X76672Y26382D01*
X76630Y26400D01*
X76470D01*
X76323Y26339D01*
X76211Y26227D01*
X76150Y26080D01*
Y25920D01*
X76211Y25773D01*
X76323Y25661D01*
X76428Y25617D01*
X76432Y25606D01*
X76436Y25519D01*
X77108Y24847D01*
X77000Y24739D01*
X76351Y25389D01*
X76344Y25378D01*
X76326Y25289D01*
X76211Y25218D01*
X76205Y25219D01*
X76096Y25198D01*
X76004Y25136D01*
X75943Y25044D01*
X75921Y24936D01*
X75851Y24866D01*
X75743Y24844D01*
X75651Y24783D01*
X75589Y24691D01*
X75576Y24626D01*
X75498Y24512D01*
X75389Y24491D01*
X75297Y24429D01*
X75236Y24337D01*
X75234Y24330D01*
X75096Y24288D01*
X74905Y24480D01*
Y25854D01*
X74885Y25952D01*
X74829Y26036D01*
X68013Y32852D01*
Y36463D01*
X68325Y36775D01*
X68875Y36775D01*
D02*
G37*
G36*
X34900Y26500D02*
Y25830D01*
X32495Y23425D01*
X32075D01*
X31344Y24156D01*
X31373Y24306D01*
X31390Y24313D01*
X31717Y23987D01*
X32038Y24308D01*
X31681Y24665D01*
X31735Y24719D01*
X31681Y24773D01*
X32056Y25148D01*
X32052Y25152D01*
X32255Y25355D01*
X32278Y25332D01*
X32637Y25691D01*
X32995Y26050D01*
X32973Y26073D01*
X33177Y26277D01*
X33216Y26237D01*
X33608Y26630D01*
X34000Y27022D01*
X33961Y27061D01*
X34150Y27250D01*
X34900Y26500D01*
D02*
G37*
G36*
X34700Y28400D02*
X34000Y27700D01*
X33725D01*
X30720Y24695D01*
X30652Y24764D01*
X30505Y24825D01*
X30345D01*
X30198Y24764D01*
X30086Y24652D01*
X30025Y24505D01*
Y24345D01*
X30086Y24198D01*
X30117Y24167D01*
Y24024D01*
X28881Y22872D01*
X28733Y22907D01*
X28720Y22943D01*
X29425Y23648D01*
X29425Y24825D01*
X29625Y25025D01*
X29705D01*
X29852Y25086D01*
X29964Y25198D01*
X30025Y25345D01*
Y25425D01*
X33700Y29100D01*
X34000D01*
X34700Y28400D01*
D02*
G37*
G36*
X30600Y28602D02*
Y28202D01*
X29375Y26976D01*
X29375Y25741D01*
X29286Y25652D01*
X29225Y25505D01*
Y25391D01*
X28892Y25058D01*
X28836Y24974D01*
X28817Y24875D01*
Y24191D01*
X28009Y23384D01*
X27799Y23595D01*
X27795Y23613D01*
X27740Y23695D01*
X27506Y23929D01*
X27491Y23952D01*
X27000Y24442D01*
Y24702D01*
X26400Y25302D01*
Y25602D01*
X29900Y29102D01*
X30100D01*
X30600Y28602D01*
D02*
G37*
%LPC*%
G36*
X8126Y66605D02*
X7701D01*
Y66180D01*
X8126D01*
Y66605D01*
D02*
G37*
G36*
X11481Y66531D02*
X10976D01*
Y66002D01*
X11481D01*
Y66531D01*
D02*
G37*
G36*
X10823D02*
X10319D01*
Y66002D01*
X10823D01*
Y66531D01*
D02*
G37*
G36*
X17008Y66008D02*
X16576D01*
Y65603D01*
X17008D01*
Y66008D01*
D02*
G37*
G36*
X16423D02*
X15992D01*
Y65603D01*
X16423D01*
Y66008D01*
D02*
G37*
G36*
X8126Y66027D02*
X7701D01*
Y65602D01*
X8126D01*
Y66027D01*
D02*
G37*
G36*
X7400Y63702D02*
X6927D01*
Y63071D01*
X8098D01*
X8084Y63178D01*
X8013Y63349D01*
X7900Y63495D01*
X7754Y63608D01*
X7583Y63678D01*
X7400Y63702D01*
D02*
G37*
G36*
X17081Y63131D02*
X16576D01*
Y62602D01*
X17081D01*
Y63131D01*
D02*
G37*
G36*
X16423D02*
X15919D01*
Y62602D01*
X16423D01*
Y63131D01*
D02*
G37*
G36*
X18674Y62684D02*
X18100D01*
X17943Y62653D01*
X17810Y62565D01*
X17722Y62432D01*
X17706Y62352D01*
X18674D01*
Y62684D01*
D02*
G37*
G36*
X8098Y62918D02*
X6927D01*
Y62287D01*
X7400D01*
X7583Y62311D01*
X7754Y62382D01*
X7900Y62494D01*
X8013Y62641D01*
X8084Y62812D01*
X8098Y62918D01*
D02*
G37*
G36*
X7966Y61548D02*
X7627D01*
Y61376D01*
X8113D01*
Y61401D01*
X8070Y61505D01*
X7966Y61548D01*
D02*
G37*
G36*
X10452Y60827D02*
X9776D01*
Y60101D01*
X10452D01*
Y60827D01*
D02*
G37*
G36*
X9623D02*
X8948D01*
Y60101D01*
X9623D01*
Y60827D01*
D02*
G37*
G36*
X10452Y59948D02*
X9776D01*
Y59223D01*
X10452D01*
Y59948D01*
D02*
G37*
G36*
X9623D02*
X8948D01*
Y59223D01*
X9623D01*
Y59948D01*
D02*
G37*
G36*
X31031Y62199D02*
X30577D01*
Y61770D01*
X31031D01*
Y62199D01*
D02*
G37*
G36*
X31084Y61414D02*
X30603D01*
Y60909D01*
X31084D01*
Y61414D01*
D02*
G37*
G36*
X54531Y63985D02*
X54102D01*
Y63530D01*
X54531D01*
Y63985D01*
D02*
G37*
G36*
Y63377D02*
X54102D01*
Y62923D01*
X54531D01*
Y63377D01*
D02*
G37*
G36*
Y62585D02*
X54102D01*
Y62130D01*
X54531D01*
Y62585D01*
D02*
G37*
G36*
Y61977D02*
X54102D01*
Y61523D01*
X54531D01*
Y61977D01*
D02*
G37*
G36*
X54477Y61281D02*
X54077D01*
Y60830D01*
X54477D01*
Y61281D01*
D02*
G37*
G36*
Y60677D02*
X54077D01*
Y60227D01*
X54477D01*
Y60677D01*
D02*
G37*
G36*
X38463Y62104D02*
X37988D01*
Y61529D01*
X38463D01*
Y62104D01*
D02*
G37*
G36*
Y61376D02*
X37988D01*
Y60801D01*
X38463D01*
Y61376D01*
D02*
G37*
G36*
X38388Y60374D02*
X37963D01*
Y59874D01*
X38388D01*
Y60374D01*
D02*
G37*
G36*
Y59721D02*
X37963D01*
Y59221D01*
X38388D01*
Y59721D01*
D02*
G37*
G36*
X6463Y55973D02*
X6027D01*
Y55802D01*
X6316D01*
X6420Y55845D01*
X6463Y55948D01*
Y55973D01*
D02*
G37*
G36*
X7473Y55723D02*
X6987D01*
Y55698D01*
X7030Y55595D01*
X7134Y55552D01*
X7473D01*
Y55723D01*
D02*
G37*
G36*
X18674Y55064D02*
X18100D01*
X17943Y55033D01*
X17810Y54945D01*
X17722Y54812D01*
X17706Y54732D01*
X18674D01*
Y55064D01*
D02*
G37*
G36*
X6123Y55503D02*
X5965Y55471D01*
X5766Y55338D01*
X5633Y55139D01*
X5587Y54905D01*
Y54731D01*
X6123D01*
Y55503D01*
D02*
G37*
G36*
X7400Y55062D02*
X6927D01*
Y54431D01*
X8098D01*
X8084Y54538D01*
X8013Y54709D01*
X7900Y54855D01*
X7754Y54968D01*
X7583Y55038D01*
X7400Y55062D01*
D02*
G37*
G36*
X6276Y55503D02*
Y54655D01*
X6200D01*
Y54578D01*
X5587D01*
Y54431D01*
X6774D01*
Y55105D01*
X6767Y55139D01*
X6634Y55338D01*
X6435Y55471D01*
X6276Y55503D01*
D02*
G37*
G36*
X18674Y54579D02*
X17706D01*
X17722Y54498D01*
X17810Y54365D01*
X17943Y54277D01*
X18100Y54246D01*
X18674D01*
Y54579D01*
D02*
G37*
G36*
X8098Y54278D02*
X6927D01*
Y53647D01*
X7400D01*
X7583Y53671D01*
X7754Y53742D01*
X7900Y53854D01*
X8013Y54001D01*
X8084Y54172D01*
X8098Y54278D01*
D02*
G37*
G36*
X6774D02*
X5602D01*
X5616Y54172D01*
X5687Y54001D01*
X5800Y53854D01*
X5946Y53742D01*
X6117Y53671D01*
X6300Y53647D01*
X6774D01*
Y54278D01*
D02*
G37*
G36*
X10427Y53752D02*
X9752D01*
Y53027D01*
X10427D01*
Y53752D01*
D02*
G37*
G36*
X9599D02*
X8923D01*
Y53027D01*
X9599D01*
Y53752D01*
D02*
G37*
G36*
X10427Y52874D02*
X9752D01*
Y52148D01*
X10427D01*
Y52874D01*
D02*
G37*
G36*
X9599D02*
X8923D01*
Y52148D01*
X9599D01*
Y52874D01*
D02*
G37*
G36*
X11637Y49517D02*
X11616D01*
Y48856D01*
X12277D01*
Y48877D01*
X12226Y49064D01*
X12129Y49232D01*
X11992Y49369D01*
X11824Y49466D01*
X11637Y49517D01*
D02*
G37*
G36*
X11463D02*
X11443D01*
X11256Y49466D01*
X11088Y49369D01*
X10951Y49232D01*
X10854Y49064D01*
X10803Y48877D01*
Y48856D01*
X11463D01*
Y49517D01*
D02*
G37*
G36*
X12277Y48703D02*
X11616D01*
Y48043D01*
X11637D01*
X11824Y48094D01*
X11992Y48191D01*
X12129Y48328D01*
X12226Y48496D01*
X12277Y48683D01*
Y48703D01*
D02*
G37*
G36*
X11463D02*
X10803D01*
Y48683D01*
X10854Y48496D01*
X10951Y48328D01*
X11088Y48191D01*
X11256Y48094D01*
X11443Y48043D01*
X11463D01*
Y48703D01*
D02*
G37*
G36*
X4047Y44586D02*
Y43827D01*
X4806D01*
X4748Y44043D01*
X4631Y44246D01*
X4466Y44411D01*
X4263Y44528D01*
X4047Y44586D01*
D02*
G37*
G36*
X3793D02*
X3577Y44528D01*
X3374Y44411D01*
X3209Y44246D01*
X3092Y44043D01*
X3034Y43827D01*
X3793D01*
Y44586D01*
D02*
G37*
G36*
X4806Y43573D02*
X4047D01*
Y42814D01*
X4263Y42872D01*
X4466Y42989D01*
X4631Y43154D01*
X4748Y43357D01*
X4806Y43573D01*
D02*
G37*
G36*
X3793D02*
X3034D01*
X3092Y43357D01*
X3209Y43154D01*
X3374Y42989D01*
X3577Y42872D01*
X3793Y42814D01*
Y43573D01*
D02*
G37*
G36*
X38481Y46953D02*
X38027D01*
Y46525D01*
X38481D01*
Y46953D01*
D02*
G37*
G36*
X37874D02*
X37419D01*
Y46525D01*
X37874D01*
Y46953D01*
D02*
G37*
G36*
X36595Y46599D02*
X36079D01*
Y46449D01*
X36384D01*
X36471Y46467D01*
X36544Y46516D01*
X36593Y46589D01*
X36595Y46599D01*
D02*
G37*
G36*
X38481Y46372D02*
X38027D01*
Y45943D01*
X38481D01*
Y46372D01*
D02*
G37*
G36*
X37874D02*
X37419D01*
Y45943D01*
X37874D01*
Y46372D01*
D02*
G37*
G36*
X10752Y38123D02*
X10052D01*
Y37198D01*
X10752D01*
Y38123D01*
D02*
G37*
G36*
X9899D02*
X9198D01*
Y37198D01*
X9899D01*
Y38123D01*
D02*
G37*
G36*
X11427Y36477D02*
X10927D01*
Y36052D01*
X11427D01*
Y36477D01*
D02*
G37*
G36*
X10774D02*
X10273D01*
Y36052D01*
X10774D01*
Y36477D01*
D02*
G37*
G36*
X11427Y35899D02*
X10927D01*
Y35474D01*
X11427D01*
Y35899D01*
D02*
G37*
G36*
X11102Y33727D02*
X10401D01*
Y32801D01*
X11102D01*
Y33727D01*
D02*
G37*
G36*
X10248D02*
X9548D01*
Y32801D01*
X10248D01*
Y33727D01*
D02*
G37*
G36*
X11102Y32648D02*
X10401D01*
Y31723D01*
X11102D01*
Y32648D01*
D02*
G37*
G36*
X10248D02*
X9548D01*
Y31723D01*
X10248D01*
Y32648D01*
D02*
G37*
G36*
X43568Y36811D02*
X43117D01*
Y36411D01*
X43568D01*
Y36811D01*
D02*
G37*
G36*
X42964D02*
X42514D01*
Y36411D01*
X42964D01*
Y36811D01*
D02*
G37*
G36*
X40973Y36809D02*
X40542D01*
Y36405D01*
X40973D01*
Y36809D01*
D02*
G37*
G36*
X40389D02*
X39958D01*
Y36405D01*
X40389D01*
Y36809D01*
D02*
G37*
G36*
X42321Y36810D02*
X41867D01*
Y36382D01*
X42321D01*
Y36810D01*
D02*
G37*
G36*
X41714D02*
X41260D01*
Y36382D01*
X41714D01*
Y36810D01*
D02*
G37*
G36*
X23952Y39202D02*
X23251D01*
Y38276D01*
X23952D01*
Y39202D01*
D02*
G37*
G36*
X23098D02*
X22398D01*
Y38276D01*
X23098D01*
Y39202D01*
D02*
G37*
G36*
X23952Y38123D02*
X23251D01*
Y37198D01*
X23952D01*
Y38123D01*
D02*
G37*
G36*
X23098D02*
X22398D01*
Y37198D01*
X23098D01*
Y38123D01*
D02*
G37*
G36*
X23699Y36326D02*
X23274D01*
Y36000D01*
X23699D01*
Y36326D01*
D02*
G37*
G36*
X24197Y33720D02*
X23497D01*
Y32795D01*
X24197D01*
Y33720D01*
D02*
G37*
G36*
X23344D02*
X22644D01*
Y32795D01*
X23344D01*
Y33720D01*
D02*
G37*
G36*
X67650Y31303D02*
X67491D01*
X67344Y31242D01*
X67231Y31129D01*
X67170Y30982D01*
Y30823D01*
X67231Y30676D01*
X67344Y30563D01*
X67491Y30503D01*
X67650D01*
X67797Y30563D01*
X67909Y30676D01*
X67970Y30823D01*
Y30982D01*
X67909Y31129D01*
X67797Y31242D01*
X67650Y31303D01*
D02*
G37*
G36*
X68480Y29750D02*
X68320D01*
X68173Y29689D01*
X68061Y29577D01*
X68000Y29430D01*
Y29270D01*
X68061Y29123D01*
X68173Y29011D01*
X68320Y28950D01*
X68480D01*
X68627Y29011D01*
X68739Y29123D01*
X68800Y29270D01*
Y29430D01*
X68739Y29577D01*
X68627Y29689D01*
X68480Y29750D01*
D02*
G37*
G36*
X71055Y28000D02*
X70895D01*
X70748Y27939D01*
X70636Y27827D01*
X70575Y27680D01*
Y27520D01*
X70636Y27373D01*
X70748Y27261D01*
X70895Y27200D01*
X71055D01*
X71202Y27261D01*
X71314Y27373D01*
X71375Y27520D01*
Y27680D01*
X71314Y27827D01*
X71202Y27939D01*
X71055Y28000D01*
D02*
G37*
G36*
X64180Y27950D02*
X64020D01*
X63873Y27889D01*
X63761Y27777D01*
X63700Y27630D01*
Y27470D01*
X63761Y27323D01*
X63873Y27211D01*
X64020Y27150D01*
X64180D01*
X64327Y27211D01*
X64439Y27323D01*
X64500Y27470D01*
Y27630D01*
X64439Y27777D01*
X64327Y27889D01*
X64180Y27950D01*
D02*
G37*
G36*
X65680Y27025D02*
X65520D01*
X65373Y26964D01*
X65261Y26852D01*
X65200Y26705D01*
Y26545D01*
X65261Y26398D01*
X65373Y26286D01*
X65520Y26225D01*
X65680D01*
X65827Y26286D01*
X65939Y26398D01*
X66000Y26545D01*
Y26705D01*
X65939Y26852D01*
X65827Y26964D01*
X65680Y27025D01*
D02*
G37*
G36*
X64230Y26800D02*
X64070D01*
X63923Y26739D01*
X63811Y26627D01*
X63750Y26480D01*
Y26320D01*
X63811Y26173D01*
X63923Y26061D01*
X64070Y26000D01*
X64230D01*
X64377Y26061D01*
X64489Y26173D01*
X64550Y26320D01*
Y26480D01*
X64489Y26627D01*
X64377Y26739D01*
X64230Y26800D01*
D02*
G37*
G36*
X34108Y26914D02*
X33770Y26575D01*
X34108Y26238D01*
X34446Y26576D01*
X34108Y26914D01*
D02*
G37*
G36*
X33662Y26467D02*
X33324Y26129D01*
X33662Y25791D01*
X34000Y26130D01*
X33662Y26467D01*
D02*
G37*
G36*
X33104Y25942D02*
X32799Y25637D01*
X33085Y25352D01*
X33389Y25656D01*
X33104Y25942D01*
D02*
G37*
G36*
X32691Y25529D02*
X32386Y25224D01*
X32672Y24939D01*
X32976Y25243D01*
X32691Y25529D01*
D02*
G37*
G36*
X32165Y25040D02*
X31843Y24719D01*
X32146Y24416D01*
X32467Y24737D01*
X32165Y25040D01*
D02*
G37*
%LPD*%
D11*
X48400Y53149D02*
X48674Y52875D01*
X48400Y53149D02*
Y54777D01*
X48900Y53679D02*
Y54777D01*
X48827Y53606D02*
X48900Y53679D01*
X48827Y53539D02*
Y53606D01*
D12*
X26472Y27841D02*
X27066Y27248D01*
Y27226D02*
X28032Y28192D01*
X26466Y27841D02*
X26472D01*
X26459D02*
X26466D01*
X27409Y28784D01*
X25575Y26950D02*
X26466Y27841D01*
X27472Y28752D02*
X28032Y28192D01*
X27409Y28784D02*
X27453D01*
X27462Y28793D01*
X26208Y26342D02*
X26208D01*
X25610Y26940D02*
X26208Y26342D01*
X25585Y26940D02*
X25610D01*
X25575Y26950D02*
X25585Y26940D01*
X26208Y26368D02*
X27066Y27226D01*
Y27248D01*
X28032Y28192D02*
Y28218D01*
Y28192D02*
Y28192D01*
X27472Y28752D02*
Y28784D01*
X27462Y28793D02*
X27472Y28784D01*
X26208Y26342D02*
Y26368D01*
X18206Y17970D02*
X18875Y18638D01*
X16900Y22700D02*
X17604Y21996D01*
X17796D01*
X17129Y21335D02*
X17791Y21996D01*
X17124Y21335D02*
X17129D01*
X19150Y18638D02*
X19589Y19077D01*
X19603D01*
X20167Y19628D02*
X20201D01*
X19616Y19077D02*
X20167Y19628D01*
X19603Y19077D02*
X19616D01*
X20201Y19628D02*
X20203D01*
X21013Y18818D01*
X21015D01*
X18927Y18638D02*
X19451Y18115D01*
X77803Y35827D02*
X77875D01*
X37232Y44659D02*
X37239Y44666D01*
X37225Y43978D02*
X37232Y43985D01*
X37225Y43978D02*
X37232Y43971D01*
Y42750D02*
Y43971D01*
X73695Y53843D02*
Y54606D01*
Y53843D02*
X73725Y53814D01*
Y53800D02*
Y53814D01*
X5925Y22825D02*
X6550D01*
X28250Y62275D02*
X30500D01*
D15*
X47675Y63600D02*
X48400D01*
X48400Y63600D01*
X47900Y52875D02*
X48674D01*
X48827Y53028D02*
Y53539D01*
X2775Y32725D02*
Y34150D01*
X2800Y34125D02*
X3450D01*
X2775Y34150D02*
X2800Y34125D01*
X2775Y34150D02*
Y35425D01*
X15726Y32719D02*
Y34075D01*
Y35419D01*
X15682Y35375D02*
X15726Y35419D01*
X14700Y35375D02*
X15682D01*
X15726Y32719D02*
X15745Y32700D01*
X16800D01*
X15650Y32643D02*
X15726Y32719D01*
X15650Y31450D02*
Y32643D01*
X15726Y35419D02*
Y35575D01*
X16151Y36000D01*
X16800D01*
X18075Y41625D02*
Y42475D01*
X18075Y42475D01*
X23524Y43399D02*
X23525Y43399D01*
X22151Y43399D02*
X23524D01*
X22150Y43398D02*
X22151Y43399D01*
X38600Y64678D02*
Y64704D01*
X37014Y64513D02*
X38435D01*
X38600Y64678D01*
X21346Y35300D02*
X21441Y35395D01*
Y35551D01*
X21346Y35300D02*
X21346Y35300D01*
X21527Y36387D02*
Y36825D01*
X21441Y36301D02*
X21527Y36387D01*
X21441Y35551D02*
Y36301D01*
X23057Y33082D02*
X23420Y32719D01*
X23057Y33082D02*
Y33973D01*
X23420Y32719D02*
X23435Y32704D01*
X24533D01*
X22770Y32068D02*
X22770Y32069D01*
X22316Y32068D02*
X22770D01*
X22770Y32069D02*
X22995D01*
X23420Y32494D02*
Y32719D01*
X22995Y32069D02*
X23420Y32494D01*
X10025Y33025D02*
X10325Y32725D01*
X10025Y33025D02*
Y33838D01*
X9858Y34004D02*
X10025Y33838D01*
X9296Y32725D02*
X10325D01*
X10329Y32729D01*
X11408D01*
X9971Y38204D02*
X9975Y38200D01*
X8899Y38204D02*
X9971D01*
X9975Y38200D02*
X10029Y38254D01*
X11083D01*
X9975Y38200D02*
X9990Y38185D01*
Y36931D02*
Y38185D01*
X10850Y35975D02*
X11000Y36125D01*
X11625D01*
X11809Y36309D01*
X10808Y36017D02*
X10850Y35975D01*
X10808Y36017D02*
Y36829D01*
X10325Y31400D02*
Y32725D01*
X8459Y35490D02*
Y36616D01*
Y35160D02*
Y35490D01*
Y34126D02*
Y35160D01*
X8450Y36625D02*
X8459Y36616D01*
X37225Y42729D02*
X37239Y42743D01*
X37225Y41900D02*
Y42729D01*
X37232Y42750D02*
X37239Y42743D01*
X34737Y42660D02*
Y43896D01*
Y42660D02*
X34750Y42673D01*
X34725Y43908D02*
X34737Y43896D01*
X34725Y42648D02*
X34737Y42660D01*
X39861Y42709D02*
X39871Y42698D01*
X39861Y42709D02*
Y43960D01*
X39850Y43971D02*
X39861Y43960D01*
X39871Y42698D02*
X39873Y42699D01*
X40696D01*
X39850Y42676D02*
X39871Y42698D01*
X39850Y41900D02*
Y42676D01*
Y43971D02*
X39871Y43993D01*
Y44700D01*
X39850Y43971D02*
X40655D01*
X77307Y34541D02*
X77359D01*
X2775Y35425D02*
X3050Y35700D01*
X2754Y35404D02*
X2775Y35425D01*
X3200Y31413D02*
Y32300D01*
Y31413D02*
X3308Y31304D01*
X2775Y32725D02*
X3200Y32300D01*
X2787Y32737D02*
X3866D01*
X2775Y32725D02*
X2787Y32737D01*
X1588Y32725D02*
X2775D01*
X1558Y32754D02*
X1588Y32725D01*
X3050Y35700D02*
X3800D01*
X1608Y35404D02*
X2754D01*
X5315Y38825D02*
X5458D01*
Y39529D01*
X5315Y38825D02*
X5465Y38675D01*
X4782Y38825D02*
X5315D01*
X4657Y38950D02*
X4782Y38825D01*
X4500Y38950D02*
X4657D01*
X54026Y58500D02*
Y59304D01*
X51512Y61213D02*
Y61813D01*
X20291Y42716D02*
X20699Y43124D01*
X21849D02*
X21994Y43269D01*
X20699Y43124D02*
X21849D01*
X22021Y43269D02*
X22150Y43398D01*
X21994Y43269D02*
X22021D01*
X22150Y42700D02*
Y43398D01*
X23525Y43399D02*
X23525Y43399D01*
X23525Y42687D02*
Y43399D01*
X20275Y42700D02*
X20291Y42716D01*
Y43764D01*
X20262Y42687D02*
X20275Y42700D01*
X18975Y42687D02*
X20262D01*
X18075Y42475D02*
X18287Y42687D01*
X18975D01*
X18750Y49843D02*
X20505D01*
Y51000D01*
Y49843D02*
X20507Y49841D01*
X22154D01*
X23840D02*
X23850Y49851D01*
X22154Y49841D02*
X23840D01*
X23850Y49851D02*
Y51000D01*
Y49851D02*
X23860Y49841D01*
X25610D01*
X29803Y45630D02*
Y49175D01*
X29141Y46324D02*
X29800D01*
X29141Y47275D02*
X29800D01*
X29141Y48225D02*
X29800D01*
X29790Y45617D02*
X29803Y45630D01*
X34725Y43908D02*
Y44600D01*
X37232Y43985D02*
Y44659D01*
X34725Y41800D02*
Y42648D01*
X31600Y40510D02*
X32255D01*
X32250Y41350D02*
X32263Y41362D01*
Y42588D01*
X32275Y42600D01*
X32250Y41350D02*
X32255Y41344D01*
Y40510D02*
Y41344D01*
X23175Y38200D02*
X23175Y38200D01*
X24200D01*
X23175D02*
X23175Y38200D01*
X22150Y38200D02*
X23175D01*
X37900Y45700D02*
Y46417D01*
X37941Y46457D01*
X37948Y46450D02*
X38825D01*
X37174Y54223D02*
X37326Y54375D01*
X37174Y53574D02*
Y54223D01*
X37326Y54349D02*
X37475Y54200D01*
X38100D01*
X30381Y54393D02*
Y54468D01*
X30531Y54618D01*
X30586D01*
X30879Y54911D02*
Y55146D01*
X30586Y54618D02*
X30879Y54911D01*
Y55146D02*
X30978Y55245D01*
X28250Y54655D02*
X28267Y54672D01*
X29607D01*
X28250Y54655D02*
X28258Y54647D01*
Y53829D02*
Y54647D01*
X30231Y54618D02*
X30381Y54468D01*
X29661Y54618D02*
X30231D01*
X29607Y54672D02*
X29661Y54618D01*
X30381Y54393D02*
X30400Y54373D01*
Y53561D02*
Y54373D01*
X32978Y53477D02*
Y54378D01*
X48827Y52163D02*
Y52722D01*
X48674Y52875D02*
X48827Y52722D01*
X48674Y52875D02*
X48827Y53028D01*
X54030Y59300D02*
X54900D01*
X18771Y38693D02*
X18800D01*
Y39300D01*
X18771Y38693D02*
X18821Y38643D01*
X18314Y38693D02*
X18771D01*
X18107Y38900D02*
X18314Y38693D01*
X18075Y38900D02*
X18107D01*
X51921Y42553D02*
X51924Y42550D01*
X50658Y42553D02*
X51921D01*
X51924Y42550D02*
Y43319D01*
X62800Y50625D02*
X64350D01*
X61100D02*
X62800D01*
X71850Y50575D02*
X71900Y50625D01*
X70375Y50575D02*
X71850D01*
X71900Y50625D02*
X73375D01*
X45850Y64850D02*
Y65475D01*
X45800Y65525D02*
X45850Y65475D01*
Y64850D02*
X46075Y64625D01*
X41791Y68492D02*
X41823Y68524D01*
X40983Y68492D02*
X41791D01*
X41823Y68524D02*
X41824Y68525D01*
X41823Y67762D02*
Y68524D01*
X39851Y64703D02*
Y65575D01*
X39850Y64704D02*
X39851Y64703D01*
X39850Y64704D02*
Y65575D01*
X38599Y64703D02*
X38600Y64704D01*
Y65600D01*
X36958Y64569D02*
X37014Y64513D01*
X36958Y64569D02*
Y65342D01*
X36100Y64513D02*
X37014D01*
X3300Y29277D02*
X3300Y29277D01*
X3298Y29275D02*
X3300Y29277D01*
X3300Y29277D02*
Y30075D01*
X2525Y29275D02*
X3298D01*
X3398Y27925D02*
X3446Y27974D01*
X3300Y28023D02*
Y28023D01*
Y27175D02*
Y28023D01*
X3398Y27925D01*
X3300Y28023D02*
X3300Y28023D01*
X3446Y27974D02*
X4551D01*
X4600Y27925D01*
X5900Y25350D02*
Y26350D01*
X5900Y25350D02*
X5900Y25350D01*
X5000Y25350D02*
X5900D01*
X5903Y23879D02*
X5924Y23900D01*
X5133Y23879D02*
X5903D01*
X5925Y22825D02*
X5925Y22825D01*
X2508Y20999D02*
Y22429D01*
X2533Y19504D02*
Y20941D01*
X2508Y11899D02*
Y13329D01*
X2500Y10100D02*
Y11807D01*
X37950Y47700D02*
X38700D01*
X37900Y47750D02*
X37950Y47700D01*
X37900Y47750D02*
Y48400D01*
X39850Y65575D02*
X39851D01*
X41750Y64538D02*
Y65403D01*
X49900Y64975D02*
X50707D01*
X49900D02*
Y65786D01*
X41000Y66800D02*
X41750D01*
X55056Y37728D02*
Y38724D01*
X55056Y41270D02*
Y42131D01*
X55056Y38724D02*
Y40010D01*
X55056Y40010D02*
Y41270D01*
X28250Y61005D02*
X29631D01*
X74746Y53004D02*
Y53805D01*
X73730D02*
X74746D01*
X76200Y52975D02*
Y53750D01*
X58446Y66488D02*
Y67338D01*
X68021Y66511D02*
Y67263D01*
X71248Y66488D02*
Y67236D01*
X64747Y66488D02*
Y67237D01*
X61596Y67238D02*
X61596Y67237D01*
Y66488D02*
Y67237D01*
X72623Y66588D02*
Y67310D01*
X69372Y66588D02*
Y67311D01*
X66122Y66588D02*
Y67314D01*
X62971Y67313D02*
X62971Y67312D01*
Y66588D02*
Y67312D01*
X59821Y67313D02*
X59821Y67312D01*
Y66588D02*
Y67312D01*
X2425Y28025D02*
X3298D01*
X39839Y64691D02*
X39851Y64703D01*
X39839Y63152D02*
Y64691D01*
D18*
X15175Y29500D02*
X26900D01*
X14225Y30450D02*
X15175Y29500D01*
X26900D02*
X27812Y30412D01*
X9625Y30450D02*
X14225D01*
X7575Y32500D02*
X9625Y30450D01*
X7575Y32500D02*
Y32725D01*
D21*
X47775Y65065D02*
X47865Y64975D01*
X47500Y66400D02*
X47775Y66125D01*
X47865Y64975D02*
X48600D01*
X47775Y65065D02*
Y66125D01*
X46400Y63963D02*
X46750Y64313D01*
X46400Y62604D02*
Y63963D01*
X46750Y64313D02*
Y65525D01*
X48500Y68400D02*
X48575D01*
X46329Y69103D02*
X47808D01*
X45983Y68508D02*
Y68758D01*
X46329Y69103D01*
X48176Y68724D02*
X48500Y68400D01*
X48176Y68724D02*
Y68735D01*
X47808Y69103D02*
X48176Y68735D01*
X45800Y68325D02*
X45983Y68508D01*
X45800Y67575D02*
Y68325D01*
X40712Y59789D02*
X40976Y59525D01*
X41025D01*
X39773Y59789D02*
X40712D01*
X40975Y59575D02*
X41110Y59440D01*
X42737D01*
X42725Y61452D02*
X42737Y61440D01*
X39839Y61452D02*
X42725D01*
X41031Y58593D02*
X41620D01*
X41899Y58440D02*
X42737D01*
X41620Y58593D02*
X41777Y58750D01*
X39934Y57609D02*
X41067D01*
X41777Y58750D02*
X42082D01*
X41067Y57609D02*
X41899Y58440D01*
X52678Y63550D02*
X52774Y63454D01*
X49025Y63550D02*
X52678D01*
X44221Y65506D02*
Y66221D01*
X44771Y66771D02*
X46071D01*
X44221Y66221D02*
X44771Y66771D01*
X45075Y66400D02*
X47500D01*
X44825Y66150D02*
X45075Y66400D01*
X44825Y65550D02*
X44850Y65525D01*
X44825Y65550D02*
Y66150D01*
X45077Y63850D02*
X45354Y63573D01*
X45072Y63852D02*
X45074Y63850D01*
X42763D02*
X44676D01*
X45074D02*
X45077D01*
X44678Y63852D02*
X45072D01*
X44676Y63850D02*
X44678Y63852D01*
X42650Y63850D02*
Y63892D01*
X42379Y64163D02*
Y66710D01*
Y64163D02*
X42650Y63892D01*
X45423Y67198D02*
X45800Y67575D01*
X43374Y67198D02*
X45423D01*
X43050Y66800D02*
Y66875D01*
X43374Y67198D01*
X46071Y66771D02*
X46750Y67450D01*
X65265Y16854D02*
X65402D01*
X64795Y15596D02*
Y16816D01*
X65101Y15723D02*
X65702Y15121D01*
X65101Y15723D02*
Y16690D01*
X65402Y16854D02*
X65917Y17369D01*
X65048Y17070D02*
Y17207D01*
X64795Y16816D02*
X65048Y17070D01*
X65101Y16690D02*
X65265Y16854D01*
X65048Y17207D02*
X65563Y17722D01*
X64795Y15596D02*
X65085Y15306D01*
X67780Y32720D02*
Y36605D01*
X36775Y48675D02*
X37175Y49075D01*
X37575D01*
X36002Y48675D02*
X36775D01*
X37575Y49075D02*
X37700Y49200D01*
X42468Y66800D02*
X43050D01*
X42379Y66710D02*
X42468Y66800D01*
X35840Y56625D02*
X35914Y56699D01*
X36095D01*
X35840Y57125D02*
X35980D01*
X36095Y56699D02*
X36118Y56722D01*
X34420Y57125D02*
X34560D01*
X34420Y57625D02*
X34560D01*
X33650Y57222D02*
X34323D01*
X33523Y57528D02*
X34323D01*
Y57222D02*
X34420Y57125D01*
X34323Y57528D02*
X34420Y57625D01*
X35840D02*
X35980D01*
X35914Y58052D02*
X36087D01*
X35840Y58125D02*
X35914Y58052D01*
X38614Y58447D02*
X38639D01*
X38366Y58199D02*
X38614Y58447D01*
X38366Y58110D02*
Y58199D01*
X38276Y58021D02*
X38366Y58110D01*
X36118Y58021D02*
X38276D01*
X36087Y58052D02*
X36118Y58021D01*
X38625Y57300D02*
X38650D01*
X38210Y57715D02*
X38625Y57300D01*
X36070Y57715D02*
X38210D01*
X35980Y57625D02*
X36070Y57715D01*
X32743Y56748D02*
X33523Y57528D01*
X31966Y56748D02*
X32743D01*
X31877Y56838D02*
X31966Y56748D01*
X31877Y56838D02*
Y57072D01*
X31654Y57295D02*
X31877Y57072D01*
X32870Y56442D02*
X33650Y57222D01*
X31966Y56442D02*
X32870D01*
X31877Y56352D02*
X31966Y56442D01*
X31877Y56118D02*
Y56352D01*
X31654Y55895D02*
X31877Y56118D01*
X41008Y50725D02*
X41233Y50950D01*
X40325Y50725D02*
X41008D01*
X39656Y51394D02*
X40325Y50725D01*
X39656Y51394D02*
Y53833D01*
X36461Y57028D02*
X39656Y53833D01*
X36077Y57028D02*
X36461D01*
X35980Y57125D02*
X36077Y57028D01*
X41156Y50271D02*
X41250D01*
X41008Y50419D02*
X41156Y50271D01*
X40198Y50419D02*
X41008D01*
X39350Y51267D02*
X40198Y50419D01*
X39350Y51267D02*
Y53707D01*
X36335Y56722D02*
X39350Y53707D01*
X36118Y56722D02*
X36335D01*
X6730Y59370D02*
X6800Y59300D01*
X6675Y59425D02*
X6730Y59370D01*
X6742D02*
X6744Y59367D01*
X6444Y58991D02*
X6546Y58889D01*
X5971Y58528D02*
X6873D01*
X7059Y58889D02*
X7090Y58858D01*
X7806Y58358D02*
X7865Y58300D01*
X6873Y58528D02*
X7043Y58358D01*
X6730Y59370D02*
X6742D01*
X7491Y58858D02*
X7550Y58800D01*
X6009Y58991D02*
X6444D01*
X7043Y58358D02*
X7806D01*
X6546Y58889D02*
X7059D01*
X5950Y58550D02*
X5971Y58528D01*
X7090Y58858D02*
X7491D01*
X5950Y59050D02*
X6009Y58991D01*
X6800Y59300D02*
X7550D01*
X7550Y59300D02*
X7550Y59300D01*
X6675Y58050D02*
X6675Y58050D01*
X5950Y58050D02*
X6675D01*
X41233Y50950D02*
X41248D01*
X52751Y60739D02*
Y60754D01*
X50564Y60440D02*
X52452D01*
X52751Y60739D01*
X45354Y63571D02*
X45400Y63525D01*
X45354Y63571D02*
Y63573D01*
X65702Y14400D02*
Y15121D01*
X65025Y14750D02*
X65085Y14810D01*
Y15306D01*
X74279Y33587D02*
X75942Y35251D01*
X73519Y31335D02*
X74584Y32399D01*
X74279Y32801D02*
Y33587D01*
X74584Y32399D02*
Y33383D01*
X73165Y31688D02*
X74279Y32801D01*
X74584Y33383D02*
X76377Y35177D01*
X76671Y35178D02*
Y35654D01*
X77640Y36623D01*
X76671Y35178D02*
X76672Y35177D01*
X7550Y58800D02*
X7865D01*
X43050Y65416D02*
X44131D01*
X44221Y65506D01*
X35225Y50025D02*
X35826Y50626D01*
X34725Y49452D02*
Y50425D01*
X34725D01*
X35225Y49452D02*
Y50025D01*
X32375Y48718D02*
Y51175D01*
X32418Y48675D02*
X32448D01*
X32375Y48718D02*
X32418Y48675D01*
X34225Y49452D02*
Y50125D01*
X33900Y50450D02*
X34225Y50125D01*
X32375Y51175D02*
X32425Y51225D01*
X45150Y64525D02*
X45900Y63775D01*
X43225Y64525D02*
X45150D01*
X45900Y62604D02*
Y63775D01*
X43050Y64700D02*
X43225Y64525D01*
X16335Y56322D02*
X17875D01*
X17965Y56181D02*
X18221Y55925D01*
X18750D01*
X18050Y56718D02*
Y56989D01*
X17965Y56181D02*
Y56232D01*
X17960Y56628D02*
X18050Y56718D01*
X16335Y56628D02*
X17960D01*
X17875Y56322D02*
X17965Y56232D01*
X11975Y56725D02*
Y57425D01*
X9700Y56725D02*
Y57725D01*
X9415Y57440D02*
X9700Y57725D01*
X9415Y56765D02*
Y57440D01*
X11885Y56635D02*
X11975Y56725D01*
X9700D02*
X9790Y56635D01*
X11885D01*
X9325Y56675D02*
X9415Y56765D01*
X9083Y56675D02*
X9325D01*
X7865Y58800D02*
X7962Y58703D01*
X8625Y57133D02*
Y58434D01*
X8356Y58703D02*
X8625Y58434D01*
Y57133D02*
X9083Y56675D01*
X7962Y58703D02*
X8356D01*
X11885Y56329D02*
X11975Y56240D01*
X9790Y56329D02*
X11885D01*
X11975Y55525D02*
Y56240D01*
X9700D02*
X9790Y56329D01*
X9325Y56369D02*
X9415Y56279D01*
Y55510D02*
Y56279D01*
X9675Y55250D02*
X9700Y55275D01*
Y56240D01*
X9415Y55510D02*
X9675Y55250D01*
X8229Y58397D02*
X8319Y58307D01*
X7962Y58397D02*
X8229D01*
X8319Y57006D02*
X8956Y56369D01*
X8319Y57006D02*
Y58307D01*
X8956Y56369D02*
X9325D01*
X7865Y58300D02*
X7962Y58397D01*
X48900Y63425D02*
X49025Y63550D01*
X48900Y62604D02*
Y63425D01*
X34725Y50425D02*
Y51225D01*
X33565Y50785D02*
X33900Y50450D01*
X33900D01*
X39625Y57300D02*
X39934Y57609D01*
X39600Y57300D02*
X39625D01*
X39863Y58124D02*
Y58199D01*
X39614Y58447D02*
X39863Y58199D01*
X39589Y58447D02*
X39614D01*
X40438Y58000D02*
X41031Y58593D01*
X39987Y58000D02*
X40438D01*
X39863Y58124D02*
X39987Y58000D01*
X42312Y58940D02*
X42737D01*
X42267Y58896D02*
X42312Y58940D01*
X42228Y58896D02*
X42267D01*
X42082Y58750D02*
X42228Y58896D01*
X48581Y64994D02*
Y66088D01*
Y64994D02*
X48600Y64975D01*
X48575Y66094D02*
Y67100D01*
X46750Y67450D02*
Y68325D01*
X43050Y64700D02*
Y65416D01*
X45400Y62604D02*
Y63525D01*
X16075Y57425D02*
X16245Y57255D01*
X16075Y55525D02*
X16245Y55695D01*
X18050Y56989D02*
X18256Y57195D01*
X16245Y56718D02*
Y57255D01*
Y56232D02*
X16335Y56322D01*
X18256Y57195D02*
X18750D01*
X16245Y55695D02*
Y56232D01*
Y56718D02*
X16335Y56628D01*
X35826Y50626D02*
Y51175D01*
X33565Y50785D02*
Y51215D01*
X33575Y51225D01*
X52726Y60729D02*
X52751Y60754D01*
X52726Y59304D02*
Y60729D01*
X52122Y62007D02*
X52727D01*
X52774Y62054D01*
X51524Y62604D02*
X52122Y62007D01*
X49400Y62604D02*
X51524D01*
X43039Y40010D02*
X44824D01*
X43024Y39995D02*
X43039Y40010D01*
X38479Y63213D02*
X38539Y63152D01*
X6125Y66104D02*
X6225Y66004D01*
Y64700D02*
Y66004D01*
X28250Y57195D02*
X28779D01*
X28986Y56989D01*
Y56892D02*
Y56989D01*
Y56892D02*
X29102Y56775D01*
X29914D01*
X30004Y56865D01*
Y57045D01*
X30254Y57295D01*
X30014Y56135D02*
X30254Y55895D01*
X30014Y56135D02*
Y56335D01*
X28751Y55925D02*
X28957Y56132D01*
X29047Y56425D02*
X29924D01*
X28250Y55925D02*
X28751D01*
X29924Y56425D02*
X30014Y56335D01*
X28957D02*
X29047Y56425D01*
X28957Y56132D02*
Y56335D01*
X76672Y35177D02*
X76685Y35164D01*
X76377Y35177D02*
X76672D01*
X75928Y35920D02*
X75942Y35906D01*
Y35251D02*
Y35906D01*
X77895Y36623D02*
X78074D01*
X77895Y36623D02*
X77895Y36623D01*
X78074D02*
X78090Y36638D01*
X77640Y36623D02*
X77895D01*
X78090Y36638D02*
X78547D01*
X78581Y36604D01*
X75928Y35932D02*
X76813Y36817D01*
X75928Y35920D02*
Y35932D01*
D29*
X22296Y34500D02*
D03*
X9400Y34525D02*
D03*
D30*
X22296Y34900D02*
D03*
Y35300D02*
D03*
Y35700D02*
D03*
Y36100D02*
D03*
X20396Y34500D02*
D03*
Y34900D02*
D03*
Y35300D02*
D03*
Y35700D02*
D03*
Y36100D02*
D03*
X7500Y36125D02*
D03*
Y35725D02*
D03*
Y35325D02*
D03*
Y34925D02*
D03*
Y34525D02*
D03*
X9400Y36125D02*
D03*
Y35725D02*
D03*
Y35325D02*
D03*
Y34925D02*
D03*
D31*
X21346Y35300D02*
D03*
X8450Y35325D02*
D03*
D32*
X36074Y54375D02*
D03*
X37326D02*
D03*
X43076Y68525D02*
D03*
X41824D02*
D03*
X39851Y64703D02*
D03*
X38599D02*
D03*
X5924Y23900D02*
D03*
X7176D02*
D03*
X48674Y52875D02*
D03*
X49926D02*
D03*
X52774Y63454D02*
D03*
X54026D02*
D03*
X52774Y62054D02*
D03*
X54026D02*
D03*
D33*
X35200Y56535D02*
D03*
Y58215D02*
D03*
D34*
X34560Y56625D02*
D03*
Y58125D02*
D03*
X35840D02*
D03*
Y56625D02*
D03*
D35*
X34560Y57125D02*
D03*
Y57625D02*
D03*
X35840D02*
D03*
Y57125D02*
D03*
D36*
X44850Y65525D02*
D03*
X45800D02*
D03*
X46750D02*
D03*
X46750Y68325D02*
D03*
X45800Y68325D02*
D03*
X44850Y68325D02*
D03*
D37*
X39839Y63152D02*
D03*
Y61452D02*
D03*
X38539Y63152D02*
D03*
Y61452D02*
D03*
D38*
X42737Y61440D02*
D03*
D39*
Y60940D02*
D03*
Y60440D02*
D03*
Y59940D02*
D03*
Y59440D02*
D03*
Y58940D02*
D03*
Y58440D02*
D03*
Y57940D02*
D03*
Y57440D02*
D03*
Y56940D02*
D03*
Y56440D02*
D03*
Y55940D02*
D03*
X50564D02*
D03*
Y56440D02*
D03*
Y56940D02*
D03*
Y57440D02*
D03*
Y57940D02*
D03*
Y58440D02*
D03*
Y58940D02*
D03*
Y59440D02*
D03*
Y59940D02*
D03*
Y60440D02*
D03*
Y60940D02*
D03*
Y61440D02*
D03*
D40*
X43900Y54777D02*
D03*
X44400D02*
D03*
X44900D02*
D03*
X45400D02*
D03*
X45900D02*
D03*
X46400D02*
D03*
X46900D02*
D03*
X47400D02*
D03*
X47900D02*
D03*
X48400D02*
D03*
X48900D02*
D03*
X49400D02*
D03*
Y62604D02*
D03*
X48900D02*
D03*
X48400D02*
D03*
X47900D02*
D03*
X47400D02*
D03*
X46900D02*
D03*
X46400D02*
D03*
X45900D02*
D03*
X45400D02*
D03*
X44900D02*
D03*
X44400D02*
D03*
X43900D02*
D03*
D41*
X41724Y39995D02*
D03*
X43024D02*
D03*
X41724Y41546D02*
D03*
X43024Y41546D02*
D03*
X43050Y65403D02*
D03*
X41750D02*
D03*
X38464Y59797D02*
D03*
X39764D02*
D03*
X30975Y42600D02*
D03*
X32275D02*
D03*
X39871Y42698D02*
D03*
X38571Y42698D02*
D03*
X35939Y42743D02*
D03*
X37239D02*
D03*
X33450Y42673D02*
D03*
X34750D02*
D03*
X32275Y43950D02*
D03*
X30975Y43950D02*
D03*
X29871Y42586D02*
D03*
X28571Y42586D02*
D03*
X30381Y54393D02*
D03*
X31681D02*
D03*
X55056Y41270D02*
D03*
X53756Y41270D02*
D03*
X55056Y38724D02*
D03*
X53756D02*
D03*
X5900Y25350D02*
D03*
X7200D02*
D03*
X7525Y64700D02*
D03*
X6225D02*
D03*
X41750Y66800D02*
D03*
X43050D02*
D03*
X48600Y64975D02*
D03*
X49900D02*
D03*
X54026Y59304D02*
D03*
X52726D02*
D03*
X70075Y42250D02*
D03*
X68775D02*
D03*
D42*
X37014Y63213D02*
D03*
Y64513D02*
D03*
X5465Y38675D02*
D03*
Y37375D02*
D03*
X16600Y38750D02*
D03*
X16600Y37450D02*
D03*
X10850Y35975D02*
D03*
Y34675D02*
D03*
X13250Y34675D02*
D03*
Y35975D02*
D03*
X26000Y34750D02*
D03*
Y36050D02*
D03*
X35975Y41450D02*
D03*
X35975Y40150D02*
D03*
X39675Y18175D02*
D03*
Y16875D02*
D03*
X3200Y38650D02*
D03*
Y37350D02*
D03*
X48575Y68400D02*
D03*
X48575Y67100D02*
D03*
X67997Y65188D02*
D03*
Y66488D02*
D03*
X64747Y65188D02*
D03*
Y66488D02*
D03*
X61596Y65188D02*
D03*
Y66488D02*
D03*
X58446D02*
D03*
Y65188D02*
D03*
X71248D02*
D03*
Y66488D02*
D03*
X76200Y53750D02*
D03*
Y55050D02*
D03*
D43*
X38639Y58447D02*
D03*
X39589D02*
D03*
X38650Y57300D02*
D03*
X39600D02*
D03*
D44*
X18821Y38643D02*
D03*
Y37343D02*
D03*
X23776Y34624D02*
D03*
Y35924D02*
D03*
X33575Y51225D02*
D03*
X33575Y52525D02*
D03*
X34725Y51225D02*
D03*
Y52525D02*
D03*
X35876Y51225D02*
D03*
Y52525D02*
D03*
X32425Y51225D02*
D03*
Y52525D02*
D03*
X7650Y28075D02*
D03*
X6350D02*
D03*
X7650Y29025D02*
D03*
X6350D02*
D03*
X4600Y27925D02*
D03*
Y29225D02*
D03*
D45*
X38575Y41500D02*
D03*
Y40250D02*
D03*
X33475Y41475D02*
D03*
Y40225D02*
D03*
D46*
X39100Y49200D02*
D03*
X37700D02*
D03*
X30254Y55895D02*
D03*
X31654D02*
D03*
X30254Y57295D02*
D03*
X31654D02*
D03*
D47*
X41791Y36887D02*
D03*
Y38139D02*
D03*
X37950Y46448D02*
D03*
X37950Y47700D02*
D03*
X30500Y62275D02*
D03*
Y63527D02*
D03*
X23525Y43399D02*
D03*
Y44651D02*
D03*
X74746Y53805D02*
D03*
Y55057D02*
D03*
D48*
X43041Y38138D02*
D03*
Y36888D02*
D03*
D49*
X40465Y38140D02*
D03*
X40465Y36886D02*
D03*
X3300Y28023D02*
D03*
Y29277D02*
D03*
X22150Y43398D02*
D03*
Y44652D02*
D03*
X16500Y64273D02*
D03*
Y65527D02*
D03*
D50*
X34432Y54378D02*
D03*
X32978D02*
D03*
D51*
X4300Y38250D02*
D03*
Y37350D02*
D03*
X17700Y38250D02*
D03*
Y37350D02*
D03*
X12050Y34599D02*
D03*
Y35499D02*
D03*
X24826Y34674D02*
D03*
Y35574D02*
D03*
D52*
X9975Y38200D02*
D03*
X7225D02*
D03*
X18476Y35419D02*
D03*
X15726D02*
D03*
X10325Y32725D02*
D03*
X7575D02*
D03*
X18476Y32719D02*
D03*
X15726D02*
D03*
X23420D02*
D03*
X20671D02*
D03*
X23175Y38200D02*
D03*
X20425D02*
D03*
X2775Y32725D02*
D03*
X5525D02*
D03*
X2775Y35425D02*
D03*
X5525D02*
D03*
D53*
X31000Y41350D02*
D03*
X32250Y41350D02*
D03*
X38600Y43971D02*
D03*
X39850D02*
D03*
X35975Y43978D02*
D03*
X37225D02*
D03*
X33475Y43908D02*
D03*
X34725D02*
D03*
X28600Y41350D02*
D03*
X29850D02*
D03*
X26275Y41350D02*
D03*
X27525D02*
D03*
X52751Y60754D02*
D03*
X54001D02*
D03*
D54*
X23850Y49851D02*
D03*
X23850Y47749D02*
D03*
X20505Y49843D02*
D03*
Y47742D02*
D03*
D55*
X32448Y48675D02*
D03*
D56*
Y48175D02*
D03*
X32448Y47675D02*
D03*
X32448Y47175D02*
D03*
X32448Y46675D02*
D03*
X36002D02*
D03*
Y47175D02*
D03*
Y47675D02*
D03*
X36002Y48175D02*
D03*
Y48675D02*
D03*
D57*
X33225Y45898D02*
D03*
X33725D02*
D03*
X34225D02*
D03*
X34725D02*
D03*
X35225D02*
D03*
Y49452D02*
D03*
X34725D02*
D03*
X34225Y49452D02*
D03*
X33725D02*
D03*
X33225Y49452D02*
D03*
D58*
X30527Y59379D02*
D03*
Y60833D02*
D03*
D59*
X44824Y42550D02*
D03*
X44824Y41280D02*
D03*
Y40010D02*
D03*
Y38740D02*
D03*
X51924Y42550D02*
D03*
Y41280D02*
D03*
Y40010D02*
D03*
X51924Y38740D02*
D03*
D60*
X76701Y24440D02*
D03*
X75994Y23733D02*
D03*
X75287Y23025D02*
D03*
X74933Y22672D02*
D03*
X74579Y22318D02*
D03*
X71751Y19490D02*
D03*
X72105Y19843D02*
D03*
X72458Y20197D02*
D03*
X72812Y20551D02*
D03*
X73165Y20904D02*
D03*
X73519Y21258D02*
D03*
X74226Y21965D02*
D03*
X76347Y24086D02*
D03*
X69630Y17369D02*
D03*
X69983Y17722D02*
D03*
X70337Y18076D02*
D03*
X70690Y18429D02*
D03*
X71044Y18783D02*
D03*
X71397Y19136D02*
D03*
X66624Y35931D02*
D03*
X66270Y35577D02*
D03*
X65917Y35224D02*
D03*
X65563Y34870D02*
D03*
X65210Y34517D02*
D03*
X64856Y34163D02*
D03*
X64503Y33809D02*
D03*
X64149Y33456D02*
D03*
X63795Y33102D02*
D03*
X63442Y32749D02*
D03*
X63088Y32395D02*
D03*
X62735Y32042D02*
D03*
X62381Y31688D02*
D03*
X62028Y31335D02*
D03*
X61674Y30981D02*
D03*
X61321Y30627D02*
D03*
X60967Y30274D02*
D03*
X60613Y29920D02*
D03*
X60260Y29567D02*
D03*
X59906Y29213D02*
D03*
X59553Y28860D02*
D03*
X59199Y28506D02*
D03*
X58846Y28153D02*
D03*
X58492Y27799D02*
D03*
X58139Y27446D02*
D03*
X68923Y16661D02*
D03*
X69276Y17015D02*
D03*
X73872Y21611D02*
D03*
X75640Y23379D02*
D03*
X77054Y24793D02*
D03*
X77408Y25147D02*
D03*
D61*
X77408Y27446D02*
D03*
D62*
X77054Y27799D02*
D03*
X76701Y28153D02*
D03*
X76347Y28506D02*
D03*
X75994Y28860D02*
D03*
X75640Y29213D02*
D03*
X75287Y29567D02*
D03*
X74933Y29920D02*
D03*
X74579Y30274D02*
D03*
X74226Y30628D02*
D03*
X73872Y30981D02*
D03*
X73519Y31335D02*
D03*
X73165Y31688D02*
D03*
X72812Y32042D02*
D03*
X72458Y32395D02*
D03*
X72105Y32749D02*
D03*
X71751Y33102D02*
D03*
X71397Y33456D02*
D03*
X71044Y33809D02*
D03*
X70690Y34163D02*
D03*
X70337Y34517D02*
D03*
X69983Y34870D02*
D03*
X69630Y35224D02*
D03*
X69276Y35577D02*
D03*
X68923Y35931D02*
D03*
X58139Y25147D02*
D03*
X58492Y24793D02*
D03*
X58846Y24440D02*
D03*
X59199Y24086D02*
D03*
X59553Y23733D02*
D03*
X59906Y23379D02*
D03*
X60260Y23025D02*
D03*
X60613Y22672D02*
D03*
X60967Y22318D02*
D03*
X61321Y21965D02*
D03*
X61674Y21611D02*
D03*
X62028Y21258D02*
D03*
X62381Y20904D02*
D03*
X62735Y20551D02*
D03*
X63088Y20197D02*
D03*
X63442Y19843D02*
D03*
X63795Y19490D02*
D03*
X64149Y19136D02*
D03*
X64503Y18783D02*
D03*
X64856Y18429D02*
D03*
X65210Y18076D02*
D03*
X65563Y17722D02*
D03*
X65917Y17369D02*
D03*
X66270Y17015D02*
D03*
X66624Y16661D02*
D03*
D63*
X44205Y28760D02*
D03*
X38995D02*
D03*
X44205Y31300D02*
D03*
X38995Y31300D02*
D03*
X44205Y33840D02*
D03*
X38995D02*
D03*
D64*
X34963Y27387D02*
D03*
X33937Y28413D02*
D03*
X29888Y28337D02*
D03*
X28862Y29363D02*
D03*
D65*
X32813Y27425D02*
D03*
X33662Y26575D02*
D03*
D66*
X31804Y26524D02*
D03*
X32691Y25637D02*
D03*
X28918Y27332D02*
D03*
X28032Y28218D02*
D03*
D67*
X30850Y25604D02*
D03*
X31735Y24719D02*
D03*
X27968Y26382D02*
D03*
X27082Y27268D02*
D03*
D68*
X26208Y26342D02*
D03*
X27092Y25458D02*
D03*
D69*
X38475Y18300D02*
D03*
Y16800D02*
D03*
X66122Y65088D02*
D03*
Y66588D02*
D03*
X62971Y65088D02*
D03*
Y66588D02*
D03*
X59821Y65088D02*
D03*
Y66588D02*
D03*
X69372Y65088D02*
D03*
Y66588D02*
D03*
X72623Y65088D02*
D03*
Y66588D02*
D03*
D70*
X27308Y15036D02*
D03*
X26955Y15390D02*
D03*
X26601Y15743D02*
D03*
X26248Y16097D02*
D03*
X25894Y16450D02*
D03*
X25540Y16804D02*
D03*
X25187Y17157D02*
D03*
X24833Y17511D02*
D03*
X24480Y17864D02*
D03*
X24126Y18218D02*
D03*
X23773Y18572D02*
D03*
X23419Y18925D02*
D03*
X28263Y23769D02*
D03*
X28617Y23416D02*
D03*
X28970Y23062D02*
D03*
X29324Y22708D02*
D03*
X29677Y22355D02*
D03*
X30031Y22001D02*
D03*
X30384Y21648D02*
D03*
X30738Y21294D02*
D03*
X31091Y20941D02*
D03*
X31445Y20587D02*
D03*
X31799Y20233D02*
D03*
X32152Y19880D02*
D03*
D71*
X23419Y19880D02*
D03*
X23773Y20233D02*
D03*
X24126Y20587D02*
D03*
X24480Y20941D02*
D03*
X24833Y21294D02*
D03*
X25187Y21648D02*
D03*
X25540Y22001D02*
D03*
X25894Y22355D02*
D03*
X26248Y22708D02*
D03*
X26601Y23062D02*
D03*
X26955Y23415D02*
D03*
X27308Y23769D02*
D03*
X32152Y18925D02*
D03*
X31799Y18572D02*
D03*
X31445Y18218D02*
D03*
X31091Y17864D02*
D03*
X30738Y17511D02*
D03*
X30384Y17157D02*
D03*
X30031Y16804D02*
D03*
X29677Y16450D02*
D03*
X29324Y16097D02*
D03*
X28970Y15743D02*
D03*
X28617Y15390D02*
D03*
D72*
X28263Y15036D02*
D03*
D73*
X19918Y21750D02*
D03*
X21120Y20547D02*
D03*
X18999Y20830D02*
D03*
X20201Y19628D02*
D03*
D74*
X18681Y22882D02*
D03*
X17796Y21996D02*
D03*
D75*
X18893Y18638D02*
D03*
X17974Y19558D02*
D03*
D76*
X6550Y22825D02*
D03*
X7200D02*
D03*
D77*
X2550Y11857D02*
D03*
X7050D02*
D03*
Y20957D02*
D03*
X2550D02*
D03*
D78*
X29800Y46324D02*
D03*
X30700D02*
D03*
X29800Y47275D02*
D03*
X30700Y47275D02*
D03*
X29800Y48225D02*
D03*
X30700D02*
D03*
X29803Y49175D02*
D03*
X30703D02*
D03*
D79*
X25275Y45950D02*
D03*
X23675D02*
D03*
D80*
X20275Y45450D02*
D03*
X20275Y42700D02*
D03*
D81*
X18075Y42475D02*
D03*
Y43927D02*
D03*
X16500Y62526D02*
D03*
Y61074D02*
D03*
X10900Y65926D02*
D03*
Y64474D02*
D03*
D82*
X15975Y43627D02*
D03*
X15975Y41975D02*
D03*
D83*
X17625Y47800D02*
D03*
X17125D02*
D03*
X16625Y47800D02*
D03*
X16125D02*
D03*
X17625Y46320D02*
D03*
X17125Y46320D02*
D03*
X16625Y46320D02*
D03*
X16125D02*
D03*
D84*
X9700Y57725D02*
D03*
Y60025D02*
D03*
X9675Y55250D02*
D03*
Y52950D02*
D03*
D85*
X12715Y65100D02*
D03*
X14885D02*
D03*
D86*
X18750Y63545D02*
D03*
Y62275D02*
D03*
Y61005D02*
D03*
Y59735D02*
D03*
Y58465D02*
D03*
Y57195D02*
D03*
Y55925D02*
D03*
Y54655D02*
D03*
X28250Y63545D02*
D03*
Y62275D02*
D03*
Y61005D02*
D03*
Y59735D02*
D03*
Y58465D02*
D03*
Y57195D02*
D03*
Y55925D02*
D03*
Y54655D02*
D03*
D87*
X7625Y66104D02*
D03*
X6125D02*
D03*
D88*
X11975Y55525D02*
D03*
X16075D02*
D03*
Y57425D02*
D03*
X11975D02*
D03*
D89*
X46752Y52905D02*
D03*
Y51955D02*
D03*
X45400Y52905D02*
D03*
Y51955D02*
D03*
X44048Y52905D02*
D03*
Y51955D02*
D03*
X42696D02*
D03*
Y52905D02*
D03*
D90*
X79776Y32284D02*
D03*
X80341Y31718D02*
D03*
X78927Y33132D02*
D03*
X78361Y33698D02*
D03*
D91*
X79741Y34859D02*
D03*
X81509Y33091D02*
D03*
D92*
X76685Y35164D02*
D03*
X77307Y34541D02*
D03*
X75928Y35920D02*
D03*
X75306Y36543D02*
D03*
D93*
X78581Y36604D02*
D03*
X77591Y37594D02*
D03*
X76813Y36817D02*
D03*
X77803Y35827D02*
D03*
D94*
X73695Y54606D02*
D03*
Y55256D02*
D03*
D95*
X71900Y50625D02*
D03*
Y55125D02*
D03*
X62800D02*
D03*
Y50625D02*
D03*
D96*
X7550Y55800D02*
D03*
Y56300D02*
D03*
Y56800D02*
D03*
Y57300D02*
D03*
Y57800D02*
D03*
Y58300D02*
D03*
Y58800D02*
D03*
Y59300D02*
D03*
Y59800D02*
D03*
Y60300D02*
D03*
Y60800D02*
D03*
Y61300D02*
D03*
D97*
X5950Y61550D02*
D03*
Y61050D02*
D03*
Y60550D02*
D03*
Y60050D02*
D03*
Y59550D02*
D03*
Y59050D02*
D03*
Y58550D02*
D03*
Y58050D02*
D03*
Y57550D02*
D03*
Y57050D02*
D03*
Y56550D02*
D03*
Y56050D02*
D03*
D105*
X46650Y58691D02*
D03*
D117*
X34225Y47675D02*
D03*
D123*
X27786Y19403D02*
D03*
D150*
X9000Y43700D02*
D03*
X3920D02*
D03*
Y48780D02*
D03*
X11540D02*
D03*
D159*
X42650Y63850D02*
D03*
X41031Y58593D02*
D03*
X41035Y57609D02*
D03*
X41025Y59525D02*
D03*
X41050Y56550D02*
D03*
Y60850D02*
D03*
X3200Y39800D02*
D03*
X15375Y38725D02*
D03*
X32000Y45000D02*
D03*
X13150Y33575D02*
D03*
X38571Y44900D02*
D03*
X37200Y41100D02*
D03*
X34585Y40998D02*
D03*
X30651Y45151D02*
D03*
X37350Y51900D02*
D03*
X37225Y50625D02*
D03*
X31225Y51850D02*
D03*
X26000Y33675D02*
D03*
X45471Y36571D02*
D03*
X48350Y33900D02*
D03*
X39001Y35624D02*
D03*
X36475Y31325D02*
D03*
X38487Y15312D02*
D03*
X31475Y15125D02*
D03*
X45525Y64150D02*
D03*
X46750Y64361D02*
D03*
X48575Y66094D02*
D03*
X53475Y58050D02*
D03*
X60650Y33725D02*
D03*
D160*
X6775Y68300D02*
D03*
X98800Y6275D02*
D03*
D161*
X47172Y63391D02*
Y63809D01*
Y63391D02*
X47392Y63170D01*
X47172Y63809D02*
X47438Y64076D01*
X47392Y62612D02*
X47400Y62604D01*
X47392Y62612D02*
Y63170D01*
X46900Y62604D02*
Y63714D01*
X47400Y64214D02*
X47486Y64300D01*
X47400Y60541D02*
Y62604D01*
X47438Y64076D02*
Y64253D01*
X47400Y59441D02*
Y60541D01*
X47438Y64253D02*
X47486Y64300D01*
X46900Y63714D02*
X47400Y64214D01*
X46900Y58940D02*
Y62604D01*
X50564Y60940D02*
X50571Y60948D01*
X49400Y61440D02*
X49674Y61714D01*
X41797Y56747D02*
X41991Y56940D01*
X44025Y57440D02*
X45400D01*
X43626Y55667D02*
X44400Y56440D01*
X51181Y60948D02*
X51446Y61213D01*
X44400Y56475D02*
X45365Y57440D01*
X41991Y56940D02*
X42737D01*
X50571Y60948D02*
X51181D01*
X44025Y57440D02*
X45275Y58691D01*
X51446Y61213D02*
X51507D01*
X41750Y56692D02*
Y56700D01*
Y56692D02*
X41997Y56445D01*
X45275Y58691D02*
X46650D01*
X41997Y56445D02*
X42732D01*
X41750Y56700D02*
X41797Y56747D01*
Y56902D01*
X42336Y57440D02*
X42737D01*
X41797Y56902D02*
X42336Y57440D01*
X41050Y56550D02*
X41126Y56626D01*
Y56917D01*
X41850Y57641D01*
Y57700D01*
X48400Y54777D02*
Y56940D01*
X48900Y54777D02*
Y56440D01*
X49413Y54363D02*
X49701Y54075D01*
Y53100D02*
Y54075D01*
X49413Y54363D02*
Y54764D01*
X49400Y54777D02*
X49413Y54764D01*
X49701Y53100D02*
X49926Y52875D01*
X49900Y52849D02*
X49926Y52875D01*
X79400Y10825D02*
Y25453D01*
X77408Y27446D02*
X79400Y25453D01*
X74933Y29920D02*
X76033Y31020D01*
X80335Y30665D02*
X82000Y29000D01*
X75681Y31375D02*
X77170D01*
X76033Y31020D02*
X77317D01*
X78581Y32284D01*
X77170Y31375D02*
X78927Y33132D01*
X76385Y30665D02*
X80335D01*
X75287Y29567D02*
X76385Y30665D01*
X74579Y30274D02*
X75681Y31375D01*
X14100Y30450D02*
Y35856D01*
X13981Y35975D02*
X14100Y35856D01*
X13175Y35975D02*
X13981D01*
X36850Y41450D02*
X37200Y41100D01*
X35975Y41450D02*
X36850D01*
X33475Y41475D02*
X33723Y41227D01*
X33916D01*
X33917Y41225D02*
X34268D01*
X34495Y40998D02*
X34585D01*
X33916Y41227D02*
X33917Y41225D01*
X34268D02*
X34495Y40998D01*
X53025Y58500D02*
X53475Y58050D01*
X52726Y59304D02*
X53024Y59006D01*
X53025Y58500D02*
Y58812D01*
X53024Y58812D02*
Y59006D01*
Y58812D02*
X53025Y58812D01*
X42737Y59940D02*
X45400D01*
X46650Y58691D02*
X46900Y58940D01*
X46650Y58691D02*
X48400Y56940D01*
X44400Y60940D02*
X45400Y59940D01*
X43900Y61441D02*
X44400Y60940D01*
X37608Y59767D02*
X37631Y59744D01*
X38425Y59758D02*
X38464Y59797D01*
X18892Y22776D02*
X19918Y21750D01*
X6767Y26775D02*
X11281D01*
X6648Y26894D02*
Y27876D01*
Y26894D02*
X6767Y26775D01*
X22700Y34500D02*
X22882Y34682D01*
X23718D01*
X22296Y35300D02*
X22975D01*
X21346Y35456D02*
X21441Y35551D01*
X22296Y36100D02*
Y36579D01*
X19994Y35701D02*
X20394D01*
X21441Y35551D02*
X21589Y35700D01*
X22297Y35701D02*
X22714D01*
X21589Y35700D02*
X22296D01*
X21589Y34900D02*
X22296D01*
X20394Y35701D02*
X20396Y35700D01*
X22296D02*
X22297Y35701D01*
X23718Y34682D02*
X23776Y34624D01*
X22937Y35924D02*
X23776D01*
X22714Y35701D02*
X22937Y35924D01*
X19742Y35954D02*
X19994Y35701D01*
X19742Y35954D02*
Y36421D01*
X19119Y37044D02*
X19742Y36421D01*
X19119Y37044D02*
Y37144D01*
X18921Y37343D02*
X19119Y37144D01*
X22975Y35300D02*
X23025D01*
X22975Y35300D02*
X22975Y35300D01*
X25957Y34707D02*
X26000Y34750D01*
X23776Y34649D02*
X24801D01*
X24859Y34707D02*
X25957D01*
X24801Y34649D02*
X24859Y34707D01*
X26000Y33675D02*
Y34750D01*
X8459Y35160D02*
X8694Y34925D01*
X8450Y35168D02*
X8459Y35160D01*
Y35490D02*
X8694Y35725D01*
X8450Y35482D02*
X8459Y35490D01*
X20475Y24213D02*
X23565Y21123D01*
X16399Y23046D02*
X17566Y24213D01*
X20475D01*
X16399Y18402D02*
Y23046D01*
X15900Y17400D02*
Y23050D01*
X21559Y24568D02*
X24833Y21294D01*
X15900Y23050D02*
X17418Y24568D01*
X21559D01*
X19150Y18638D02*
X19211D01*
X18927D02*
X19150D01*
X77803Y35827D02*
X78225D01*
X75701Y38902D02*
X80099D01*
X83650Y35350D01*
X73689Y36889D02*
X75701Y38902D01*
X16399Y18402D02*
X20120Y14680D01*
X23590Y21123D02*
X23877Y20836D01*
X23565Y21123D02*
X23590D01*
X22856Y21150D02*
X23773Y20233D01*
X21723Y21150D02*
X22856D01*
X23100Y22300D02*
X23800Y21600D01*
X17974Y19558D02*
Y19805D01*
X18999Y20830D01*
X12400Y24775D02*
X13968Y26343D01*
X23670Y25278D02*
X26240Y22708D01*
X14700Y23700D02*
X16278Y25278D01*
X13968Y26343D02*
X24734D01*
X15608Y25633D02*
X24030D01*
X16823Y24923D02*
X21911D01*
X13300Y24425D02*
X14863Y25988D01*
X24734Y26343D02*
X27308Y23769D01*
X16278Y25278D02*
X23670D01*
X14863Y25988D02*
X24382D01*
X24030Y25633D02*
X26601Y23062D01*
X14000Y24025D02*
X15608Y25633D01*
X24382Y25988D02*
X26955Y23415D01*
X21911Y24923D02*
X25187Y21648D01*
X15300Y23400D02*
X16823Y24923D01*
X39100Y49200D02*
X40000D01*
X40000Y49200D01*
X54026Y59304D02*
X54030Y59300D01*
X54026Y59304D02*
X54026Y59304D01*
X51507Y61213D02*
X51512D01*
X50564Y61440D02*
X51279D01*
X51507Y61213D01*
X45400Y59940D02*
X46650Y58691D01*
X28884Y41673D02*
X29068Y41857D01*
X29076D02*
X29225Y42006D01*
X29068Y41857D02*
X29076D01*
X29225Y42006D02*
Y42014D01*
X29423Y42212D01*
X28874Y41673D02*
X28884D01*
X29423Y42212D02*
X29573D01*
X29871Y42511D01*
Y42661D01*
X28600Y41400D02*
X28874Y41673D01*
X28600Y41350D02*
Y41400D01*
X28600Y41350D02*
X28600Y41350D01*
X29871Y42661D02*
X30170Y42959D01*
Y43070D01*
X30975Y43875D01*
X32000Y44150D02*
X32275Y43875D01*
X32000Y44150D02*
Y45000D01*
X32042Y45042D02*
X33492D01*
X32000Y45000D02*
X32042Y45042D01*
X33725Y45275D02*
Y45898D01*
X33492Y45042D02*
X33725Y45275D01*
X36802Y45898D02*
X37800Y44900D01*
X35225Y45898D02*
X36802D01*
X37800Y44900D02*
X38571D01*
X38550Y44921D02*
X38600Y44872D01*
Y43971D02*
Y44872D01*
X35937Y41488D02*
X35975Y41450D01*
X39100Y49200D02*
X39100Y49200D01*
X42733Y55948D02*
X42759Y55922D01*
X44025Y57339D02*
Y57440D01*
X42737Y56940D02*
X43626D01*
X44400Y56440D02*
Y56475D01*
X43626Y56940D02*
X44025Y57339D01*
X45365Y57440D02*
X45400D01*
X42737D02*
X44025D01*
X42729Y55948D02*
X42733D01*
X42759Y55401D02*
Y55922D01*
X3327Y28050D02*
X3352Y28025D01*
X3298D02*
X3300D01*
X5900Y25350D02*
X5900Y25350D01*
X2508Y20999D02*
X2550Y20957D01*
X2533Y20941D02*
X2550Y20957D01*
X2508Y11899D02*
X2550Y11857D01*
X2500Y11807D02*
X2550Y11857D01*
X23800Y21600D02*
X23813D01*
X24472Y20941D01*
X24480D01*
X72979Y34330D02*
Y37808D01*
X75071Y39900D02*
X81200D01*
X72979Y37808D02*
X75071Y39900D01*
X72623Y34682D02*
Y38324D01*
X74700Y40400D02*
X81700D01*
X72623Y38324D02*
X74700Y40400D01*
X71559Y39659D02*
X73900Y42000D01*
X82900D02*
X87975Y36925D01*
X73900Y42000D02*
X82900D01*
X83300Y42600D02*
X88625Y37275D01*
X71203Y40104D02*
X73700Y42600D01*
X83300D01*
X85400Y10517D02*
Y36700D01*
X81700Y40400D02*
X85400Y36700D01*
X74100Y41400D02*
X82600D01*
X87075Y8837D02*
Y36925D01*
X82600Y41400D02*
X87075Y36925D01*
X13770Y6095D02*
Y12830D01*
X13300Y13300D02*
Y24425D01*
Y13300D02*
X13770Y12830D01*
X15040Y8000D02*
Y13160D01*
X14000Y14200D02*
Y24025D01*
Y14200D02*
X15040Y13160D01*
X16381Y6166D02*
Y13619D01*
X14700Y15300D02*
Y23700D01*
Y15300D02*
X16381Y13619D01*
X17580Y8000D02*
Y14220D01*
X15300Y16500D02*
Y23400D01*
Y16500D02*
X17580Y14220D01*
X18850Y6095D02*
Y14450D01*
X15900Y17400D02*
X18850Y14450D01*
X20120Y8000D02*
Y14680D01*
X26701Y15136D02*
X26955Y15390D01*
X26701Y9424D02*
Y15136D01*
Y9424D02*
X26725Y9400D01*
X25200Y6375D02*
X26100Y7275D01*
Y7554D01*
X26152Y7606D01*
Y15286D01*
X26601Y15736D01*
X27056Y14784D02*
X27308Y15036D01*
X27056Y14616D02*
X27775Y13897D01*
X27056Y14616D02*
Y14784D01*
X27775Y9587D02*
Y13897D01*
X30280Y8000D02*
Y8230D01*
X31700Y9650D02*
Y13800D01*
X30280Y8230D02*
X31700Y9650D01*
Y13800D02*
X32102Y14201D01*
Y16854D01*
X31600Y16000D02*
Y16649D01*
X30738Y17511D02*
X31222Y17027D01*
X31552Y16697D02*
X31600Y16649D01*
X31258Y17027D02*
X31552Y16733D01*
Y16697D02*
Y16733D01*
X31222Y17027D02*
X31258D01*
X31091Y17864D02*
X32102Y16854D01*
X41600Y22614D02*
X58986Y40000D01*
X62541D02*
X66610Y35931D01*
X58986Y40000D02*
X62541D01*
X58789Y39300D02*
X62534D01*
X42200Y22711D02*
X58789Y39300D01*
X62534D02*
X66257Y35577D01*
X41600Y14625D02*
Y22614D01*
X62527Y38600D02*
X65903Y35224D01*
X58591Y38600D02*
X62527D01*
X42800Y22809D02*
X58591Y38600D01*
X42200Y14400D02*
Y22711D01*
X43400Y22907D02*
X58393Y37900D01*
X62520D02*
X65550Y34870D01*
X58393Y37900D02*
X62520D01*
X42800Y14100D02*
Y22809D01*
X44000Y23005D02*
X58195Y37200D01*
X62526D02*
X65210Y34517D01*
X58195Y37200D02*
X62526D01*
X57997Y36500D02*
X62519D01*
X44600Y23103D02*
X57997Y36500D01*
X62519D02*
X64856Y34163D01*
X45200Y23201D02*
X57799Y35800D01*
X62512D02*
X64503Y33809D01*
X57799Y35800D02*
X62512D01*
X45900Y23399D02*
X57601Y35100D01*
X62505D01*
X64149Y33456D01*
X79500Y29500D02*
X81000Y28000D01*
X80900Y10300D02*
X80947Y10347D01*
Y10490D01*
X81000Y10542D01*
Y28000D01*
X77341Y29500D02*
X79500D01*
X77448Y28900D02*
X79301D01*
X80500Y10612D02*
Y27701D01*
X79301Y28900D02*
X80500Y27701D01*
X76701Y28153D02*
X77448Y28900D01*
X77054Y27799D02*
X77755Y28500D01*
X78700D02*
X79999Y27201D01*
X77755Y28500D02*
X78700D01*
X79999Y10474D02*
Y27201D01*
X78875Y10300D02*
X79400Y10825D01*
X76347Y28506D02*
X77341Y29500D01*
X80100Y30000D02*
X81525Y28575D01*
X75994Y28860D02*
X76732Y29598D01*
X76758D01*
X77159Y30000D01*
X80100D01*
X81525Y10200D02*
Y28575D01*
X82000Y9874D02*
Y29000D01*
X80560Y39440D02*
X84300Y35700D01*
X83620Y9468D02*
X84300Y10148D01*
Y35700D01*
X81200Y39900D02*
X84800Y36300D01*
X83575Y6350D02*
X84800Y7575D01*
Y10484D02*
Y36300D01*
Y7575D02*
Y10066D01*
X84799Y10067D02*
Y10483D01*
X84800Y10484D01*
X84799Y10067D02*
X84800Y10066D01*
X85300Y10275D02*
X85347Y10322D01*
Y10465D01*
X85400Y10517D01*
X84000Y43200D02*
X89300Y37900D01*
X87430Y2285D02*
X89300Y4155D01*
Y37900D01*
X73300Y43200D02*
X84000D01*
X70800Y40700D02*
X73300Y43200D01*
X75440Y39440D02*
X80560D01*
X83650Y10000D02*
Y35350D01*
X72269Y38771D02*
X74398Y40900D01*
X82200D01*
X86160Y36940D01*
X71913Y39214D02*
X74100Y41400D01*
X73334Y37333D02*
X75440Y39440D01*
X73334Y33978D02*
Y37333D01*
X73689Y33626D02*
Y36889D01*
X71559Y35738D02*
Y39659D01*
X72269Y35034D02*
Y38771D01*
X71913Y35386D02*
Y39214D01*
X71203Y36090D02*
Y40104D01*
X69920Y36929D02*
X70800Y37808D01*
Y40700D01*
X86160Y8000D02*
Y36940D01*
X87975Y6732D02*
Y36925D01*
X88625Y5375D02*
Y37275D01*
X68380Y8000D02*
X68500D01*
X70867Y10366D02*
Y10716D01*
X68500Y8000D02*
X70867Y10366D01*
X68159Y9125D02*
X68925D01*
X70511Y10712D02*
Y10863D01*
X68925Y9125D02*
X70511Y10712D01*
X71455Y13255D02*
Y17651D01*
X66791Y7567D02*
Y8592D01*
X71455Y13255D01*
X66050Y8648D02*
X71100Y13698D01*
Y17313D01*
X65840Y8000D02*
X66050Y8210D01*
Y8648D01*
X66084Y9563D02*
X66263D01*
X70700Y14000D02*
Y17005D01*
X66263Y9563D02*
X70700Y14000D01*
X71130Y8913D02*
X73700Y11483D01*
X72812Y20537D02*
X73700Y19649D01*
Y11483D02*
Y19649D01*
X72150Y9425D02*
X74200Y11475D01*
Y19856D01*
X73165Y20891D02*
X74200Y19856D01*
X74172Y20441D02*
X74700Y19913D01*
X73900Y10300D02*
X74700Y11100D01*
Y19913D01*
X74646Y24391D02*
Y25854D01*
X67780Y32720D02*
X74646Y25854D01*
X75998Y10508D02*
X76347Y10856D01*
Y21258D01*
X74933Y22672D02*
X76347Y21258D01*
X75287Y23025D02*
X76900Y21412D01*
X76547Y10490D02*
X76900Y10842D01*
Y21412D01*
X75225Y10800D02*
Y20966D01*
X73775Y9350D02*
X75225Y10800D01*
X75644Y10469D02*
Y10655D01*
X75800Y10811D01*
Y21098D01*
X73460Y8285D02*
X75644Y10469D01*
X74579Y22318D02*
X75800Y21098D01*
X75998Y10198D02*
Y10508D01*
X74500Y8700D02*
X75998Y10198D01*
X74226Y21965D02*
X75225Y20966D01*
X76547Y10347D02*
Y10490D01*
X76347Y24086D02*
X78019Y22415D01*
Y10443D02*
Y22415D01*
X76210Y8635D02*
X78019Y10443D01*
X78373Y10049D02*
Y10508D01*
X78800Y10934D01*
X77400Y10450D02*
Y22326D01*
X76301Y9351D02*
X77400Y10450D01*
X75994Y23733D02*
X77400Y22326D01*
X76701Y24440D02*
X78800Y22340D01*
Y10934D02*
Y22340D01*
X77075Y8750D02*
X78373Y10049D01*
X76500Y10300D02*
X76547Y10347D01*
X63300Y9000D02*
X64053Y9753D01*
X63300Y8000D02*
Y9000D01*
X64053Y9753D02*
Y17627D01*
X63025Y9227D02*
Y18012D01*
X61925Y7675D02*
Y8127D01*
X63025Y9227D01*
Y18012D02*
X64149Y19136D01*
X64270Y7545D02*
Y8491D01*
X64409Y8630D01*
Y17275D01*
X59000Y20338D02*
X60967Y22305D01*
X58826Y10331D02*
Y10367D01*
X59000Y10541D01*
Y20338D01*
X49648Y8549D02*
X50150Y9050D01*
X50977D01*
X49648Y6710D02*
Y8549D01*
X49293Y7494D02*
Y8696D01*
X50723Y10126D01*
Y10508D01*
X48100Y5775D02*
Y6300D01*
X49293Y7494D01*
X46800Y4475D02*
X48100Y5775D01*
X49525Y10313D02*
X50014Y10802D01*
X50200Y24185D02*
X56852Y30837D01*
X50200Y10988D02*
Y24185D01*
X50014Y10802D02*
Y10802D01*
X50200Y10988D01*
X50368Y10655D02*
X50700Y10986D01*
X50368Y10396D02*
Y10655D01*
X50723Y10508D02*
X51200Y10984D01*
X48060Y8087D02*
X50368Y10396D01*
X50700Y24183D02*
X56999Y30482D01*
X50700Y10986D02*
Y24183D01*
X51200Y24181D02*
X57146Y30127D01*
X51200Y10984D02*
Y24181D01*
X51225Y10300D02*
X51700Y10775D01*
Y24179D02*
X57293Y29772D01*
X51700Y10775D02*
Y24179D01*
X50977Y9050D02*
X52200Y10273D01*
Y24177D02*
X57440Y29417D01*
X52200Y10273D02*
Y24177D01*
X50600Y8000D02*
X52700Y10100D01*
Y21000D02*
X58540Y26840D01*
X52700Y10100D02*
Y21000D01*
X58540Y26842D02*
X58625Y26927D01*
Y26959D01*
X58139Y27446D02*
X58625Y26959D01*
X58540Y26840D02*
Y26842D01*
X59186Y28506D02*
X59199D01*
X57440Y29417D02*
X58275D01*
X59186Y28506D01*
X57293Y29772D02*
X58630D01*
X57146Y30127D02*
X58993D01*
X46500Y23497D02*
X57403Y34400D01*
X56852Y30837D02*
X59697D01*
X46500Y12250D02*
Y23497D01*
X56559Y32050D02*
X60605D01*
X56561Y31550D02*
X60398D01*
X49538Y24025D02*
X56705Y31192D01*
X47200Y23695D02*
X56505Y33000D01*
X45200Y12575D02*
Y23201D01*
X56505Y33000D02*
X61063D01*
X47800Y11625D02*
Y23793D01*
X49000Y11480D02*
Y23989D01*
X44000Y13400D02*
Y23005D01*
X48400Y11416D02*
Y23891D01*
X47200Y12000D02*
Y23695D01*
X56999Y30482D02*
X59345D01*
X43400Y13725D02*
Y22907D01*
X45900Y12566D02*
Y23399D01*
X48400Y23891D02*
X56559Y32050D01*
X60613Y29920D02*
X60613D01*
X56705Y31192D02*
X60049D01*
X44600Y13200D02*
Y23103D01*
X56557Y32550D02*
X60812D01*
X47800Y23793D02*
X56557Y32550D01*
X49000Y23989D02*
X56561Y31550D01*
X59697Y30837D02*
X60613Y29920D01*
X57403Y34400D02*
X62512D01*
X49538Y11188D02*
Y24025D01*
X58993Y30127D02*
X59906Y29213D01*
X59345Y30482D02*
X60260Y29567D01*
X60260D01*
X59906Y29213D02*
X59906D01*
X45520Y8000D02*
X49000Y11480D01*
X46475Y10300D02*
X47800Y11625D01*
X43931Y8731D02*
X47200Y12000D01*
X43086Y8836D02*
X46500Y12250D01*
X42028Y8694D02*
X45900Y12566D01*
X42925Y10300D02*
X45200Y12575D01*
X41475Y10075D02*
X44600Y13200D01*
X40554Y9954D02*
X44000Y13400D01*
X39975Y10300D02*
X43400Y13725D01*
X39200Y10500D02*
X42800Y14100D01*
X38525Y10725D02*
X42200Y14400D01*
X38025Y11050D02*
X41600Y14625D01*
X39200Y7725D02*
Y10500D01*
X40554Y8114D02*
Y9954D01*
X41475Y7325D02*
Y10075D01*
X42028Y7228D02*
Y8694D01*
X12400Y8100D02*
X12500Y8000D01*
X12400Y8100D02*
Y24775D01*
X34432Y54378D02*
X34786Y54733D01*
X35246Y54865D02*
X35312D01*
X34786Y54733D02*
X35114D01*
X35246Y54865D01*
X75790Y25186D02*
X76063Y25459D01*
X76388D02*
X77054Y24793D01*
X76063Y25459D02*
X76388D01*
X75723Y25186D02*
X75790D01*
X65793Y15863D02*
X65812D01*
X66610Y16661D02*
X66624D01*
X65812Y15863D02*
X66610Y16661D01*
X66624D02*
X66628Y16665D01*
X69108Y34399D02*
Y34531D01*
X69124Y34548D01*
Y34718D01*
X68622Y34735D02*
Y34910D01*
X68575Y34688D02*
X68622Y34735D01*
X68975Y34267D02*
X69108Y34399D01*
X69124Y34718D02*
X69630Y35224D01*
X68622Y34910D02*
X69276Y35564D01*
Y35577D01*
X68975Y34200D02*
Y34267D01*
X67780Y36605D02*
X70075Y38900D01*
X17858Y23075D02*
X17906Y23027D01*
X32550Y55600D02*
X33873D01*
X34560Y56287D02*
Y56625D01*
X33873Y55600D02*
X34560Y56287D01*
X31962Y54674D02*
Y55133D01*
X32382Y55553D01*
X32503D01*
X32550Y55600D01*
X31681Y54393D02*
X31962Y54674D01*
X35903Y54204D02*
X36074Y54375D01*
X35273Y54204D02*
X35903D01*
X35070Y45142D02*
X35076D01*
X34852Y45361D02*
X35070Y45142D01*
X34852Y45361D02*
Y45366D01*
X34725Y45506D02*
X34743Y45488D01*
Y45475D02*
Y45488D01*
Y45475D02*
X34852Y45366D01*
X35076Y45142D02*
X35702Y44517D01*
Y44252D02*
Y44517D01*
Y44252D02*
X35975Y43978D01*
X34725Y45506D02*
Y45898D01*
X50571Y58433D02*
X51167D01*
X53125Y49150D02*
Y56475D01*
X51167Y58433D02*
X53125Y56475D01*
X50564Y58440D02*
X50571Y58433D01*
X49900Y52000D02*
Y52849D01*
X57953Y28325D02*
X58479Y27799D01*
X57075Y28225D02*
X57142D01*
X57242Y28325D02*
X57953D01*
X57142Y28225D02*
X57242Y28325D01*
X58479Y27799D02*
X58492D01*
Y27786D02*
Y27799D01*
Y27786D02*
X59375Y26903D01*
Y26850D02*
Y26903D01*
X35200Y55779D02*
Y56535D01*
X7067Y59833D02*
X7516D01*
X7550Y59800D01*
X6782Y59968D02*
X6932D01*
X7067Y59833D01*
X6713Y60037D02*
X6782Y59968D01*
X5962Y60037D02*
X6713D01*
X5950Y60050D02*
X5962Y60037D01*
X6750Y57250D02*
X6775Y57275D01*
X6403Y57516D02*
X6670Y57250D01*
X5984Y57516D02*
X6403D01*
X6775Y57275D02*
X7525D01*
X6670Y57250D02*
X6750D01*
X7525Y57275D02*
X7550Y57300D01*
X5950Y57550D02*
X5984Y57516D01*
X29200Y8650D02*
X29650Y9100D01*
X30335D02*
X30903Y9669D01*
X29650Y9100D02*
X30335D01*
X30903Y9669D02*
Y15931D01*
X30280Y16555D02*
X30903Y15931D01*
X26600Y8412D02*
X27775Y9587D01*
X24200Y14756D02*
X25894Y16450D01*
X23930Y6095D02*
X24140Y6305D01*
Y6702D01*
X24200Y6762D01*
Y14756D01*
X22350Y9350D02*
Y17149D01*
X22947Y17745D01*
X21625Y8625D02*
X22350Y9350D01*
X22900Y14863D02*
X24628Y16591D01*
X22660Y8000D02*
X22870Y8210D01*
Y8637D01*
X22900Y8667D01*
Y14863D01*
X21675Y9850D02*
X21700Y9825D01*
X21675Y17181D02*
X23419Y18925D01*
X21675Y9850D02*
Y17181D01*
X36949Y7606D02*
Y8448D01*
X38025Y9525D01*
Y11050D01*
X36593Y8541D02*
X36600Y8548D01*
Y21725D02*
X36625Y21750D01*
X36600Y8548D02*
Y21725D01*
X36593Y7888D02*
Y8541D01*
X35679Y6973D02*
X36593Y7888D01*
X36100Y8837D02*
Y21275D01*
X35360Y8097D02*
X36100Y8837D01*
X36050Y21325D02*
X36100Y21275D01*
X39125Y23900D02*
X42005Y26780D01*
X35465Y23900D02*
X39125D01*
X42005Y26780D02*
Y31080D01*
X35525Y30225D02*
X36500Y29250D01*
X35525Y32900D02*
X36465Y33840D01*
X35525Y30225D02*
Y32900D01*
X28617Y23416D02*
X29075Y23874D01*
Y24875D01*
X29625Y25425D01*
X58630Y29772D02*
X59542Y28860D01*
X60049Y31192D02*
X60967Y30274D01*
X11212Y28708D02*
X11400Y28520D01*
Y26894D02*
Y28520D01*
X11281Y26775D02*
X11400Y26894D01*
X10875Y28750D02*
X10917Y28708D01*
X11212D01*
X10169Y27981D02*
X10781D01*
X10825Y28025D01*
X9125Y29025D02*
X10169Y27981D01*
X73460Y8000D02*
Y8285D01*
X73519Y21258D02*
X74172Y20605D01*
Y20441D02*
Y20605D01*
X3300Y28023D02*
X3327Y28050D01*
X3300Y28023D02*
X3300Y28023D01*
Y28025D01*
X6350Y28075D02*
X6450D01*
X6648Y27876D01*
X7650Y29025D02*
X9125D01*
X7650Y28075D02*
X8925D01*
X9700Y27300D02*
X10825D01*
X8925Y28075D02*
X9700Y27300D01*
X32325Y35742D02*
X33317D01*
X37804Y40229D02*
X38554D01*
X33317Y35742D02*
X37804Y40229D01*
X31600Y15442D02*
Y16000D01*
X30392Y17157D02*
X31024Y16525D01*
X30384Y17157D02*
X30392D01*
X31024Y16525D02*
X31050D01*
X20836Y30714D02*
X25953D01*
X20332Y31218D02*
X20836Y30714D01*
X20332Y31218D02*
Y32381D01*
X31830Y22950D02*
X31875D01*
X31461Y22580D02*
X31830Y22950D01*
X36575Y26938D02*
Y28500D01*
X31586Y22142D02*
X31779D01*
X30384Y21648D02*
X31317Y22580D01*
X30738Y21294D02*
X31586Y22142D01*
X31317Y22580D02*
X31461D01*
X31779Y22142D02*
X36575Y26938D01*
X30031Y22001D02*
Y22009D01*
X31425Y23403D02*
Y23425D01*
X30031Y22009D02*
X31425Y23403D01*
X29677Y22355D02*
X30731Y23408D01*
Y23625D01*
X30975Y23870D02*
Y23950D01*
X30274Y23659D02*
X30376Y23760D01*
Y24376D01*
X30274Y23659D02*
Y23659D01*
X30731Y23625D02*
X30975Y23870D01*
X29324Y22708D02*
X30274Y23659D01*
X30376Y24376D02*
X30425Y24425D01*
X18476Y35429D02*
Y35644D01*
Y35429D02*
X19495D01*
X18476Y35419D02*
Y35429D01*
X17903Y36217D02*
X18476Y35644D01*
X5525Y35425D02*
Y35650D01*
X4951Y36223D02*
X5525Y35650D01*
X4402Y36223D02*
X4951D01*
X34963Y27387D02*
X34990D01*
X35611Y26766D02*
X35611D01*
X34963Y27387D02*
Y27388D01*
X35650Y28075D02*
X35650D01*
X60760Y8000D02*
X61057D01*
X62555Y9498D01*
X24628Y16591D02*
Y16599D01*
X24125Y16801D02*
X24833Y17510D01*
Y17511D01*
X24125Y16800D02*
Y16801D01*
X24628Y16599D02*
X25187Y17157D01*
X23611Y14875D02*
X25540Y16804D01*
X23611Y7337D02*
Y14875D01*
X23175Y16525D02*
Y16562D01*
X23991Y17378D01*
X23994D02*
X24480Y17864D01*
X23991Y17378D02*
X23994D01*
X24480Y17864D02*
X24480D01*
X22947Y17745D02*
Y17759D01*
X23255Y18053D02*
X23773Y18572D01*
X22947Y17759D02*
X23241Y18053D01*
X23255D01*
X20030Y6564D02*
X21100Y7634D01*
Y17325D02*
X23533Y19758D01*
X21100Y7634D02*
Y17325D01*
X26600Y6095D02*
Y8412D01*
X31475Y15125D02*
X31551Y15201D01*
Y15393D01*
X31600Y15442D01*
X30388Y14710D02*
Y15538D01*
X30400Y15550D01*
X30343Y15607D02*
X30400Y15550D01*
X30343Y15607D02*
Y15784D01*
X30362Y14685D02*
X30388Y14710D01*
X29677Y16450D02*
X30343Y15784D01*
X29300Y9900D02*
Y15406D01*
X29216Y15490D02*
X29300Y15406D01*
X28617Y15390D02*
X28906Y15101D01*
Y10631D02*
Y15101D01*
X29700Y10005D02*
X29850Y9855D01*
X29324Y16097D02*
X29700Y15720D01*
Y10005D02*
Y15720D01*
X29850Y9775D02*
Y9855D01*
X28745Y9345D02*
X29300Y9900D01*
X28375Y10100D02*
X28906Y10631D01*
X32525Y6359D02*
X33850Y7684D01*
Y18182D01*
X32152Y19880D02*
X33850Y18182D01*
X76902Y55057D02*
X78325Y53635D01*
X78240Y45300D02*
X78325Y45385D01*
Y53635D01*
X73230Y11780D02*
Y19412D01*
X71800Y10350D02*
X73230Y11780D01*
X70920Y8000D02*
X71130Y8210D01*
Y8913D01*
X72150Y7884D02*
Y9425D01*
X64053Y17627D02*
X64856Y18429D01*
X64409Y17275D02*
X65210Y18076D01*
X63550Y17830D02*
X64503Y18783D01*
X63550Y10300D02*
Y17830D01*
X63175Y6450D02*
X64270Y7545D01*
X62555Y9498D02*
Y18249D01*
X63795Y19490D01*
X69621Y36634D02*
X69916Y36929D01*
X69920D01*
X68923Y35931D02*
X69621Y36630D01*
Y36634D01*
X70703Y36291D02*
Y36946D01*
X69277Y35577D02*
X70124Y36425D01*
X70125D01*
X69276Y35577D02*
X69277D01*
X69636Y35224D02*
X70703Y36291D01*
X69630Y35224D02*
X69636D01*
X69983Y34870D02*
X71203Y36090D01*
X72458Y32395D02*
X73689Y33626D01*
X71397Y33456D02*
X72623Y34682D01*
X70690Y34163D02*
X71913Y35386D01*
X71044Y33809D02*
X72269Y35034D01*
X70337Y34517D02*
X71559Y35738D01*
X71751Y33102D02*
X72979Y34330D01*
X72105Y32749D02*
X73334Y33978D01*
X70700Y36950D02*
X70703Y36946D01*
X77054Y24784D02*
Y24793D01*
Y24784D02*
X78206Y23632D01*
X78343D01*
X78400Y23575D01*
X62735Y32042D02*
X63240Y31536D01*
Y31366D02*
Y31536D01*
X63250Y30800D02*
X63257Y30807D01*
X63240Y31366D02*
X63257Y31349D01*
Y30807D02*
Y31349D01*
X62381Y20917D02*
X62943Y21479D01*
Y21968D01*
X63000Y22025D01*
X58859Y28153D02*
X59505Y27507D01*
X59768D01*
X58832Y28153D02*
X58859D01*
X59768Y27507D02*
X59825Y27450D01*
X61541Y32521D02*
X61548D01*
X61751Y33025D02*
X62734Y32042D01*
X62254Y33230D02*
X63909Y31575D01*
X61340Y33355D02*
X61670Y33025D01*
X62734Y32042D02*
X62735D01*
X61670Y33025D02*
X61751D01*
X62254Y33230D02*
Y33234D01*
X61063Y33000D02*
X61541Y32521D01*
X61127Y33355D02*
X61340D01*
X61800Y33688D02*
X62254Y33234D01*
X61548Y32521D02*
X62381Y31688D01*
X61800Y33688D02*
Y33700D01*
X60757Y33725D02*
X61127Y33355D01*
X63054Y33844D02*
Y33859D01*
Y33844D02*
X63795Y33102D01*
Y33102D02*
Y33102D01*
X62550Y33645D02*
X63442Y32753D01*
X62550Y33645D02*
Y33650D01*
X63442Y32749D02*
Y32753D01*
X62512Y34400D02*
X63054Y33859D01*
X74672Y24348D02*
Y24366D01*
X74646Y24391D02*
X74672Y24366D01*
X72812Y32042D02*
X72825D01*
X73783Y33000D01*
X73800D01*
X75442Y31843D02*
X75543D01*
X74226Y30628D02*
X75442Y31843D01*
X75543D02*
X75600Y31900D01*
X75100Y32352D02*
Y32400D01*
X74732Y31984D02*
X75100Y32352D01*
X73872Y30981D02*
X74732Y31840D01*
Y31984D01*
X80396Y10091D02*
Y10509D01*
X80500Y10612D01*
X80410Y9910D02*
Y10078D01*
X79525Y9025D02*
X80410Y9910D01*
X80396Y10091D02*
X80410Y10078D01*
X81080Y8954D02*
X82000Y9874D01*
X47400Y59441D02*
X48900Y60940D01*
X46900Y58940D02*
X47400Y59441D01*
X49367Y55940D02*
X49674Y55667D01*
X28000Y32761D02*
Y34600D01*
X33152Y39751D01*
X25953Y30714D02*
X28000Y32761D01*
X33400Y40225D02*
X33475D01*
X33152Y39977D02*
X33400Y40225D01*
X33152Y39751D02*
Y39977D01*
X5950Y61550D02*
X6200Y61583D01*
Y62695D01*
X7575Y32725D02*
Y33955D01*
X7505Y34025D02*
X7575Y33955D01*
X35250Y40150D02*
X35900D01*
X38554Y40229D02*
X38575Y40250D01*
X27812Y30412D02*
X28950Y31550D01*
Y33850D02*
X35250Y40150D01*
X35602Y39852D02*
X35900Y40150D01*
X35975D01*
X28950Y31550D02*
Y33850D01*
X27175Y33675D02*
Y35931D01*
X26000Y36050D02*
X27056D01*
X34225Y45041D02*
Y45898D01*
X33696Y44512D02*
X34225Y45041D01*
X33475Y43908D02*
X33696Y44129D01*
Y44512D01*
X33475Y42673D02*
Y43908D01*
Y41475D02*
Y42673D01*
X34725Y47175D02*
X35139Y46761D01*
X35257D01*
X35258Y46760D01*
X35525D01*
X35610Y46675D01*
X36002D01*
X34225Y47675D02*
X34725Y47175D01*
X36002D01*
X41850Y57700D02*
X42083Y57933D01*
X44850Y68325D02*
Y68512D01*
X50707Y64975D02*
X50707Y64975D01*
X43076Y68451D02*
Y68525D01*
X41750Y66800D02*
Y66875D01*
X55056Y40010D02*
X55056Y40010D01*
X29631Y61005D02*
X29635Y61009D01*
X16674Y37450D02*
X16972Y37152D01*
X16774Y37349D02*
X16972Y37152D01*
X24950Y31450D02*
X27175Y33675D01*
X21258Y31920D02*
X21728Y31450D01*
X24950D01*
X20671Y32494D02*
Y32719D01*
Y32494D02*
X21244Y31920D01*
X21258D01*
X27056Y36050D02*
X27175Y35931D01*
X26250Y41325D02*
X26275Y41350D01*
X26250Y40475D02*
Y41325D01*
X26275Y41350D02*
Y42079D01*
X31650Y46675D02*
X32448D01*
X31691Y47682D02*
X32441D01*
X32448Y47675D01*
X31700Y48175D02*
X32448D01*
X32056Y47175D02*
X32448D01*
X31398Y45898D02*
X33225D01*
X30651Y45151D02*
X31398Y45898D01*
X30651Y45151D02*
X30651D01*
X31956Y47275D02*
X32056Y47175D01*
X30700Y47275D02*
X31956D01*
X31550Y48325D02*
X31700Y48175D01*
X31550Y48325D02*
Y49025D01*
X31400Y49175D02*
X31550Y49025D01*
X30703Y49175D02*
X31400D01*
X31148Y48225D02*
X31691Y47682D01*
X30700Y48225D02*
X31148D01*
X31299Y46324D02*
X31650Y46675D01*
X30700Y46324D02*
X31299D01*
X26408Y42212D02*
X28273D01*
X26275Y42079D02*
X26408Y42212D01*
X33450Y42673D02*
X33475D01*
X35937Y42743D02*
X35939D01*
X35937D02*
Y43941D01*
Y41488D02*
Y42743D01*
X30331Y43950D02*
X30975D01*
X30213Y44069D02*
X30331Y43950D01*
X30213Y44069D02*
Y44713D01*
X30651Y45151D01*
X28571Y42511D02*
Y42586D01*
X28273Y42212D02*
X28571Y42511D01*
X15375Y38725D02*
X16650D01*
X16675Y38750D01*
X16600D02*
X16675D01*
X51924Y38740D02*
Y38740D01*
Y37550D02*
Y38740D01*
X44205Y33840D02*
X44220Y33825D01*
X46575D01*
X49350Y35000D02*
X49374D01*
X51924Y37550D01*
X46760Y28760D02*
X48336Y30336D01*
Y33886D01*
X48307Y33943D02*
Y36877D01*
Y33943D02*
X48350Y33900D01*
X48307Y36877D02*
X51440Y40010D01*
X48336Y33886D02*
X48350Y33900D01*
X44205Y28760D02*
X46760D01*
X36475Y31325D02*
X38970D01*
X38995Y31300D01*
X38471Y19060D02*
X38475Y19056D01*
Y18300D02*
Y19056D01*
X39675Y18175D02*
Y19014D01*
X74672Y24348D02*
X75640Y23379D01*
X74746Y53004D02*
X74750Y53000D01*
X73725Y53800D02*
X73730Y53805D01*
X76200Y52975D02*
X76200Y52975D01*
X58446Y66488D02*
X58446Y66488D01*
X67997Y66488D02*
X68021Y66511D01*
X58546Y65088D02*
X59821D01*
X58446Y65188D02*
X58546Y65088D01*
X61696D02*
X62971D01*
X61596Y65188D02*
X61696Y65088D01*
X64847D02*
X66122D01*
X64747Y65188D02*
X64847Y65088D01*
X68097D02*
X69372D01*
X67997Y65188D02*
X68097Y65088D01*
X71348D02*
X72623D01*
X71248Y65188D02*
X71348Y65088D01*
X54896Y59304D02*
X54900Y59300D01*
X31442Y60833D02*
X31450Y60825D01*
X7625Y66104D02*
X7628Y66100D01*
X38995Y31300D02*
X39587D01*
X40121Y31834D01*
Y32121D02*
X40450Y32450D01*
X40121Y31834D02*
Y32121D01*
X46975Y32425D02*
X47350Y32800D01*
X41925Y32425D02*
X46975D01*
X8225Y64700D02*
X8225Y64700D01*
X7525Y64700D02*
X8225D01*
X60650Y33725D02*
X60757D01*
X60812Y32550D02*
X62028Y31335D01*
X41050Y60850D02*
X41700D01*
X41900Y55925D02*
X41923Y55948D01*
X42729D01*
X42737Y55940D01*
X45400Y57440D02*
X46650Y58691D01*
X42737Y56440D02*
X44400D01*
X48400Y56940D02*
X48900Y56440D01*
X48900Y60940D02*
X49400Y61440D01*
X50564D01*
X48900Y60940D02*
X50564D01*
X44892Y62612D02*
X44900Y62604D01*
X44892Y62612D02*
Y63358D01*
X44875Y63375D02*
X44892Y63358D01*
X44900Y62194D02*
Y62604D01*
X44400Y60940D02*
Y62604D01*
X43900Y61441D02*
Y62604D01*
X47900D02*
Y63367D01*
X47675Y63592D02*
X47900Y63367D01*
X47675Y63592D02*
Y63600D01*
X48400Y62604D02*
Y63600D01*
X42729Y57933D02*
X42737Y57940D01*
X42083Y57933D02*
X42729D01*
X41700Y60850D02*
X42102Y60448D01*
X42729D01*
X42737Y60440D01*
X31225Y51850D02*
X32858D01*
X33277Y51432D01*
Y51423D02*
Y51432D01*
Y51423D02*
X33475Y51225D01*
X33575D01*
X35826Y51175D02*
X36026D01*
X36576Y50625D02*
X37225D01*
X36026Y51175D02*
X36576Y50625D01*
X37287Y51838D02*
X37350Y51900D01*
X35024Y51432D02*
X35430Y51838D01*
X37287D01*
X35024Y51423D02*
Y51432D01*
X34825Y51225D02*
X35024Y51423D01*
X34725Y51225D02*
X34825D01*
X9400Y34525D02*
X10700D01*
X66270Y17015D02*
X67125Y17870D01*
X62381Y20904D02*
Y20917D01*
X61725Y19550D02*
X61734D01*
X62735Y20551D01*
X63575Y21391D01*
X58182Y28803D02*
X58832Y28153D01*
X57925Y28850D02*
X57972Y28803D01*
X58182D01*
X63909Y31575D02*
X64025D01*
X63455Y32749D02*
X64129Y32075D01*
X64550D01*
X65000Y32525D01*
X63442Y32749D02*
X63455D01*
X76538Y30100D02*
X76550D01*
X75652Y29213D02*
X76538Y30100D01*
X75640Y29213D02*
X75652D01*
X77406Y25147D02*
X77408D01*
X76552Y26000D02*
X77406Y25147D01*
X76550Y26000D02*
X76552D01*
X77408Y25147D02*
X78225Y24330D01*
Y24325D02*
Y24330D01*
X66628Y16665D02*
X66660D01*
X67075Y16250D01*
X74850Y28425D02*
X74852D01*
X75640Y29213D01*
X5900Y26350D02*
X5900Y26350D01*
X3298Y28025D02*
X3300Y28023D01*
X29324Y16097D02*
Y16097D01*
X25925Y36050D02*
X26000D01*
X16600Y37450D02*
X16674D01*
X16972Y36923D02*
Y37152D01*
Y36923D02*
X17678Y36217D01*
X17903D01*
X16775Y37350D02*
X17700D01*
X16675Y37450D02*
X16775Y37350D01*
X16600Y37450D02*
X16675D01*
X17633Y38317D02*
X17848Y38102D01*
X16675Y38750D02*
X16974Y38451D01*
Y38436D02*
X17092Y38317D01*
X16974Y38436D02*
Y38451D01*
X17092Y38317D02*
X17633D01*
X17848Y38102D02*
X17962D01*
X18522Y37541D01*
X18622D02*
X18821Y37343D01*
X18522Y37541D02*
X18622D01*
X18721Y37343D02*
X18921D01*
X18522Y37541D02*
X18721Y37343D01*
X6023Y37077D02*
X6800Y36300D01*
X6919Y35725D02*
X7500D01*
X6800Y35844D02*
X6919Y35725D01*
X6800Y35844D02*
Y36300D01*
X3200Y38650D02*
X3200Y38650D01*
Y39800D01*
X4300Y38250D02*
X4325D01*
X4902Y37674D01*
X5166D01*
X5465Y37375D01*
X3200Y38650D02*
X3900D01*
X4127Y38423D01*
Y38398D02*
Y38423D01*
Y38398D02*
X4275Y38250D01*
X4300D01*
X3200Y37350D02*
X3200Y37350D01*
X4300D01*
X3275Y37350D02*
X4402Y36223D01*
X3200Y37350D02*
X3275D01*
X9400Y36125D02*
Y36500D01*
X9400Y36125D02*
X9400Y36125D01*
X8694Y35725D02*
X9400D01*
X8450Y35325D02*
Y35482D01*
X8694Y34925D02*
X9400D01*
X8450Y35168D02*
Y35325D01*
X13150Y33575D02*
Y34548D01*
X13099Y34599D02*
X13150Y34548D01*
X13099Y34599D02*
X13175Y34675D01*
X12050Y34599D02*
X13099D01*
X13175Y34675D02*
X13250D01*
X10926Y34599D02*
X12050D01*
X10850Y34675D02*
X10926Y34599D01*
X12050Y35499D02*
X12699D01*
X13175Y35975D01*
X10700Y34525D02*
X10850Y34675D01*
X5465Y37375D02*
X5763Y37077D01*
X6023D01*
X10050Y35325D02*
X10050Y35325D01*
X9400Y35325D02*
X10050D01*
X24826Y35574D02*
X25449D01*
X25925Y36050D01*
X39001Y35624D02*
Y36449D01*
X38975Y36475D02*
X39001Y36449D01*
X39000Y33845D02*
Y35622D01*
X39001Y35624D01*
X51357Y58940D02*
X54300Y55997D01*
Y49450D02*
Y55997D01*
X38487Y15312D02*
Y16038D01*
X38475Y16050D02*
X38487Y16038D01*
X7113Y23837D02*
X7200Y23751D01*
X29825Y41325D02*
X29850Y41350D01*
X38575Y41500D02*
X38575Y41500D01*
Y42694D01*
X38571Y42698D02*
X38575Y42694D01*
X38571Y42698D02*
Y43971D01*
X47350Y32800D02*
Y41925D01*
X46725Y42550D02*
X47350Y41925D01*
X44824Y42550D02*
X46725D01*
X46120Y37220D02*
Y41161D01*
X46001Y41280D02*
X46120Y41161D01*
X43975Y35075D02*
X46120Y37220D01*
X44824Y41280D02*
X46001D01*
X44688Y41356D02*
X44794Y41250D01*
X43024Y41546D02*
X43629D01*
X43819Y41356D01*
X44688D01*
X44794Y41250D02*
X44824Y41280D01*
X27525Y41350D02*
X28600D01*
X30975Y43875D02*
Y43950D01*
Y42600D02*
Y42675D01*
X31877Y43577D01*
X31976D01*
X32275Y43875D01*
X29850Y41350D02*
X31000D01*
X31000Y41350D01*
Y42575D01*
X30975Y42600D02*
X31000Y42575D01*
X16569Y61005D02*
X18750D01*
X16500Y61074D02*
X16569Y61005D01*
X44400Y53935D02*
Y54777D01*
X50564Y58940D02*
X51357D01*
X43552Y54777D02*
X43900D01*
X44900D02*
X44908Y54769D01*
X45400Y54100D02*
Y54777D01*
Y54100D02*
X45900Y53600D01*
X46625D01*
X46752Y53473D01*
Y52905D02*
Y53473D01*
X45400Y52905D02*
Y53523D01*
X44908Y54015D02*
X45400Y53523D01*
X44908Y54015D02*
Y54769D01*
X42696Y53921D02*
X43552Y54777D01*
X42696Y52905D02*
Y53921D01*
X44048Y53584D02*
X44400Y53935D01*
X44048Y52905D02*
Y53584D01*
X7200Y25350D02*
X10050D01*
X10825Y24575D01*
X7176Y23900D02*
Y25326D01*
X7200Y25350D01*
X7113Y23837D02*
X7176Y23900D01*
X7200Y21107D02*
Y22825D01*
Y23751D01*
X7050Y11857D02*
Y20957D01*
X7200Y21107D01*
X38550Y16875D02*
X39675D01*
X38475Y16050D02*
Y16800D01*
X38550Y16875D01*
X38475Y16050D02*
X38475Y16050D01*
X76193Y55057D02*
X76902D01*
X76120Y55057D02*
X76193D01*
X74746D02*
X76120D01*
X72031Y55256D02*
X73695D01*
X74547D01*
X74746Y55057D01*
X71900Y55125D02*
X72031Y55256D01*
X43024Y41546D02*
Y42776D01*
X42696Y43104D02*
Y51955D01*
Y43104D02*
X43024Y42776D01*
X5400Y29025D02*
X6350D01*
X5200Y29225D02*
X5400Y29025D01*
X4600Y29225D02*
X5200D01*
X23458Y17550D02*
X24126Y18218D01*
X23450Y17550D02*
X23458D01*
X31091Y20941D02*
Y20948D01*
X37225Y27082D02*
Y27100D01*
X31091Y20948D02*
X37225Y27082D01*
X31799Y20233D02*
X35465Y23900D01*
X35284Y24426D02*
X37926D01*
X31445Y20587D02*
X35284Y24426D01*
X41225Y27725D02*
Y34250D01*
X37926Y24426D02*
X41225Y27725D01*
Y34250D02*
X42050Y35075D01*
X45400Y46050D02*
Y46534D01*
Y46050D02*
X51440Y40010D01*
X51622D01*
X51924D01*
X45400Y46534D02*
X45400Y46534D01*
X45400Y46534D02*
Y51955D01*
X46750Y46250D02*
X46752Y46252D01*
Y51955D01*
X44048Y44502D02*
Y51955D01*
X44824Y42550D02*
Y43726D01*
X44048Y44502D02*
X44824Y43726D01*
X42005Y31080D02*
X42175Y31250D01*
X36575Y28500D02*
X36835Y28760D01*
X38995D01*
X36465Y33840D02*
X38995D01*
X44155Y31250D02*
X44205Y31300D01*
X42175Y31250D02*
X44155D01*
X42050Y35075D02*
X43975D01*
X51924Y38740D02*
X53740D01*
X53745Y41280D02*
X53756Y41270D01*
X53740Y38740D02*
X53756Y38724D01*
X51924Y41280D02*
X53745D01*
X38525Y9150D02*
Y10725D01*
X38109Y8734D02*
X38525Y9150D01*
X38109Y8209D02*
Y8734D01*
X37900Y8000D02*
X38109Y8209D01*
X36949Y7606D02*
X36950Y7604D01*
Y6762D02*
Y7604D01*
X36934Y6747D02*
X36950Y6762D01*
X36934Y6696D02*
Y6747D01*
X36630Y6392D02*
X36934Y6696D01*
X36630Y6095D02*
Y6392D01*
X66257Y35577D02*
X66270D01*
X66610Y35931D02*
X66624D01*
X21120Y20547D02*
X21120D01*
X21723Y21150D01*
X62800Y55125D02*
X71900D01*
X70075Y38900D02*
Y42250D01*
Y43365D02*
X71910Y45200D01*
X70075Y42250D02*
Y43365D01*
X69276Y17015D02*
Y17015D01*
X68425Y17866D02*
X69276Y17015D01*
X68425Y17866D02*
Y17875D01*
X59725Y20369D02*
X61321Y21965D01*
X62200Y18602D02*
X63442Y19843D01*
X62200Y9748D02*
Y18602D01*
X72875Y12222D02*
Y19073D01*
X67110Y4460D02*
X68400Y5750D01*
X69497Y8097D02*
X71221Y9821D01*
Y10569D02*
X72875Y12222D01*
X69497Y7622D02*
Y8097D01*
X71221Y9821D02*
Y10569D01*
X68400Y6525D02*
X69497Y7622D01*
X68400Y5750D02*
Y6525D01*
X60398Y31550D02*
X61321Y30627D01*
X60442Y20379D02*
X61674Y21611D01*
X60442Y10141D02*
Y20379D01*
X64570Y2285D02*
X64575Y2290D01*
Y4475D01*
X65662Y5562D01*
Y6438D02*
X66791Y7567D01*
X65662Y5562D02*
Y6438D01*
X60605Y32050D02*
X61674Y30981D01*
X61675Y18784D02*
X63088Y20197D01*
X56725Y20198D02*
X59906Y23379D01*
X61068Y20298D02*
X62028Y21258D01*
X61068Y10195D02*
Y20298D01*
X67110Y2285D02*
Y4460D01*
X69650Y2285D02*
Y4450D01*
X70991Y5791D01*
Y6725D01*
X72150Y7884D01*
X66275Y10300D02*
X70300Y14325D01*
X58215Y20273D02*
X60613Y22672D01*
X68923Y16661D02*
X69653Y15931D01*
Y15822D02*
Y15931D01*
Y15822D02*
X69700Y15775D01*
X56075Y20255D02*
X59553Y23733D01*
X57315Y20081D02*
X60260Y23025D01*
X64625Y6150D02*
Y8131D01*
X65519Y9025D01*
X65546D01*
X66084Y9563D01*
X54525Y20119D02*
X58846Y24440D01*
X67275Y6260D02*
Y8241D01*
X55300Y20187D02*
X59199Y24086D01*
X53900Y20201D02*
X58492Y24793D01*
X53248Y20256D02*
X58139Y25147D01*
X71810Y12735D02*
Y18003D01*
X74628Y20697D02*
X74675Y20650D01*
X70337Y18076D02*
X71100Y17313D01*
X74628Y20697D02*
Y20856D01*
X73872Y21611D02*
X74628Y20856D01*
X73872Y21611D02*
Y21611D01*
X72105Y19843D02*
X72875Y19073D01*
X72105Y19843D02*
Y19843D01*
X60967Y22305D02*
Y22318D01*
X70867Y10716D02*
X72520Y12369D01*
Y18708D01*
X71751Y19477D02*
X72520Y18708D01*
X71751Y19477D02*
Y19490D01*
X72812Y20537D02*
Y20551D01*
X65903Y35224D02*
X65917D01*
X70300Y14325D02*
Y16698D01*
X69630Y17369D02*
X70300Y16698D01*
X70690Y18416D02*
X71455Y17651D01*
X70690Y18416D02*
Y18429D01*
X65550Y34870D02*
X65563D01*
X72458Y20184D02*
X73230Y19412D01*
X72458Y20184D02*
Y20197D01*
X73165Y20891D02*
Y20904D01*
X69983Y17722D02*
X70700Y17005D01*
X67275Y8241D02*
X68159Y9125D01*
X70511Y10863D02*
X72165Y12516D01*
Y18355D01*
X71397Y19123D02*
X72165Y18355D01*
X71397Y19123D02*
Y19136D01*
X59542Y28860D02*
X59553D01*
X71044Y18769D02*
X71810Y18003D01*
X71044Y18769D02*
Y18783D01*
X69375Y10300D02*
X71810Y12735D01*
X77270Y2285D02*
Y4470D01*
X78300Y5500D01*
Y6225D01*
X79525Y7450D01*
Y9025D01*
X49330Y6392D02*
X49648Y6710D01*
X49330Y6095D02*
Y6392D01*
X46472Y8122D02*
X49538Y11188D01*
X46472Y7122D02*
Y8122D01*
X45475Y6126D02*
X46472Y7122D01*
X45475Y5700D02*
Y6126D01*
X44250Y4475D02*
X45475Y5700D01*
X44250Y2285D02*
Y4475D01*
X53248Y9955D02*
Y20256D01*
X51833Y8541D02*
X53248Y9955D01*
X51833Y7888D02*
Y8541D01*
X50575Y6629D02*
X51833Y7888D01*
X50575Y5850D02*
Y6629D01*
X49330Y4605D02*
X50575Y5850D01*
X49330Y2285D02*
Y4605D01*
X53900Y10300D02*
Y20201D01*
X74500Y7694D02*
Y8700D01*
X73275Y6469D02*
X74500Y7694D01*
X73275Y5800D02*
Y6469D01*
X72190Y4715D02*
X73275Y5800D01*
X72190Y2285D02*
Y4715D01*
X55300Y9704D02*
Y20187D01*
X54213Y8617D02*
X55300Y9704D01*
X54213Y8606D02*
Y8617D01*
X53818Y8210D02*
X54213Y8606D01*
X53350Y8210D02*
X53818D01*
X53140Y8000D02*
X53350Y8210D01*
X67110Y6095D02*
X67275Y6260D01*
X54525Y9725D02*
Y20119D01*
X54047Y9247D02*
X54525Y9725D01*
X53041Y9247D02*
X54047D01*
X52188Y8394D02*
X53041Y9247D01*
X52188Y7489D02*
Y8394D01*
X51900Y7200D02*
X52188Y7489D01*
X51900Y6125D02*
Y7200D01*
X51870Y6095D02*
X51900Y6125D01*
X64570Y6095D02*
X64625Y6150D01*
X43931Y7431D02*
Y8731D01*
X42800Y6300D02*
X43931Y7431D01*
X42800Y5650D02*
Y6300D01*
X41750Y4600D02*
X42800Y5650D01*
X41750Y2325D02*
Y4600D01*
X41710Y2285D02*
X41750Y2325D01*
X57315Y9564D02*
Y20081D01*
X56727Y8975D02*
X57315Y9564D01*
X56727Y8975D02*
X56727D01*
X55752Y8000D02*
X56727Y8975D01*
X55680Y8000D02*
X55752D01*
X56075Y9772D02*
Y20255D01*
X54425Y8122D02*
X56075Y9772D01*
X54425Y7825D02*
Y8122D01*
X53125Y6525D02*
X54425Y7825D01*
X53125Y5850D02*
Y6525D01*
X51870Y4595D02*
X53125Y5850D01*
X51870Y2285D02*
Y4595D01*
X77075Y7550D02*
Y8750D01*
X75682Y6156D02*
X77075Y7550D01*
X75682Y5701D02*
Y6156D01*
X74730Y4749D02*
X75682Y5701D01*
X74730Y2285D02*
Y4749D01*
X87430Y6095D02*
Y6187D01*
X87975Y6732D01*
X58215Y9843D02*
Y20273D01*
X56900Y8528D02*
X58215Y9843D01*
X56900Y7725D02*
Y8528D01*
X55575Y6400D02*
X56900Y7725D01*
X55575Y5800D02*
Y6400D01*
X54425Y4650D02*
X55575Y5800D01*
X54425Y2300D02*
Y4650D01*
X54410Y2285D02*
X54425Y2300D01*
X42027Y7227D02*
X42028Y7228D01*
X42027Y6709D02*
Y7227D01*
X41710Y6392D02*
X42027Y6709D01*
X41710Y6095D02*
Y6392D01*
X78540Y8000D02*
Y9015D01*
X79999Y10474D01*
X82350Y2285D02*
X82375Y2310D01*
Y4650D01*
X83575Y5850D01*
Y6350D01*
X59200Y8327D02*
X61068Y10195D01*
X59200Y7375D02*
Y8327D01*
X58225Y6400D02*
X59200Y7375D01*
X58225Y5850D02*
Y6400D01*
X56925Y4550D02*
X58225Y5850D01*
X56925Y2310D02*
Y4550D01*
Y2310D02*
X56950Y2285D01*
X56725Y10300D02*
Y20198D01*
X81080Y8000D02*
X81080Y8000D01*
Y8954D01*
X84890Y2285D02*
Y4515D01*
X86000Y5625D01*
Y6375D01*
X87112Y7486D01*
Y8800D01*
X87075Y8837D02*
X87112Y8800D01*
X83620Y8000D02*
Y9468D01*
X76006Y9351D02*
X76301D01*
X74855Y8201D02*
X76006Y9351D01*
X74855Y6220D02*
Y8201D01*
X74730Y6095D02*
X74855Y6220D01*
X61675Y10300D02*
Y18784D01*
X73300Y9350D02*
X73775D01*
X72508Y8559D02*
X73300Y9350D01*
X72508Y7741D02*
Y8559D01*
X72190Y7422D02*
X72508Y7741D01*
X72190Y6095D02*
Y7422D01*
X63175Y5725D02*
Y6450D01*
X62030Y4580D02*
X63175Y5725D01*
X62030Y2285D02*
Y4580D01*
X43086Y8106D02*
Y8836D01*
X42980Y8000D02*
X43086Y8106D01*
X46109Y9125D02*
X48400Y11416D01*
X44890Y9125D02*
X46109D01*
X44492Y8727D02*
X44890Y9125D01*
X44492Y6767D02*
Y8727D01*
X44460Y6735D02*
X44492Y6767D01*
X44460Y6305D02*
Y6735D01*
X44250Y6095D02*
X44460Y6305D01*
X86160Y4190D02*
X86170Y4200D01*
X87450D01*
X88625Y5375D01*
X76210Y8210D02*
Y8635D01*
X76000Y8000D02*
X76210Y8210D01*
X37582Y6107D02*
X39200Y7725D01*
X37582Y5409D02*
Y6107D01*
X36600Y4428D02*
X37582Y5409D01*
X36600Y2315D02*
Y4428D01*
Y2315D02*
X36630Y2285D01*
X58302Y8000D02*
X60442Y10141D01*
X58220Y8000D02*
X58302D01*
X40440D02*
X40554Y8114D01*
X46225Y10300D02*
X46475D01*
X48060Y8000D02*
Y8087D01*
X40450Y6300D02*
X41475Y7325D01*
X40450Y5725D02*
Y6300D01*
X39170Y4445D02*
X40450Y5725D01*
X39170Y2285D02*
Y4445D01*
X46800Y2295D02*
Y4475D01*
X46790Y2285D02*
X46800Y2295D01*
X61473Y9021D02*
X62200Y9748D01*
X60396Y9021D02*
X61473D01*
X59600Y8225D02*
X60396Y9021D01*
X59600Y6205D02*
Y8225D01*
X59490Y6095D02*
X59600Y6205D01*
X78581Y32284D02*
X79776D01*
X59725Y9925D02*
Y20369D01*
X59045Y9246D02*
X59725Y9925D01*
X58120Y9246D02*
X59045D01*
X57269Y8394D02*
X58120Y9246D01*
X57269Y7168D02*
Y8394D01*
X57268Y7168D02*
X57269Y7168D01*
X57268Y6709D02*
Y7168D01*
X56950Y6392D02*
X57268Y6709D01*
X56950Y6095D02*
Y6392D01*
X60725Y6475D02*
X61925Y7675D01*
X60725Y5825D02*
Y6475D01*
X59450Y4550D02*
X60725Y5825D01*
X59450Y2325D02*
Y4550D01*
Y2325D02*
X59490Y2285D01*
X79810Y6095D02*
X79950Y6235D01*
Y8625D01*
X81525Y10200D01*
X82350Y6095D02*
X82386Y6131D01*
Y8736D01*
X83650Y10000D01*
X85843Y45282D02*
X85860Y45300D01*
X80780D02*
X80828Y45252D01*
X75700Y45300D02*
X75713Y45287D01*
X77838Y35369D02*
Y35791D01*
X77803Y35827D02*
X77838Y35791D01*
X78927Y33132D02*
X79458Y33664D01*
X88400Y45300D02*
X88475Y45225D01*
X81226Y32808D02*
X81509Y33091D01*
X80300Y32808D02*
X81226D01*
X79776Y32284D02*
X80300Y32808D01*
X79458Y33664D02*
Y34576D01*
X79741Y34859D01*
X83113Y28688D02*
X83125Y28700D01*
X83113Y10312D02*
Y28688D01*
X83100Y10300D02*
X83113Y10312D01*
X82574Y9724D02*
Y28100D01*
X82032Y9182D02*
X82574Y9724D01*
X82032Y7457D02*
Y9182D01*
X81075Y6500D02*
X82032Y7457D01*
X81075Y5725D02*
Y6500D01*
X79810Y4460D02*
X81075Y5725D01*
X79810Y2285D02*
Y4460D01*
X35360Y8000D02*
Y8097D01*
X37175Y9650D02*
X37188Y9663D01*
Y22138D01*
X37200Y22150D01*
X34075Y2300D02*
Y4734D01*
X35679Y6338D02*
Y6973D01*
X34075Y4734D02*
X35679Y6338D01*
X32550Y9725D02*
Y17106D01*
X31350Y8525D02*
X32550Y9725D01*
X31550Y6095D02*
Y7273D01*
X31868Y7591D01*
X30225Y6450D02*
X31350Y7575D01*
Y8525D01*
X31868Y8394D02*
X33000Y9526D01*
X31868Y7591D02*
Y8394D01*
X33000Y9526D02*
Y17370D01*
X16310Y6095D02*
X16381Y6166D01*
X31799Y18572D02*
X33000Y17370D01*
X34075Y2300D02*
X34090Y2285D01*
X34230Y6235D02*
Y8405D01*
X35410Y9585D01*
X35425D01*
X34750Y9675D02*
Y20375D01*
X34375Y9300D02*
X34750Y9675D01*
X33425Y8902D02*
Y17652D01*
X32820Y8297D02*
X33425Y8902D01*
X32152Y18925D02*
X33425Y17652D01*
X32525Y5300D02*
Y6359D01*
X31525Y4300D02*
X32525Y5300D01*
X32820Y8000D02*
Y8297D01*
X35425Y9585D02*
Y20825D01*
X32820Y4190D02*
X33050Y4420D01*
X31525Y2310D02*
Y4300D01*
X24800Y23150D02*
X25225Y22725D01*
X25200Y22349D02*
Y22700D01*
X25540Y22001D02*
Y22009D01*
X25200Y22349D02*
X25540Y22009D01*
X25250Y22700D02*
X25541D01*
X25887Y22355D02*
X25894D01*
X25541Y22700D02*
X25887Y22355D01*
X28321Y14971D02*
Y14978D01*
X28263Y15036D02*
X28321Y14978D01*
X27900Y14550D02*
X28321Y14971D01*
X32152Y19880D02*
Y19880D01*
X31445Y18210D02*
X32550Y17106D01*
X29025Y2285D02*
Y4575D01*
X30225Y5775D01*
Y6450D01*
X31445Y18210D02*
Y18218D01*
X29200Y6285D02*
Y8650D01*
X29010Y6095D02*
X29200Y6285D01*
X28745Y7449D02*
Y9345D01*
X27645Y6349D02*
X28745Y7449D01*
X27645Y5695D02*
Y6349D01*
X27740Y8080D02*
X28375Y8715D01*
Y10100D01*
X27740Y8000D02*
Y8080D01*
X26470Y2285D02*
Y4520D01*
X27645Y5695D01*
X23419Y19880D02*
X23533Y19766D01*
Y19758D02*
Y19766D01*
X25200Y5850D02*
Y6375D01*
X23900Y4550D02*
X25200Y5850D01*
X23900Y2125D02*
Y4550D01*
X26601Y15736D02*
Y15743D01*
X25200Y15049D02*
X26248Y16097D01*
X25200Y8000D02*
Y15049D01*
X22575Y6300D02*
X23611Y7337D01*
X22575Y5675D02*
Y6300D01*
X21400Y4500D02*
X22575Y5675D01*
X21400Y2075D02*
Y4500D01*
X21625Y6762D02*
Y8625D01*
X21390Y6095D02*
X21600Y6305D01*
Y6737D01*
X21625Y6762D01*
X20030Y5929D02*
Y6564D01*
X18850Y2285D02*
Y4749D01*
X20030Y5929D01*
X26240Y22708D02*
X26248D01*
D162*
X79823Y31218D02*
X80324Y31718D01*
X78231Y31218D02*
X79823D01*
X80324Y31718D02*
X80341D01*
X41153Y60248D02*
X41461Y59940D01*
X42737D01*
X38375Y60575D02*
X40275D01*
X40276Y60574D01*
X40474D02*
X40801Y60248D01*
X40276Y60574D02*
X40474D01*
X40801Y60248D02*
X41153D01*
X36100Y62825D02*
X36635Y62290D01*
X37542Y62192D02*
X37583D01*
X37445Y62290D02*
X37542Y62192D01*
X36635Y62290D02*
X37445D01*
X36958Y65342D02*
X36998D01*
X38600Y65600D02*
X38629Y65629D01*
Y65804D01*
X39025Y66200D02*
X40350D01*
X38629Y65804D02*
X39025Y66200D01*
X41100Y62256D02*
Y64751D01*
X40647Y65204D02*
X41100Y64751D01*
X40647Y65204D02*
Y65903D01*
X40350Y66200D02*
X40647Y65903D01*
X36100Y62825D02*
Y64513D01*
X41100Y62256D02*
X43085D01*
X43900Y61441D01*
X68775Y42250D02*
X69025Y42000D01*
Y41541D02*
Y42000D01*
Y41541D02*
X69100Y41466D01*
Y41425D02*
Y41466D01*
X68775Y42250D02*
X69025Y42500D01*
Y42959D01*
X69125Y43059D01*
Y43100D01*
X18962Y22882D02*
X19341Y23260D01*
X19376D01*
X18323Y22882D02*
X18962D01*
X18177Y23027D02*
X18323Y22882D01*
X18012Y23027D02*
X18177D01*
X17906D02*
X17924Y23046D01*
X17993D02*
X18012Y23027D01*
X17924Y23046D02*
X17993D01*
X21541Y34453D02*
Y35105D01*
X21346Y35300D02*
X21446Y35200D01*
X21346Y35300D02*
X21541Y35105D01*
Y34453D02*
X21594Y34400D01*
X76550Y32800D02*
Y32825D01*
X77812Y34088D01*
X76814Y38371D02*
X77591Y37594D01*
X76629Y38371D02*
X76814D01*
X76600Y38400D02*
X76629Y38371D01*
X18893Y18638D02*
X18927D01*
X18875D02*
X18893D01*
X18206Y17970D02*
X18228D01*
X18188D02*
X18206D01*
X16929Y22729D02*
Y23005D01*
X16900Y22700D02*
X16929Y22729D01*
X17733Y23810D02*
X19604D01*
X16929Y23005D02*
X17733Y23810D01*
X19451Y18115D02*
X19465D01*
X19424D02*
X19451D01*
X80341Y31718D02*
X80366D01*
X80910Y31174D01*
X80935D01*
X78300Y38300D02*
X78374Y38300D01*
X78369Y38271D02*
Y38300D01*
Y38271D02*
X78416Y38225D01*
X78449D01*
X80010Y36664D01*
Y36640D02*
Y36664D01*
X78536Y35166D02*
X80010Y36640D01*
Y36664D02*
X80030D01*
X81583Y35110D01*
X77875Y35827D02*
X78536Y35166D01*
X78256Y33698D02*
X78361D01*
X77867Y34088D02*
X78256Y33698D01*
X77812Y34088D02*
X77867D01*
X77812D02*
X78100Y34375D01*
X77359Y34541D02*
X77812Y34088D01*
X78298Y38300D02*
X78300D01*
X78259D02*
X78298D01*
X77591Y37594D02*
X77593D01*
X78298Y38300D01*
X75296Y36543D02*
X75306D01*
X74775Y37064D02*
X75296Y36543D01*
X74764Y37064D02*
X74775D01*
X78100Y34375D02*
Y34689D01*
X78536Y35125D02*
Y35166D01*
X78100Y34689D02*
X78536Y35125D01*
X80935Y31174D02*
X80963Y31202D01*
X81131D02*
X82414Y32486D01*
X80963Y31202D02*
X81131D01*
X81612Y35082D02*
X82759Y33934D01*
X76072Y38371D02*
X76571D01*
X76600Y38400D01*
X74764Y37064D02*
X76072Y38371D01*
X74764Y37039D02*
Y37064D01*
X74271Y36545D02*
X74764Y37039D01*
X74271Y34447D02*
Y36545D01*
X82414Y32486D02*
Y32526D01*
X82759Y32872D01*
Y33934D01*
X21725Y21676D02*
X22256D01*
X20201Y23200D02*
X21725Y21676D01*
X19604Y23810D02*
X20201Y23212D01*
Y23200D02*
Y23212D01*
X17124Y21335D02*
Y21376D01*
Y21335D02*
X17751Y20708D01*
X21015Y18818D02*
X22486Y20289D01*
Y20551D01*
X22514Y20580D01*
X19465Y18115D02*
X20312D01*
X21015Y18818D01*
X17053Y19105D02*
X18188Y17970D01*
X17053Y19874D02*
X17858Y20679D01*
X17053Y19105D02*
Y19874D01*
X17751Y20708D02*
X17830D01*
X17858Y20679D01*
X17625Y47076D02*
Y47800D01*
X16110Y47074D02*
X16114Y47071D01*
X17630D01*
X15599Y47700D02*
X15603Y47704D01*
X16125D01*
Y47089D02*
Y47800D01*
X15599Y46320D02*
X16125D01*
X16114Y47071D02*
X16125Y47060D01*
Y46320D02*
Y47060D01*
X17630Y47071D02*
X17633Y47067D01*
X16110Y47074D02*
X16125Y47089D01*
X37941Y46457D02*
X37948Y46450D01*
X37950Y46448D01*
X33800Y58125D02*
X35216D01*
X35175Y58322D02*
X35200Y58297D01*
Y58215D02*
Y58297D01*
X35206Y58221D02*
Y58992D01*
X35211Y58997D01*
X37014Y63213D02*
X38479D01*
D163*
X22296Y34500D02*
X22700D01*
D164*
X9400Y35725D02*
X9713D01*
X9789Y35801D01*
X10676D01*
X10850Y35975D01*
D165*
X27812Y30412D02*
X28862Y29363D01*
D166*
X97300Y67300D02*
D03*
X2700Y2700D02*
D03*
X97300Y2700D02*
D03*
D167*
X92510Y2285D02*
D03*
X7420D02*
D03*
D168*
X87430D02*
D03*
X86160Y4190D02*
D03*
X84890Y2285D02*
D03*
X83620Y4190D02*
D03*
X82350Y2285D02*
D03*
X81080Y4190D02*
D03*
X79810Y2285D02*
D03*
X78540Y4190D02*
D03*
X77270Y2285D02*
D03*
X76000Y4190D02*
D03*
X74730Y2285D02*
D03*
X73460Y4190D02*
D03*
X72190Y2285D02*
D03*
X70920Y4190D02*
D03*
X69650Y2285D02*
D03*
X68380Y4190D02*
D03*
X67110Y2285D02*
D03*
X65840Y4190D02*
D03*
X64570Y2285D02*
D03*
X63300Y4190D02*
D03*
X62030Y2285D02*
D03*
X60760Y4190D02*
D03*
X59490Y2285D02*
D03*
X58220Y4190D02*
D03*
X56950Y2285D02*
D03*
X55680Y4190D02*
D03*
X54410Y2285D02*
D03*
X53140Y4190D02*
D03*
X51870Y2285D02*
D03*
X50600Y4190D02*
D03*
X49330Y2285D02*
D03*
X48060Y4190D02*
D03*
X46790Y2285D02*
D03*
X45520Y4190D02*
D03*
X44250Y2285D02*
D03*
X42980Y4190D02*
D03*
X41710Y2285D02*
D03*
X40440Y4190D02*
D03*
X39170Y2285D02*
D03*
X37900Y4190D02*
D03*
X36630Y2285D02*
D03*
X35360Y4190D02*
D03*
X34090Y2285D02*
D03*
X32820Y4190D02*
D03*
X31550Y2285D02*
D03*
X30280Y4190D02*
D03*
X27740D02*
D03*
X26470Y2285D02*
D03*
X25200Y4190D02*
D03*
X23930Y2285D02*
D03*
X22660Y4190D02*
D03*
X21390Y2285D02*
D03*
X20120Y4190D02*
D03*
X18850Y2285D02*
D03*
X17580Y4190D02*
D03*
X16310Y2285D02*
D03*
X15040Y4190D02*
D03*
X13770Y2285D02*
D03*
X12500Y4190D02*
D03*
X87430Y6095D02*
D03*
X86160Y8000D02*
D03*
X84890Y6095D02*
D03*
X83620Y8000D02*
D03*
X82350Y6095D02*
D03*
X81080Y8000D02*
D03*
X79810Y6095D02*
D03*
X78540Y8000D02*
D03*
X77270Y6095D02*
D03*
X76000Y8000D02*
D03*
X74730Y6095D02*
D03*
X73460Y8000D02*
D03*
X72190Y6095D02*
D03*
X70920Y8000D02*
D03*
X69650Y6095D02*
D03*
X68380Y8000D02*
D03*
X67110Y6095D02*
D03*
X65840Y8000D02*
D03*
X64570Y6095D02*
D03*
X63300Y8000D02*
D03*
X62030Y6095D02*
D03*
X60760Y8000D02*
D03*
X59490Y6095D02*
D03*
X58220Y8000D02*
D03*
X56950Y6095D02*
D03*
X55680Y8000D02*
D03*
X54410Y6095D02*
D03*
X53140Y8000D02*
D03*
X51870Y6095D02*
D03*
X50600Y8000D02*
D03*
X49330Y6095D02*
D03*
X48060Y8000D02*
D03*
X46790Y6095D02*
D03*
X45520Y8000D02*
D03*
X44250Y6095D02*
D03*
X42980Y8000D02*
D03*
X41710Y6095D02*
D03*
X40440Y8000D02*
D03*
X39170Y6095D02*
D03*
X37900Y8000D02*
D03*
X36630Y6095D02*
D03*
X35360Y8000D02*
D03*
X34090Y6095D02*
D03*
X32820Y8000D02*
D03*
X31550Y6095D02*
D03*
X29010D02*
D03*
X27740Y8000D02*
D03*
X26470Y6095D02*
D03*
X25200Y8000D02*
D03*
X23930Y6095D02*
D03*
X22660Y8000D02*
D03*
X21390Y6095D02*
D03*
X20120Y8000D02*
D03*
X18850Y6095D02*
D03*
X17580Y8000D02*
D03*
X16310Y6095D02*
D03*
X15040Y8000D02*
D03*
X13770Y6095D02*
D03*
X29010Y2285D02*
D03*
X30280Y8000D02*
D03*
D169*
X12500D02*
D03*
D170*
X34414Y67100D02*
D03*
X64290Y45200D02*
D03*
D171*
X26794Y67100D02*
D03*
X71910Y45200D02*
D03*
D172*
X75700Y45300D02*
D03*
X78240D02*
D03*
X80780D02*
D03*
X83320D02*
D03*
X85860D02*
D03*
D173*
X88400D02*
D03*
D174*
X6850Y62995D02*
D03*
Y54355D02*
D03*
D175*
X6200Y54655D02*
D03*
Y62695D02*
D03*
D176*
X1800Y62995D02*
D03*
Y54355D02*
D03*
D177*
X48925Y60525D02*
D03*
X41750Y56700D02*
D03*
X67333Y12929D02*
D03*
X66375Y13875D02*
D03*
X78231Y31218D02*
D03*
X15726Y34075D02*
D03*
X18075Y41625D02*
D03*
X41100Y62256D02*
D03*
X49450Y60090D02*
D03*
X47525Y60541D02*
D03*
X44797Y59065D02*
D03*
X44800Y60690D02*
D03*
X44900Y56300D02*
D03*
X44375Y55875D02*
D03*
X48025Y55916D02*
D03*
X48696D02*
D03*
X68100Y19350D02*
D03*
X66725Y20775D02*
D03*
X65625Y21800D02*
D03*
X69575Y25375D02*
D03*
X68425Y24208D02*
D03*
X67150Y22975D02*
D03*
X71175Y23825D02*
D03*
X70025Y22658D02*
D03*
X68750Y21425D02*
D03*
X70125Y20000D02*
D03*
X71400Y21233D02*
D03*
X72550Y22400D02*
D03*
X22316Y32068D02*
D03*
X37225Y41900D02*
D03*
X41791Y36155D02*
D03*
X43024D02*
D03*
X43900D02*
D03*
X39700Y37100D02*
D03*
X76550Y32800D02*
D03*
X80010Y36664D02*
D03*
X77812Y34088D02*
D03*
X78300Y38300D02*
D03*
X76600Y38400D02*
D03*
X20201Y23200D02*
D03*
X16900Y22700D02*
D03*
X3800Y35700D02*
D03*
X4500Y38950D02*
D03*
X40000Y49200D02*
D03*
X54026Y58500D02*
D03*
X15599Y47700D02*
D03*
X22150Y42700D02*
D03*
X23525Y42687D02*
D03*
X34725Y44600D02*
D03*
X37239Y44666D02*
D03*
X37900Y45700D02*
D03*
X33800Y58125D02*
D03*
X37174Y53574D02*
D03*
X38100Y54200D02*
D03*
X48827Y52163D02*
D03*
Y53539D02*
D03*
X18075Y38900D02*
D03*
X44900Y56975D02*
D03*
X42759Y55401D02*
D03*
X51512Y61813D02*
D03*
X23800Y21600D02*
D03*
X23100Y22300D02*
D03*
X67570Y30903D02*
D03*
X35312Y54865D02*
D03*
X75723Y25186D02*
D03*
X19991Y27490D02*
D03*
X65793Y15863D02*
D03*
X68575Y34688D02*
D03*
X17858Y23075D02*
D03*
X19376Y23260D02*
D03*
X31450Y61534D02*
D03*
Y62242D02*
D03*
X35273Y54204D02*
D03*
X38700Y47700D02*
D03*
X37900Y48400D02*
D03*
X41823Y67762D02*
D03*
X49900Y52000D02*
D03*
X29607Y54672D02*
D03*
X59375Y26850D02*
D03*
X6744Y59367D02*
D03*
X6725Y60025D02*
D03*
X6675Y58050D02*
D03*
X6750Y57250D02*
D03*
X50700Y52900D02*
D03*
X29625Y25425D02*
D03*
X30375Y51525D02*
D03*
X10825Y28025D02*
D03*
X10875Y28750D02*
D03*
X41233Y50950D02*
D03*
X53125Y49150D02*
D03*
X46075Y64625D02*
D03*
X76500Y10300D02*
D03*
X31050Y16525D02*
D03*
X31875Y22950D02*
D03*
X31425Y23425D02*
D03*
X30975Y23950D02*
D03*
X30425Y24425D02*
D03*
X70375Y50575D02*
D03*
X73375Y50625D02*
D03*
X64350D02*
D03*
X77757Y46822D02*
D03*
X69125Y43100D02*
D03*
X81425Y43825D02*
D03*
X85225Y43800D02*
D03*
X75134Y43784D02*
D03*
X88400Y42625D02*
D03*
X87675D02*
D03*
X89050Y43850D02*
D03*
X87675Y43300D02*
D03*
X54300Y49450D02*
D03*
X51924Y43319D02*
D03*
X50658Y42553D02*
D03*
X43900Y37100D02*
D03*
X31450Y60825D02*
D03*
Y59400D02*
D03*
X31500Y63450D02*
D03*
X30978Y55245D02*
D03*
X31600Y40510D02*
D03*
X32255D02*
D03*
X34725Y41800D02*
D03*
X40925Y39995D02*
D03*
X43450Y38900D02*
D03*
X41125Y38925D02*
D03*
X39850Y41900D02*
D03*
X42375Y38925D02*
D03*
X40975Y41175D02*
D03*
X40465Y36155D02*
D03*
X3308Y31304D02*
D03*
X2525Y29275D02*
D03*
X3300Y30075D02*
D03*
X8459Y34126D02*
D03*
X3450Y34125D02*
D03*
X18400Y34166D02*
D03*
X17400D02*
D03*
X32325Y35742D02*
D03*
X19575Y34450D02*
D03*
X54026Y64300D02*
D03*
X54808Y60717D02*
D03*
X40983Y68492D02*
D03*
X58446Y67338D02*
D03*
X54908Y62017D02*
D03*
X54933Y63442D02*
D03*
X54900Y59300D02*
D03*
X43850Y68375D02*
D03*
X40655Y43971D02*
D03*
X46750Y46250D02*
D03*
X38825Y46450D02*
D03*
X40696Y42699D02*
D03*
X39871Y44700D02*
D03*
X47900Y52875D02*
D03*
X49400Y58433D02*
D03*
X49367Y55916D02*
D03*
X46665Y58705D02*
D03*
X36100Y64513D02*
D03*
X35211Y58997D02*
D03*
X32550Y55600D02*
D03*
X35200Y55779D02*
D03*
X50707Y64975D02*
D03*
X51512Y61213D02*
D03*
X48400Y63600D02*
D03*
X47675Y63600D02*
D03*
X47486Y64300D02*
D03*
X49900Y65786D02*
D03*
X46595Y61310D02*
D03*
X44800Y61500D02*
D03*
X44797Y59757D02*
D03*
X43000Y67800D02*
D03*
X41923Y55948D02*
D03*
X41850Y57700D02*
D03*
X41750Y64538D02*
D03*
X41700Y60850D02*
D03*
X41000Y66800D02*
D03*
X44875Y63375D02*
D03*
X44844Y58352D02*
D03*
X32978Y53477D02*
D03*
X34125Y53300D02*
D03*
X33900Y50450D02*
D03*
X34725Y50425D02*
D03*
X35625Y50400D02*
D03*
X41250Y50271D02*
D03*
X39117Y55263D02*
D03*
X39850Y65575D02*
D03*
X38600Y65600D02*
D03*
X37583Y62192D02*
D03*
X37608Y59767D02*
D03*
X36958Y65342D02*
D03*
X37608Y61417D02*
D03*
X37600Y60575D02*
D03*
X34859Y48292D02*
D03*
X34225Y47675D02*
D03*
X33609Y47000D02*
D03*
X34859D02*
D03*
X33609Y48297D02*
D03*
X55056Y40010D02*
D03*
X55056Y42131D02*
D03*
X55056Y37728D02*
D03*
X69100Y41425D02*
D03*
X66350Y14975D02*
D03*
X67125Y17870D02*
D03*
X68425Y17875D02*
D03*
X69700Y15775D02*
D03*
X67075Y16250D02*
D03*
X65702Y14400D02*
D03*
X65025Y14750D02*
D03*
X63550Y10300D02*
D03*
X63200Y27875D02*
D03*
X64025Y31575D02*
D03*
X62550Y33650D02*
D03*
X63250Y30800D02*
D03*
X64100Y27550D02*
D03*
X65600Y26625D02*
D03*
X64150Y26400D02*
D03*
X65000Y32525D02*
D03*
X64533Y28054D02*
D03*
X69375Y10300D02*
D03*
X66275D02*
D03*
X71800Y10350D02*
D03*
X74764Y37064D02*
D03*
X69350Y32550D02*
D03*
X66975Y31750D02*
D03*
X68650Y30850D02*
D03*
X68400Y29350D02*
D03*
X70911Y28800D02*
D03*
X70975Y27600D02*
D03*
X72100Y26450D02*
D03*
X68975Y34200D02*
D03*
X81612Y35082D02*
D03*
X70700Y36950D02*
D03*
X74271Y34447D02*
D03*
X70125Y36425D02*
D03*
X68575Y36525D02*
D03*
X78536Y35166D02*
D03*
X62800Y23450D02*
D03*
X63750Y24450D02*
D03*
X63000Y22025D02*
D03*
X63575Y21391D02*
D03*
X65075Y24325D02*
D03*
X75300Y24725D02*
D03*
X78400Y23575D02*
D03*
X74850Y28425D02*
D03*
X78225Y24325D02*
D03*
X73050Y25575D02*
D03*
X76550Y30100D02*
D03*
Y26000D02*
D03*
X74000Y24650D02*
D03*
X74675Y20650D02*
D03*
X85300Y10275D02*
D03*
X78875Y10300D02*
D03*
X83100D02*
D03*
X80900D02*
D03*
X73900D02*
D03*
X82414Y32486D02*
D03*
X83125Y28700D02*
D03*
X82574Y28100D02*
D03*
X80935Y31174D02*
D03*
X75600Y31900D02*
D03*
X75100Y32400D02*
D03*
X73800Y33000D02*
D03*
X62275Y28700D02*
D03*
X57925Y28850D02*
D03*
X49350Y35000D02*
D03*
X61800Y33700D02*
D03*
X46575Y33825D02*
D03*
X62325Y29950D02*
D03*
X61750Y33025D02*
D03*
X34632Y26228D02*
D03*
X35611Y26766D02*
D03*
X37225Y27100D02*
D03*
X34029Y25619D02*
D03*
X38475Y16050D02*
D03*
X39975Y10300D02*
D03*
X31600Y16000D02*
D03*
X37175Y9650D02*
D03*
X34375Y9300D02*
D03*
X37200Y22150D02*
D03*
X36625Y21750D02*
D03*
X36050Y21325D02*
D03*
X35425Y20825D02*
D03*
X34750Y20375D02*
D03*
X38471Y19060D02*
D03*
X39675Y19014D02*
D03*
X61275Y27575D02*
D03*
X57075Y28225D02*
D03*
X59825Y27450D02*
D03*
X62050Y25300D02*
D03*
X61725Y19550D02*
D03*
X62225Y26675D02*
D03*
X35650Y28075D02*
D03*
X36500Y29250D02*
D03*
X41925Y32425D02*
D03*
X40450Y32450D02*
D03*
X42925Y10300D02*
D03*
X46225D02*
D03*
X58826D02*
D03*
X56725D02*
D03*
X53900D02*
D03*
X51225D02*
D03*
X49525Y10313D02*
D03*
X61675Y10300D02*
D03*
X19465Y18115D02*
D03*
X18188Y17970D02*
D03*
X26725Y9400D02*
D03*
X21700Y9825D02*
D03*
X5925Y22825D02*
D03*
X5133Y23879D02*
D03*
X10825Y27300D02*
D03*
Y24575D02*
D03*
X23057Y33973D02*
D03*
X24533Y32704D02*
D03*
X21600Y32766D02*
D03*
X21224Y33869D02*
D03*
X21176Y27451D02*
D03*
X20288Y33869D02*
D03*
X28000Y18100D02*
D03*
X27475Y20575D02*
D03*
X27786Y19403D02*
D03*
X26975Y17175D02*
D03*
X27900Y14550D02*
D03*
X7505Y34025D02*
D03*
X19324Y33850D02*
D03*
X14700Y35375D02*
D03*
X12263Y33765D02*
D03*
X9858Y34004D02*
D03*
X6300Y33900D02*
D03*
X3866Y32737D02*
D03*
X16800Y32700D02*
D03*
X10325Y31400D02*
D03*
X11408Y32729D02*
D03*
X9296Y32725D02*
D03*
X15650Y31450D02*
D03*
X21015Y18818D02*
D03*
X17858Y20679D02*
D03*
X17124Y21335D02*
D03*
X19603Y19077D02*
D03*
X25575Y26950D02*
D03*
X27462Y28793D02*
D03*
X26459Y27841D02*
D03*
X26225Y20550D02*
D03*
X22256Y21676D02*
D03*
X22514Y20580D02*
D03*
X26250Y17725D02*
D03*
X24410Y19393D02*
D03*
X25225Y22725D02*
D03*
X24125Y16800D02*
D03*
X23450Y17550D02*
D03*
X23175Y16525D02*
D03*
X24800Y23150D02*
D03*
X62971Y67338D02*
D03*
X30325Y11500D02*
D03*
X29850Y9775D02*
D03*
X30325Y10900D02*
D03*
X61100Y50625D02*
D03*
X59821Y67338D02*
D03*
X28350Y21400D02*
D03*
X38975Y36475D02*
D03*
X71248Y67338D02*
D03*
X68021D02*
D03*
X64747D02*
D03*
X61596D02*
D03*
X29875Y19900D02*
D03*
X28925Y18975D02*
D03*
X30375Y14673D02*
D03*
X30400Y15550D02*
D03*
X5900Y26350D02*
D03*
X5000Y25350D02*
D03*
X3300Y27175D02*
D03*
X4400Y34150D02*
D03*
X2508Y22429D02*
D03*
Y13329D02*
D03*
X4474Y35021D02*
D03*
X5414Y34166D02*
D03*
X6641Y34483D02*
D03*
X2425Y28025D02*
D03*
X1558Y32754D02*
D03*
X2533Y19504D02*
D03*
X2500Y10100D02*
D03*
X74750Y53000D02*
D03*
X73725Y53800D02*
D03*
X76200Y52975D02*
D03*
X72623Y67338D02*
D03*
X69372D02*
D03*
X66122D02*
D03*
X22150Y38200D02*
D03*
X24200D02*
D03*
X26250Y40475D02*
D03*
X23758Y36704D02*
D03*
X22296Y36579D02*
D03*
X23025Y35300D02*
D03*
X24800Y36450D02*
D03*
X5458Y39529D02*
D03*
X1608Y35404D02*
D03*
X6535Y35340D02*
D03*
X7000Y37000D02*
D03*
X8550Y52925D02*
D03*
X10975Y61350D02*
D03*
X9700Y61400D02*
D03*
X10800Y52925D02*
D03*
X11025Y60075D02*
D03*
X11083Y38254D02*
D03*
X13092Y43301D02*
D03*
X9990Y36931D02*
D03*
X12773Y42350D02*
D03*
X10808Y36829D02*
D03*
X11809Y36309D02*
D03*
X10050Y35325D02*
D03*
X7600Y36600D02*
D03*
X8450Y36625D02*
D03*
X8899Y38204D02*
D03*
X9400Y36500D02*
D03*
X30500Y64475D02*
D03*
X29635Y61009D02*
D03*
X31400Y58500D02*
D03*
X31500Y64400D02*
D03*
X30500Y58500D02*
D03*
X19225Y65450D02*
D03*
X18300D02*
D03*
Y66225D02*
D03*
X18325Y64625D02*
D03*
X19225Y66250D02*
D03*
Y64625D02*
D03*
X29141Y48225D02*
D03*
Y47275D02*
D03*
X26466Y46885D02*
D03*
Y45924D02*
D03*
Y45010D02*
D03*
X29790Y45617D02*
D03*
X25610Y45021D02*
D03*
X24818Y45014D02*
D03*
X25715Y46906D02*
D03*
X29141Y46324D02*
D03*
X18975Y42687D02*
D03*
X20100Y39500D02*
D03*
X18800Y39300D02*
D03*
X20800Y39500D02*
D03*
X20291Y43764D02*
D03*
X8575Y62975D02*
D03*
X10850Y63475D02*
D03*
X10050Y63500D02*
D03*
X17252Y65416D02*
D03*
X16522Y66262D02*
D03*
X7623Y66815D02*
D03*
X15475Y62350D02*
D03*
Y63025D02*
D03*
X11700Y63500D02*
D03*
X10953Y66792D02*
D03*
X10110Y65705D02*
D03*
X10049Y64474D02*
D03*
X8450Y66100D02*
D03*
X8225Y64700D02*
D03*
X13776Y67046D02*
D03*
X17375Y62350D02*
D03*
X16875Y40950D02*
D03*
X16110Y47074D02*
D03*
X15975Y40950D02*
D03*
X17633Y47067D02*
D03*
X16875Y42350D02*
D03*
X15051Y40950D02*
D03*
X15050Y42350D02*
D03*
X15599Y46320D02*
D03*
X28258Y53829D02*
D03*
X30400Y53561D02*
D03*
X22154Y49841D02*
D03*
X18750Y49843D02*
D03*
X23850Y51000D02*
D03*
X18600Y53875D02*
D03*
X25610Y49841D02*
D03*
X17330Y54655D02*
D03*
X17325Y53875D02*
D03*
X20505Y51000D02*
D03*
X16800Y36000D02*
D03*
X20800Y36579D02*
D03*
X20035Y36938D02*
D03*
X17500Y35200D02*
D03*
X21527Y36825D02*
D03*
X19495Y35429D02*
D03*
X7550Y61925D02*
D03*
X6700Y55625D02*
D03*
X7700Y55275D02*
D03*
M02*
