G04*
G04 #@! TF.GenerationSoftware,Altium Limited,Altium Designer,23.5.1 (21)*
G04*
G04 Layer_Color=32896*
%FSLAX43Y43*%
%MOMM*%
G71*
G04*
G04 #@! TF.SameCoordinates,3CC85EA5-9251-4F65-83BD-490A156F9735*
G04*
G04*
G04 #@! TF.FilePolarity,Positive*
G04*
G01*
G75*
%ADD21C,0.153*%
D21*
X12258Y57850D02*
Y58550D01*
X11908D01*
X11792Y58433D01*
Y58200D01*
X11908Y58083D01*
X12258D01*
X12025D02*
X11792Y57850D01*
X11092Y58550D02*
X11325Y58433D01*
X11558Y58200D01*
Y57967D01*
X11442Y57850D01*
X11208D01*
X11092Y57967D01*
Y58083D01*
X11208Y58200D01*
X11558D01*
X10392Y57850D02*
X10858D01*
X10392Y58317D01*
Y58433D01*
X10509Y58550D01*
X10742D01*
X10858Y58433D01*
X12258Y58925D02*
Y59625D01*
X11908D01*
X11792Y59508D01*
Y59275D01*
X11908Y59158D01*
X12258D01*
X12025D02*
X11792Y58925D01*
X11092Y59625D02*
X11325Y59508D01*
X11558Y59275D01*
Y59042D01*
X11442Y58925D01*
X11208D01*
X11092Y59042D01*
Y59158D01*
X11208Y59275D01*
X11558D01*
X10858Y58925D02*
X10625D01*
X10742D01*
Y59625D01*
X10858Y59508D01*
X23140Y27570D02*
Y27735D01*
X23305Y27900D01*
X23470D01*
X23800Y27570D01*
Y27405D01*
X23635Y27240D01*
X23470D01*
X23057Y26663D02*
X23387Y26993D01*
X22728D01*
X22645Y27075D01*
Y27240D01*
X22810Y27405D01*
X22975D01*
X22810Y26580D02*
Y26415D01*
X22645Y26250D01*
X22480D01*
X22150Y26580D01*
Y26745D01*
X22315Y26910D01*
X22480D01*
X22563Y26828D01*
Y26663D01*
X22315Y26415D01*
X70125Y27300D02*
X69658D01*
X69891D01*
Y26600D01*
X69425D02*
Y27300D01*
X69075D01*
X68958Y27183D01*
Y26950D01*
X69075Y26833D01*
X69425D01*
X68725Y26600D02*
X68492D01*
X68608D01*
Y27300D01*
X68725Y27183D01*
X68142Y26717D02*
X68025Y26600D01*
X67792D01*
X67675Y26717D01*
Y27183D01*
X67792Y27300D01*
X68025D01*
X68142Y27183D01*
Y27067D01*
X68025Y26950D01*
X67675D01*
X72125Y31675D02*
X71658D01*
X71891D01*
Y30975D01*
X71425D02*
Y31675D01*
X71075D01*
X70958Y31558D01*
Y31325D01*
X71075Y31208D01*
X71425D01*
X70725Y30975D02*
X70492D01*
X70608D01*
Y31675D01*
X70725Y31558D01*
X70142Y31675D02*
X69675D01*
Y31558D01*
X70142Y31092D01*
Y30975D01*
X65282Y32787D02*
X64787Y33282D01*
X64540Y33035D01*
Y32870D01*
X64705Y32705D01*
X64870D01*
X65117Y32952D01*
X64952Y32787D02*
Y32457D01*
X64457Y31963D02*
X64787Y32293D01*
X64128D01*
X64045Y32375D01*
Y32540D01*
X64210Y32705D01*
X64375D01*
X63880Y32210D02*
X63715D01*
X63550Y32045D01*
Y31880D01*
X63633Y31798D01*
X63798D01*
Y31633D01*
X63880Y31550D01*
X64045D01*
X64210Y31715D01*
Y31880D01*
X64128Y31963D01*
X63963D01*
Y32128D01*
X63880Y32210D01*
X63963Y31963D02*
X63798Y31798D01*
X63507Y30987D02*
X63012Y31482D01*
X62765Y31235D01*
Y31070D01*
X62930Y30905D01*
X63095D01*
X63342Y31152D01*
X63177Y30987D02*
Y30657D01*
X62682Y30163D02*
X63012Y30493D01*
X62353D01*
X62270Y30575D01*
Y30740D01*
X62435Y30905D01*
X62600D01*
X62023Y30493D02*
X61693Y30163D01*
X61775Y30080D01*
X62435D01*
X62518Y29998D01*
X74832Y31012D02*
X74337Y31507D01*
X74090Y31260D01*
Y31095D01*
X74255Y30930D01*
X74420D01*
X74667Y31177D01*
X74502Y31012D02*
Y30682D01*
X74007Y30188D02*
X74337Y30518D01*
X73678D01*
X73595Y30600D01*
Y30765D01*
X73760Y30930D01*
X73925D01*
X73018Y30188D02*
X73265Y30270D01*
X73595D01*
X73760Y30105D01*
Y29940D01*
X73595Y29775D01*
X73430D01*
X73348Y29858D01*
Y30023D01*
X73595Y30270D01*
X22775Y28555D02*
X22280Y29050D01*
X22032Y28802D01*
Y28637D01*
X22197Y28472D01*
X22362D01*
X22610Y28720D01*
X22445Y28555D02*
Y28225D01*
X21950Y27730D02*
X22280Y28060D01*
X21620D01*
X21538Y28143D01*
Y28307D01*
X21703Y28472D01*
X21868D01*
X21785Y27565D02*
X21620Y27400D01*
X21703Y27483D01*
X21208Y27978D01*
X21373D01*
X33050Y11875D02*
Y12575D01*
X32700D01*
X32583Y12458D01*
Y12225D01*
X32700Y12108D01*
X33050D01*
X32816D02*
X32583Y11875D01*
X32350D02*
X32117D01*
X32233D01*
Y12575D01*
X32350Y12458D01*
X31767D02*
X31650Y12575D01*
X31417D01*
X31300Y12458D01*
Y12342D01*
X31417Y12225D01*
X31300Y12108D01*
Y11992D01*
X31417Y11875D01*
X31650D01*
X31767Y11992D01*
Y12108D01*
X31650Y12225D01*
X31767Y12342D01*
Y12458D01*
X31650Y12225D02*
X31417D01*
X41770Y57362D02*
Y56662D01*
X41303D01*
X40603D02*
X41070D01*
X40603Y57129D01*
Y57245D01*
X40720Y57362D01*
X40953D01*
X41070Y57245D01*
X41742Y64225D02*
Y63525D01*
X41275D01*
X41042D02*
X40808D01*
X40925D01*
Y64225D01*
X41042Y64108D01*
X96842Y7000D02*
X97308D01*
Y6650D01*
X97075D01*
X97308D01*
Y6300D01*
X96608Y7000D02*
Y6300D01*
X96258D01*
X96142Y6417D01*
Y6883D01*
X96258Y7000D01*
X96608D01*
X95559Y6300D02*
Y7000D01*
X95908Y6650D01*
X95442D01*
X9492Y68450D02*
X9958D01*
Y68100D01*
X9725D01*
X9958D01*
Y67750D01*
X9258Y68450D02*
Y67750D01*
X8908D01*
X8792Y67867D01*
Y68333D01*
X8908Y68450D01*
X9258D01*
X8558Y68333D02*
X8442Y68450D01*
X8209D01*
X8092Y68333D01*
Y68217D01*
X8209Y68100D01*
X8325D01*
X8209D01*
X8092Y67983D01*
Y67867D01*
X8209Y67750D01*
X8442D01*
X8558Y67867D01*
X89358Y42675D02*
Y41975D01*
X89008D01*
X88892Y42092D01*
Y42558D01*
X89008Y42675D01*
X89358D01*
X88658Y42558D02*
X88542Y42675D01*
X88308D01*
X88192Y42558D01*
Y42442D01*
X88308Y42325D01*
X88192Y42208D01*
Y42092D01*
X88308Y41975D01*
X88542D01*
X88658Y42092D01*
Y42208D01*
X88542Y42325D01*
X88658Y42442D01*
Y42558D01*
X88542Y42325D02*
X88308D01*
X86183Y42675D02*
Y41975D01*
X85833D01*
X85717Y42092D01*
Y42558D01*
X85833Y42675D01*
X86183D01*
X85483D02*
X85017D01*
Y42558D01*
X85483Y42092D01*
Y41975D01*
X81708Y42675D02*
Y41975D01*
X81358D01*
X81242Y42092D01*
Y42558D01*
X81358Y42675D01*
X81708D01*
X80542D02*
X80775Y42558D01*
X81008Y42325D01*
Y42092D01*
X80892Y41975D01*
X80658D01*
X80542Y42092D01*
Y42208D01*
X80658Y42325D01*
X81008D01*
X78633Y48675D02*
Y47975D01*
X78283D01*
X78167Y48092D01*
Y48558D01*
X78283Y48675D01*
X78633D01*
X77467D02*
X77933D01*
Y48325D01*
X77700Y48442D01*
X77583D01*
X77467Y48325D01*
Y48092D01*
X77583Y47975D01*
X77817D01*
X77933Y48092D01*
X76008Y42675D02*
Y41975D01*
X75658D01*
X75542Y42092D01*
Y42558D01*
X75658Y42675D01*
X76008D01*
X74958Y41975D02*
Y42675D01*
X75308Y42325D01*
X74842D01*
X46333Y64008D02*
X46450Y64125D01*
X46683D01*
X46800Y64008D01*
Y63542D01*
X46683Y63425D01*
X46450D01*
X46333Y63542D01*
X46100Y63425D02*
X45867D01*
X45983D01*
Y64125D01*
X46100Y64008D01*
X45517D02*
X45400Y64125D01*
X45167D01*
X45050Y64008D01*
Y63542D01*
X45167Y63425D01*
X45400D01*
X45517Y63542D01*
Y64008D01*
X49142D02*
X49258Y64125D01*
X49492D01*
X49608Y64008D01*
Y63542D01*
X49492Y63425D01*
X49258D01*
X49142Y63542D01*
X48908D02*
X48792Y63425D01*
X48558D01*
X48442Y63542D01*
Y64008D01*
X48558Y64125D01*
X48792D01*
X48908Y64008D01*
Y63892D01*
X48792Y63775D01*
X48442D01*
X50617Y60333D02*
X50733Y60450D01*
X50967D01*
X51083Y60333D01*
Y59867D01*
X50967Y59750D01*
X50733D01*
X50617Y59867D01*
X50383Y60333D02*
X50267Y60450D01*
X50033D01*
X49917Y60333D01*
Y60217D01*
X50033Y60100D01*
X49917Y59983D01*
Y59867D01*
X50033Y59750D01*
X50267D01*
X50383Y59867D01*
Y59983D01*
X50267Y60100D01*
X50383Y60217D01*
Y60333D01*
X50267Y60100D02*
X50033D01*
X47617Y60308D02*
X47733Y60425D01*
X47967D01*
X48083Y60308D01*
Y59842D01*
X47967Y59725D01*
X47733D01*
X47617Y59842D01*
X47383Y60425D02*
X46917D01*
Y60308D01*
X47383Y59842D01*
Y59725D01*
X41303Y60065D02*
X41420Y60181D01*
X41653D01*
X41770Y60065D01*
Y59598D01*
X41653Y59481D01*
X41420D01*
X41303Y59598D01*
X40603Y60181D02*
X40836Y60065D01*
X41070Y59831D01*
Y59598D01*
X40953Y59481D01*
X40720D01*
X40603Y59598D01*
Y59715D01*
X40720Y59831D01*
X41070D01*
X41303Y58617D02*
X41420Y58733D01*
X41653D01*
X41770Y58617D01*
Y58150D01*
X41653Y58034D01*
X41420D01*
X41303Y58150D01*
X40603Y58733D02*
X41070D01*
Y58383D01*
X40836Y58500D01*
X40720D01*
X40603Y58383D01*
Y58150D01*
X40720Y58034D01*
X40953D01*
X41070Y58150D01*
X41303Y62808D02*
X41420Y62924D01*
X41653D01*
X41770Y62808D01*
Y62341D01*
X41653Y62225D01*
X41420D01*
X41303Y62341D01*
X40720Y62225D02*
Y62924D01*
X41070Y62574D01*
X40603D01*
X41303Y61385D02*
X41420Y61502D01*
X41653D01*
X41770Y61385D01*
Y60919D01*
X41653Y60802D01*
X41420D01*
X41303Y60919D01*
X41070Y61385D02*
X40953Y61502D01*
X40720D01*
X40603Y61385D01*
Y61269D01*
X40720Y61152D01*
X40836D01*
X40720D01*
X40603Y61035D01*
Y60919D01*
X40720Y60802D01*
X40953D01*
X41070Y60919D01*
X6842Y46283D02*
X6958Y46400D01*
X7191D01*
X7308Y46283D01*
Y45817D01*
X7191Y45700D01*
X6958D01*
X6842Y45817D01*
X6142Y46400D02*
X6375Y46283D01*
X6608Y46050D01*
Y45817D01*
X6492Y45700D01*
X6258D01*
X6142Y45817D01*
Y45933D01*
X6258Y46050D01*
X6608D01*
X5442Y45700D02*
X5908D01*
X5442Y46167D01*
Y46283D01*
X5559Y46400D01*
X5792D01*
X5908Y46283D01*
X6750Y41633D02*
X6867Y41750D01*
X7100D01*
X7216Y41633D01*
Y41167D01*
X7100Y41050D01*
X6867D01*
X6750Y41167D01*
X6050Y41750D02*
X6283Y41633D01*
X6517Y41400D01*
Y41167D01*
X6400Y41050D01*
X6167D01*
X6050Y41167D01*
Y41283D01*
X6167Y41400D01*
X6517D01*
X5817Y41050D02*
X5584D01*
X5700D01*
Y41750D01*
X5817Y41633D01*
X8367Y53183D02*
X8483Y53300D01*
X8716D01*
X8833Y53183D01*
Y52717D01*
X8716Y52600D01*
X8483D01*
X8367Y52717D01*
X7667Y53300D02*
X8133D01*
Y52950D01*
X7900Y53067D01*
X7783D01*
X7667Y52950D01*
Y52717D01*
X7783Y52600D01*
X8017D01*
X8133Y52717D01*
X7433Y53183D02*
X7317Y53300D01*
X7084D01*
X6967Y53183D01*
Y53067D01*
X7084Y52950D01*
X6967Y52833D01*
Y52717D01*
X7084Y52600D01*
X7317D01*
X7433Y52717D01*
Y52833D01*
X7317Y52950D01*
X7433Y53067D01*
Y53183D01*
X7317Y52950D02*
X7084D01*
X8242Y47658D02*
X8358Y47775D01*
X8591D01*
X8708Y47658D01*
Y47192D01*
X8591Y47075D01*
X8358D01*
X8242Y47192D01*
X7542Y47775D02*
X8008D01*
Y47425D01*
X7775Y47542D01*
X7658D01*
X7542Y47425D01*
Y47192D01*
X7658Y47075D01*
X7892D01*
X8008Y47192D01*
X7308Y47775D02*
X6842D01*
Y47658D01*
X7308Y47192D01*
Y47075D01*
X63165Y34270D02*
Y34435D01*
X63330Y34600D01*
X63495D01*
X63825Y34270D01*
Y34105D01*
X63660Y33940D01*
X63495D01*
X62588Y33857D02*
X62918Y34187D01*
X63165Y33940D01*
X62918Y33857D01*
X62835Y33775D01*
Y33610D01*
X63000Y33445D01*
X63165D01*
X63330Y33610D01*
Y33775D01*
X62093Y33363D02*
X62423Y33693D01*
X62670Y33445D01*
X62423Y33363D01*
X62340Y33280D01*
Y33115D01*
X62505Y32950D01*
X62670D01*
X62835Y33115D01*
Y33280D01*
X63865Y33595D02*
Y33760D01*
X64030Y33925D01*
X64195D01*
X64525Y33595D01*
Y33430D01*
X64360Y33265D01*
X64195D01*
X63288Y33182D02*
X63618Y33512D01*
X63865Y33265D01*
X63618Y33182D01*
X63535Y33100D01*
Y32935D01*
X63700Y32770D01*
X63865D01*
X64030Y32935D01*
Y33100D01*
X63370Y32275D02*
X62875Y32770D01*
X63370D01*
X63040Y32440D01*
X61415Y32545D02*
Y32710D01*
X61580Y32875D01*
X61745D01*
X62075Y32545D01*
Y32380D01*
X61910Y32215D01*
X61745D01*
X61415Y31720D02*
X60920Y32215D01*
X61415D01*
X61085Y31885D01*
Y31555D02*
Y31390D01*
X60920Y31225D01*
X60755D01*
X60425Y31555D01*
Y31720D01*
X60590Y31885D01*
X60755D01*
X60838Y31803D01*
Y31638D01*
X60590Y31390D01*
X62140Y31845D02*
Y32010D01*
X62305Y32175D01*
X62470D01*
X62800Y31845D01*
Y31680D01*
X62635Y31515D01*
X62470D01*
X62140Y31020D02*
X61645Y31515D01*
X62140D01*
X61810Y31185D01*
X61480D02*
X61315D01*
X61150Y31020D01*
Y30855D01*
X61233Y30773D01*
X61398D01*
Y30608D01*
X61480Y30525D01*
X61645D01*
X61810Y30690D01*
Y30855D01*
X61728Y30938D01*
X61563D01*
Y31103D01*
X61480Y31185D01*
X61563Y30938D02*
X61398Y30773D01*
X77140Y28170D02*
Y28335D01*
X77305Y28500D01*
X77470D01*
X77800Y28170D01*
Y28005D01*
X77635Y27840D01*
X77470D01*
X77140Y27345D02*
X76645Y27840D01*
X77140D01*
X76810Y27510D01*
X76398Y27593D02*
X76068Y27263D01*
X76150Y27180D01*
X76810D01*
X76893Y27098D01*
X69265Y17095D02*
Y17260D01*
X69430Y17425D01*
X69595D01*
X69925Y17095D01*
Y16930D01*
X69760Y16765D01*
X69595D01*
X69265Y16270D02*
X68770Y16765D01*
X69265D01*
X68935Y16435D01*
X68193Y16188D02*
X68440Y16270D01*
X68770D01*
X68935Y16105D01*
Y15940D01*
X68770Y15775D01*
X68605D01*
X68523Y15858D01*
Y16023D01*
X68770Y16270D01*
X66045Y20585D02*
X66210D01*
X66375Y20420D01*
Y20255D01*
X66045Y19925D01*
X65880D01*
X65715Y20090D01*
Y20255D01*
X65220Y20585D02*
X65715Y21080D01*
Y20585D01*
X65385Y20915D01*
X65138Y21657D02*
X65468Y21327D01*
X65220Y21080D01*
X65138Y21327D01*
X65055Y21410D01*
X64890D01*
X64725Y21245D01*
Y21080D01*
X64890Y20915D01*
X65055D01*
X66995Y35110D02*
X67160D01*
X67325Y34945D01*
Y34780D01*
X66995Y34450D01*
X66830D01*
X66665Y34615D01*
Y34780D01*
X66170Y35110D02*
X66665Y35605D01*
Y35110D01*
X66335Y35440D01*
X65675Y35605D02*
X66170Y36100D01*
Y35605D01*
X65840Y35935D01*
X59640Y24420D02*
Y24585D01*
X59805Y24750D01*
X59970D01*
X60300Y24420D01*
Y24255D01*
X60135Y24090D01*
X59970D01*
X59640Y23595D02*
X59145Y24090D01*
X59640D01*
X59310Y23760D01*
X58980D02*
X58815D01*
X58650Y23595D01*
Y23430D01*
X58733Y23348D01*
X58898D01*
X58980Y23430D01*
X58898Y23348D01*
Y23183D01*
X58980Y23100D01*
X59145D01*
X59310Y23265D01*
Y23430D01*
X76165Y29145D02*
Y29310D01*
X76330Y29475D01*
X76495D01*
X76825Y29145D01*
Y28980D01*
X76660Y28815D01*
X76495D01*
X76165Y28320D02*
X75670Y28815D01*
X76165D01*
X75835Y28485D01*
X75588Y27743D02*
X75918Y28073D01*
X75258D01*
X75175Y28155D01*
Y28320D01*
X75340Y28485D01*
X75505D01*
X70207Y16212D02*
Y16377D01*
X70372Y16542D01*
X70537D01*
X70867Y16212D01*
Y16047D01*
X70702Y15882D01*
X70537D01*
X70207Y15388D02*
X69713Y15882D01*
X70207D01*
X69878Y15553D01*
X69960Y15140D02*
X69795Y14975D01*
X69878Y15058D01*
X69383Y15553D01*
X69548D01*
X66945Y21560D02*
X67110D01*
X67275Y21395D01*
Y21230D01*
X66945Y20900D01*
X66780D01*
X66615Y21065D01*
Y21230D01*
X66120Y21560D02*
X66615Y22055D01*
Y21560D01*
X66285Y21890D01*
Y22220D02*
Y22385D01*
X66120Y22550D01*
X65955D01*
X65625Y22220D01*
Y22055D01*
X65790Y21890D01*
X65955D01*
X66285Y22220D01*
X66145Y34210D02*
X66310D01*
X66475Y34045D01*
Y33880D01*
X66145Y33550D01*
X65980D01*
X65815Y33715D01*
Y33880D01*
X65980Y34375D02*
Y34540D01*
X65815Y34705D01*
X65650D01*
X65568Y34622D01*
Y34457D01*
X65650Y34375D01*
X65568Y34457D01*
X65403D01*
X65320Y34375D01*
Y34210D01*
X65485Y34045D01*
X65650D01*
X65155Y34540D02*
X64990D01*
X64825Y34705D01*
Y34870D01*
X65155Y35200D01*
X65320D01*
X65485Y35035D01*
Y34870D01*
X65403Y34787D01*
X65238D01*
X64990Y35035D01*
X58840Y25420D02*
Y25585D01*
X59005Y25750D01*
X59170D01*
X59500Y25420D01*
Y25255D01*
X59335Y25090D01*
X59170D01*
X58675Y25255D02*
X58510D01*
X58345Y25090D01*
Y24925D01*
X58428Y24843D01*
X58593D01*
X58675Y24925D01*
X58593Y24843D01*
Y24678D01*
X58675Y24595D01*
X58840D01*
X59005Y24760D01*
Y24925D01*
X58180Y24760D02*
X58015D01*
X57850Y24595D01*
Y24430D01*
X57933Y24348D01*
X58098D01*
Y24183D01*
X58180Y24100D01*
X58345D01*
X58510Y24265D01*
Y24430D01*
X58428Y24513D01*
X58263D01*
Y24678D01*
X58180Y24760D01*
X58263Y24513D02*
X58098Y24348D01*
X75165Y30095D02*
Y30260D01*
X75330Y30425D01*
X75495D01*
X75825Y30095D01*
Y29930D01*
X75660Y29765D01*
X75495D01*
X75000Y29930D02*
X74835D01*
X74670Y29765D01*
Y29600D01*
X74753Y29518D01*
X74918D01*
X75000Y29600D01*
X74918Y29518D01*
Y29353D01*
X75000Y29270D01*
X75165D01*
X75330Y29435D01*
Y29600D01*
X74423Y29518D02*
X74093Y29188D01*
X74175Y29105D01*
X74835D01*
X74918Y29023D01*
X24990Y25545D02*
Y25710D01*
X25155Y25875D01*
X25320D01*
X25650Y25545D01*
Y25380D01*
X25485Y25215D01*
X25320D01*
X24825Y25380D02*
X24660D01*
X24495Y25215D01*
Y25050D01*
X24578Y24968D01*
X24743D01*
X24825Y25050D01*
X24743Y24968D01*
Y24803D01*
X24825Y24720D01*
X24990D01*
X25155Y24885D01*
Y25050D01*
X24330Y24885D02*
X24165D01*
X24000Y24720D01*
Y24555D01*
X24083Y24473D01*
X24248D01*
X24330Y24555D01*
X24248Y24473D01*
Y24308D01*
X24330Y24225D01*
X24495D01*
X24660Y24390D01*
Y24555D01*
X25520Y17485D02*
X25685D01*
X25850Y17320D01*
Y17155D01*
X25520Y16825D01*
X25355D01*
X25190Y16990D01*
Y17155D01*
X25355Y17650D02*
Y17815D01*
X25190Y17980D01*
X25025D01*
X24943Y17897D01*
Y17732D01*
X25025Y17650D01*
X24943Y17732D01*
X24778D01*
X24695Y17650D01*
Y17485D01*
X24860Y17320D01*
X25025D01*
X24118Y18062D02*
X24448Y17732D01*
Y18392D01*
X24530Y18475D01*
X24695D01*
X24860Y18310D01*
Y18145D01*
X24057Y26487D02*
Y26652D01*
X24222Y26817D01*
X24387D01*
X24717Y26487D01*
Y26322D01*
X24552Y26157D01*
X24387D01*
X23893Y26322D02*
X23728D01*
X23563Y26157D01*
Y25993D01*
X23645Y25910D01*
X23810D01*
X23893Y25993D01*
X23810Y25910D01*
Y25745D01*
X23893Y25663D01*
X24057D01*
X24222Y25828D01*
Y25993D01*
X23810Y25415D02*
X23645Y25250D01*
X23728Y25333D01*
X23233Y25828D01*
X23398D01*
X24645Y16610D02*
X24810D01*
X24975Y16445D01*
Y16280D01*
X24645Y15950D01*
X24480D01*
X24315Y16115D01*
Y16280D01*
X24480Y16775D02*
Y16940D01*
X24315Y17105D01*
X24150D01*
X24068Y17022D01*
Y16857D01*
X24150Y16775D01*
X24068Y16857D01*
X23903D01*
X23820Y16775D01*
Y16610D01*
X23985Y16445D01*
X24150D01*
X23985Y17270D02*
Y17435D01*
X23820Y17600D01*
X23655D01*
X23325Y17270D01*
Y17105D01*
X23490Y16940D01*
X23655D01*
X23985Y17270D01*
X32395Y19635D02*
X32560D01*
X32725Y19470D01*
Y19305D01*
X32395Y18975D01*
X32230D01*
X32065Y19140D01*
Y19305D01*
X31488Y19718D02*
X31818Y19388D01*
Y20047D01*
X31900Y20130D01*
X32065D01*
X32230Y19965D01*
Y19800D01*
X30993Y20212D02*
X31323Y19882D01*
Y20542D01*
X31405Y20625D01*
X31570D01*
X31735Y20460D01*
Y20295D01*
X28512Y23193D02*
X28677D01*
X28842Y23028D01*
Y22863D01*
X28512Y22533D01*
X28347D01*
X28182Y22698D01*
Y22863D01*
X27605Y23275D02*
X27935Y22945D01*
Y23605D01*
X28018Y23687D01*
X28182D01*
X28347Y23522D01*
Y23357D01*
X27440Y23440D02*
X27275Y23605D01*
X27358Y23522D01*
X27853Y24017D01*
Y23852D01*
X33295Y20585D02*
X33460D01*
X33625Y20420D01*
Y20255D01*
X33295Y19925D01*
X33130D01*
X32965Y20090D01*
Y20255D01*
X32388Y20668D02*
X32718Y20338D01*
Y20997D01*
X32800Y21080D01*
X32965D01*
X33130Y20915D01*
Y20750D01*
X32635Y21245D02*
Y21410D01*
X32470Y21575D01*
X32305D01*
X31975Y21245D01*
Y21080D01*
X32140Y20915D01*
X32305D01*
X32635Y21245D01*
X25929Y20626D02*
X26094D01*
X26258Y20461D01*
Y20296D01*
X25929Y19967D01*
X25764D01*
X25599Y20131D01*
Y20296D01*
X25351Y20379D02*
X25186Y20544D01*
X25269Y20461D01*
X25764Y20956D01*
Y20791D01*
X25021Y20874D02*
X24856D01*
X24692Y21039D01*
Y21204D01*
X25021Y21533D01*
X25186D01*
X25351Y21369D01*
Y21204D01*
X25269Y21121D01*
X25104D01*
X24856Y21369D01*
X34229Y21526D02*
X34394D01*
X34558Y21361D01*
Y21196D01*
X34229Y20867D01*
X34064D01*
X33899Y21031D01*
Y21196D01*
X33651Y21279D02*
X33486Y21444D01*
X33569Y21361D01*
X34064Y21856D01*
Y21691D01*
X33651Y22104D02*
Y22269D01*
X33486Y22433D01*
X33321D01*
X33239Y22351D01*
Y22186D01*
X33074D01*
X32992Y22104D01*
Y21939D01*
X33156Y21774D01*
X33321D01*
X33404Y21856D01*
Y22021D01*
X33569D01*
X33651Y22104D01*
X33404Y22021D02*
X33239Y22186D01*
M02*
